<?xml version="1.0" encoding="utf-8"?><svg width="21" height="22" fill="none" xmlns="http://www.w3.org/2000/svg" viewBox="0 0 21 22"><path d="M7.403 2.69v.001L4.816 4.092h-.001c-.586.321-.982.902-1.063 1.552-.316 2.544.256 5.341 1.633 7.877 1.38 2.54 3.414 4.547 5.712 5.661h0l.004.002a2.07 2.07 0 001.876-.044h0l2.584-1.401c.256-.139.441-.367.524-.646h0a1.08 1.08 0 00-.087-.827h0l-1.513-2.783h0a1.078 1.078 0 00-.646-.525h0a1.08 1.08 0 00-.825.087h0l-2.037 1.105-.305.166-.262-.228a8.228 8.228 0 01-1.837-2.299 8.198 8.198 0 01-.92-2.793l-.047-.343.305-.165 2.036-1.104c.256-.139.441-.367.524-.646h0a1.079 1.079 0 00-.087-.825h0L8.873 3.127a1.078 1.078 0 00-.646-.525h0a1.08 1.08 0 00-.825.088z" stroke="#5B9739"/></svg>