<?xml version="1.0" encoding="utf-8"?><svg width="18" height="22" fill="none" xmlns="http://www.w3.org/2000/svg" viewBox="0 0 18 22"><path d="M15.008 3.02l.001.001a8.524 8.524 0 011.842 2.785 8.737 8.737 0 010 6.613 8.523 8.523 0 01-1.842 2.785h0l-6.01 6.084-6.007-6.083-.001-.001a8.524 8.524 0 01-1.842-2.785 8.737 8.737 0 010-6.613A8.524 8.524 0 012.99 3.021h0a8.422 8.422 0 0112.017 0zm-8.357 8.638l.001.001a3.257 3.257 0 004.695 0h0c.62-.639.964-1.5.964-2.396 0-.895-.345-1.757-.963-2.395h0a3.255 3.255 0 00-4.696 0h0a3.442 3.442 0 00-.964 2.395c0 .895.345 1.757.963 2.395z" stroke="#5B9739"/></svg>