<?xml version="1.0" encoding="utf-8"?><svg width="66" height="78" fill="none" xmlns="http://www.w3.org/2000/svg" viewBox="0 0 66 78"><path d="M9.666 9.462c12.887-12.616 33.781-12.616 46.668 0a31.934 31.934 0 017.151 10.451 31.807 31.807 0 010 24.79 31.934 31.934 0 01-7.151 10.45L32.998 78 9.666 55.154a31.933 31.933 0 01-7.151-10.452 31.807 31.807 0 010-24.788A31.933 31.933 0 019.666 9.461z" fill="#5B9739"/><path d="M33 22.835l8.522 4.876L33 32.629l-8.479-4.918 8.48-4.876z" fill="#9BCB8B"/><path d="M33 13l-17 9.835 8.521 4.876L33 22.835l8.521 4.876L50 22.835 33 13zM41.521 37.546L33 42.464l-8.479-4.918L16 42.464l17 9.835 17-9.835-8.479-4.918z" fill="#FFFFFC"/><path d="M24.521 27.71l8.48 4.919v9.835l-8.48-4.918v-9.835z" fill="#619F57"/><path d="M16 22.835l8.521 4.876v9.835L16 32.63v-9.794zM41.522 27.71L50 32.63v9.835l-8.478-4.918v-9.835z" fill="#B2B2B2"/><path d="M41.521 27.71L33 32.63v9.835l8.521-4.918v-9.835z" fill="#159633"/></svg>