<?xml version="1.0" encoding="utf-8"?><svg width="220" height="51" fill="none" xmlns="http://www.w3.org/2000/svg" viewBox="0 0 220 51"><path d="M21.664 12.488l10.832 6.29-10.832 6.245-10.832-6.244 10.832-6.291z" fill="#FFFFFC"/><path d="M21.664 0L0 12.488l10.832 6.29 10.832-6.29 10.832 6.29 10.832-6.29L21.664 0zM32.496 31.267L21.664 37.51l-10.832-6.243L0 37.51l21.664 12.535L43.328 37.51l-10.832-6.243z" fill="#619F57"/><path d="M10.832 18.779l10.832 6.244V37.51l-10.832-6.244V18.78z" fill="#DADADA"/><path d="M0 12.488l10.832 6.29v12.489L0 25.023V12.488zM32.496 18.779l10.832 6.244V37.51l-10.832-6.244V18.78z" fill="#159633"/><path d="M32.496 18.779l-10.832 6.244V37.51l10.832-6.244V18.78z" fill="#B2B2B2"/><path d="M62.06 16.65V7.285l3.784-2.223h8.23l3.784 2.223v4.399h-4.54v-2.65h-6.67v5.535h7.474l3.784 2.223v9.555l-3.784 2.223H65.56l-3.784-2.223v-4.399h4.54v2.65h7.001v-5.724h-7.473L62.06 16.65zM99.759 28.381V15.326h-.047l-4.447 13.055h-3.69L87.13 15.137h-.047v13.244h-3.737V8.61h5.203l4.92 14.57h.047l4.872-14.57h5.156v19.773h-3.784zM117.544 8.61l6.954 19.772h-3.832l-1.466-4.258h-7.285l-1.466 4.258h-3.831l6.906-19.773h4.02zm-2.034 4.966l-2.459 7.143h4.919l-2.412-7.143h-.048zM142.33 28.381h-4.304l-4.163-7.473h-2.412v7.473h-3.879V8.61h10.549l3.216 1.892v8.515l-3.216 1.892 4.209 7.473zm-10.879-16.413v5.534h6.007v-5.534h-6.007zM153.872 11.968V28.38h-3.926V11.968h-5.25V8.562h14.427v3.406h-5.251zM178.989 14.71l-2.838 1.656v.048l2.838 1.655v8.041l-3.784 2.224h-12.346V5.25h12.346l3.784 2.224v7.237zM167.4 9.225v5.203h7.001V9.224H167.4zm0 9.176v6.008h7.001V18.4H167.4zM199.613 26.631l-3.216 1.892h-8.704l-3.216-1.892V10.36l3.216-1.892h8.704l3.216 1.892v16.272zm-11.258-14.805v13.291h7.379V11.826h-7.379zM202.971 28.381l6.291-10.122-6.007-9.65h4.399l3.831 6.15 3.832-6.15h4.399l-6.055 9.65L220 28.38h-4.399l-4.116-6.575-4.115 6.575h-4.399z" fill="#159633"/><path d="M64.33 44.89c-.425-.047-.804-.047-1.135-.142v-.757a18.4 18.4 0 002.081.142c.379 0 .663 0 .852-.047.189-.047.378-.095.52-.19a.689.689 0 00.284-.425c.047-.19.047-.426.047-.757 0-.426 0-.71-.047-.851-.047-.142-.142-.284-.237-.331-.141-.048-.378-.142-.71-.19l-1.607-.189a2.231 2.231 0 01-.9-.331c-.188-.19-.33-.378-.378-.662a6.17 6.17 0 01-.094-1.088c0-.615.094-1.04.284-1.372.189-.331.473-.568.804-.662.378-.142.804-.19 1.419-.19.378 0 .804 0 1.182.048.379.047.71.094.946.142v.757a11.421 11.421 0 00-1.892-.142c-.378 0-.71 0-.946.047s-.425.142-.52.237a.497.497 0 00-.237.425c-.047.19-.047.379-.047.71 0 .33 0 .567.047.757.048.142.095.283.237.33.095.048.284.095.568.143l1.608.189c.426.047.71.142.946.236.236.095.378.332.473.615.094.237.142.663.142 1.325 0 .662-.095 1.182-.284 1.513-.19.331-.426.568-.757.71-.33.142-.757.19-1.324.19-.473-.143-.899-.143-1.325-.19zM77.811 44.843V36.8h4.447v.852h-3.5v2.743h3.074v.804h-3.074v2.791h3.5v.804H77.81v.048zM92.002 44.843V36.8h.899v7.19h3.122v.852h-4.021zM105.577 44.843V36.8h4.21v.852h-3.311v2.885h2.933v.804h-2.933v3.453h-.899v.048zM124.876 44.89c-.426-.047-.804-.047-1.135-.142v-.757c.804.095 1.514.142 2.081.142.379 0 .662 0 .852-.047.189-.047.378-.095.52-.19a.691.691 0 00.284-.425c.047-.19.047-.426.047-.757 0-.426 0-.71-.047-.851-.048-.142-.142-.284-.237-.331-.142-.048-.378-.142-.709-.19l-1.608-.189a2.226 2.226 0 01-.899-.331c-.189-.19-.331-.378-.379-.662a6.209 6.209 0 01-.094-1.088c0-.615.094-1.04.284-1.372.189-.331.473-.568.804-.662.378-.142.804-.19 1.419-.19.378 0 .804 0 1.182.048.379.047.71.094.946.142v.757a11.412 11.412 0 00-1.892-.142c-.378 0-.709 0-.946.047-.236.047-.426.142-.52.237a.497.497 0 00-.237.425c-.047.19-.047.379-.047.71 0 .33 0 .567.047.757.048.142.095.283.237.33.094.048.284.095.568.143l1.608.189c.425.047.709.142.946.236.236.095.378.332.473.615.094.237.142.663.142 1.325 0 .662-.095 1.182-.284 1.513-.189.331-.426.568-.757.71-.331.142-.757.19-1.324.19-.473-.143-.852-.143-1.325-.19zM139.824 44.843V37.7h-2.176v-.851h5.203v.851h-2.128v7.19h-.899v-.047zM153.021 44.653c-.379-.189-.615-.567-.71-1.088-.094-.52-.142-1.419-.142-2.696 0-1.277.048-2.176.142-2.696.095-.52.331-.899.71-1.088.378-.19 1.04-.331 1.939-.331s1.561.095 1.94.331c.378.19.615.568.709 1.088.095.52.142 1.419.142 2.696 0 1.277-.047 2.176-.142 2.696-.094.52-.331.9-.709 1.088-.379.19-1.041.331-1.94.331s-1.561-.142-1.939-.33zm3.216-.71c.237-.094.379-.378.473-.803.095-.426.095-1.183.095-2.318s-.047-1.892-.095-2.318c-.094-.426-.236-.662-.473-.804-.236-.095-.662-.142-1.324-.142s-1.088.047-1.325.142c-.236.094-.378.378-.473.804-.094.426-.094 1.183-.094 2.318s.047 1.892.094 2.318c.095.425.237.662.473.804.237.094.663.142 1.325.142.662.047 1.088 0 1.324-.142zM171.942 44.843l-1.088-3.217h-2.176v3.217h-.899V36.8h3.028c.567 0 1.04.095 1.324.284.284.19.473.473.568.804.094.331.142.757.142 1.325 0 .567-.048 1.088-.19 1.466a1.313 1.313 0 01-.851.804l1.23 3.359h-1.088zm-.568-4.163a.755.755 0 00.379-.473c.047-.236.094-.52.094-.946 0-.426-.047-.71-.094-.946a.755.755 0 00-.379-.473c-.189-.095-.473-.19-.899-.19h-1.892v3.17h1.798c.52 0 .804-.047.993-.142zM187.362 44.843l-.71-2.176h-2.98l-.709 2.176h-.946l2.507-8.042h1.229l2.507 8.042h-.898zm-2.176-7.001h-.047l-1.23 3.973h2.507l-1.23-3.973zM200.275 41.342v-.804h2.413v4.163c-.331.047-.71.094-1.088.141-.426.048-.804.048-1.088.048-.852 0-1.466-.095-1.845-.284-.378-.19-.662-.568-.804-1.135-.142-.568-.237-1.467-.237-2.65 0-1.182.095-2.033.237-2.6.142-.568.426-.947.851-1.183.426-.19 1.041-.331 1.845-.331.379 0 .757 0 1.135.047.426.047.757.094.994.142v.757c-.284-.048-.568-.095-.946-.142-.331-.048-.615-.048-.804-.048-.757 0-1.325.048-1.609.142-.283.095-.52.379-.615.804-.141.426-.189 1.183-.189 2.27 0 .994.048 1.751.142 2.177.095.425.284.757.52.898.284.142.71.237 1.325.237.189 0 .426 0 .662-.047.237 0 .473-.048.615-.095v-2.696h-1.514v.19zM212.763 44.843V36.8h4.446v.852h-3.5v2.743h3.074v.804h-3.074v2.791h3.5v.804h-4.446v.048z" fill="#619F57"/></svg>