<?xml version="1.0" encoding="utf-8"?><svg width="220" height="51" fill="none" xmlns="http://www.w3.org/2000/svg" viewBox="0 0 220 51"><path d="M21.65 12.525l10.85 6.209-10.85 6.262-10.798-6.262 10.797-6.209z" fill="#9BCB8B"/><path d="M21.65 0L0 12.525l10.851 6.209 10.798-6.209 10.852 6.209 10.797-6.209L21.65 0zM32.5 31.259L21.65 37.52 10.851 31.26 0 37.52l21.65 12.526L43.297 37.52 32.501 31.26z" fill="#FFFFFC"/><path d="M10.852 18.734l10.797 6.262v12.526l-10.797-6.263V18.734z" fill="#619F57"/><path d="M0 12.525l10.851 6.209v12.525L0 24.996v-12.47zM32.5 18.734l10.798 6.262v12.526l-10.797-6.263V18.734z" fill="#B2B2B2"/><path d="M32.5 18.734L21.65 24.996v12.526L32.5 31.259V18.734z" fill="#159633"/><path d="M62.086 16.628v-9.34l3.779-2.213h8.26l3.78 2.213v4.373h-4.536V9.016h-6.694v5.56h7.45l3.78 2.214v9.556l-3.78 2.213H65.54l-3.78-2.213v-4.373h4.536v2.645h7.018v-5.776h-7.45l-3.78-2.214zM99.715 28.398V15.332h-.054l-4.427 13.066H91.51L87.082 15.17h-.054v13.227H83.25V8.584h5.183l4.913 14.523h.054l4.859-14.523h5.128v19.76h-3.67v.053zM117.531 8.584l6.964 19.76h-3.833l-1.457-4.266h-7.289l-1.457 4.265h-3.834l6.965-19.759h3.941zm-2.052 4.967l-2.429 7.126h4.913l-2.43-7.126h-.054zM142.365 28.398H138.1l-4.211-7.505h-2.429v7.45h-3.887V8.584h10.581l3.24 1.89v8.53l-3.24 1.89 4.211 7.504zM131.46 11.985v5.56h5.992v-5.56h-5.992zM153.865 11.985v16.358h-3.887V11.985h-5.291V8.584h14.415v3.401h-5.237zM178.969 14.738l-2.807 1.674v.054l2.807 1.674v8.044l-3.779 2.213h-12.363V5.237h12.363l3.779 2.213v7.288zm-11.553-5.506v5.237h7.018V9.232h-7.018zm0 9.178v5.992h7.018V18.41h-7.018zM199.647 26.616l-3.24 1.89h-8.692l-3.239-1.89v-16.25l3.239-1.89h8.692l3.24 1.89v16.25zm-11.284-14.793v13.281h7.397v-13.28h-7.397zM202.939 28.397l6.317-10.095-5.993-9.664h4.427l3.833 6.155 3.834-6.155h4.427l-6.047 9.664 6.317 10.095h-4.427l-4.104-6.586-4.103 6.586h-4.481z" fill="#FFFFFC"/><path d="M64.353 44.917c-.432-.053-.81-.053-1.133-.108V44c.81.109 1.511.109 2.105.109.378 0 .648 0 .864-.054.216-.054.378-.108.54-.216.162-.108.216-.216.27-.432.054-.216.054-.432.054-.756 0-.432 0-.702-.054-.864-.054-.162-.108-.27-.27-.324-.108-.054-.378-.108-.702-.162l-1.62-.216c-.378-.054-.701-.162-.863-.324-.216-.161-.324-.377-.378-.647a5.568 5.568 0 01-.108-1.08c0-.594.108-1.08.27-1.404.161-.324.431-.54.81-.648.377-.108.81-.162 1.403-.162.378 0 .81 0 1.188.054.378.054.702.054.918.108v.756c-.594-.108-1.188-.108-1.89-.108-.378 0-.702 0-.918.054-.216.054-.432.108-.54.216-.108.108-.216.216-.27.378-.054.162-.054.378-.054.702 0 .324 0 .594.054.756.054.162.108.27.216.324.108.054.324.108.54.162l1.566.216c.432.053.756.162.972.27.216.107.378.323.486.593.108.27.162.702.162 1.296 0 .648-.109 1.188-.27 1.512-.162.324-.432.594-.756.702-.324.107-.756.161-1.35.161-.432-.053-.81-.053-1.242-.053zM77.796 44.864v-8.045h4.427v.81h-3.509v2.754h3.078v.81h-3.078V44h3.51v.81h-4.428v.053zM91.995 44.864v-8.045h.918V44h3.131v.864h-4.049zM105.546 44.864v-8.045h4.211v.81h-3.293v2.916h2.969v.81h-2.969v3.455h-.918v.053zM124.873 44.917c-.432-.053-.809-.053-1.133-.108V44c.809.109 1.511.109 2.105.109.378 0 .648 0 .864-.054.216-.054.378-.108.54-.216.162-.108.216-.216.27-.432.054-.216.054-.432.054-.756 0-.432 0-.702-.054-.864-.054-.162-.108-.27-.27-.324-.108-.054-.378-.108-.702-.162l-1.62-.216c-.378-.054-.702-.162-.863-.324-.216-.161-.324-.377-.378-.647a5.568 5.568 0 01-.108-1.08c0-.594.108-1.08.27-1.404.162-.324.431-.54.809-.648.378-.108.81-.162 1.404-.162.378 0 .81 0 1.188.054.378.054.702.054.918.108v.756c-.594-.108-1.188-.108-1.89-.108-.378 0-.702 0-.918.054-.216.054-.432.108-.54.216-.108.108-.216.216-.27.378-.054.162-.054.378-.054.702 0 .324 0 .594.054.756.054.162.108.27.216.324.108.054.324.108.54.162l1.566.216c.432.053.756.162.972.27.216.107.378.323.486.593.108.27.162.702.162 1.296 0 .648-.108 1.188-.27 1.512-.162.324-.432.594-.756.702-.324.107-.756.161-1.35.161-.378-.053-.81-.053-1.242-.053zM139.774 44.864v-7.18h-2.159v-.865h5.183v.864h-2.16v7.18h-.864zM153.001 44.648c-.378-.216-.648-.594-.756-1.08-.108-.54-.162-1.404-.162-2.7 0-1.241.054-2.16.162-2.699.108-.54.324-.918.756-1.08.378-.216 1.026-.324 1.944-.324.918 0 1.565.108 1.943.324.378.216.648.594.702 1.08.054.486.162 1.404.162 2.7 0 1.241-.054 2.159-.162 2.699-.108.54-.324.918-.702 1.08-.378.215-1.025.323-1.943.323-.918-.053-1.566-.107-1.944-.323zm3.24-.702c.215-.108.377-.378.485-.81.054-.432.108-1.188.108-2.322 0-1.133-.054-1.89-.108-2.321-.054-.432-.216-.702-.485-.81-.216-.108-.648-.162-1.296-.162s-1.08.054-1.296.162c-.216.108-.378.378-.486.81-.054.432-.108 1.188-.108 2.322 0 1.133.054 1.889.108 2.32.054.433.216.703.486.81.216.109.648.163 1.296.163s1.08-.054 1.296-.162zM171.951 44.864l-1.08-3.186h-2.213v3.186h-.918v-8.045h3.023c.594 0 1.026.108 1.35.324.27.216.486.486.594.81.108.324.108.756.108 1.296 0 .594-.054 1.08-.216 1.457-.162.378-.432.648-.864.81l1.188 3.348h-.972zm-.54-4.211a.687.687 0 00.378-.486c.054-.216.108-.54.108-.918 0-.432 0-.702-.054-.918a.687.687 0 00-.378-.486c-.216-.108-.486-.162-.918-.162h-1.889v3.185h1.835c.378-.054.702-.108.918-.215zM187.337 44.864l-.702-2.214h-2.969l-.702 2.214h-.918l2.538-8.045h1.188l2.537 8.044h-.972zm-2.159-7.019h-.054l-1.242 3.995h2.537l-1.241-3.995zM200.294 41.354v-.81h2.376v4.158c-.324.054-.702.108-1.08.162-.378.054-.756.054-1.08.054-.864 0-1.457-.108-1.835-.324-.378-.216-.648-.594-.81-1.134-.162-.594-.216-1.458-.216-2.645 0-1.188.054-2.052.216-2.646.162-.594.432-.972.81-1.188.378-.216 1.025-.324 1.889-.324.378 0 .756 0 1.134.055.432.053.756.107 1.026.161v.756a4.764 4.764 0 00-.918-.108c-.324-.054-.594-.054-.81-.054-.756 0-1.296.054-1.619.162-.324.108-.54.378-.648.81-.108.432-.162 1.188-.162 2.268 0 1.025.054 1.727.108 2.16.108.431.27.755.54.917.27.162.701.216 1.349.216.216 0 .432 0 .648-.054.27 0 .486-.054.648-.054v-2.7h-1.566v.162zM212.766 44.864v-8.045h4.427v.81h-3.51v2.754h3.078v.81h-3.078V44h3.51v.81h-4.427v.053z" fill="#DADADA"/></svg>