<?xml version="1.0" encoding="utf-8"?><svg width="38" height="38" fill="none" xmlns="http://www.w3.org/2000/svg" viewBox="0 0 38 38"><path d="M19 38c10.493 0 19-8.507 19-19S29.493 0 19 0 0 8.507 0 19s8.507 19 19 19z" fill="currentColor"/><path d="M12.983 13.197a2.188 2.188 0 100-4.376 2.188 2.188 0 000 4.376zM17.237 14.855v12.14h3.769V20.99c0-1.584.298-3.118 2.262-3.118 1.937 0 1.96 1.811 1.96 3.218v5.904H29v-6.657c0-3.27-.704-5.783-4.526-5.783-1.835 0-3.065 1.007-3.568 1.96h-.051v-1.66h-3.618zm-6.142 0h3.775v12.14h-3.775v-12.14z" fill="#fff"/></svg>