<?xml version="1.0" encoding="utf-8"?><svg width="84" height="84" fill="none" xmlns="http://www.w3.org/2000/svg" viewBox="0 0 84 84"><rect width="84" height="84" rx="6" fill="#5B9739"/><path d="M55 38v-7.994C55 23.382 49.163 18 42 18c-7.172 0-13 5.382-13 12.006V38" stroke="#fff" stroke-width="2"/><rect x="22" y="37" width="40" height="29" rx="1" stroke="#fff" stroke-width="2"/><path d="M44.057 50.777l-.381.38.106.527 1.266 6.256h-6.826l1.266-6.256.107-.531-.386-.38a3.3 3.3 0 01-.985-2.375A3.406 3.406 0 0141.635 45a3.406 3.406 0 013.411 3.398c0 .9-.351 1.743-.99 2.38z" stroke="#fff" stroke-width="2"/></svg>