<?xml version="1.0" encoding="utf-8"?><svg width="84" height="84" fill="none" xmlns="http://www.w3.org/2000/svg" viewBox="0 0 84 84"><rect width="84" height="84" rx="6" fill="#5B9739"/><path d="M64 32.146V62a1 1 0 01-1 1H21a1 1 0 01-1-1V32.203a1 1 0 01.232-.64l8.52-10.204a1 1 0 01.767-.359h25.857a1 1 0 01.8.4l7.623 10.145a1 1 0 01.201.6zM19.959 32.459h44.083" stroke="#fff" stroke-width="2"/><path d="M36.25 32.458l2.396-11.02h6.708l2.396 11.02v12.459L42 41.083l-5.75 3.834V32.458z" stroke="#fff" stroke-width="2" stroke-linecap="round" stroke-linejoin="round"/></svg>