<?xml version="1.0" encoding="utf-8"?><svg width="84" height="84" fill="none" xmlns="http://www.w3.org/2000/svg" viewBox="0 0 84 84"><path d="M6 0h72c3.3 0 6 2.7 6 6v72c0 3.3-2.7 6-6 6H6c-3.3 0-6-2.7-6-6V6c0-3.3 2.7-6 6-6z" fill="#5B9739"/><path d="M22 26.1c8.6.6 15.2-2 20-8 4.8 6 11.4 8.5 20 8V37c-.1 5.8-1.9 11.4-5.3 16.2-3.8 5.3-8.8 9.7-14.7 12.8-12.6-6.8-20-17.7-20-29V26.1z" stroke="#fff" stroke-width="2"/><path d="M40.2 47.5c-.2 0-.4-.1-.5-.2l-4.5-4.5c-.3-.3-.3-.8 0-1.1.3-.3.8-.3 1.1 0l3.9 3.9 10.4-10.4c.3-.3.8-.3 1.1 0 .3.3.3.8 0 1.1l-11 11c-.1.1-.3.2-.5.2z" fill="#fff"/></svg>