<?xml version="1.0" encoding="utf-8"?><svg width="84" height="84" fill="none" xmlns="http://www.w3.org/2000/svg" viewBox="0 0 84 84"><rect width="84" height="84" rx="6" fill="#5B9739"/><path d="M41.655 28.606C34.69 28.606 29 34.296 29 41.26c0 3.642 1.593 7.147 4.279 9.514 2.003 2.003 1.82 6.282 1.775 6.328 0 .227.046.41.228.591a.84.84 0 00.546.228h11.608c.227 0 .41-.091.546-.228a.865.865 0 00.227-.591c0-.046-.227-4.325 1.776-6.328l.136-.136c2.64-2.413 4.188-5.827 4.188-9.377 0-6.965-5.69-12.655-12.654-12.655z" stroke="#fff" stroke-width="2"/><path d="M40 33c5.462 0 9.878 4.415 9.832 9.832M42 24.054v-5.28M52.653 27.331l2.914-4.37M28.756 22.734l2.823 4.415M21.428 31.2l4.598 2.504M57.98 33.704l2.321-1.252 2.322-1.251" stroke="#fff" stroke-width="2" stroke-linecap="round"/><path d="M37 60a1 1 0 100 2v-2zm9 2a1 1 0 100-2v2zm-9 0h9v-2h-9v2zM39 64a1 1 0 100 2v-2zm5 2a1 1 0 100-2v2zm-5 0h5v-2h-5v2z" fill="#fff"/></svg>