<?xml version="1.0" encoding="utf-8"?><svg width="130" height="124" fill="none" xmlns="http://www.w3.org/2000/svg" viewBox="0 0 130 124"><g clip-path="url(#axclip0)"><path fill-rule="evenodd" clip-rule="evenodd" d="M.06 82.372l-.03 4.183L65.206 124l.267-.913-.237-3.27-10.78-7.366L.06 82.372z" fill="#8A6633"/><path fill-rule="evenodd" clip-rule="evenodd" d="M64.822 44.928L.06 82.371l65.178 37.445L130 82.372 64.822 44.928z" fill="#BD9257"/><path fill-rule="evenodd" clip-rule="evenodd" d="M130 82.372l-.03 4.183L65.207 124l.03-4.183L130 82.372z" fill="#A37C44"/><path fill-rule="evenodd" clip-rule="evenodd" d="M2.547 38.74l.68 18.65-.858 26.484-2.34-1.355.149-45.104 2.369 1.326z" fill="#E6E6E6" stroke="#E0DAD9" stroke-width=".216" stroke-miterlimit="22.926"/><path fill-rule="evenodd" clip-rule="evenodd" d="M64.911 2.327l1.48 23.569-1.657 21.919-62.365 36.06.178-45.488L64.91 2.327z" fill="#DCDCDA"/><path fill-rule="evenodd" clip-rule="evenodd" d="M127.661 38.387l1.184 17.117-1.332 28.37-62.78-36.06.178-45.487 62.75 36.06z" fill="#E6E6E6"/><path fill-rule="evenodd" clip-rule="evenodd" d="M129.999 37.415l-2.339 1.326L64.91 2.68 2.546 38.74l-2.37-1.326L64.882 0l65.118 37.415z" fill="#F0F0F0"/><path fill-rule="evenodd" clip-rule="evenodd" d="M130 37.415l-.148 45.104-2.339 1.355.148-45.133L130 37.415z" fill="#DCDCDA"/><path d="M56.975 16.498l13.888 42.1-.8-.502L56.976 18.03v-1.532z" fill="#fff"/><path d="M56.471 16.793l13.86 42.099-.77-.5-13.09-40.038v-1.561z" fill="#666"/><path d="M56.975 16.498l-.504.295 13.86 42.099.532-.295-13.888-42.099z" fill="#3C3A3B"/><path d="M56.708 18.472L51.2 21.624l.474.619 5.449-3.506-.415-.265z" fill="#999"/><path d="M57.39 19.562l-5.982 3.447-.296-.884 6.011-3.388.267.825z" fill="#3C3A3B"/><path d="M58.307 23.392l-5.478 3.152.444.619 5.448-3.506-.414-.265z" fill="#999"/><path d="M58.989 24.482l-5.982 3.447-.296-.884 6.011-3.388.267.825z" fill="#3C3A3B"/><path d="M59.936 28.312l-5.479 3.152.444.619 5.45-3.506-.415-.265z" fill="#999"/><path d="M60.617 29.402l-5.981 3.447-.297-.884 6.012-3.388.266.825z" fill="#3C3A3B"/><path d="M61.564 33.232l-5.508 3.152.474.619 5.449-3.506-.415-.265z" fill="#999"/><path d="M62.246 34.322l-5.982 3.447-.296-.884 6.011-3.388.267.825z" fill="#3C3A3B"/><path d="M63.163 38.152l-5.478 3.152.474.619 5.449-3.506-.444-.265z" fill="#999"/><path d="M63.875 39.242l-5.982 3.447-.296-.884 6.011-3.388.267.825z" fill="#3C3A3B"/><path d="M64.792 43.072l-5.478 3.152.444.619 5.449-3.506-.415-.265z" fill="#999"/><path d="M65.474 44.162l-5.982 3.447-.296-.884 6.011-3.388.267.825z" fill="#3C3A3B"/><path d="M66.42 47.992l-5.478 3.152.445.619 5.448-3.506-.414-.265z" fill="#999"/><path d="M67.103 49.082l-5.982 3.447-.296-.884 6.011-3.388.267.825z" fill="#3C3A3B"/><path d="M68.05 52.911l-5.508 3.153.474.618 5.448-3.505-.414-.266z" fill="#999"/><path d="M68.731 53.972l-5.982 3.476-.296-.883 6.012-3.388.266.795z" fill="#3C3A3B"/><path d="M69.649 57.831l-5.479 3.153.444.618 5.45-3.505-.415-.266z" fill="#999"/><path d="M70.33 58.892l-5.981 3.476-.297-.884 6.012-3.387.266.795z" fill="#3C3A3B"/><path d="M50.993 19.945l13.889 42.1-.8-.502-13.089-40.037v-1.561z" fill="#fff"/><path d="M50.49 20.24l13.858 42.128-.77-.53L50.49 21.801V20.24z" fill="#666"/><path d="M50.993 19.945l-.503.295 13.858 42.128.534-.324-13.889-42.1z" fill="#3C3A3B"/><path fill-rule="evenodd" clip-rule="evenodd" d="M51.763 61.484L52 62.958l-.267 9.073-10.897-6.245.03-10.547 10.897 6.245z" fill="#D1B68A"/><path fill-rule="evenodd" clip-rule="evenodd" d="M51.763 61.484l10.305-5.95-.03 10.546-10.304 5.951.03-10.547z" fill="#C4A676"/><path fill-rule="evenodd" clip-rule="evenodd" d="M40.866 55.239l10.305-5.951 10.897 6.245-10.305 5.952-10.897-6.246z" fill="#C1A963"/><path fill-rule="evenodd" clip-rule="evenodd" d="M52 60.424l-.267 2.062-11.4-6.57V54.06L52 60.424z" fill="#DBC49E"/><path fill-rule="evenodd" clip-rule="evenodd" d="M46.995 60.159l-.03 1.915 3.732 2.12V62.28l-3.702-2.121z" fill="#F0F0F0"/><path fill-rule="evenodd" clip-rule="evenodd" d="M50.016 62.133l.385.235v1.444l-.385-.236v-1.443zm-2.754-.148v-1.443l.385.235v1.444l-.385-.236zm.681.413v-1.444l.385.236v1.444l-.385-.236zm.74.412v-1.443l.385.235v1.444l-.385-.236zm.652.383V61.75l.385.235v1.444l-.385-.236z" fill="#8A888B"/><path fill-rule="evenodd" clip-rule="evenodd" d="M51.763 60.6l10.809-6.245v1.856l-10.839 6.275.03-1.885z" fill="#D1B68A"/><path fill-rule="evenodd" clip-rule="evenodd" d="M40.333 54.06l10.808-6.275 11.43 6.57-10.808 6.246-11.43-6.54z" fill="#EDDDC4"/><path d="M87.032 66.846h-4.738l4.649-3.623.089 3.623z" fill="#175AA8"/><path d="M77.17 47.579l.652-.295.681-1.09-1.895-1.12c-.326-.176-.8-.146-1.303.119l-6.307 3.623c-.978.56-1.748 1.915-1.748 3.005v9.81l9.891-5.685.03-8.367z" fill="#A31F1F"/><path d="M80.014 49.553l-.8.442c-.681.383-1.244 1.355-1.244 2.12v4.361l-9.09 5.215v4.33l9.09-5.214v.59l8.322 4.801 2.043-11.843-8.321-4.802z" fill="#A31F1F"/><path d="M86.292 66.198l2.043-1.178V54.326l-.8.441c-.68.383-1.243 1.356-1.243 2.122v9.31z" fill="#E34D4D"/><path d="M86.321 61.278c-.148 0-8.321-4.802-8.321-4.802l-7.403 4.242 6.633 5.775 9.091-5.215z" fill="#BF3737"/><path d="M70.804 49.847l6.308-3.623c1.006-.59 1.836-.118 1.836 1.06v9.723l-9.891 5.685v-9.81c0-1.12.77-2.475 1.747-3.035zM77.2 70.823l9.121-5.214v-4.33l-9.12 5.214v4.33z" fill="#E34D4D"/><path d="M66.866 67.819l2.043-1.179v-9.339c0-.736-.533-1.06-1.185-.678l-.858.501v10.694z" fill="#CF3C3C"/><path d="M76.934 61.396l-8.41-4.861-1.362 2.003 5.36 4.98 2.902.029 1.51-2.151z" fill="#CF3C3C"/><path d="M75.187 72.591l2.043-1.178v-9.34c0-.736-.533-1.06-1.184-.677l-.86.5v10.695z" fill="#E34D4D"/><path d="M75.187 61.926l-8.321-4.802v10.694l8.32 4.773V61.926z" fill="#A31F1F"/><path fill-rule="evenodd" clip-rule="evenodd" d="M33.048 71.118l.237 1.444-.267 8.838L22.446 75.3l.03-10.252 10.572 6.07z" fill="#D1B68A"/><path fill-rule="evenodd" clip-rule="evenodd" d="M33.048 71.118l10.009-5.774-.03 10.252L33.018 81.4l.03-10.282z" fill="#C4A676"/><path fill-rule="evenodd" clip-rule="evenodd" d="M22.476 65.05l10.01-5.775 10.57 6.069-10.008 5.774-10.572-6.069z" fill="#C1A963"/><path fill-rule="evenodd" clip-rule="evenodd" d="M33.285 70.116l-.237 1.974-11.105-6.363V63.9l11.342 6.216z" fill="#D1B68A"/><path fill-rule="evenodd" clip-rule="evenodd" d="M28.399 69.822v1.885l3.612 2.063v-1.886L28.4 69.822z" fill="#E7EEF6"/><path fill-rule="evenodd" clip-rule="evenodd" d="M31.36 71.766l.385.236v1.385l-.385-.236v-1.385zm-2.695-.147v-1.385l.385.207v1.384l-.385-.206zm.681.383v-1.385l.385.206v1.385l-.385-.206zm.71.412V71.03l.386.206v1.385l-.385-.207zm.652.354v-1.385l.385.206v1.385l-.385-.206z" fill="#8A888B"/><path fill-rule="evenodd" clip-rule="evenodd" d="M33.048 70.264l10.512-6.07v1.827l-10.512 6.07v-1.827z" fill="#D1B68A"/><path fill-rule="evenodd" clip-rule="evenodd" d="M21.943 63.9l10.513-6.069 11.104 6.364-10.512 6.069L21.943 63.9z" fill="#DBC49E"/><path fill-rule="evenodd" clip-rule="evenodd" d="M18.093 79.308l.208 1.267-.237 7.954-9.536-5.45.03-9.25 9.535 5.48z" fill="#D1B68A"/><path fill-rule="evenodd" clip-rule="evenodd" d="M18.093 79.308l9.003-5.214-.03 9.25-9.002 5.185.03-9.22z" fill="#C4A676"/><path fill-rule="evenodd" clip-rule="evenodd" d="M8.558 73.828l9.002-5.214 9.536 5.48-9.003 5.214-9.535-5.48z" fill="#C1A963"/><path fill-rule="evenodd" clip-rule="evenodd" d="M18.3 78.365l-.236 1.797-9.98-5.744v-1.62l10.217 5.567z" fill="#DBC49E"/><path fill-rule="evenodd" clip-rule="evenodd" d="M13.918 78.13l-.03 1.679 3.258 1.856v-1.68l-3.228-1.855z" fill="#F0F0F0"/><path fill-rule="evenodd" clip-rule="evenodd" d="M16.553 79.868l.356.206v1.267l-.355-.206v-1.267zm-2.428-.147v-1.238l.356.206v1.267l-.356-.236zm.622.353v-1.267l.355.206v1.267l-.355-.206zm.652.383V79.19l.355.206v1.238l-.355-.177zm.562.324v-1.237l.356.206v1.267l-.356-.236z" fill="#8A888B"/><path fill-rule="evenodd" clip-rule="evenodd" d="M18.064 78.542l9.476-5.48v1.62l-9.476 5.48v-1.62z" fill="#D1B68A"/><path fill-rule="evenodd" clip-rule="evenodd" d="M8.084 72.797l9.476-5.48 9.98 5.746-9.476 5.48-9.98-5.746z" fill="#EDDDC4"/><path fill-rule="evenodd" clip-rule="evenodd" d="M50.579 51.821l.177 1.002-.177 6.098-7.344-4.183.03-7.1 7.314 4.183z" fill="#D1B68A"/><path fill-rule="evenodd" clip-rule="evenodd" d="M50.579 51.821l6.929-4.006-.03 7.1-6.9 4.006v-7.1z" fill="#C4A676"/><path fill-rule="evenodd" clip-rule="evenodd" d="M43.264 47.638l6.93-4.007 7.314 4.184-6.93 4.006-7.314-4.183z" fill="#C1A963"/><path fill-rule="evenodd" clip-rule="evenodd" d="M50.756 51.114L50.58 52.5l-7.67-4.42v-1.236l7.847 4.271z" fill="#DBC49E"/><path fill-rule="evenodd" clip-rule="evenodd" d="M47.38 50.938v1.296l2.488 1.414v-1.296l-2.488-1.414z" fill="#F0F0F0"/><path fill-rule="evenodd" clip-rule="evenodd" d="M49.424 52.263l.266.148v.972l-.266-.148v-.972zm-1.866-.088v-.972l.267.147v.972l-.267-.147zm.474.265v-.972l.266.147v.972l-.266-.147zm.474.265v-.972l.266.147v.973l-.266-.148zm.474.265v-.972l.266.148v.972l-.267-.148z" fill="#8A888B"/><path fill-rule="evenodd" clip-rule="evenodd" d="M50.579 51.232l7.284-4.213v1.267L50.58 52.5v-1.267z" fill="#D1B68A"/><path fill-rule="evenodd" clip-rule="evenodd" d="M42.909 46.843l7.255-4.213 7.7 4.39-7.285 4.212-7.67-4.39z" fill="#EDDDC4"/><path fill-rule="evenodd" clip-rule="evenodd" d="M15.872 70.087l.09.59-.09 3.74-4.5-2.562.029-4.36 4.471 2.592z" fill="#D1B68A"/><path fill-rule="evenodd" clip-rule="evenodd" d="M15.872 70.087l4.235-2.475v4.36l-4.235 2.446v-4.331z" fill="#C4A676"/><path fill-rule="evenodd" clip-rule="evenodd" d="M11.4 67.494l4.236-2.445 4.471 2.563-4.235 2.475-4.471-2.593z" fill="#C1A963"/><path fill-rule="evenodd" clip-rule="evenodd" d="M15.961 69.645l-.089.825-4.708-2.68v-.767l4.797 2.622z" fill="#DBC49E"/><path fill-rule="evenodd" clip-rule="evenodd" d="M13.918 69.527v.796l1.51.854v-.766l-1.51-.884z" fill="#F0F0F0"/><path fill-rule="evenodd" clip-rule="evenodd" d="M15.162 70.352l.177.088v.59l-.177-.089v-.589zm-1.155-.088v-.59l.148.089v.59l-.148-.09zm.296.177v-.59l.148.089v.589l-.148-.088zm.296.176v-.589l.148.088v.59l-.148-.089zm.267.148v-.59l.148.089v.589l-.148-.088z" fill="#8A888B"/><path fill-rule="evenodd" clip-rule="evenodd" d="M15.872 69.704l4.442-2.563v.766l-4.442 2.563v-.766z" fill="#D1B68A"/><path fill-rule="evenodd" clip-rule="evenodd" d="M11.164 67.023l4.472-2.593 4.678 2.71-4.442 2.564-4.708-2.68z" fill="#EDDDC4"/><path fill-rule="evenodd" clip-rule="evenodd" d="M60.943 75.684l-1.599-.913.444 1.503 1.6.913-.445-1.503zM34.173 89.737l-1.629-.913-.414 3.3 1.629.942.414-3.329z" fill="#54514C"/><path fill-rule="evenodd" clip-rule="evenodd" d="M62.276 73.593l-1.629-.914-28.102 16.145 1.628.913 28.103-16.144z" fill="#74716C"/><path fill-rule="evenodd" clip-rule="evenodd" d="M34.173 89.737l-.414 3.33 1.303-.767.444-1.974 25.437-14.641.444 1.502 1.333-.766-.444-2.828-28.103 16.144z" fill="#3B3936"/><path fill-rule="evenodd" clip-rule="evenodd" d="M70.478 81.223l-1.599-.943.444 1.503 1.6.942-.445-1.502zM43.709 95.276l-1.63-.943-.414 3.33 1.629.942.415-3.33z" fill="#54514C"/><path fill-rule="evenodd" clip-rule="evenodd" d="M71.811 79.131l-1.629-.942L42.08 94.333l1.629.943L71.81 79.13z" fill="#74716C"/><path fill-rule="evenodd" clip-rule="evenodd" d="M43.709 95.276l-.415 3.329 1.303-.766.444-2.003 25.437-14.613.445 1.502 1.332-.765-.444-2.829-28.103 16.145z" fill="#3B3936"/><path fill-rule="evenodd" clip-rule="evenodd" d="M70.064 80.693v.147c0 .059 0 .088.03.147v.03c0 .03.029.088.029.118v.029c0 .03.03.059.03.088.03.03.03.06.059.118.03.03.03.06.059.06 0 0 0 .029.03.029l.059.058s.03 0 .03.03c.029.03.059.03.088.059L57.39 74.034c-.03-.029-.059-.029-.088-.058 0 0-.03 0-.03-.03l-.06-.059s0-.03-.029-.03c-.03-.029-.03-.058-.06-.058-.029-.03-.029-.06-.058-.089 0-.029-.03-.029-.03-.058v-.03-.03-.029c0-.03 0-.059-.03-.059v-.03-.059-.088-.029-.059-.059l13.06 7.513z" fill="#C1E3E3"/><path fill-rule="evenodd" clip-rule="evenodd" d="M70.271 74.712l-.207 5.98-13.06-7.541-.029-6.07 13.296 7.631z" fill="#E0DFD7"/><path fill-rule="evenodd" clip-rule="evenodd" d="M70.064 74.653l-13.089-7.571v-.059-.118-.059-.059-.059c0-.03 0-.059.03-.088v-.03-.059c0-.029 0-.058.03-.088 0-.03 0-.03.029-.059 0-.03.03-.059.03-.088 0-.03.029-.059.029-.059 0-.03 0-.03.03-.059 0-.03.03-.059.03-.059 0-.03 0-.03.029-.059 0-.03.03-.059.03-.059 0-.03.03-.059.03-.088 0-.03.029-.03.029-.059 0-.03.03-.059.03-.059s0-.03.029-.03v-.029c0-.03.03-.03.03-.059.03-.03.03-.059.059-.088.03-.03.059-.088.089-.118s.03-.059.059-.088l.06-.06.058-.058.06-.06.03-.029.058-.058.03-.03.03-.03.059-.058.03-.03.029-.03.06-.058c.029 0 .029-.03.059-.03.03 0 .03-.03.059-.03.03 0 .03-.029.059-.029l.03-.03c.03 0 .03-.029.059-.029.03 0 .03-.029.059-.029 0 0 .03 0 .03-.03.03 0 .03-.029.059-.029.03 0 .03-.03.06-.03h.029c.03 0 .03 0 .059-.029H59.078c.03 0 .059 0 .088.03.03 0 .09.03.119.059l13.089 7.571c-.267.56-1.51 1.827-2.31 2.386z" fill="#F5F4F0"/><path fill-rule="evenodd" clip-rule="evenodd" d="M71.485 72.178c.83-.47 1.48-.117 1.48.796l.03 6.069c0 .913-.651 2.003-1.45 2.475l-.03.029c-.8.471-1.451.088-1.451-.825l-.03-6.069c.03-.913.652-2.033 1.451-2.475zM59.847 64.754l1.955 10.93c0 .06.03.089.03.148V76.48c0 .03-.03.088-.03.118s-.03.059-.03.088c0 .03-.03.059-.03.118 0 .03-.029.059-.029.088-.03.03-.03.06-.06.089 0 .03-.029.03-.029.059l-.089.088-.03.03c-.029.029-.088.058-.147.088L38.17 90.65c.06-.029.089-.059.148-.088-.415-.943-1.658-12.138-1.718-12.403l23.246-13.405z" fill="#D6D5CF"/><path fill-rule="evenodd" clip-rule="evenodd" d="M34.262 75.39H33.817c-.029 0-.029 0-.058.03 0 0-.03 0-.03.029-.03 0-.03.03-.06.03l23.188-13.405s.03 0 .03-.03c0 0 .029 0 .029-.03.03 0 .03 0 .059-.029h.474c.03 0 .059 0 .118.03h.03c.03 0 .03 0 .06.03h.029c.059.029.089.029.148.058 0 0 .03 0 .03.03 0 0 .029 0 .029.029l.178.088c.059.03.089.06.148.089.03 0 .03.03.059.03.03.029.06.058.089.058l.059.06c.03.029.06.058.089.058l.06.059.088.088c.06.06.118.118.148.177l.03.03.03.029.088.088.03.03.03.03c.029.029.029.058.059.088 0 .03.03.03.03.059l.029.029c.03.03.03.059.059.059 0 .03.03.03.03.059 0 .03.03.03.03.059 0 .03.029.03.029.059l.03.03c0 .029.029.058.029.088 0 .029.03.029.03.058v.03c.03.059.059.088.088.147.03.06.06.089.06.148v.029c0 .03.03.03.03.059 0 .03.029.059.029.088v.03c0 .03.03.059.03.059 0 .03 0 .03.03.059 0 .03 0 .03.029.058 0 .03.03.06.03.089v.088c0 .03.029.06.029.118v.03c0 .03 0 .058.03.118L36.572 78.218c0-.059-.03-.088-.03-.147 0-.03-.03-.06-.03-.118 0-.03-.029-.059-.029-.088 0-.03-.03-.06-.03-.089 0-.03-.03-.059-.03-.118 0-.03-.029-.059-.029-.059-.03-.03-.03-.088-.06-.117 0-.03-.029-.03-.029-.06l-.088-.176-.09-.177c0-.03-.029-.03-.029-.059-.03-.03-.03-.088-.06-.118 0-.03-.029-.03-.029-.059-.03-.029-.03-.058-.059-.088-.03-.03-.03-.059-.06-.059-.029-.03-.029-.059-.059-.088-.03-.03-.03-.06-.059-.089-.03-.03-.03-.059-.059-.059l-.089-.088-.059-.059c-.06-.059-.089-.118-.148-.177l-.03-.03-.089-.088-.059-.058c-.03-.03-.059-.06-.089-.06l-.059-.058c-.03-.03-.059-.06-.089-.06s-.03-.029-.059-.029c-.06-.03-.089-.059-.148-.088l-.178-.088s-.03 0-.03-.03c-.059-.03-.118-.059-.177-.059h-.03c-.03 0-.059 0-.088-.03-.03 0-.06-.029-.119-.029.119-.03.119-.03.089-.03z" fill="#F5F4F0"/><path fill-rule="evenodd" clip-rule="evenodd" d="M34.499 75.449h.03c.148.03.266.088.414.177.8.47 1.51 1.502 1.718 2.533l1.954 10.93c.207 1.208-.385 1.945-1.333 1.65h-.03a1.258 1.258 0 01-.414-.177c-.8-.471-1.51-1.502-1.717-2.534l-1.955-10.93c-.207-1.207.385-1.944 1.333-1.65z" fill="#E0DFD7"/><path fill-rule="evenodd" clip-rule="evenodd" d="M39.267 88.028c-.03 0-.06-.029-.09-.029-.029-.03-.088-.03-.118-.03s-.059-.029-.089-.029-.059 0-.059-.03H38.615c-.06 0-.089 0-.118.03h-.03c-.03 0-.06.03-.089.03h-.03c-.03.029-.088.029-.118.058l23.187-13.404c.03-.03.06-.03.089-.03h.059c.03 0 .03 0 .06-.03h.533c.029 0 .058 0 .058.03h.06c.03 0 .088.03.118.03 0 0 .03 0 .03.03 0 0 .03 0 .03.029 0 0 .029 0 .029.03.06.029.118.058.148.088L39.444 88.205a.648.648 0 01-.148-.088c0-.089-.03-.089-.03-.089z" fill="#EAE9E4"/><path fill-rule="evenodd" clip-rule="evenodd" d="M47.173 94.45L70.36 81.077v.059c0 .206-.03.383-.089.56-.03.117-.089.206-.118.294-.03.03-.06.088-.09.118-.058.059-.147.118-.207.177L46.67 95.688c.325-.206.503-.677.503-1.237z" fill="#D6D5CF"/><path fill-rule="evenodd" clip-rule="evenodd" d="M47.173 94.245c0-.03 0-.089-.03-.118 0-.06-.03-.089-.03-.147 0-.03 0-.06-.029-.089 0-.03 0-.059-.03-.088 0-.03-.029-.089-.029-.118 0-.03 0-.059-.03-.059 0-.059-.03-.088-.059-.147 0-.03 0-.03-.03-.06-.029-.058-.059-.117-.088-.206v-.029l-.09-.177c0-.03-.029-.03-.029-.059a.64.64 0 00-.088-.147s0-.03-.03-.03a.618.618 0 00-.119-.176c0-.03-.03-.03-.03-.06-.029-.028-.058-.087-.088-.117l-.06-.059-.088-.088c-.03-.03-.06-.06-.06-.089-.029-.03-.059-.058-.059-.088l-.118-.118-.089-.088-.06-.06-.088-.088-.06-.058c-.029-.03-.058-.06-.118-.089-.03 0-.03-.03-.059-.03a.62.62 0 01-.178-.117l14.807-9.899 8.38-3.506c.06.03.119.06.178.118.03 0 .03.03.06.03.029.029.088.059.118.088l.059.059.089.088.059.06.03.029.03.03.118.117.03.03.029.029c.03.03.06.059.06.088l.058.06c0 .029.03.029.03.058l.06.059c0 .03.029.03.029.059.03.03.03.059.059.088 0 .03.03.03.03.06v.029c.03.059.059.088.088.147 0 0 0 .03.03.03.03.029.03.058.06.117 0 .03.029.03.029.06 0 .029.03.029.03.058 0 .03.03.03.03.06.029.029.029.087.058.117v.03c.03.058.03.117.06.147v.03c0 .029 0 .029.03.058 0 .03.029.059.029.088 0 .03 0 .03.03.06 0 .029.029.058.029.058v.06c0 .029 0 .058.03.088 0 .029.03.059.03.088v.088c0 .06.029.089.029.148v.383L47.025 94.539v-.206c.148-.059.148-.059.148-.088z" fill="#EAE9E4"/><path fill-rule="evenodd" clip-rule="evenodd" d="M45.426 91.475l23.216-13.434-5.981-3.329-23.187 13.405 5.952 3.358z" fill="#F5F4F0"/><path fill-rule="evenodd" clip-rule="evenodd" d="M37.697 89.118c0-1.119.8-1.56 1.777-1.001l5.952 3.329c.977.56 1.747 1.915 1.747 3.034v.03c0 1.12-.8 1.561-1.777 1.001l-8.084-4.536c-.977-.56.385-.678.385-1.798v-.059z" fill="#C1E3E3"/><path fill-rule="evenodd" clip-rule="evenodd" d="M44.774 95.246v.148c0 .059 0 .088.03.147v.03c0 .029.03.088.03.117v.03c0 .03.03.059.03.088.029.03.029.059.058.118.03.03.03.059.06.059 0 0 0 .03.03.03l.058.058s.03 0 .03.03c.03.03.06.03.089.059L32.1 88.588c-.03-.03-.06-.03-.089-.059 0 0-.03 0-.03-.03l-.059-.058s0-.03-.03-.03c-.029-.029-.029-.058-.059-.058-.03-.03-.03-.06-.059-.089 0-.03-.03-.03-.03-.059v-.03-.029-.03c0-.029 0-.058-.029-.058v-.03-.059-.088-.03-.058-.06l13.06 7.513z" fill="#E0DFD7"/><path fill-rule="evenodd" clip-rule="evenodd" d="M44.745 89.207l.03 6.04-13.09-7.543-.029-6.069 13.089 7.572z" fill="#E0DFD7"/><path fill-rule="evenodd" clip-rule="evenodd" d="M45.9 86.909a.52.52 0 01-.148.118l-.119.118c-.03.059-.089.088-.118.147a1.054 1.054 0 00-.208.295c-.03.029-.03.058-.059.088-.03.03-.03.059-.06.088 0 0 0 .03-.029.03a.224.224 0 00-.059.147l-.089.177a.417.417 0 00-.06.177c-.029.059-.029.118-.058.176-.03.06-.03.118-.03.177v.03c0 .058-.03.117-.03.176 0 .06-.03.118-.03.177v.177l-13.088-7.572v-.058-.119-.058-.06-.058c0-.03 0-.059.03-.088v-.03-.059c0-.03 0-.059.03-.088 0-.03 0-.03.029-.06 0-.029.03-.058.03-.087 0-.03.03-.06.03-.06 0-.029 0-.029.029-.058 0-.03.03-.06.03-.06 0-.029 0-.029.029-.058 0-.03.03-.06.03-.06 0-.028.03-.058.03-.087v-.03c0-.03.029-.03.029-.059 0-.03.03-.059.03-.059s0-.03.029-.03v-.029c0-.03.03-.03.03-.059.03-.03.03-.059.059-.088.03-.03.059-.088.089-.118s.03-.059.059-.088l.06-.06.058-.058.06-.059.03-.03.058-.058.03-.03.03-.03.059-.058.03-.03.03-.03.058-.058c.03 0 .03-.03.06-.03s.03-.029.059-.029c.03 0 .03-.03.059-.03l.03-.029c.03 0 .03-.03.059-.03.03 0 .03-.029.059-.029 0 0 .03 0 .03-.03.03 0 .03-.029.059-.029.03 0 .03-.03.06-.03h.029c.03 0 .03 0 .059-.029H33.818c.03 0 .059 0 .088.03.03 0 .09.03.119.059l13.089 7.571c-.03-.03-.06-.03-.119-.059-.03 0-.059-.03-.089-.03h-.296c-.03 0-.089 0-.118.03-.03 0-.09.03-.119.03-.059.03-.088.03-.148.059-.059.029-.089.058-.148.058l-.03.03c-.059.03-.088.059-.147.088.088-.147.03-.118 0-.088z" fill="#F5F4F0"/><path fill-rule="evenodd" clip-rule="evenodd" d="M46.196 86.732c.83-.471 1.48-.118 1.48.796l.03 6.069c0 .913-.651 2.003-1.45 2.474l-.03.03c-.8.471-1.451.088-1.451-.825l-.03-6.07c0-.912.651-2.032 1.45-2.474z" fill="#D6D5CF"/><path fill-rule="evenodd" clip-rule="evenodd" d="M60.825 76.009l.148.766-.148 4.772-5.716-3.27V72.71l5.716 3.3z" fill="#D1B68A"/><path fill-rule="evenodd" clip-rule="evenodd" d="M60.825 76.009l5.419-3.123v5.538l-5.42 3.123V76.01z" fill="#C4A676"/><path fill-rule="evenodd" clip-rule="evenodd" d="M55.11 72.709l5.419-3.123 5.715 3.3-5.42 3.123-5.715-3.3z" fill="#C1A963"/><path fill-rule="evenodd" clip-rule="evenodd" d="M60.973 75.449l-.148 1.06-5.982-3.447v-.972l6.13 3.359z" fill="#DBC49E"/><path fill-rule="evenodd" clip-rule="evenodd" d="M58.337 75.302v1.001l1.925 1.12V76.42l-1.925-1.12z" fill="#F0F0F0"/><path fill-rule="evenodd" clip-rule="evenodd" d="M59.936 76.333l.208.118v.766l-.208-.118v-.766zm-1.48-.06v-.765l.207.118v.766l-.207-.118zm.384.207v-.766l.208.118v.766l-.208-.118zm.385.206v-.766l.208.118v.766l-.208-.118zm.356.206v-.766l.207.118v.766l-.207-.118z" fill="#8A888B"/><path fill-rule="evenodd" clip-rule="evenodd" d="M60.825 75.537l5.685-3.27v.972l-5.685 3.27v-.972z" fill="#D1B68A"/><path fill-rule="evenodd" clip-rule="evenodd" d="M54.843 72.09l5.685-3.27 5.982 3.447-5.685 3.27-5.982-3.447z" fill="#EDDDC4"/><path fill-rule="evenodd" clip-rule="evenodd" d="M61.268 70.352l.06.442-.06 2.68-3.228-1.855.03-3.094 3.198 1.827z" fill="#D1B68A"/><path fill-rule="evenodd" clip-rule="evenodd" d="M61.269 70.352l3.02-1.738v3.093l-3.02 1.768v-3.123z" fill="#C4A676"/><path fill-rule="evenodd" clip-rule="evenodd" d="M58.07 68.526l3.02-1.768 3.198 1.856-3.02 1.738-3.198-1.826z" fill="#C1A963"/><path fill-rule="evenodd" clip-rule="evenodd" d="M61.328 70.058l-.06.589-3.375-1.915v-.56l3.435 1.886z" fill="#DBC49E"/><path fill-rule="evenodd" clip-rule="evenodd" d="M59.877 69.97l-.03.559 1.096.618v-.56l-1.066-.618z" fill="#E7EEF6"/><path fill-rule="evenodd" clip-rule="evenodd" d="M60.765 70.558l.119.06v.412l-.119-.06v-.412zm-.829-.059v-.412l.119.059v.412l-.119-.059zm.208.118v-.412l.118.059v.412l-.118-.059zm.207.118v-.412l.118.059v.412l-.118-.059zm.207.118v-.412l.118.058v.413l-.118-.059z" fill="#8A888B"/><path fill-rule="evenodd" clip-rule="evenodd" d="M61.269 70.087l3.168-1.827v.56l-3.168 1.827v-.56z" fill="#D1B68A"/><path fill-rule="evenodd" clip-rule="evenodd" d="M57.893 68.172l3.198-1.856 3.346 1.944-3.168 1.827-3.376-1.915z" fill="#EDDDC4"/><path fill-rule="evenodd" clip-rule="evenodd" d="M94.287 70.058l.266 1.414-.296 8.838-10.571-6.099.03-10.252 10.571 6.099z" fill="#D1B68A"/><path fill-rule="evenodd" clip-rule="evenodd" d="M94.287 70.058l10.009-5.804-.029 10.252-10.01 5.804.03-10.252z" fill="#C4A676"/><path fill-rule="evenodd" clip-rule="evenodd" d="M83.715 63.96l10.01-5.775 10.571 6.069-10.009 5.804-10.572-6.099z" fill="#C1A963"/><path fill-rule="evenodd" clip-rule="evenodd" d="M94.553 69.026L94.287 71l-11.105-6.363V62.81l11.371 6.216z" fill="#D1B68A"/><path fill-rule="evenodd" clip-rule="evenodd" d="M89.668 68.732v1.885l3.583 2.063v-1.857l-3.584-2.091z" fill="#E7EEF6"/><path fill-rule="evenodd" clip-rule="evenodd" d="M92.6 70.676l.384.236v1.385l-.385-.236v-1.385zm-2.666-.147v-1.385l.385.206v1.385l-.385-.206zm.681.383v-1.385l.385.207v1.384l-.385-.206zm.681.412V69.94l.385.206v1.385l-.385-.207zm.652.354v-1.385l.385.206v1.385l-.385-.206z" fill="#8A888B"/><path fill-rule="evenodd" clip-rule="evenodd" d="M94.287 69.203l10.542-6.098-.029 1.826-10.513 6.07v-1.798z" fill="#D1B68A"/><path fill-rule="evenodd" clip-rule="evenodd" d="M83.182 62.81l10.542-6.069 11.105 6.364-10.542 6.098-11.105-6.393z" fill="#DBC49E"/><path fill-rule="evenodd" clip-rule="evenodd" d="M66.362 93.891l.237 1.296-.266 7.955-9.506-5.48.03-9.221 9.505 5.45z" fill="#D1B68A"/><path fill-rule="evenodd" clip-rule="evenodd" d="M66.362 93.891l9.032-5.185-.03 9.221-9.031 5.215.03-9.25z" fill="#C4A676"/><path fill-rule="evenodd" clip-rule="evenodd" d="M56.856 88.44l9.003-5.214 9.535 5.48-9.032 5.185-9.505-5.45z" fill="#C1A963"/><path fill-rule="evenodd" clip-rule="evenodd" d="M66.6 92.978l-.238 1.797-10.009-5.745v-1.65L66.6 92.978z" fill="#DBC49E"/><path fill-rule="evenodd" clip-rule="evenodd" d="M62.187 92.742v1.68l3.257 1.856v-1.68l-3.257-1.856z" fill="#F0F0F0"/><path fill-rule="evenodd" clip-rule="evenodd" d="M64.852 94.48l.355.207v1.266l-.355-.206V94.48zm-2.428-.147v-1.237l.355.206v1.267l-.355-.236zm.622.354V93.42l.355.206v1.267l-.355-.206zm.621.353v-1.267l.356.207v1.237l-.356-.177zm.593.354v-1.238l.355.206v1.267l-.355-.235z" fill="#8A888B"/><path fill-rule="evenodd" clip-rule="evenodd" d="M66.362 93.125l9.476-5.48v1.65l-9.476 5.48v-1.65z" fill="#D1B68A"/><path fill-rule="evenodd" clip-rule="evenodd" d="M56.353 87.38l9.476-5.48 10.01 5.745-9.477 5.48-10.009-5.745z" fill="#EDDDC4"/><path fill-rule="evenodd" clip-rule="evenodd" d="M64.17 84.67l.09.619-.119 3.741-4.471-2.592v-4.331l4.5 2.563z" fill="#D1B68A"/><path fill-rule="evenodd" clip-rule="evenodd" d="M64.17 84.67l4.235-2.445-.03 4.36-4.234 2.445.03-4.36z" fill="#C4A676"/><path fill-rule="evenodd" clip-rule="evenodd" d="M59.67 82.107l4.264-2.445 4.471 2.563-4.234 2.445-4.501-2.563z" fill="#C1A963"/><path fill-rule="evenodd" clip-rule="evenodd" d="M64.26 84.228l-.09.854-4.708-2.71v-.766l4.798 2.622z" fill="#DBC49E"/><path fill-rule="evenodd" clip-rule="evenodd" d="M62.187 84.14v.766l1.54.883v-.795l-1.54-.854z" fill="#F0F0F0"/><path fill-rule="evenodd" clip-rule="evenodd" d="M63.46 84.935l.178.088v.59l-.178-.089v-.589zm-1.155-.059v-.589l.148.088v.59l-.148-.089zm.296.177v-.59l.148.09v.588l-.148-.088zm.297.177v-.59l.148.089v.59l-.148-.09zm.266.147v-.59l.148.09v.588l-.148-.088z" fill="#8A888B"/><path fill-rule="evenodd" clip-rule="evenodd" d="M64.17 84.317l4.443-2.564v.766l-4.442 2.563v-.765z" fill="#D1B68A"/><path fill-rule="evenodd" clip-rule="evenodd" d="M59.462 81.606l4.442-2.563 4.709 2.71-4.442 2.563-4.709-2.71z" fill="#EDDDC4"/><path fill-rule="evenodd" clip-rule="evenodd" d="M79.983 59.069l.09.441-.09 2.652-3.198-1.827v-3.123l3.198 1.856z" fill="#D1B68A"/><path fill-rule="evenodd" clip-rule="evenodd" d="M79.984 59.069l3.05-1.768-.03 3.123-3.02 1.738V59.07z" fill="#C4A676"/><path fill-rule="evenodd" clip-rule="evenodd" d="M76.785 57.212l3.02-1.738 3.228 1.827-3.05 1.768-3.198-1.857z" fill="#C1A963"/><path fill-rule="evenodd" clip-rule="evenodd" d="M80.073 58.745l-.089.618-3.346-1.944v-.53l3.435 1.856z" fill="#DBC49E"/><path fill-rule="evenodd" clip-rule="evenodd" d="M78.592 58.685v.56l1.096.619v-.56l-1.096-.619z" fill="#E7EEF6"/><path fill-rule="evenodd" clip-rule="evenodd" d="M79.48 59.245l.12.06v.412l-.12-.06v-.412zm-.829-.03v-.412l.119.06v.412l-.118-.06zm.208.119v-.413l.118.06v.412l-.118-.06zm.237.118v-.413l.118.06v.412l-.118-.06zm.177.117v-.412l.119.059v.412l-.119-.059z" fill="#8A888B"/><path fill-rule="evenodd" clip-rule="evenodd" d="M79.984 58.803l3.198-1.826v.53l-3.198 1.856v-.56z" fill="#D1B68A"/><path fill-rule="evenodd" clip-rule="evenodd" d="M76.638 56.889l3.168-1.857 3.376 1.945-3.198 1.826-3.346-1.914z" fill="#EDDDC4"/><path d="M92.925 84.14l-2.043 1.178-7.64-11.048 2.013-1.148 7.67 11.018z" fill="#965B14"/><path d="M85.64 80.192l6.84 3.918c.326.177.593.03.593-.353V78.1c0-.383-.267-.825-.592-1.03l-6.84-3.92c-.327-.176-.593-.029-.593.354v5.657c0 .383.266.854.592 1.031z" fill="#965B14"/><path d="M91.859 84.464v-5.657c0-.383-.267-.825-.592-1.03l-6.841-3.92c-.03 0-.237-.117-.267-.117.03-.294.474-.324.77-.177l6.841 3.919c.326.176.592.648.592 1.03v5.657c0 .354-.237.501-.533.383.03-.03.03-.059.03-.088z" fill="#D1C46A"/><path d="M83.626 81.34l6.841 3.92c.326.176.592.029.592-.354v-5.657c0-.383-.266-.825-.592-1.03l-6.84-3.92c-.326-.176-.593-.029-.593.354v5.657c.03.383.267.854.592 1.03z" fill="#BD8542"/><path d="M90.437 77.482l.918-.53-.592-.354-.918.53.592.354z" fill="#FFE699"/><path d="M90.437 77.482v.147l-.592-.354v-.147l.592.354z" fill="#E0C163"/><path d="M91.355 76.951v.148l-.918.53v-.147l.918-.53z" fill="#CCA83B"/><path d="M85.67 74.742l.918-.53-.622-.325-.888.501.592.354z" fill="#FFE699"/><path d="M85.67 74.742v.147l-.593-.324v-.177l.593.354z" fill="#E0C163"/><path d="M86.588 74.211l-.03.177-.888.501v-.147l.918-.53z" fill="#CCA83B"/><path d="M88.868 76.126l-.237.118-.06-.353.149-.089.148.324z" fill="#4E4E5C"/><path d="M86.943 74.064l.237-.118 1.51.972-.089.236-1.658-1.09z" fill="#4C4C5C"/><path d="M88.808 75.036v1.12l-.208-.118v-.884c0-.059-.059-.147-.118-.177l-1.066-.618c-.06-.03-.118 0-.118.059v.883l-.237-.117v-1.12c0-.059.059-.088.118-.059l1.51.855c.09 0 .119.088.119.176z" fill="#4C4C5C"/><path d="M88.631 75.125v1.12l-.207-.119v-.883c0-.06-.06-.148-.119-.177l-1.066-.619c-.059-.03-.118 0-.118.059v.884l-.237-.118v-1.12c0-.058.06-.088.118-.058l1.51.854c.09.03.119.118.119.177z" fill="#2B2B38"/><path d="M87.15 75.39l.208-.118-.237-.383v.383l.03.118z" fill="#4C4C5C"/><path d="M50.786 44.427c-.77 0-1.51-.177-2.073-.501s-.888-.766-.888-1.267c0-.471.325-.913.888-1.267.563-.324 1.273-.5 2.073-.5.77 0 1.51.176 2.073.5s.888.766.888 1.267c0 .471-.325.913-.888 1.267-.563.353-1.303.5-2.073.5zm0-3.24c-.71 0-1.392.146-1.925.47-.503.295-.77.649-.77 1.032s.267.766.77 1.03c.533.295 1.244.472 1.925.472.71 0 1.392-.147 1.925-.471.503-.295.77-.648.77-1.031 0-.383-.267-.766-.77-1.032-.504-.324-1.214-.47-1.925-.47z" fill="#B1BAC4"/><path d="M50.786 49.081c-.089 0-.178-.088-.178-.176l-.03-6.835c0-.089.09-.177.178-.177.09 0 .178.088.178.177l.03 6.835c0 .088-.09.176-.178.176zM47.292 47.078c-.03 0-.06 0-.09-.03-.088-.058-.118-.147-.058-.235.207-.324.444-1.208.562-3.565.06-1.414.06-2.71.06-2.74 0-.088.059-.176.177-.176.089 0 .178.088.178.176 0 0 .03 1.326-.06 2.74-.088 1.945-.296 3.212-.621 3.712-.03.089-.09.118-.148.118zM54.191 47.078a.163.163 0 01-.148-.088c-.296-.53-.503-1.768-.622-3.712-.059-1.444-.059-2.74-.059-2.74 0-.088.09-.177.178-.177.089 0 .178.089.178.177 0 0-.03 1.296.059 2.74.118 2.357.385 3.24.562 3.564.06.089.03.177-.059.236-.03-.03-.059 0-.089 0z" fill="#B1BAC4"/><path d="M50.786 42.335c1.783 0 3.228-.831 3.228-1.856 0-1.025-1.445-1.856-3.228-1.856-1.783 0-3.228.83-3.228 1.856 0 1.025 1.445 1.856 3.228 1.856z" fill="#A2AEBA"/><path d="M54.043 39.477c0-.471-.325-.942-.947-1.325-1.274-.737-3.317-.737-4.59 0-.622.353-.948.854-.948 1.325 0 .472.326.943.948 1.326 1.273.736 3.316.736 4.59 0 .622-.354.947-.854.947-1.326 0 .03 0 .03 0 0z" fill="#B02727"/><path d="M50.786 41.304c1.783 0 3.228-.831 3.228-1.856 0-1.025-1.445-1.856-3.228-1.856-1.783 0-3.228.83-3.228 1.856 0 1.025 1.445 1.856 3.228 1.856z" fill="#E65353"/><path d="M82.65 69.527l.295-.088L84.396 71l-.148.236-1.599-1.709z" fill="#FFD052"/><path d="M84.515 71.177l-.326 1.267-.207-.206.266-1.002A.228.228 0 0084.19 71L83.153 70c-.06-.06-.119-.03-.148.03l-.267 1-.237-.206.326-1.266c.03-.089.089-.089.148-.03l1.48 1.444c.06 0 .09.118.06.206z" fill="#FFD052"/><path d="M84.278 71.236l-.326 1.267-.207-.207.266-1.001a.228.228 0 00-.059-.236l-1.036-1.001c-.06-.06-.119-.03-.148.029l-.267 1.002-.237-.207.326-1.266c.03-.089.089-.089.148-.03l1.48 1.444c.06.03.09.117.06.206z" fill="#915C19"/><path d="M77.378 74.211l.74-2.445c.237-.825 1.126-1.62 1.955-1.826l1.125-.266c.504-.117.8.177.652.678l-1.747 5.863c-.119.383-1.007 2.68-1.392 2.769l-1.066.236 1.54-5.392-1.807.383z" fill="#A7BD29"/><path d="M78.089 78.954l-.652.148c-.473.118-.77-.177-.621-.648l2.013-6.953c.148-.471.652-.943 1.126-1.06l1.006-.236c.267-.06.445.088.356.383l-1.629 5.42c-.118.442-1.125 2.829-1.6 2.947zm1.836-8.425c-.415.088-.859.5-.977.913l-2.014 6.953c-.118.412.118.648.533.56l.651-.148c.415-.088 1.333-2.416 1.452-2.828l1.628-5.42c.06-.207-.059-.325-.266-.295l-1.007.265z" fill="#C9750E"/><path d="M85.433 74.477c.059-.236.03-.413-.089-.501 0-.03-.03-.03-.03-.06 0-.029-.03-.029-.03-.058 0-.03-.029-.03-.029-.059 0-.03-.03-.03-.03-.059 0-.03-.03-.03-.03-.059 0-.03-.029-.03-.029-.059 0-.03-.03-.03-.03-.059 0-.03-.029-.03-.029-.059 0-.03-.03-.03-.03-.059 0-.029-.03-.029-.03-.058 0-.03-.029-.03-.029-.06 0-.029-.03-.029-.03-.058 0-.03-.029-.03-.029-.06 0-.029-.03-.029-.03-.058 0-.03-.03-.03-.03-.06 0-.028-.029-.029-.029-.058 0-.03-.03-.03-.03-.059 0-.03-.029-.03-.029-.059 0-.03-.03-.03-.03-.059 0-.03-.03-.03-.03-.059 0-.03-.029-.03-.029-.059 0-.03-.03-.03-.03-.058 0-.03-.03-.03-.03-.06 0-.029-.029-.029-.029-.058 0-.03-.03-.03-.03-.06 0-.029-.029-.029-.029-.058 0-.03-.03-.03-.03-.06 0-.029-.03-.029-.03-.058 0-.03-.029-.03-.029-.059 0-.03-.03-.03-.03-.059 0-.03-.029-.03-.029-.059 0-.03-.03-.03-.03-.059 0-.03-.03-.03-.03-.059 0-.03-.029-.03-.029-.059 0-.03-.03-.03-.03-.058 0-.03-.03-.03-.03-.06 0-.029-.029-.029-.029-.058 0-.03-.03-.03-.03-.06 0-.029-.029-.029-.029-.058 0-.03-.03-.03-.03-.06 0-.029-.03-.029-.03-.058 0-.03-.029-.03-.029-.059 0-.03-.03-.03-.03-.059 0-.03-.029-.03-.029-.059 0-.03-.03-.03-.03-.059 0-.03-.03-.03-.03-.059 0-.03-.029-.03-.029-.059 0-.029-.03-.029-.03-.059 0-.029-.029-.029-.029-.058 0-.03-.03-.03-.03-.06 0-.029-.03-.029-.03-.058 0-.03-.029-.03-.029-.06 0-.029-.03-.029-.03-.058 0-.03-.03-.03-.03-.059 0-.03-.029-.03-.029-.059 0-.03-.03-.03-.03-.059 0-.03-.029-.03-.029-.059 0-.03-.03-.03-.03-.059 0-.03-.03-.03-.03-.059 0-.03-.029-.03-.029-.058 0-.03-.03-.03-.03-.06 0-.029-.029-.029-.029-.058 0-.03-.03-.03-.03-.06 0-.029-.03-.029-.03-.058 0-.03-.029-.03-.029-.06 0-.029-.03-.029-.03-.058 0-.03-.03-.03-.03-.059 0-.03-.029-.03-.029-.059 0-.03-.03-.03-.03-.059 0-.03-.029-.03-.029-.059 0-.03-.03-.03-.03-.059 0-.03-.03-.03-.03-.059 0-.03-.029-.03-.029-.059 0-.029-.03-.029-.03-.058 0-.03-.029-.03-.029-.06 0-.029-.03-.029-.03-.058 0-.03-.03-.03-.03-.06 0-.029-.029-.029-.029-.058 0-.03-.03-.03-.03-.06 0-.028-.029-.028-.029-.058 0-.03-.03-.03-.03-.059 0-.03-.03-.03-.03-.059 0-.03-.029-.03-.029-.059 0-.03-.03-.03-.03-.059 0-.03-.03-.03-.03-.059 0-.029-.029-.029-.029-.058 0-.03-.03-.03-.03-.06-.088-.117-.266-.176-.503-.117l-1.007.235c-.651.148-1.303.796-1.51 1.415l-2.013 6.952c-.09.324-.06.59.118.737 0 .03.03.03.03.059 0 .03.03.03.03.059 0 .03.029.03.029.059 0 .029.03.029.03.058 0 .03.029.03.029.06 0 .029.03.029.03.058 0 .03.03.03.03.06 0 .029.029.029.029.058 0 .03.03.03.03.06 0 .028.03.028.03.058 0 .03.029.03.029.059 0 .03.03.03.03.059 0 .03.029.03.029.059 0 .03.03.03.03.059 0 .03.03.03.03.059 0 .029.029.029.029.058 0 .03.03.03.03.06 0 .029.029.029.029.058 0 .03.03.03.03.06 0 .029.03.029.03.058 0 .03.029.03.029.06 0 .029.03.029.03.058 0 .03.03.03.03.059 0 .03.029.03.029.059 0 .03.03.03.03.059 0 .03.029.03.029.059 0 .03.03.03.03.059 0 .03.03.03.03.059 0 .029.029.029.029.058 0 .03.03.03.03.06 0 .029.029.029.029.058 0 .03.03.03.03.06 0 .029.03.029.03.058 0 .03.029.03.029.06 0 .028.03.028.03.058 0 .03.029.03.029.059 0 .03.03.03.03.059 0 .03.03.03.03.059 0 .03.029.03.029.059 0 .03.03.03.03.059 0 .03.03.03.03.059 0 .029.029.029.029.059 0 .029.03.029.03.058 0 .03.029.03.029.06 0 .029.03.029.03.058 0 .03.03.03.03.06 0 .029.029.029.029.058 0 .03.03.03.03.059 0 .03.029.03.029.059 0 .03.03.03.03.059 0 .03.03.03.03.059 0 .03.029.03.029.059 0 .03.03.03.03.059 0 .03.029.03.029.058 0 .03.03.03.03.06 0 .029.03.029.03.058 0 .03.029.03.029.06 0 .029.03.029.03.058 0 .03.03.03.03.06 0 .029.029.029.029.058 0 .03.03.03.03.059 0 .03.029.03.029.059 0 .03.03.03.03.059 0 .03.03.03.03.059 0 .03.029.03.029.059 0 .03.03.03.03.059 0 .029.029.029.029.059 0 .029.03.029.03.058 0 .03.03.03.03.06 0 .029.029.029.029.058 0 .03.03.03.03.06 0 .029.03.029.03.058 0 .03.029.03.029.059 0 .03.03.03.03.059 0 .03.029.03.029.059 0 .03.03.03.03.059 0 .03.03.03.03.059 0 .03.029.03.029.059 0 .03.03.03.03.058 0 .03.029.03.029.06 0 .029.03.029.03.058 0 .03.03.03.03.06 0 .029.029.029.029.058 0 .03.03.03.03.06 0 .029.029.029.029.058 0 .03.03.03.03.059 0 .03.03.03.03.059.147.177.414.236.74.147l.651-.147c.652-.147 1.303-.796 1.51-1.414l2.103-7.306z" fill="#82960E"/><path d="M77.378 74.211l3.82 4.007.533-.913s.09-1.503.652-2.21c.562-.707 1.421-1.12 2.102-1.208.681-.088 1.066-.059 1.066-.059l-3.879-4.065s-2.014.088-2.665.825c-.622.736-1.629 3.623-1.629 3.623z" fill="#A7BD29"/><path d="M84.07 75.773l-5.744-6.04 2.754-.648 5.745 6.04-2.754.648z" fill="#B3CF13"/><path d="M81.228 78.218l.74-2.445c.237-.825 1.125-1.62 1.955-1.827l1.125-.265c.503-.118.8.177.651.678l-2.25 7.748c-.119.383-.533.766-.918.854l-1.066.236 1.54-5.392-1.777.413z" fill="#4C5900"/><path d="M81.82 83.226l-.652.148c-.651.147-1.006-.236-.829-.855l2.014-6.952c.178-.62.859-1.267 1.51-1.414l1.007-.236c.444-.118.681.147.563.589l-2.103 7.336c-.177.618-.859 1.237-1.51 1.384z" fill="#73850C"/><path d="M80.695 83.462a.431.431 0 01-.267-.177c-.177-.176-.207-.471-.118-.795l2.013-6.953c.09-.324.297-.648.593-.913s.622-.472.947-.56l1.007-.236c.237-.059.444-.03.563.118.118.118.148.324.089.56l-2.103 7.336a1.953 1.953 0 01-.592.913c-.296.265-.622.471-.948.56l-.651.147c-.207.03-.385.03-.533 0zm4.501-9.486a.504.504 0 00-.296 0l-1.007.235c-.622.148-1.273.766-1.451 1.356l-2.014 6.952c-.088.265-.059.501.09.648.147.148.355.177.65.118l.652-.147.03.059-.03-.059c.622-.147 1.274-.766 1.451-1.355l2.103-7.336c.059-.177.03-.324-.06-.412-.03-.03-.059-.06-.118-.06z" fill="#536100"/><path d="M81.909 82.961l-.652.148c-.473.117-.77-.177-.621-.649l2.013-6.952c.148-.472.652-.943 1.126-1.06l1.006-.237c.267-.058.445.089.356.383l-2.103 7.336c-.118.442-.622.913-1.125 1.031zm1.836-8.425c-.415.088-.859.5-.977.913l-2.014 6.953c-.118.412.118.648.533.56l.652-.148c.414-.088.858-.5.977-.913l2.102-7.336c.06-.206-.059-.324-.266-.295l-1.007.266z" fill="#FFD052"/><path d="M80.428 76.126l-.948 3.153v1.12l.504-.59.947-3.152-.503-.53zm.03.619l.118.147-.06.177-.118-.147.06-.177zm-.652 2.77l-.119-.148.06-.177.118.148-.06.176zm.178-.62l-.119-.117.06-.177.118.118-.06.177z" fill="#915C19"/><path d="M80.695 77.982l-.77-.825c-.089.03-.563 1.65-.563 1.65l.77.825c.089-.03.563-1.65.563-1.65zm-1.155.766l.385-1.296.237.236-.267.913.09.088c.088-.029.325-.854.325-.854l.207.206-.385 1.297-.592-.59z" fill="#A87B00"/><path d="M79.836 77.216l-.474 1.591.77.825.474-1.59-.77-.826zm.237 2.24l-.622-.649.415-1.384.266.294-.266.913.088.089.267-.913.266.265-.414 1.384z" fill="#FFD052"/><path d="M78.236 73.74l-.947 3.152v1.12l.503-.59.948-3.152-.504-.53zm.03.619l.118.147-.059.177-.118-.148.059-.176zm-.652 2.769l-.118-.147.06-.177.118.147-.06.177zm.178-.619l-.118-.118.059-.176.118.117-.059.177z" fill="#915C19"/><path d="M78.503 75.596l-.77-.825c-.088.03-.562 1.65-.562 1.65l.77.825c.089-.06.562-1.65.562-1.65zm-1.154.766l.385-1.296.236.235-.266.914.089.088c.088-.03.325-.854.325-.854l.208.206-.385 1.296-.593-.589z" fill="#A87B00"/><path d="M77.645 74.83l-.474 1.591.77.825.474-1.591-.77-.825zm.237 2.21l-.622-.649.414-1.384.267.294-.267.914.09.088.266-.913.266.265-.415 1.385z" fill="#FFD052"/><path fill-rule="evenodd" clip-rule="evenodd" d="M86.44 96.778l.177.913-.177 5.686-6.811-3.918V92.86l6.81 3.918z" fill="#D1B68A"/><path fill-rule="evenodd" clip-rule="evenodd" d="M86.44 96.778l6.455-3.741-.03 6.628-6.425 3.712v-6.599z" fill="#C4A676"/><path fill-rule="evenodd" clip-rule="evenodd" d="M79.629 92.86l6.455-3.712 6.811 3.889-6.455 3.741-6.811-3.918z" fill="#C1A963"/><path fill-rule="evenodd" clip-rule="evenodd" d="M86.617 96.1l-.177 1.297-7.137-4.125v-1.149l7.314 3.978z" fill="#DBC49E"/><path fill-rule="evenodd" clip-rule="evenodd" d="M83.478 95.924l-.03 1.208 2.34 1.325V97.28l-2.31-1.355z" fill="#F0F0F0"/><path fill-rule="evenodd" clip-rule="evenodd" d="M85.374 97.19l.237.148v.884l-.237-.147v-.884zm-1.748-.117v-.884l.237.147v.884l-.237-.147zm.445.265v-.884l.237.148v.883l-.237-.147zm.444.265v-.884l.237.148v.883l-.237-.147zm.444.236v-.884l.237.147v.884l-.237-.147z" fill="#8A888B"/><path fill-rule="evenodd" clip-rule="evenodd" d="M86.44 96.219L93.22 92.3v1.179l-6.781 3.918v-1.178z" fill="#D1B68A"/><path fill-rule="evenodd" clip-rule="evenodd" d="M79.303 92.124l6.781-3.919 7.137 4.095-6.781 3.919-7.137-4.095z" fill="#EDDDC4"/><path d="M57.952 105.528v.972a.6.6 0 01-.266.472c-.119.059-.237.059-.267-.059l-.414-.825.947-.56z" fill="#858B9E"/><path d="M57.656 107.767l-.385-.235.089-.796.74-.795.504.265-.09.265-.858 1.296z" fill="#171821"/><path d="M57.715 105.999c.355-.206.651-.029.651.383 0 .413-.296.914-.651 1.12-.355.206-.652.029-.652-.383 0-.412.297-.913.652-1.12z" fill="#171821"/><path d="M57.478 107.355c0 .412.297.589.652.383.355-.206.651-.707.651-1.12 0-.412-.296-.589-.651-.383-.355.206-.652.707-.652 1.12z" fill="#3B3D4A"/><path d="M57.715 107.207c0 .236.178.354.385.236.207-.118.385-.442.385-.677 0-.236-.178-.354-.385-.236a.847.847 0 00-.385.677z" fill="#CCD3DE"/><path d="M57.804 107.148c0 .207.148.266.326.177.177-.088.326-.353.326-.53 0-.206-.149-.265-.326-.177a.646.646 0 00-.326.53z" fill="#636C7A"/><path d="M58.396 105.793v.973a.6.6 0 01-.266.471c-.119.059-.237.059-.267-.059l-.414-.825.947-.56z" fill="#ADB3C4"/><path d="M58.011 107.031c0 .059.06.088.089.059.059-.03.088-.118.088-.177s-.059-.089-.088-.059c-.03.029-.089.118-.089.177z" fill="#CDD4E8"/><path d="M58.396 105.793l-.444-.265-.947.56.444.265.947-.56z" fill="#CCD1DE"/><path d="M51.645 101.905v.972a.598.598 0 01-.267.471c-.118.059-.237.059-.266-.059l-.415-.825.948-.559z" fill="#858B9E"/><path d="M51.378 104.143l-.414-.235.088-.825.77-.766.474.236-.089.294-.829 1.296z" fill="#171821"/><path d="M51.407 102.376c.356-.206.652-.03.652.383 0 .412-.296.913-.652 1.119-.355.207-.651.03-.651-.383 0-.412.296-.913.651-1.119z" fill="#171821"/><path d="M51.17 103.731c0 .413.297.589.652.383.356-.206.652-.707.652-1.119 0-.413-.296-.59-.652-.383-.355.206-.651.707-.651 1.119z" fill="#3B3D4A"/><path d="M51.408 103.584c0 .236.177.353.385.235.207-.117.385-.441.385-.677 0-.236-.178-.354-.385-.236a.848.848 0 00-.385.678z" fill="#CCD3DE"/><path d="M51.497 103.525c0 .206.148.265.325.177.178-.089.326-.354.326-.531 0-.206-.148-.265-.326-.176a.645.645 0 00-.325.53z" fill="#636C7A"/><path d="M52.089 102.14v.972a.6.6 0 01-.267.472c-.118.059-.237.059-.266-.059l-.415-.825.948-.56z" fill="#ADB3C4"/><path d="M51.704 103.407c0 .059.059.088.088.059.06-.029.089-.118.089-.177s-.06-.088-.089-.059c-.03.03-.088.118-.088.177z" fill="#CDD4E8"/><path d="M52.089 102.14l-.444-.235-.948.559.444.265.948-.589z" fill="#CCD1DE"/><path d="M50.164 96.012l.118-3.034c.03-1.031.8-2.21 1.718-2.681l1.214-.648c.563-.295.977-.03.948.618l-.296 7.336c-.03.472-.385 1.06-.8 1.267l-1.155 3.741.178-7.512-1.925.913z" fill="#E6291E"/><path d="M52.385 98.929l-.71 3.506c-.534.265-.948.029-.919-.59l.267-9.486c.03-.59.473-1.296 1.007-1.561l1.125-.59c.296-.147.533 0 .533.325l-.296 6.805c-.03.619-.474 1.326-1.007 1.59zm-.355-7.954c-.445.235-.83.854-.86 1.355l-.266 9.486c-.03.501.326.736.8.501l.71-3.506c.445-.236.83-.854.86-1.355l.295-6.806c0-.265-.177-.383-.385-.265l-1.154.59z" fill="#C9750E"/><path d="M59.64 93.95c0-.294-.089-.471-.267-.56-.03-.03-.03-.03-.059-.03-.03-.029-.03-.029-.059-.029-.03-.029-.03-.029-.06-.029-.029-.03-.029-.03-.058-.03-.03-.029-.03-.029-.06-.029-.03-.03-.03-.03-.059-.03-.03-.029-.03-.029-.06-.029-.029-.03-.029-.03-.058-.03-.03-.029-.03-.029-.06-.029-.03-.03-.03-.03-.059-.03-.03-.029-.03-.029-.059-.029-.03-.03-.03-.03-.06-.03-.029-.029-.029-.029-.058-.029-.03-.03-.03-.03-.06-.03-.03-.029-.03-.029-.059-.029-.03-.029-.03-.029-.06-.029-.029-.03-.029-.03-.058-.03-.03-.029-.03-.029-.06-.029-.03-.03-.03-.03-.059-.03-.03-.029-.03-.029-.059-.029-.03-.03-.03-.03-.06-.03-.029-.029-.029-.029-.058-.029-.03-.03-.03-.03-.06-.03-.03-.029-.03-.029-.059-.029-.03-.03-.03-.03-.06-.03-.029-.029-.029-.029-.058-.029-.03-.03-.03-.03-.06-.03-.03-.028-.03-.028-.059-.028-.03-.03-.03-.03-.059-.03-.03-.03-.03-.03-.06-.03-.029-.029-.029-.029-.058-.029-.03-.03-.03-.03-.06-.03-.03-.029-.03-.029-.059-.029-.03-.03-.03-.03-.06-.03-.029-.029-.029-.029-.058-.029-.03-.03-.03-.03-.06-.03-.03-.029-.03-.029-.059-.029-.03-.03-.03-.03-.059-.03-.03-.029-.03-.029-.06-.029-.029-.03-.029-.03-.059-.03-.03-.028-.03-.028-.059-.028-.03-.03-.03-.03-.059-.03-.03-.03-.03-.03-.06-.03-.029-.029-.029-.029-.058-.029-.03-.03-.03-.03-.06-.03-.03-.029-.03-.029-.059-.029-.03-.03-.03-.03-.06-.03-.029-.029-.029-.029-.058-.029-.03-.03-.03-.03-.06-.03-.03-.029-.03-.029-.059-.029-.03-.03-.03-.03-.059-.03-.03-.029-.03-.029-.06-.029-.029-.03-.029-.03-.058-.03-.03-.029-.03-.029-.06-.029-.03-.029-.03-.029-.059-.029-.03-.03-.03-.03-.06-.03-.029-.029-.029-.029-.058-.029-.03-.03-.03-.03-.06-.03-.03-.029-.03-.029-.059-.029-.03-.03-.03-.03-.059-.03-.03-.029-.03-.029-.06-.029-.029-.03-.029-.03-.058-.03-.03-.029-.03-.029-.06-.029-.03-.03-.03-.03-.059-.03-.03-.029-.03-.029-.06-.029-.029-.029-.029-.03-.058-.03-.03-.028-.03-.028-.06-.028-.03-.03-.03-.03-.059-.03-.03-.03-.03-.03-.059-.03-.03-.029-.03-.029-.06-.029-.029-.03-.029-.03-.058-.03-.03-.029-.03-.029-.06-.029-.03-.03-.03-.03-.059-.03-.03-.029-.03-.029-.06-.029-.029-.03-.029-.03-.058-.03-.03-.029-.03-.029-.06-.029-.03-.03-.03-.03-.059-.03-.03-.029-.03-.029-.06-.029-.029-.029-.029-.029-.058-.029-.03-.03-.03-.03-.06-.03-.03-.029-.03-.029-.059-.029-.03-.03-.03-.03-.059-.03-.03-.029-.03-.029-.06-.029-.029-.03-.029-.03-.058-.03-.03-.029-.03-.029-.06-.029-.03-.03-.03-.03-.059-.03-.03-.029-.03-.029-.06-.029-.147-.118-.384-.118-.621 0l-1.125.59c-.711.353-1.303 1.296-1.333 2.091l-.266 9.487c-.03.412.118.707.355.824.03.03.03.03.06.03.029.029.029.029.059.029.03.03.03.03.059.03.03.029.03.029.059.029.03.03.03.03.06.03.029.029.029.029.058.029.03.03.03.03.06.03.03.029.03.029.059.029.03.03.03.03.059.03.03.029.03.029.06.029.029.029.029.029.059.029.03.03.03.03.059.03.03.029.03.029.059.029.03.03.03.03.06.03.029.029.029.029.058.029.03.03.03.03.06.03.03.029.03.029.059.029.03.03.03.03.06.03.029.029.029.029.058.029.03.03.03.03.06.03.03.029.03.029.059.029.03.03.03.03.059.03.03.029.03.029.06.029.029.029.029.029.058.029.03.03.03.03.06.03.03.029.03.029.059.029.03.03.03.03.06.03.029.029.029.029.058.029.03.03.03.03.06.03.03.029.03.029.059.029.03.03.03.03.059.03.03.029.03.029.06.029.029.03.029.03.059.03.03.029.03.029.059.029.03.03.03.03.059.03.03.029.03.029.06.029.029.029.029.029.058.029.03.03.03.03.06.03.03.029.03.029.059.029.03.03.03.03.059.03.03.029.03.029.06.029.029.03.029.03.059.03.03.029.03.029.059.029.03.03.03.03.059.03.03.029.03.029.06.029.029.03.029.03.058.03.03.029.03.029.06.029.03.03.03.03.059.03.03.029.03.029.06.029.029.029.029.029.058.029.03.03.03.03.06.03.03.029.03.029.059.029.03.03.03.03.059.03.03.029.03.029.06.029.029.03.029.03.058.03.03.029.03.029.06.029.03.03.03.03.059.03.03.029.03.029.06.029.029.03.029.03.058.03.03.029.03.029.06.029.03.03.03.03.059.03.03.029.03.029.059.029.03.029.03.029.06.029.029.03.029.03.058.03.03.029.03.029.06.029.03.03.03.03.059.03.03.029.03.029.06.029.029.03.029.03.058.03.03.029.03.029.06.029.03.03.03.03.059.03.03.029.03.029.059.029.03.03.03.03.06.03.029.029.029.029.059.029.03.03.03.03.059.03.03.029.03.029.059.029.03.029.03.029.06.029.029.03.029.03.058.03.03.029.03.029.06.029.03.03.03.03.059.03.03.029.03.029.06.029.029.03.029.03.058.03.03.029.03.029.06.029.03.03.03.03.059.03.03.029.03.029.059.029.03.03.03.03.06.03.029.029.029.029.058.029.03.03.03.03.06.03.207.147.533.147.918-.03l.71-.353c.711-.354 1.303-1.297 1.333-2.092l.296-9.958z" fill="#DEA259"/><path d="M50.164 96.012l5.626 3.536.356-1.238s-.356-1.767.089-2.769c.444-1.002 1.332-1.709 2.072-2.003.77-.324 1.244-.383 1.244-.383l-5.685-3.594s-2.31.707-2.873 1.738c-.533 1.06-.829 4.713-.829 4.713z" fill="#E6291E"/><path d="M55.82 99.548l.118-3.035c.03-1.031.8-2.21 1.718-2.68l1.214-.649c.563-.294.977-.03.948.619l-.296 10.488c-.03.471-.385 1.06-.8 1.267l-1.155.589.178-7.513-1.925.914z" fill="#C2140A"/><path d="M58.011 106l-.71.353c-.711.354-1.244.03-1.215-.766l.267-9.486c.03-.796.622-1.709 1.332-2.092l1.126-.59c.473-.235.858-.029.829.531l-.296 9.928c-.03.796-.622 1.739-1.333 2.122z" fill="#F9C687"/><path d="M56.738 106.589c-.118 0-.267-.03-.355-.118-.267-.147-.385-.471-.356-.884l.267-9.486c.03-.383.178-.825.414-1.238.267-.412.593-.736.948-.913l1.125-.59c.267-.146.504-.146.681-.028.178.117.267.324.267.618l-.296 9.928c-.03.383-.178.825-.415 1.238-.266.412-.592.736-.947.913l-.711.354c-.237.147-.444.206-.622.206zm2.458-13.17a.775.775 0 00-.326.09l-1.125.588c-.681.354-1.244 1.267-1.273 2.004l-.267 9.486c0 .354.089.619.296.737.207.117.474.117.8-.059l.71-.354.03.089-.03-.089c.681-.353 1.244-1.267 1.274-2.003l.296-9.928c0-.236-.06-.383-.178-.472-.089-.059-.148-.088-.207-.088z" fill="#B36300"/><path d="M58.011 105.646l-.71.354c-.533.265-.948.029-.918-.59l.266-9.486c.03-.59.474-1.296 1.007-1.561l1.125-.59c.296-.147.533 0 .533.325l-.296 9.928c-.03.618-.474 1.325-1.007 1.62zm-.355-11.136c-.444.236-.83.854-.859 1.355l-.266 9.486c-.03.501.325.737.8.501l.71-.353c.444-.236.83-.855.859-1.355l.296-9.929c0-.265-.178-.383-.385-.265l-1.155.56z" fill="#C9750E"/><path d="M49.809 99.489l.03-.943c0-.324.266-.707.532-.854l.385-.207c.178-.088.296 0 .296.177l-.088 2.298c0 .147-.119.324-.267.413l-.355.176.059-1.355-.592.295z" fill="#E6291E"/><path d="M50.489 100.402l-.207.118c-.178.088-.297 0-.297-.177l.09-1.974c0-.177.147-.412.325-.5l.355-.177c.09-.06.178 0 .178.117l-.089 2.122a.71.71 0 01-.355.471zm-.089-2.475c-.148.089-.267.265-.267.413l-.088 1.974c0 .147.088.235.236.147l.208-.118c.148-.088.266-.265.266-.412l.09-2.122c0-.088-.06-.117-.12-.088l-.325.206z" fill="#C9750E"/><path d="M52.77 98.84c0-.088-.03-.147-.089-.176h-.03-.03-.029-.03-.029-.03-.03-.029-.03-.03-.029-.03-.029-.03-.03-.029-.03-.029-.03-.03-.029-.03H52h-.03-.03-.029-.03-.03-.029-.03-.029-.03-.03-.029-.03-.029-.03-.03-.029-.03-.03-.029-.03-.029-.03-.03-.029-.03-.029-.03-.03-.029-.03-.029-.03-.03-.029-.03-.03-.029-.03-.029-.03-.03-.029-.03-.029-.03-.03-.029-.03-.03-.029-.03-.029-.03-.03-.029-.03-.029-.03-.03-.029-.03-.029-.03-.03c-.059-.03-.118-.03-.206 0l-.356.177c-.207.117-.415.412-.415.648l-.088 1.974c0 .117.03.206.118.265H51.734c.059.059.177.059.296 0l.207-.118c.207-.118.414-.413.414-.648l.119-2.121z" fill="#DEA259"/><path d="M49.808 99.489l1.748 1.119.118-.383s-.118-.56.03-.854c.148-.324.414-.53.651-.619.237-.088.385-.118.385-.118l-1.777-1.12s-.71.207-.888.56c-.178.266-.267 1.415-.267 1.415z" fill="#E6291E"/><path d="M52.385 99.43l-2.636-1.65.918-.5 2.666 1.678-.948.472z" fill="#FF564D"/><path d="M51.585 100.608l.03-.943c0-.324.267-.707.533-.854l.385-.206c.178-.089.296 0 .296.177l-.089 2.298c0 .147-.118.324-.266.412l-.356.177.06-1.355-.593.294z" fill="#C2140A"/><path d="M52.266 101.61l-.207.118c-.207.118-.385 0-.385-.236l.089-1.974c0-.235.207-.53.414-.648l.356-.177c.148-.088.266 0 .266.177l-.089 2.121c-.059.236-.236.531-.444.619z" fill="#F9C687"/><path d="M51.852 101.817c-.03 0-.089 0-.119-.03-.088-.059-.118-.147-.118-.265l.089-1.974c0-.118.06-.265.148-.383.089-.118.178-.236.296-.294l.355-.177c.09-.03.148-.06.208 0 .059.03.089.117.089.206l-.09 2.121c0 .118-.059.265-.147.383-.09.118-.178.236-.297.295l-.207.118c-.089-.03-.148 0-.207 0zm.77-3.123c-.03 0-.06 0-.119.03l-.355.176a.908.908 0 00-.415.619l-.088 1.973c0 .118.03.177.088.236.06.03.149.03.237-.029l.208-.118v.029-.029a.907.907 0 00.414-.619l.09-2.121a.224.224 0 00-.06-.147c.03 0 .03 0 0 0z" fill="#B36300"/><path d="M52.267 101.522l-.208.117c-.177.089-.296 0-.296-.176l.089-1.974c0-.177.148-.413.326-.501l.355-.177c.089-.059.178 0 .178.118l-.09 2.121c-.058.148-.207.383-.355.472zm-.119-2.505c-.148.089-.267.266-.267.413l-.088 1.974c0 .147.089.235.237.147l.207-.118c.148-.088.266-.265.266-.412l.09-2.121c0-.089-.06-.118-.12-.089l-.325.206z" fill="#C9750E"/><path d="M51.17 99.724l-.059 1.238.089.412.118-.265.06-1.237-.208-.148zm.06.236l.059.03v.058l-.06-.029v-.059zm.03 1.061l-.06-.03v-.059l.06.03v.059zm0-.236l-.06-.03v-.058l.06.029v.059z" fill="#915C19"/><path d="M51.437 100.373l-.355-.236c-.03.029-.06.648-.06.648l.356.236c.03-.03.06-.648.06-.648zm-.355.383l.03-.501.088.059-.03.353.03.03c.03-.03.03-.324.03-.324l.089.058-.03.501-.207-.176z" fill="#A87B00"/><path d="M51.052 100.166l-.03.619.356.236.03-.619-.356-.236zm.297.796l-.297-.177.03-.53.118.088-.03.354.03.029.03-.354.119.089v.501z" fill="#FFD052"/><path d="M50.163 99.047l-.059 1.237.09.413.118-.266.059-1.237-.208-.147zm.06.235l.059.03v.059l-.06-.03v-.059zm.03 1.061l-.06-.029v-.059l.06.029v.059zm0-.236l-.06-.029v-.059l.06.029v.059z" fill="#915C19"/><path d="M50.43 99.695l-.355-.236c-.03.03-.06.648-.06.648l.356.236c.03 0 .06-.648.06-.648zm-.355.383l.03-.5.089.058-.03.354.03.029c.03-.03.03-.324.03-.324l.088.059-.03.501-.207-.177z" fill="#A87B00"/><path d="M50.045 99.518l-.03.619.356.235.03-.618-.356-.236zm.297.766l-.297-.177.03-.53.119.088-.03.354.03.029.03-.353.118.088v.501z" fill="#FFD052"/><path d="M52.859 101.227l.03-.943c0-.324.266-.707.532-.854l.385-.206c.178-.089.297 0 .297.176l-.09 2.298c0 .148-.118.324-.266.413l-.355.177.059-1.356-.592.295z" fill="#E6291E"/><path d="M53.539 102.17l-.207.118c-.178.088-.297 0-.297-.177l.09-1.974c0-.177.147-.413.325-.501l.355-.177c.09-.059.178 0 .178.118l-.089 2.121c-.059.148-.177.383-.355.472zm-.119-2.505c-.148.089-.266.266-.266.413l-.089 1.974c0 .147.089.236.237.147l.207-.118c.148-.088.267-.265.267-.412l.089-2.121c0-.089-.06-.118-.119-.089l-.326.206z" fill="#C9750E"/><path d="M55.79 100.608c0-.088-.03-.147-.088-.176h-.03-.03-.03-.029-.03-.03-.029-.03-.029-.03-.03-.029-.03-.029-.03-.03-.029-.03-.03-.029-.03-.029-.03-.03-.029-.03-.029-.03-.03-.029-.03-.029-.03-.03-.029-.03-.03-.029-.03-.029-.03-.03-.029-.03-.029-.03-.03-.029-.03-.03-.029-.03-.029-.03-.03-.029-.03-.029-.03-.03-.029-.03-.029-.03-.03-.029-.03-.03-.029-.03-.029-.03-.03-.029-.03-.029-.03-.03-.029-.03-.03-.029-.03-.029-.03-.03-.029c-.059-.03-.118-.03-.207 0l-.355.176c-.208.118-.415.413-.415.648l-.089 1.974c0 .118.03.207.119.265H54.754c.06.059.178.059.296 0l.207-.117c.208-.118.415-.413.415-.649l.118-2.121z" fill="#DEA259"/><path d="M52.858 101.227l1.747 1.119.119-.383s-.119-.559.03-.854c.148-.324.414-.53.651-.619.237-.088.385-.117.385-.117l-1.777-1.12s-.71.206-.888.56c-.178.294-.267 1.414-.267 1.414z" fill="#E6291E"/><path d="M55.435 101.198l-2.665-1.68.947-.471 2.636 1.65-.918.501z" fill="#FF564D"/><path d="M54.606 102.346l.03-.942c0-.324.266-.707.532-.855l.386-.206c.177-.088.296 0 .296.177l-.09 2.298c0 .147-.118.324-.266.412l-.355.177.06-1.355-.593.294z" fill="#C2140A"/><path d="M55.287 103.378l-.207.117c-.208.118-.385 0-.385-.235l.088-1.974c0-.236.208-.53.415-.648l.355-.177c.148-.088.267 0 .267.177l-.089 2.121c-.03.206-.207.501-.444.619z" fill="#F9C687"/><path d="M54.902 103.554c-.03 0-.089 0-.119-.029-.088-.059-.118-.147-.118-.265l.089-1.974c0-.118.06-.265.148-.383.089-.118.178-.236.296-.295l.355-.177c.09-.029.149-.058.208 0 .059.03.089.118.089.207l-.09 2.121c0 .118-.058.265-.147.383-.09.118-.178.236-.296.294l-.208.118h-.207zm.77-3.123c-.03 0-.06 0-.118.03l-.356.177a.908.908 0 00-.415.618l-.088 1.974c0 .118.03.177.088.236.06.029.149.029.237-.03l.208-.117v.029-.029a.907.907 0 00.414-.619l.09-2.121a.227.227 0 00-.06-.148s.03 0 0 0z" fill="#B36300"/><path d="M55.317 103.26l-.208.118c-.177.088-.296 0-.296-.177l.089-1.974c0-.177.148-.412.326-.501l.355-.177c.089-.059.178 0 .178.118l-.09 2.121c-.058.177-.206.383-.354.472zm-.119-2.475c-.148.088-.266.265-.266.412l-.09 1.974c0 .148.09.236.238.148l.207-.118c.148-.089.267-.265.267-.413l.088-2.121c0-.088-.059-.118-.118-.088l-.326.206z" fill="#C9750E"/><path d="M54.22 101.492l-.059 1.237.09.413.118-.265.059-1.238-.207-.147zm.06.206l.059.03v.059l-.06-.03v-.059zm.03 1.061l-.06-.03v-.058l.06.029v.059zm0-.236l-.06-.029v-.059l.06.029v.059z" fill="#915C19"/><path d="M54.487 102.14l-.355-.235c-.03.029-.06.648-.06.648l.356.235c.03-.029.06-.648.06-.648zm-.355.383l.03-.501.089.059-.03.354.03.029c.03-.029.03-.324.03-.324l.088.059-.03.501-.207-.177z" fill="#A87B00"/><path d="M54.102 101.934l-.03.619.356.235.03-.618-.355-.236zm.297.795l-.297-.176.03-.531.119.089-.03.353.03.03.03-.354.118.089v.5z" fill="#FFD052"/><path d="M53.184 100.814l-.06 1.238.09.412.118-.265.06-1.237-.208-.148zm.089.207l.06.029v.059l-.06-.029v-.059zm0 1.09l-.06-.03v-.059l.06.03v.059zm.03-.265l-.06-.03v-.059l.06.03v.059z" fill="#915C19"/><path d="M53.451 101.463l-.355-.236c-.03.029-.06.648-.06.648l.356.236c.03-.03.059-.648.059-.648zm-.326.383l.03-.501.089.059-.03.353.03.03c.03-.03.03-.324.03-.324l.088.059-.03.5-.207-.176z" fill="#A87B00"/><path d="M53.066 101.256l-.03.619.356.236.03-.619-.356-.236zm.296.796l-.296-.177.03-.53.118.088-.03.354.03.029.03-.353.118.088v.501z" fill="#FFD052"/><path d="M57.775 91.888v.412l-.06-.059.06.796.68-.413v-.353l-.68-.383z" fill="#070D12"/><path d="M57.775 93.037l-.682-.413v-.353l.681.412v.354z" fill="#253138"/><path d="M57.775 92.683l.68-.383-.68-.383s-.711.383-.682.383c.03 0 .681.383.681.383z" fill="#425663"/><path d="M54.014 89.708v.412l-.09-.059.09.796.68-.413v-.353l-.68-.383z" fill="#070D12"/><path d="M54.014 90.857l-.681-.413v-.353l.68.412v.354z" fill="#253138"/><path d="M54.014 90.503l.68-.383-.68-.383s-.711.383-.681.383l.68.383z" fill="#425663"/><path d="M54.014 90.326l.385-.206-.504-.619.119.825z" fill="#C2C2C2"/><path d="M54.399 90.12l-.385-.236V83.11l.385.206v6.805z" fill="#C2C2C2"/><path d="M54.014 90.326l-.356-.206v-6.805l.356.235v6.776z" fill="#DEDEDE"/><path d="M57.804 92.477l.355-.206-.503-.619.148.825z" fill="#C2C2C2"/><path d="M58.16 92.27l-.385-.205v-6.806l.384.236v6.776z" fill="#C2C2C2"/><path d="M57.804 92.477l-.385-.206v-6.776l.385.206v6.776z" fill="#DEDEDE"/><path d="M58.307 84.729c0-.236-.177-.53-.355-.648l-3.613-2.063c-.118-.058-.207-.058-.266-.029-.06.03-.119.118-.119.236v1.384l.593.354v-.5l2.635 1.502v1.09l.592.353v-1.68h.533z" fill="#070D12"/><path d="M57.182 86.055v-1.09l-3.14-1.797v1.09l-.592-.354V82.52c0-.235.178-.324.385-.206l3.613 2.062c.207.118.355.413.355.649v1.414l-.621-.383z" fill="#1F2E38"/><path fill-rule="evenodd" clip-rule="evenodd" d="M106.458 79.544l1.036 5.538c.119.501.533 1.002 1.185 1.385 1.658.943 4.294.943 5.952 0 .74-.442 1.155-1.002 1.214-1.561l1.007-5.362c-.148 3.447-10.394 1.532-10.394 0z" fill="#96979B"/><path fill-rule="evenodd" clip-rule="evenodd" d="M115.312 77.452c-2.043-1.178-5.33-1.178-7.344 0-2.014 1.178-2.014 3.064.03 4.242 1.007.59 2.339.884 3.672.884 1.332 0 2.665-.294 3.672-.884 2.013-1.178 1.984-3.064-.03-4.242z" fill="#9C9EA2"/><path fill-rule="evenodd" clip-rule="evenodd" d="M114.483 77.924c-1.57-.914-4.116-.914-5.656 0-1.57.913-1.54 2.356.029 3.27 1.57.913 4.117.913 5.656 0 1.54-.884 1.54-2.357-.029-3.27z" fill="#331202"/><path fill-rule="evenodd" clip-rule="evenodd" d="M112.173 65.226v.148l-.029.029h-.03-.03-.029-.03c-.03 0-.03.03-.059.03h-.03s-.029 0-.029.029h-.06-.059-.089H111.403h-.059-.03c-.029 0-.029 0-.059-.03h-.029s-.03 0-.03-.03c-.119-.058-.148-.147-.148-.206v14.318c0 .089.059.148.148.207 0 0 .03 0 .03.03h.029c.03 0 .03 0 .059.029H111.67s.029 0 .029-.03h.03c.03 0 .03-.03.059-.03h.059l.03-.029v-.03-.029-.03-14.376c.296-.03.296 0 .296 0z" fill="#57260D"/><path fill-rule="evenodd" clip-rule="evenodd" d="M112.025 64.99a.819.819 0 00-.74 0c-.208.118-.208.324 0 .442a.818.818 0 00.74 0c.207-.147.207-.324 0-.442z" fill="#9C9EA2"/><path fill-rule="evenodd" clip-rule="evenodd" d="M111.64 58.538c3.642 0 6.574 2.681 6.574 5.951 0 3.3-2.961 5.951-6.574 5.951-3.642 0-6.574-2.68-6.574-5.95s2.932-5.952 6.574-5.952z" fill="#669839"/><path fill-rule="evenodd" clip-rule="evenodd" d="M118.184 63.93c.03.206.03.383.03.589 0 3.3-2.961 5.95-6.574 5.95-3.642 0-6.574-2.68-6.574-5.95 0-.206 0-.383.03-.59 1.303 1.768 3.76 2.976 6.544 2.976 2.813 0 5.242-1.208 6.544-2.975z" fill="#5E8838"/><path fill-rule="evenodd" clip-rule="evenodd" d="M94.168 59.393l.208 1.178-.237 7.218-8.677-4.979.03-8.396 8.676 4.979z" fill="#D1B68A"/><path fill-rule="evenodd" clip-rule="evenodd" d="M94.169 59.393l8.202-4.743-.029 8.396-8.203 4.743.03-8.396z" fill="#C4A676"/><path fill-rule="evenodd" clip-rule="evenodd" d="M85.492 54.414l8.203-4.743 8.676 4.979-8.202 4.743-8.677-4.98z" fill="#C1A963"/><path fill-rule="evenodd" clip-rule="evenodd" d="M94.376 58.538l-.207 1.65-9.121-5.244v-1.473l9.328 5.067z" fill="#DBC49E"/><path fill-rule="evenodd" clip-rule="evenodd" d="M90.378 58.332l-.03 1.532 2.962 1.68v-1.532l-2.932-1.68z" fill="#F0F0F0"/><path fill-rule="evenodd" clip-rule="evenodd" d="M92.777 59.923l.326.177v1.149l-.326-.177v-1.149zm-2.192-.147v-1.15l.326.178v1.149l-.326-.177zm.563.324v-1.15l.326.178v1.149l-.326-.177zm.563.324v-1.149l.326.177V60.6l-.326-.177zm.533.324v-1.149l.326.177v1.149l-.326-.177z" fill="#8A888B"/><path fill-rule="evenodd" clip-rule="evenodd" d="M94.169 58.686l8.617-4.98v1.474l-8.617 5.008v-1.502z" fill="#D1B68A"/><path fill-rule="evenodd" clip-rule="evenodd" d="M85.048 53.471l8.647-5.008 9.091 5.244-8.617 4.979-9.121-5.215z" fill="#EDDDC4"/><path fill-rule="evenodd" clip-rule="evenodd" d="M94.435 50.466l.148.943-.177 5.921-7.078-4.065.03-6.864 7.077 4.065z" fill="#D1B68A"/><path fill-rule="evenodd" clip-rule="evenodd" d="M94.435 50.466l6.693-3.889-.03 6.865-6.692 3.889.03-6.865z" fill="#C4A676"/><path fill-rule="evenodd" clip-rule="evenodd" d="M87.358 46.4l6.692-3.888 7.078 4.065-6.693 3.89-7.077-4.066z" fill="#C1A963"/><path fill-rule="evenodd" clip-rule="evenodd" d="M94.583 49.76l-.148 1.354-7.462-4.271.03-1.238 7.58 4.154z" fill="#DBC49E"/><path fill-rule="evenodd" clip-rule="evenodd" d="M91.326 49.582v1.267l2.398 1.385v-1.267l-2.398-1.385z" fill="#F0F0F0"/><path fill-rule="evenodd" clip-rule="evenodd" d="M93.31 50.879l.266.147v.943l-.266-.148v-.942zm-1.807-.089v-.943l.267.148v.943l-.267-.148zm.445.265v-.942l.266.147v.943l-.266-.148zm.473.266v-.943l.267.147v.943l-.267-.148zm.445.235v-.943l.266.148v.942l-.266-.147z" fill="#8A888B"/><path fill-rule="evenodd" clip-rule="evenodd" d="M94.435 49.877l7.048-4.066v1.208l-7.048 4.095v-1.237z" fill="#D1B68A"/><path fill-rule="evenodd" clip-rule="evenodd" d="M87.002 45.605l7.018-4.065 7.463 4.271-7.048 4.066-7.433-4.272z" fill="#EDDDC4"/><path fill-rule="evenodd" clip-rule="evenodd" d="M33.077 60.512l.208 1.179-.237 7.218-8.618-4.98.03-8.366 8.617 4.95z" fill="#D1B68A"/><path fill-rule="evenodd" clip-rule="evenodd" d="M33.077 60.512l8.174-4.713-.03 8.366-8.173 4.744.03-8.397z" fill="#C4A676"/><path fill-rule="evenodd" clip-rule="evenodd" d="M24.46 55.563l8.173-4.714 8.617 4.95-8.173 4.713-8.617-4.95z" fill="#C1A963"/><path fill-rule="evenodd" clip-rule="evenodd" d="M33.285 59.687l-.208 1.62-9.061-5.214V54.62l9.269 5.067z" fill="#DBC49E"/><path fill-rule="evenodd" clip-rule="evenodd" d="M29.287 59.452v1.532l2.961 1.679V61.16l-2.961-1.708z" fill="#F0F0F0"/><path fill-rule="evenodd" clip-rule="evenodd" d="M31.715 61.042l.326.177v1.15l-.326-.178v-1.149zm-2.22-.117v-1.15l.295.177v1.15l-.296-.177zm.562.324v-1.15l.296.178v1.148l-.296-.176zm.592.324v-1.15l.296.177v1.15l-.296-.177zm.533.294v-1.149l.296.177v1.15l-.296-.178z" fill="#8A888B"/><path fill-rule="evenodd" clip-rule="evenodd" d="M33.077 59.835l8.588-4.98v1.503l-8.588 4.95v-1.473z" fill="#D1B68A"/><path fill-rule="evenodd" clip-rule="evenodd" d="M24.016 54.62l8.588-4.979 9.061 5.215-8.588 4.979-9.061-5.215z" fill="#EDDDC4"/><path fill-rule="evenodd" clip-rule="evenodd" d="M33.048 51.38l.177.942-.207 5.922-7.077-4.066.03-6.894 7.077 4.096z" fill="#D1B68A"/><path fill-rule="evenodd" clip-rule="evenodd" d="M33.048 51.38l6.692-3.89v6.865l-6.722 3.889.03-6.865z" fill="#C4A676"/><path fill-rule="evenodd" clip-rule="evenodd" d="M25.97 47.284l6.693-3.859 7.077 4.066-6.692 3.888-7.078-4.095z" fill="#C1A963"/><path fill-rule="evenodd" clip-rule="evenodd" d="M33.225 50.672l-.177 1.326-7.433-4.272v-1.208l7.61 4.154z" fill="#DBC49E"/><path fill-rule="evenodd" clip-rule="evenodd" d="M29.939 50.496v1.237l2.428 1.385V51.88l-2.428-1.384z" fill="#F0F0F0"/><path fill-rule="evenodd" clip-rule="evenodd" d="M31.923 51.792l.266.147v.943l-.266-.147v-.943zm-1.807-.118v-.943l.267.148v.942l-.267-.147zm.474.265v-.943l.267.148v.943l-.267-.148zm.444.295v-.943l.267.147v.943l-.267-.147zm.444.235v-.942l.267.147v.943l-.267-.148z" fill="#8A888B"/><path fill-rule="evenodd" clip-rule="evenodd" d="M33.048 50.79l7.048-4.065v1.208l-7.048 4.065V50.79z" fill="#D1B68A"/><path fill-rule="evenodd" clip-rule="evenodd" d="M25.615 46.519l7.048-4.066 7.433 4.272-7.048 4.065-7.433-4.271z" fill="#EDDDC4"/><path fill-rule="evenodd" clip-rule="evenodd" d="M33.018 45.163l.119.619-.119 3.742-4.471-2.593V42.6l4.471 2.562z" fill="#D1B68A"/><path fill-rule="evenodd" clip-rule="evenodd" d="M33.018 45.163l4.235-2.445v4.36l-4.235 2.445v-4.36z" fill="#C4A676"/><path fill-rule="evenodd" clip-rule="evenodd" d="M28.547 42.6l4.234-2.445 4.472 2.563-4.235 2.445-4.471-2.563z" fill="#C1A963"/><path fill-rule="evenodd" clip-rule="evenodd" d="M33.137 44.721l-.119.855-4.708-2.71v-.767l4.827 2.622z" fill="#DBC49E"/><path fill-rule="evenodd" clip-rule="evenodd" d="M31.064 44.633v.766l1.51.884v-.796l-1.51-.854z" fill="#F0F0F0"/><path fill-rule="evenodd" clip-rule="evenodd" d="M32.307 45.428l.178.089v.589l-.178-.088v-.59zm-1.125-.058v-.59l.148.089v.589l-.148-.088zm.267.176v-.589l.148.088v.59l-.148-.089zm.296.177v-.59l.148.09v.588l-.148-.088zm.296.147v-.589l.148.089v.589l-.148-.089z" fill="#8A888B"/><path fill-rule="evenodd" clip-rule="evenodd" d="M33.018 44.81l4.472-2.563-.03.766-4.442 2.563v-.766z" fill="#D1B68A"/><path fill-rule="evenodd" clip-rule="evenodd" d="M28.31 42.1l4.471-2.564 4.709 2.71-4.472 2.564-4.708-2.71z" fill="#EDDDC4"/><path fill-rule="evenodd" clip-rule="evenodd" d="M100.358 85.436l.118.619-.118 3.741-4.502-2.593.03-4.33 4.472 2.563z" fill="#D1B68A"/><path fill-rule="evenodd" clip-rule="evenodd" d="M100.358 85.436l4.234-2.445v4.36l-4.234 2.445v-4.36z" fill="#C4A676"/><path fill-rule="evenodd" clip-rule="evenodd" d="M95.886 82.873l4.235-2.445 4.471 2.563-4.234 2.445-4.472-2.563z" fill="#C1A963"/><path fill-rule="evenodd" clip-rule="evenodd" d="M100.476 85.023l-.118.825-4.709-2.71v-.766l4.827 2.651z" fill="#DBC49E"/><path fill-rule="evenodd" clip-rule="evenodd" d="M98.403 84.906v.766l1.51.883v-.795l-1.51-.854z" fill="#F0F0F0"/><path fill-rule="evenodd" clip-rule="evenodd" d="M99.647 85.701l.178.089v.589l-.178-.089v-.589zm-1.125-.059v-.589l.148.088v.59l-.148-.089zm.266.177v-.59l.148.09v.588l-.148-.088zm.296.177v-.59l.148.089v.59l-.148-.09zm.296.147v-.59l.148.09v.588l-.148-.088z" fill="#8A888B"/><path fill-rule="evenodd" clip-rule="evenodd" d="M100.358 85.082l4.471-2.563-.029.766-4.442 2.563v-.766z" fill="#D1B68A"/><path fill-rule="evenodd" clip-rule="evenodd" d="M95.65 82.372l4.471-2.563 4.708 2.71-4.471 2.563-4.709-2.71z" fill="#EDDDC4"/><path d="M94.406 42.924c-.77 0-1.51-.177-2.073-.5-.563-.325-.889-.767-.889-1.267 0-.472.326-.914.889-1.267.562-.324 1.273-.501 2.073-.501.799 0 1.51.177 2.072.5.563.325.889.767.889 1.268 0 .47-.326.913-.889 1.266-.562.324-1.303.501-2.072.501zm0-3.24c-.711 0-1.392.147-1.925.47-.504.295-.77.649-.77 1.032s.266.766.77 1.031c.533.295 1.243.471 1.925.471.71 0 1.391-.147 1.924-.47.504-.296.77-.649.77-1.032s-.266-.766-.77-1.031c-.533-.324-1.214-.471-1.924-.471z" fill="#B1BAC4"/><path d="M94.406 47.579c-.09 0-.178-.088-.178-.177l-.03-6.835c0-.088.089-.176.178-.176s.177.088.177.176l.03 6.835c0 .089-.089.177-.177.177zM90.911 45.576c-.03 0-.059 0-.089-.03-.088-.059-.118-.147-.059-.235.207-.325.444-1.208.563-3.565.059-1.414.059-2.71.059-2.74 0-.088.06-.177.178-.177.088 0 .177.089.177.177 0 0 .03 1.326-.059 2.74-.089 1.944-.296 3.211-.622 3.712-.03.088-.089.118-.148.118zM97.811 45.576a.163.163 0 01-.148-.089c-.296-.53-.504-1.767-.622-3.712-.06-1.443-.06-2.74-.06-2.74 0-.088.09-.176.178-.176.09 0 .178.088.178.176 0 0-.03 1.297.06 2.74.118 2.357.384 3.24.562 3.565.06.088.03.177-.06.236-.029-.03-.058 0-.088 0z" fill="#B1BAC4"/><path d="M94.406 40.833c1.782 0 3.227-.831 3.227-1.856 0-1.025-1.445-1.856-3.227-1.856-1.783 0-3.228.83-3.228 1.855 0 1.026 1.445 1.857 3.228 1.857z" fill="#A2AEBA"/><path d="M97.633 37.945c0-.471-.325-.942-.947-1.325-1.274-.737-3.317-.737-4.59 0-.622.353-.948.854-.948 1.325 0 .472.326.943.948 1.326 1.273.737 3.316.737 4.59 0 .621-.353.947-.854.947-1.326 0 .03 0 .03 0 0 0 .03 0 .03 0 0 0 .03 0 .03 0 0 0 .03 0 .03 0 0 0 .03 0 0 0 0z" fill="#B02727"/><path d="M94.406 39.801c1.782 0 3.227-.83 3.227-1.856 0-1.025-1.445-1.856-3.227-1.856-1.783 0-3.228.831-3.228 1.856 0 1.025 1.445 1.856 3.228 1.856z" fill="#E65353"/><path d="M77.26 102.523c-.77 0-1.51-.177-2.073-.501s-.889-.766-.889-1.266c0-.472.326-.914.889-1.267.563-.324 1.273-.501 2.073-.501s1.51.177 2.073.5c.562.325.888.767.888 1.268 0 .471-.326.913-.888 1.266-.563.324-1.303.501-2.073.501zm0-3.24c-.711 0-1.392.147-1.925.47-.503.296-.77.649-.77 1.032s.267.766.77 1.031c.533.295 1.244.472 1.925.472.71 0 1.391-.148 1.924-.472.504-.294.77-.648.77-1.031 0-.383-.266-.766-.77-1.031-.532-.324-1.243-.472-1.924-.472z" fill="#B1BAC4"/><path d="M77.26 107.178c-.09 0-.178-.088-.178-.177l-.03-6.835c0-.088.09-.176.178-.176.089 0 .178.088.178.176l.03 6.835c-.03.089-.09.177-.178.177zM73.765 105.175c-.03 0-.059 0-.088-.03-.09-.059-.119-.147-.06-.235.208-.324.444-1.208.563-3.565.06-1.414.06-2.71.06-2.74 0-.088.058-.177.177-.177.089 0 .178.089.178.177 0 0 .03 1.326-.06 2.74-.088 1.944-.296 3.211-.621 3.712-.03.088-.09.118-.149.118zM80.665 105.175a.163.163 0 01-.148-.089c-.296-.53-.503-1.767-.622-3.712-.059-1.443-.059-2.74-.059-2.74 0-.088.089-.176.178-.176s.177.088.177.176c0 0-.03 1.297.06 2.74.118 2.357.384 3.241.562 3.565.06.088.03.177-.059.236-.03-.03-.06 0-.089 0z" fill="#B1BAC4"/><path d="M77.26 100.432c1.782 0 3.227-.831 3.227-1.856 0-1.025-1.445-1.856-3.227-1.856-1.783 0-3.228.83-3.228 1.856 0 1.025 1.445 1.856 3.228 1.856z" fill="#A2AEBA"/><path d="M80.487 97.544c0-.471-.325-.942-.947-1.325-1.273-.737-3.317-.737-4.59 0-.622.353-.948.854-.948 1.325 0 .472.326.943.948 1.326 1.273.737 3.317.737 4.59 0 .622-.353.947-.854.947-1.326 0 .03 0 .03 0 0 0 .03 0 .03 0 0 0 .03 0 .03 0 0 0 .03 0 .03 0 0 0 .03 0 0 0 0z" fill="#B02727"/><path d="M77.26 99.4c1.782 0 3.227-.83 3.227-1.856 0-1.025-1.445-1.856-3.227-1.856-1.783 0-3.228.831-3.228 1.856 0 1.025 1.445 1.856 3.228 1.856z" fill="#E65353"/><path fill-rule="evenodd" clip-rule="evenodd" d="M86.588 89.767l.089.618-.119 3.742-4.472-2.563v-4.36l4.502 2.563z" fill="#D1B68A"/><path fill-rule="evenodd" clip-rule="evenodd" d="M86.588 89.767l4.234-2.445-.03 4.36-4.234 2.445.03-4.36z" fill="#C4A676"/><path fill-rule="evenodd" clip-rule="evenodd" d="M82.087 87.204l4.234-2.446 4.501 2.564-4.234 2.445-4.501-2.563z" fill="#C1A963"/><path fill-rule="evenodd" clip-rule="evenodd" d="M86.677 89.354l-.119.825-4.679-2.68v-.767l4.797 2.622z" fill="#DBC49E"/><path fill-rule="evenodd" clip-rule="evenodd" d="M84.604 89.237v.795l1.54.854v-.795l-1.54-.854z" fill="#F0F0F0"/><path fill-rule="evenodd" clip-rule="evenodd" d="M85.847 90.061l.178.089v.589l-.178-.088v-.59zm-1.125-.088v-.59l.148.09v.588l-.148-.088zm.296.177v-.59l.148.089v.59l-.148-.09zm.296.176v-.589l.148.089v.589l-.148-.089zm.267.148v-.59l.148.089v.59l-.148-.09z" fill="#8A888B"/><path fill-rule="evenodd" clip-rule="evenodd" d="M86.558 89.413l4.472-2.563v.766l-4.472 2.563v-.766z" fill="#D1B68A"/><path fill-rule="evenodd" clip-rule="evenodd" d="M81.88 86.732l4.441-2.592 4.709 2.71-4.472 2.563-4.679-2.68z" fill="#EDDDC4"/><path fill-rule="evenodd" clip-rule="evenodd" d="M86.705 84.906l.06.441-.06 2.652-3.227-1.827.03-3.122 3.197 1.856z" fill="#D1B68A"/><path fill-rule="evenodd" clip-rule="evenodd" d="M86.706 84.906l3.02-1.768v3.123l-3.02 1.738v-3.093z" fill="#C4A676"/><path fill-rule="evenodd" clip-rule="evenodd" d="M83.507 83.05l3.02-1.739 3.199 1.827-3.02 1.768-3.199-1.856z" fill="#C1A963"/><path fill-rule="evenodd" clip-rule="evenodd" d="M86.765 84.582l-.059.618-3.376-1.944v-.53l3.435 1.856z" fill="#DBC49E"/><path fill-rule="evenodd" clip-rule="evenodd" d="M85.285 84.493v.59l1.096.618v-.56l-1.096-.648z" fill="#E7EEF6"/><path fill-rule="evenodd" clip-rule="evenodd" d="M86.203 85.082l.118.06v.412l-.118-.06v-.412zm-.83-.029v-.412l.12.058v.413l-.12-.059zm.208.118v-.413l.118.06v.412l-.118-.06zm.207.118v-.413l.119.06v.412l-.119-.06zm.208.117v-.412l.118.059v.412l-.118-.059z" fill="#8A888B"/><path fill-rule="evenodd" clip-rule="evenodd" d="M86.706 84.64l3.169-1.826v.53L86.706 85.2v-.56z" fill="#D1B68A"/><path fill-rule="evenodd" clip-rule="evenodd" d="M83.33 82.725l3.198-1.855 3.347 1.944-3.169 1.827-3.376-1.916z" fill="#EDDDC4"/><path fill-rule="evenodd" clip-rule="evenodd" d="M32.958 40.744l.06.442-.09 2.681-3.198-1.856v-3.093l3.228 1.826z" fill="#D1B68A"/><path fill-rule="evenodd" clip-rule="evenodd" d="M32.959 40.744l3.02-1.738v3.093l-3.05 1.768.03-3.123z" fill="#C4A676"/><path fill-rule="evenodd" clip-rule="evenodd" d="M29.73 38.917l3.05-1.767 3.199 1.856-3.02 1.738-3.229-1.827z" fill="#C1A963"/><path fill-rule="evenodd" clip-rule="evenodd" d="M33.018 40.45l-.089.589-3.346-1.915v-.56l3.435 1.886z" fill="#DBC49E"/><path fill-rule="evenodd" clip-rule="evenodd" d="M31.538 40.361v.56l1.095.618v-.56l-1.095-.618z" fill="#E7EEF6"/><path fill-rule="evenodd" clip-rule="evenodd" d="M32.426 40.95l.118.06v.412l-.118-.06v-.412zm-.8-.059v-.412l.119.059v.412l-.119-.059zm.208.118v-.412l.118.059v.412l-.118-.059zm.207.118v-.412l.118.059v.412l-.118-.059zm.207.118v-.412l.119.059v.412l-.119-.059z" fill="#8A888B"/><path fill-rule="evenodd" clip-rule="evenodd" d="M32.93 40.479l3.198-1.826v.56l-3.199 1.826v-.56z" fill="#D1B68A"/><path fill-rule="evenodd" clip-rule="evenodd" d="M29.583 38.564l3.198-1.856 3.347 1.944-3.199 1.827-3.346-1.915z" fill="#EDDDC4"/></g><defs><clipPath id="axclip0"><path fill="#fff" d="M0 0h130v124H0z"/></clipPath></defs></svg>