<?xml version="1.0" encoding="utf-8"?><svg width="118" height="44" fill="none" xmlns="http://www.w3.org/2000/svg" viewBox="0 0 118 44"><path d="M27.246 14.309l-3.653 17.434h-4.465l3.653-17.434h4.465zM45.918 25.57l2.334-6.531 1.37 6.531h-3.704zm4.972 6.172H55l-3.602-17.434h-3.806c-.862 0-1.573.514-1.877 1.285l-6.647 16.149h4.668l.913-2.623h5.683l.558 2.623zm-11.619-5.709c0-4.577-6.291-4.834-6.24-6.891 0-.617.608-1.286 1.877-1.44.66-.103 2.384-.154 4.363.771l.761-3.703c-.964-.411-2.384-.771-4.059-.771-4.414 0-7.509 2.366-7.509 5.76-.05 2.52 2.233 3.909 3.907 4.731 1.725.875 2.334 1.389 2.283 2.16 0 1.183-1.37 1.698-2.638 1.698-2.233.051-3.552-.618-4.567-1.08l-.812 3.805c1.066.463 2.943.926 4.922.926 4.668 0 7.712-2.314 7.712-5.966zM20.904 14.31L13.7 31.743H8.981L5.429 17.857c-.203-.874-.406-1.183-1.066-1.543-1.065-.617-2.79-1.131-4.363-1.491l.101-.514h7.56c.964 0 1.827.668 2.03 1.8l1.877 10.08 4.617-11.829h4.72v-.051z" fill="#292E66"/><path d="M78.106 38.482v-2.193c.036-.73-.47-1.352-1.192-1.389h-.18c-.47-.036-.939.22-1.228.622-.253-.402-.686-.658-1.155-.622-.397-.036-.794.183-1.011.512v-.439h-.758v3.509h.758v-1.937c-.072-.439.253-.877.686-.914h.144c.506 0 .758.33.758.914v1.937h.759v-1.937c-.072-.439.252-.877.686-.914h.144c.505 0 .758.33.758.914v1.937h.83zm11.228-3.509h-1.228v-1.06h-.758v1.06h-.686v.695h.686v1.608c0 .804.325 1.279 1.192 1.279.325 0 .65-.11.938-.256l-.216-.658c-.217.11-.434.183-.65.183-.361 0-.506-.22-.506-.585v-1.608h1.228v-.658zm6.426-.073c-.36 0-.722.183-.902.512v-.439H94.1v3.509h.758v-1.974c0-.584.252-.913.722-.913.144 0 .325.036.47.073l.216-.731c-.18-.037-.361-.073-.506-.037zm-9.712.366a2.704 2.704 0 00-1.408-.366c-.866 0-1.444.439-1.444 1.133 0 .585.433.914 1.192 1.023l.36.037c.398.073.614.183.614.365 0 .256-.288.439-.794.439-.397 0-.83-.11-1.155-.365l-.361.584c.433.293.975.475 1.48.439 1.011 0 1.589-.475 1.589-1.133s-.47-.95-1.192-1.06l-.36-.036c-.326-.037-.579-.11-.579-.33 0-.219.253-.401.65-.401s.758.11 1.084.292l.324-.621zm20.11-.366c-.361 0-.722.183-.903.512v-.439h-.758v3.509h.758v-1.974c0-.584.253-.913.723-.913.144 0 .324.036.469.073l.217-.731c-.145-.037-.325-.073-.506-.037zm-9.676 1.828c-.036.986.722 1.79 1.661 1.827h.18a1.67 1.67 0 001.228-.402l-.36-.621a1.929 1.929 0 01-.904.329c-.613-.037-1.047-.585-1.01-1.206.036-.549.469-.987 1.01-1.024.325 0 .65.11.903.33l.361-.622c-.36-.292-.794-.439-1.227-.402-.975-.073-1.77.694-1.842 1.644v.147zm7.041 0v-1.755h-.759v.439a1.346 1.346 0 00-1.083-.512c-1.011 0-1.805.804-1.805 1.828 0 1.023.794 1.827 1.805 1.827.433 0 .831-.183 1.083-.512v.439h.759v-1.754zm-2.78 0a1.054 1.054 0 011.119-.987c.577.036 1.011.548.975 1.133-.037.548-.47.986-1.047.986-.578 0-1.047-.438-1.047-1.023v-.11zM91.681 34.9c-1.011 0-1.806.84-1.77 1.864.037 1.023.83 1.827 1.842 1.79a2.093 2.093 0 001.444-.474l-.361-.548c-.289.219-.65.365-1.011.365a.991.991 0 01-1.047-.84h2.563v-.293c0-1.133-.686-1.864-1.66-1.864zm0 .658c.469 0 .866.366.866.84h-1.805c.036-.474.433-.84.939-.84zm18.81 1.17v-3.143h-.723v1.827a1.345 1.345 0 00-1.083-.512c-1.011 0-1.805.804-1.805 1.828 0 1.023.794 1.827 1.805 1.827.434 0 .831-.183 1.083-.512v.439h.723v-1.754zm1.263 1.242c.036 0 .108 0 .145.037.036 0 .072.036.108.073.036.036.072.073.072.11a.316.316 0 010 .255c-.036.037-.036.073-.072.11-.036.036-.072.073-.108.073-.037.036-.073.036-.145.036-.144 0-.253-.073-.325-.219a.316.316 0 010-.256c.036-.036.036-.073.072-.11.037-.036.073-.072.109-.072.036-.037.108-.037.144-.037zm0 .621c.036 0 .072 0 .108-.036a.078.078 0 00.073-.073.247.247 0 000-.366l-.073-.073c-.036 0-.072-.036-.108-.036-.036 0-.072 0-.108.036-.036 0-.072.037-.072.073-.109.11-.109.256 0 .366.036.036.072.036.072.073.036 0 .072.036.108.036zm0-.438c.036 0 .072 0 .108.036.037.037.037.037.037.074 0 .036 0 .036-.037.073-.036.036-.036.036-.072.036l.109.11h-.073l-.108-.11h-.036v.11h-.072v-.33h.144zm-.072.036v.074H111.79v-.074H111.682zm-3.971-1.461a1.054 1.054 0 011.119-.987c.577.036 1.011.548.975 1.133-.037.548-.47.986-1.047.986-.578 0-1.047-.438-1.047-1.023v-.11zm-25.345 0v-1.755h-.758v.439a1.347 1.347 0 00-1.083-.512c-1.011 0-1.806.804-1.806 1.828 0 1.023.795 1.827 1.806 1.827.433 0 .83-.183 1.083-.512v.439h.758v-1.754zm-2.816 0a1.055 1.055 0 011.119-.987c.578.036 1.01.548.975 1.133a1.04 1.04 0 01-1.047.986c-.578 0-1.047-.438-1.047-1.023v-.11z" fill="#231F20"/><path d="M97.204 8.369H85.832v20.684h11.372V8.37z" fill="#FF5F00"/><path d="M86.554 18.711c0-4.02 1.841-7.857 4.982-10.342a12.845 12.845 0 00-18.232 2.23c-4.405 5.737-3.466 13.996 2.202 18.454a12.84 12.84 0 0016.066 0c-3.213-2.521-5.054-6.322-5.018-10.342z" fill="#EB001B"/><path d="M112.512 18.711c0 7.272-5.812 13.156-12.997 13.156-2.924 0-5.74-.987-8.015-2.814 5.632-4.495 6.607-12.79 2.202-18.492A12.79 12.79 0 0091.5 8.332c5.632-4.495 13.828-3.508 18.269 2.23 1.769 2.302 2.743 5.189 2.743 8.149zM111.285 26.86v-.438h.18v-.073h-.433v.073h.181v.438h.072zm.83 0v-.511h-.144l-.145.365-.144-.365h-.108v.511h.108v-.365l.144.329h.109l.144-.329v.402l.036-.037z" fill="#F79E1B"/></svg>