<?xml version="1.0" encoding="utf-8"?><svg width="130" height="124" fill="none" xmlns="http://www.w3.org/2000/svg" viewBox="0 0 130 124"><path fill-rule="evenodd" clip-rule="evenodd" d="M3.037 84.008L3 89.204 65.22 124l.329-1.134-.293-4.062-62.22-34.796z" fill="#8A6633"/><path fill-rule="evenodd" clip-rule="evenodd" d="M64.743 55.798L3.036 84.008l62.22 34.796 61.707-34.43-62.22-28.576z" fill="#BD9257"/><path fill-rule="evenodd" clip-rule="evenodd" d="M126.963 84.374l-.036 5.196L65.219 124l.037-5.196 61.707-34.43z" fill="#A37C44"/><path fill-rule="evenodd" clip-rule="evenodd" d="M6.11 29.82l.84 23.16-1.06 32.894L3 84.191l.183-56.018 2.926 1.647z" fill="#E6E6E6" stroke="#E0DAD9" stroke-width=".216" stroke-miterlimit="22.926"/><path fill-rule="evenodd" clip-rule="evenodd" d="M64.853 2.89l1.829 29.27-2.049 27.223L5.89 85.873l.22-56.493L64.852 2.89z" fill="#DCDCDA"/><path fill-rule="evenodd" clip-rule="evenodd" d="M124.074 29.747l1.463 21.258-1.646 35.235-59.257-26.856.22-56.494 59.22 26.857z" fill="#E6E6E6"/><path fill-rule="evenodd" clip-rule="evenodd" d="M126.963 28.54l-2.889 1.646L64.854 3.33 6.109 29.82l-2.926-1.646L64.817 0l62.146 28.54z" fill="#F0F0F0"/><path fill-rule="evenodd" clip-rule="evenodd" d="M126.963 28.54l-.183 56.017-2.889 1.683.183-56.054 2.889-1.647z" fill="#DCDCDA"/><path fill-rule="evenodd" clip-rule="evenodd" d="M65.146 66.043l.293 1.756-.33 10.977-13.058-7.537.037-12.77 13.058 7.574z" fill="#D1B68A"/><path fill-rule="evenodd" clip-rule="evenodd" d="M65.146 66.043l12.364-7.208-.037 12.733-12.363 7.208.036-12.733z" fill="#C4A676"/><path fill-rule="evenodd" clip-rule="evenodd" d="M52.088 58.469l12.363-7.172 13.059 7.537-12.364 7.209-13.058-7.574z" fill="#C1A963"/><path fill-rule="evenodd" clip-rule="evenodd" d="M65.439 64.762l-.33 2.452-13.68-7.903v-2.269l14.01 7.72z" fill="#D1B68A"/><path fill-rule="evenodd" clip-rule="evenodd" d="M59.403 64.397v2.341l4.463 2.561v-2.305l-4.463-2.597z" fill="#E7EEF6"/><path fill-rule="evenodd" clip-rule="evenodd" d="M63.06 66.81l.476.293v1.72l-.476-.293v-1.72zm-3.327-.182v-1.72l.475.257v1.719l-.475-.256zm.84.475v-1.719l.476.256v1.72l-.475-.257zm.878.512v-1.719l.476.256v1.72l-.476-.257zm.805.476v-1.72l.475.257v1.719l-.475-.256z" fill="#8A888B"/><path fill-rule="evenodd" clip-rule="evenodd" d="M65.146 64.982l12.985-7.574v2.269L65.11 67.214l.036-2.232z" fill="#D1B68A"/><path fill-rule="evenodd" clip-rule="evenodd" d="M51.43 57.042l12.985-7.537 13.716 7.903-12.985 7.574-13.717-7.94z" fill="#DBC49E"/><path fill-rule="evenodd" clip-rule="evenodd" d="M62.44 53.932l.182 1.207-.22 7.355-8.741-5.05v-8.561l8.779 5.05z" fill="#D1B68A"/><path fill-rule="evenodd" clip-rule="evenodd" d="M62.44 53.932l8.266-4.793-.037 8.525-8.266 4.83.036-8.562z" fill="#C4A676"/><path fill-rule="evenodd" clip-rule="evenodd" d="M53.66 48.883l8.304-4.794 8.742 5.05-8.267 4.793-8.779-5.05z" fill="#C1A963"/><path fill-rule="evenodd" clip-rule="evenodd" d="M62.622 53.09l-.22 1.647-9.18-5.305v-1.5l9.4 5.159z" fill="#DBC49E"/><path fill-rule="evenodd" clip-rule="evenodd" d="M58.599 52.871v1.536l2.962 1.72V54.59l-2.962-1.719z" fill="#F0F0F0"/><path fill-rule="evenodd" clip-rule="evenodd" d="M61.012 54.48l.33.184v1.17l-.33-.183v-1.17zm-2.194-.146v-1.17l.33.183v1.17l-.33-.183zm.549.33v-1.171l.329.183v1.17l-.33-.182zm.585.329v-1.17l.329.182v1.17l-.33-.182zm.548.329v-1.17l.33.182v1.17l-.33-.182z" fill="#8A888B"/><path fill-rule="evenodd" clip-rule="evenodd" d="M62.44 53.237l8.669-5.05v1.5l-8.706 5.05.036-1.5z" fill="#D1B68A"/><path fill-rule="evenodd" clip-rule="evenodd" d="M53.222 47.932l8.705-5.05 9.181 5.306-8.669 5.049-9.217-5.305z" fill="#EDDDC4"/><path fill-rule="evenodd" clip-rule="evenodd" d="M61.671 46.247l.11.769-.146 4.646-5.524-3.22v-5.378l5.56 3.183z" fill="#D1B68A"/><path fill-rule="evenodd" clip-rule="evenodd" d="M61.671 46.248l5.231-3.036-.037 5.378-5.23 3.074.036-5.416z" fill="#C4A676"/><path fill-rule="evenodd" clip-rule="evenodd" d="M56.111 43.065l5.268-3.037 5.523 3.183-5.23 3.037-5.56-3.183z" fill="#C1A963"/><path fill-rule="evenodd" clip-rule="evenodd" d="M61.781 45.699l-.11 1.06-5.816-3.365v-.952l5.926 3.257z" fill="#DBC49E"/><path fill-rule="evenodd" clip-rule="evenodd" d="M59.22 45.553v.988l1.902 1.097v-.987l-1.901-1.098z" fill="#F0F0F0"/><path fill-rule="evenodd" clip-rule="evenodd" d="M60.793 46.577l.22.11v.732l-.22-.11v-.732zm-1.426-.073v-.731l.183.11v.73l-.183-.109zm.366.22v-.732l.183.11v.731l-.183-.11zm.365.183v-.732l.183.11v.731l-.183-.11zm.33.219v-.732l.182.11v.732l-.183-.11z" fill="#8A888B"/><path fill-rule="evenodd" clip-rule="evenodd" d="M61.671 45.81l5.487-3.22v.987l-5.487 3.184v-.952z" fill="#D1B68A"/><path fill-rule="evenodd" clip-rule="evenodd" d="M55.855 42.443l5.487-3.183 5.816 3.33-5.487 3.22-5.816-3.367z" fill="#EDDDC4"/><path fill-rule="evenodd" clip-rule="evenodd" d="M87.057 76.874l.292 1.573-.329 9.879-11.742-6.77V70.069l11.779 6.806z" fill="#D1B68A"/><path fill-rule="evenodd" clip-rule="evenodd" d="M87.057 76.873l11.12-6.476v11.452L87.02 88.326l.037-11.453z" fill="#C4A676"/><path fill-rule="evenodd" clip-rule="evenodd" d="M75.278 70.067l11.157-6.476 11.741 6.806-11.12 6.476-11.778-6.806z" fill="#C1A963"/><path fill-rule="evenodd" clip-rule="evenodd" d="M87.313 75.703l-.256 2.231L74.693 70.8v-2.013l12.62 6.915z" fill="#DBC49E"/><path fill-rule="evenodd" clip-rule="evenodd" d="M81.899 75.41v2.085l3.986 2.304.036-2.085L81.9 75.41z" fill="#F0F0F0"/><path fill-rule="evenodd" clip-rule="evenodd" d="M85.19 77.568l.44.256v1.573l-.44-.256v-1.573zm-2.998-.183v-1.536l.439.256v1.573l-.44-.293zm.768.439v-1.573l.439.256v1.573l-.44-.256zm.768.475v-1.572l.438.256v1.536l-.438-.22zm.73.403v-1.536l.44.256v1.573l-.44-.293z" fill="#8A888B"/><path fill-rule="evenodd" clip-rule="evenodd" d="M87.057 75.922l11.705-6.805v2.012l-11.705 6.805v-2.012z" fill="#D1B68A"/><path fill-rule="evenodd" clip-rule="evenodd" d="M74.693 68.787l11.705-6.805 12.364 7.134-11.705 6.806-12.364-7.135z" fill="#EDDDC4"/><path fill-rule="evenodd" clip-rule="evenodd" d="M86.654 65.128l.183 1.171-.22 7.355-8.742-5.05.037-8.525 8.742 5.05z" fill="#D1B68A"/><path fill-rule="evenodd" clip-rule="evenodd" d="M86.654 65.128l8.267-4.83v8.526l-8.303 4.83.036-8.526z" fill="#C4A676"/><path fill-rule="evenodd" clip-rule="evenodd" d="M77.912 60.079l8.267-4.83 8.742 5.05-8.267 4.83-8.742-5.05z" fill="#C1A963"/><path fill-rule="evenodd" clip-rule="evenodd" d="M86.837 64.25l-.183 1.683-9.218-5.305.037-1.537 9.364 5.16z" fill="#DBC49E"/><path fill-rule="evenodd" clip-rule="evenodd" d="M82.814 64.03v1.573l2.961 1.72V65.75l-2.962-1.72z" fill="#F0F0F0"/><path fill-rule="evenodd" clip-rule="evenodd" d="M85.264 65.64l.329.183v1.17l-.33-.182v-1.17zm-2.231-.11v-1.17l.33.183v1.17l-.33-.182zm.549.33v-1.17l.329.182v1.17l-.33-.182zm.585.329v-1.17l.329.182v1.17l-.33-.182zm.548.293V65.31l.33.183v1.17l-.33-.183z" fill="#8A888B"/><path fill-rule="evenodd" clip-rule="evenodd" d="M86.654 64.396l8.706-5.049v1.5l-8.706 5.086v-1.537z" fill="#D1B68A"/><path fill-rule="evenodd" clip-rule="evenodd" d="M77.472 59.091l8.706-5.049 9.181 5.305-8.706 5.05-9.18-5.306z" fill="#EDDDC4"/><path fill-rule="evenodd" clip-rule="evenodd" d="M97.006 81.813l1.28 6.879c.146.622.659 1.244 1.463 1.72 2.049 1.17 5.304 1.17 7.352 0 .915-.55 1.427-1.245 1.5-1.94l1.244-6.659c-.183 4.244-12.876 1.866-12.84 0z" fill="#96979B"/><path fill-rule="evenodd" clip-rule="evenodd" d="M107.906 79.215c-2.524-1.464-6.584-1.464-9.071 0-2.488 1.464-2.488 3.805.036 5.269 1.244.732 2.89 1.098 4.536 1.098 1.646 0 3.292-.366 4.536-1.098 2.487-1.464 2.487-3.805-.037-5.269z" fill="#9C9EA2"/><path fill-rule="evenodd" clip-rule="evenodd" d="M106.882 79.8c-1.939-1.134-5.085-1.134-6.987 0-1.938 1.135-1.902 2.928.037 4.062 1.939 1.134 5.084 1.134 6.986 0 1.939-1.098 1.902-2.927-.036-4.061z" fill="#331202"/><path fill-rule="evenodd" clip-rule="evenodd" d="M104.065 64.03v.184l-.036.036h-.037-.036-.037-.037c-.036 0-.036.037-.073.037h-.036s-.037 0-.037.036h-.073-.073H103.48 103.114h-.073-.036c-.037 0-.037 0-.074-.036h-.036s-.037 0-.037-.037c-.146-.073-.183-.183-.183-.256v17.782c0 .11.074.183.183.256 0 0 .037 0 .037.037h.036c.037 0 .037 0 .074.037H103.444s.036 0 .036-.037h.037c.036 0 .036-.037.073-.037h.073l.037-.036v-.037-.036-.037-17.855c.365-.037.365-.037.365 0z" fill="#57260D"/><path fill-rule="evenodd" clip-rule="evenodd" d="M103.846 63.738a1.009 1.009 0 00-.915 0c-.256.146-.256.402 0 .549.256.146.659.146.915 0 .292-.183.256-.403 0-.55z" fill="#9C9EA2"/><path fill-rule="evenodd" clip-rule="evenodd" d="M103.407 55.725c4.499 0 8.12 3.33 8.12 7.39 0 4.099-3.657 7.392-8.12 7.392-4.5 0-8.12-3.33-8.12-7.391-.037-4.061 3.62-7.391 8.12-7.391z" fill="#669839"/><path fill-rule="evenodd" clip-rule="evenodd" d="M111.491 62.42c.036.257.036.476.036.732 0 4.098-3.657 7.391-8.12 7.391-4.499 0-8.12-3.33-8.12-7.39 0-.257 0-.476.036-.733 1.61 2.196 4.646 3.696 8.084 3.696 3.438-.037 6.474-1.5 8.084-3.696z" fill="#5E8838"/><path d="M86.252 54.992c-.951 0-1.866-.22-2.56-.622-.696-.403-1.098-.951-1.098-1.573 0-.586.402-1.135 1.097-1.574.695-.402 1.573-.622 2.56-.622.988 0 1.866.22 2.561.622.695.403 1.097.952 1.097 1.574 0 .585-.402 1.134-1.097 1.573-.695.402-1.61.622-2.56.622zm0-4.025c-.878 0-1.72.183-2.378.586-.622.365-.951.805-.951 1.28 0 .476.33.951.951 1.28.658.367 1.536.586 2.378.586.877 0 1.719-.183 2.377-.585.622-.366.951-.805.951-1.28 0-.477-.329-.952-.95-1.282-.623-.402-1.5-.585-2.378-.585z" fill="#B1BAC4"/><path d="M86.252 60.774c-.11 0-.22-.11-.22-.22l-.036-8.488c0-.11.11-.22.22-.22.109 0 .219.11.219.22l.036 8.489c0 .11-.11.22-.22.22zM81.936 58.249c-.037 0-.074 0-.11-.037-.11-.073-.146-.183-.073-.293.256-.402.549-1.5.695-4.427.073-1.756.073-3.366.073-3.403 0-.11.073-.22.22-.22.11 0 .219.11.219.22 0 0 .036 1.647-.073 3.403-.11 2.415-.366 3.988-.768 4.61-.037.11-.11.147-.183.147zM90.458 58.25a.201.201 0 01-.183-.11c-.365-.659-.621-2.195-.768-4.61-.073-1.793-.073-3.403-.073-3.403 0-.11.11-.22.22-.22s.22.11.22.22c0 0-.037 1.61.072 3.403.147 2.927.476 4.025.695 4.427.073.11.037.22-.073.293h-.11z" fill="#B1BAC4"/><path d="M86.252 52.395c2.202 0 3.987-1.032 3.987-2.305 0-1.273-1.785-2.305-3.987-2.305s-3.987 1.032-3.987 2.305c0 1.273 1.785 2.305 3.987 2.305z" fill="#A2AEBA"/><path d="M90.275 48.81c0-.586-.402-1.171-1.17-1.647-1.573-.915-4.097-.915-5.67 0-.768.44-1.17 1.061-1.17 1.647 0 .585.402 1.17 1.17 1.646 1.573.915 4.097.915 5.67 0 .768-.439 1.17-1.061 1.17-1.646 0 .036 0 .036 0 0 0 .036 0 .036 0 0 0 .036 0 .036 0 0 0 .036 0 .036 0 0z" fill="#B02727"/><path d="M86.252 51.115c2.202 0 3.987-1.032 3.987-2.305 0-1.273-1.785-2.305-3.987-2.305s-3.987 1.032-3.987 2.305c0 1.273 1.785 2.305 3.987 2.305z" fill="#E65353"/><path d="M77.546 98.057c-.951 0-1.866-.22-2.56-.622-.696-.402-1.098-.951-1.098-1.573 0-.585.402-1.134 1.097-1.573.695-.403 1.573-.622 2.561-.622.951 0 1.865.22 2.56.622.695.402 1.098.951 1.098 1.573 0 .585-.403 1.134-1.098 1.573-.694.403-1.609.622-2.56.622zm0-4.061c-.878 0-1.72.183-2.378.585-.621.366-.95.805-.95 1.281 0 .476.329.951.95 1.28.659.367 1.537.586 2.378.586.878 0 1.72-.183 2.377-.585.622-.366.952-.805.952-1.281 0-.476-.33-.951-.951-1.28-.659-.366-1.5-.586-2.378-.586z" fill="#B1BAC4"/><path d="M77.546 103.803c-.11 0-.22-.11-.22-.22l-.036-8.489c0-.11.11-.219.22-.219s.22.11.22.22l.036 8.488c0 .11-.11.22-.22.22zM73.23 101.314c-.037 0-.073 0-.11-.037-.11-.073-.146-.183-.073-.292.256-.403.549-1.5.695-4.428.073-1.756.073-3.366.073-3.403 0-.11.073-.22.22-.22.11 0 .22.11.22.22 0 0 .036 1.647-.074 3.403-.11 2.415-.366 3.988-.768 4.61-.037.11-.11.147-.183.147zM81.753 101.315a.202.202 0 01-.183-.11c-.366-.658-.622-2.195-.768-4.61-.074-1.793-.074-3.403-.074-3.403 0-.11.11-.22.22-.22s.22.11.22.22c0 0-.037 1.61.073 3.403.146 2.927.475 4.025.695 4.427.073.11.036.22-.074.293h-.11z" fill="#B1BAC4"/><path d="M77.546 95.424c2.202 0 3.987-1.032 3.987-2.306 0-1.273-1.785-2.305-3.987-2.305s-3.987 1.032-3.987 2.305c0 1.274 1.785 2.306 3.987 2.306z" fill="#A2AEBA"/><path d="M81.533 91.875c0-.585-.402-1.17-1.17-1.647-1.573-.914-4.097-.914-5.67 0-.768.44-1.17 1.062-1.17 1.647s.402 1.17 1.17 1.646c1.573.915 4.097.915 5.67 0 .768-.439 1.17-1.06 1.17-1.646 0 .037 0 .037 0 0 0 .037 0 0 0 0z" fill="#B02727"/><path d="M77.546 94.18c2.202 0 3.987-1.032 3.987-2.305 0-1.273-1.785-2.305-3.987-2.305s-3.987 1.032-3.987 2.305c0 1.273 1.785 2.305 3.987 2.305z" fill="#E65353"/><path fill-rule="evenodd" clip-rule="evenodd" d="M61.342 39.589l.11.512-.11 3.33-3.95-2.269v-3.878l3.95 2.305z" fill="#D1B68A"/><path fill-rule="evenodd" clip-rule="evenodd" d="M61.341 39.589l3.768-2.196-.037 3.879-3.731 2.159v-3.842z" fill="#C4A676"/><path fill-rule="evenodd" clip-rule="evenodd" d="M57.392 37.284l3.73-2.159 3.988 2.269-3.768 2.195-3.95-2.305z" fill="#C1A963"/><path fill-rule="evenodd" clip-rule="evenodd" d="M61.45 39.186l-.11.768-4.131-2.414v-.695l4.242 2.34z" fill="#DBC49E"/><path fill-rule="evenodd" clip-rule="evenodd" d="M59.622 39.076v.695l1.353.804v-.731l-1.353-.768z" fill="#E7EEF6"/><path fill-rule="evenodd" clip-rule="evenodd" d="M60.72 39.807l.146.073v.513l-.147-.074v-.512zm-.988-.036v-.512l.146.073v.512l-.146-.073zm.22.146v-.512l.146.073v.512l-.146-.073zm.292.146v-.512l.146.073v.512l-.146-.073zm.22.147v-.512l.146.073v.512l-.147-.073z" fill="#8A888B"/><path fill-rule="evenodd" clip-rule="evenodd" d="M61.341 39.259l3.95-2.305v.695l-3.95 2.305v-.695z" fill="#D1B68A"/><path fill-rule="evenodd" clip-rule="evenodd" d="M57.209 36.845l3.914-2.268 4.17 2.378-3.95 2.305-4.134-2.415z" fill="#EDDDC4"/><path d="M50.588 80.642h-5.852l5.742-4.5.11 4.5z" fill="#175AA8"/><path d="M38.408 56.75l.804-.366.842-1.354-2.341-1.39c-.403-.22-.988-.184-1.61.146l-7.79 4.5c-1.208.695-2.159 2.379-2.159 3.732v12.184l12.217-7.061.037-10.392z" fill="#A31F1F"/><path d="M41.92 59.164l-.988.55c-.842.475-1.537 1.682-1.537 2.634v5.415l-11.193 6.513v5.378l11.23-6.476v.732l10.278 5.964 2.524-14.709-10.315-6z" fill="#A31F1F"/><path d="M49.674 79.837l2.524-1.464V65.092l-.988.548c-.841.476-1.536 1.683-1.536 2.635v11.562z" fill="#E34D4D"/><path d="M49.71 73.727c-.182 0-10.278-5.964-10.278-5.964l-9.145 5.269 8.194 7.171 11.23-6.476z" fill="#BF3737"/><path d="M30.543 59.567l7.79-4.5c1.244-.733 2.269-.147 2.269 1.316v12.075l-12.217 7.061V63.335c0-1.427.987-3.073 2.158-3.768zM38.48 85.618l11.23-6.513v-5.378L38.48 80.24v5.378z" fill="#E34D4D"/><path d="M25.678 81.85l2.524-1.464V68.787c0-.915-.658-1.317-1.463-.842l-1.06.623v13.281z" fill="#CF3C3C"/><path d="M38.115 73.91l-10.352-6.037-1.719 2.451 6.62 6.22 3.586.037 1.865-2.671z" fill="#CF3C3C"/><path d="M35.957 87.814l2.524-1.464V74.751c0-.915-.658-1.317-1.463-.841l-1.06.622v13.282z" fill="#E34D4D"/><path d="M35.957 74.531l-10.279-5.964V81.85l10.279 5.964V74.531z" fill="#A31F1F"/><path fill-rule="evenodd" clip-rule="evenodd" d="M42.504 69.92l.147.732-.147 4.647-5.56-3.184.037-5.415 5.523 3.22z" fill="#D1B68A"/><path fill-rule="evenodd" clip-rule="evenodd" d="M42.504 69.921l5.231-3.073v5.415l-5.23 3.037v-5.379z" fill="#C4A676"/><path fill-rule="evenodd" clip-rule="evenodd" d="M36.98 66.701l5.232-3.037 5.523 3.184-5.23 3.073-5.524-3.22z" fill="#C1A963"/><path fill-rule="evenodd" clip-rule="evenodd" d="M42.65 69.371l-.146 1.025-5.816-3.33v-.95l5.963 3.255z" fill="#DBC49E"/><path fill-rule="evenodd" clip-rule="evenodd" d="M40.09 69.226v.988l1.865 1.06v-.95l-1.865-1.098z" fill="#F0F0F0"/><path fill-rule="evenodd" clip-rule="evenodd" d="M41.626 70.25l.22.11v.732l-.22-.11v-.731zm-1.39-.11v-.73l.183.109v.731l-.182-.11zm.33.22v-.731l.182.11v.73l-.182-.109zm.365.22v-.732l.183.11v.731l-.183-.11zm.366.183v-.732l.183.11v.731l-.183-.11z" fill="#8A888B"/><path fill-rule="evenodd" clip-rule="evenodd" d="M42.504 69.446l5.524-3.184-.037.952-5.487 3.183v-.951z" fill="#D1B68A"/><path fill-rule="evenodd" clip-rule="evenodd" d="M36.688 66.116l5.524-3.22 5.816 3.366-5.524 3.183-5.816-3.33z" fill="#EDDDC4"/><path fill-rule="evenodd" clip-rule="evenodd" d="M24.252 86.86l.11.77-.147 4.646-5.523-3.22v-5.378l5.56 3.183z" fill="#D1B68A"/><path fill-rule="evenodd" clip-rule="evenodd" d="M24.252 86.862l5.23-3.037-.036 5.379-5.23 3.073.036-5.415z" fill="#C4A676"/><path fill-rule="evenodd" clip-rule="evenodd" d="M18.692 83.678l5.23-3.037 5.56 3.184-5.23 3.037-5.56-3.184z" fill="#C1A963"/><path fill-rule="evenodd" clip-rule="evenodd" d="M24.362 86.312l-.147 1.061-5.78-3.366v-.951l5.927 3.256z" fill="#DBC49E"/><path fill-rule="evenodd" clip-rule="evenodd" d="M21.801 86.167v.987l1.902 1.098v-.988L21.8 86.167z" fill="#F0F0F0"/><path fill-rule="evenodd" clip-rule="evenodd" d="M23.337 87.191l.22.11v.731l-.22-.11v-.73zm-1.39-.073v-.731l.183.11v.73l-.182-.109zm.366.22v-.732l.183.11v.731l-.183-.11zm.366.219v-.732l.183.11v.732l-.183-.11zm.329.183v-.732l.183.11v.732l-.183-.11z" fill="#8A888B"/><path fill-rule="evenodd" clip-rule="evenodd" d="M24.215 86.423l5.524-3.183v.951l-5.524 3.183v-.951z" fill="#D1B68A"/><path fill-rule="evenodd" clip-rule="evenodd" d="M18.436 83.057l5.487-3.183 5.816 3.366-5.524 3.183-5.78-3.366z" fill="#EDDDC4"/><path fill-rule="evenodd" clip-rule="evenodd" d="M62.805 87.557l.293 1.574-.293 9.879-11.778-6.806.037-11.452 11.741 6.805z" fill="#D1B68A"/><path fill-rule="evenodd" clip-rule="evenodd" d="M62.805 87.557l11.157-6.476-.037 11.452-11.12 6.477V87.557z" fill="#C4A676"/><path fill-rule="evenodd" clip-rule="evenodd" d="M51.063 80.751l11.12-6.476 11.778 6.806-11.156 6.476-11.742-6.806z" fill="#C1A963"/><path fill-rule="evenodd" clip-rule="evenodd" d="M63.098 86.387l-.293 2.231-12.363-7.134.036-2.05 12.62 6.953z" fill="#DBC49E"/><path fill-rule="evenodd" clip-rule="evenodd" d="M57.648 86.094v2.085l4.022 2.304v-2.085l-4.022-2.304z" fill="#F0F0F0"/><path fill-rule="evenodd" clip-rule="evenodd" d="M60.939 88.252l.439.256v1.573l-.44-.256v-1.573zm-2.999-.183v-1.536l.44.256v1.573l-.44-.293zm.768.439v-1.573l.44.256v1.573l-.44-.256zm.768.439v-1.573l.439.256v1.536l-.439-.22zm.732.439V87.85l.438.256v1.572l-.438-.292z" fill="#8A888B"/><path fill-rule="evenodd" clip-rule="evenodd" d="M62.805 86.57L74.51 79.8v2.013l-11.705 6.805V86.57z" fill="#D1B68A"/><path fill-rule="evenodd" clip-rule="evenodd" d="M50.478 79.435l11.705-6.77L74.51 79.8l-11.706 6.77-12.326-7.135z" fill="#EDDDC4"/><path fill-rule="evenodd" clip-rule="evenodd" d="M61.818 76.543l.146.768-.146 4.61-5.524-3.183V73.36l5.524 3.183z" fill="#D1B68A"/><path fill-rule="evenodd" clip-rule="evenodd" d="M61.818 76.544l5.23-3.037v5.379l-5.23 3.037v-5.379z" fill="#C4A676"/><path fill-rule="evenodd" clip-rule="evenodd" d="M56.294 73.36l5.231-3.036 5.523 3.183-5.23 3.037-5.524-3.183z" fill="#C1A963"/><path fill-rule="evenodd" clip-rule="evenodd" d="M61.964 75.994l-.146 1.061-5.816-3.366v-.951l5.962 3.256z" fill="#DBC49E"/><path fill-rule="evenodd" clip-rule="evenodd" d="M59.404 75.849v.988l1.864 1.097v-.988l-1.864-1.097z" fill="#F0F0F0"/><path fill-rule="evenodd" clip-rule="evenodd" d="M60.94 76.873l.219.11v.731l-.22-.11v-.731zm-1.39-.073v-.732l.183.11v.732l-.183-.11zm.329.22v-.732l.183.11v.731l-.183-.11zm.366.182v-.731l.182.11v.73l-.182-.109zm.365.22v-.732l.183.11v.731l-.183-.11z" fill="#8A888B"/><path fill-rule="evenodd" clip-rule="evenodd" d="M61.818 76.105l5.523-3.22v.952l-5.523 3.22v-.952z" fill="#D1B68A"/><path fill-rule="evenodd" clip-rule="evenodd" d="M56.002 72.739l5.523-3.183 5.816 3.33-5.523 3.22-5.816-3.367z" fill="#EDDDC4"/><path d="M56.623 101.059l-2.56 1.463-9.437-13.684 2.487-1.463 9.51 13.684z" fill="#965B14"/><path d="M47.625 96.156l8.45 4.866c.401.22.73.037.73-.439v-7.025c0-.476-.328-1.025-.73-1.28l-8.45-4.83c-.403-.22-.732-.037-.732.439v7.025c0 .439.33 1.024.732 1.244z" fill="#965B14"/><path d="M55.306 101.461v-7.025c0-.476-.329-1.025-.731-1.28l-8.45-4.867c-.036 0-.292-.147-.329-.147.037-.365.585-.402.951-.219l8.45 4.866c.402.22.731.805.731 1.28v7.026c0 .439-.292.622-.658.476.036-.037.036-.074.036-.11z" fill="#D1C46A"/><path d="M45.138 97.582l8.45 4.867c.402.219.731.036.731-.439v-7.026c0-.475-.33-1.024-.732-1.28l-8.449-4.866c-.402-.22-.732-.037-.732.439v7.025c0 .475.33 1.06.732 1.28z" fill="#BD8542"/><path d="M53.55 92.79l1.098-.66-.732-.402-1.097.622.732.44z" fill="#FFE699"/><path d="M53.55 92.79v.182l-.73-.402v-.22l.73.44z" fill="#E0C163"/><path d="M54.648 92.131v.22l-1.097.621v-.182l1.097-.659z" fill="#CCA83B"/><path d="M47.624 89.386l1.134-.658-.731-.402-1.134.658.731.402z" fill="#FFE699"/><path d="M47.624 89.386v.22l-.731-.44v-.182l.731.402z" fill="#E0C163"/><path d="M48.758 88.728v.22l-1.134.658v-.22l1.134-.658z" fill="#CCA83B"/><path d="M51.576 91.106l-.256.147-.11-.44.183-.073.183.366z" fill="#4E4E5C"/><path d="M49.235 88.545l.256-.146 1.865 1.207-.11.293-2.011-1.354z" fill="#4C4C5C"/><path d="M51.539 89.752v1.39l-.256-.146v-1.098c0-.073-.074-.182-.147-.22l-1.316-.767c-.073-.037-.146 0-.146.073v1.097l-.293-.146v-1.39c0-.073.073-.11.146-.073l1.865 1.06c.073.037.147.147.147.22z" fill="#4C4C5C"/><path d="M51.32 89.899v1.39l-.257-.147v-1.097c0-.073-.073-.183-.146-.22l-1.317-.768c-.073-.036-.146 0-.146.073v1.098l-.292-.146v-1.39c0-.074.073-.11.146-.074l1.865 1.061c.073 0 .146.11.146.22z" fill="#2B2B38"/><path d="M49.454 90.191l.256-.146-.292-.475v.475l.036.146z" fill="#4C4C5C"/><path d="M43.93 82.91l.33-.073 1.828 1.903-.219.329-1.938-2.158z" fill="#FFD052"/><path d="M46.198 84.959l-.402 1.573-.256-.257.329-1.243c.037-.11 0-.22-.073-.293l-1.28-1.243c-.073-.074-.146-.037-.183.036l-.329 1.244-.292-.256.402-1.573c.036-.11.11-.11.183-.037l1.828 1.793c.073 0 .11.146.073.256z" fill="#FFD052"/><path d="M45.942 85.032l-.402 1.573-.256-.256.329-1.244c.036-.11 0-.22-.073-.292l-1.28-1.244c-.073-.073-.146-.037-.183.037l-.329 1.243-.293-.256.403-1.573c.036-.11.11-.11.183-.036l1.828 1.792c.036.037.073.183.073.256z" fill="#915C19"/><path d="M37.42 88.764l.914-3.036c.293-1.025 1.39-2.013 2.414-2.269l1.39-.33c.622-.145.988.22.805.842l-2.158 7.281c-.146.476-1.244 3.33-1.72 3.44l-1.316.293 1.902-6.696-2.231.475z" fill="#A7BD29"/><path d="M38.261 94.619l-.805.183c-.585.146-.95-.22-.768-.806l2.488-8.634c.183-.586.804-1.171 1.39-1.318l1.243-.292c.33-.074.549.11.44.475l-2.013 6.733c-.146.549-1.353 3.512-1.975 3.659zm2.268-10.465c-.512.11-1.06.622-1.207 1.134l-2.487 8.635c-.147.513.146.805.658.696l.805-.183c.512-.11 1.646-3 1.792-3.513l2.012-6.732c.073-.256-.073-.403-.33-.366l-1.243.33z" fill="#C9750E"/><path d="M47.369 89.094c.073-.292.037-.512-.11-.622 0-.036-.036-.036-.036-.073 0-.036-.037-.036-.037-.073s-.036-.037-.036-.073c0-.037-.037-.037-.037-.073 0-.037-.037-.037-.037-.074 0-.036-.036-.036-.036-.073 0-.036-.037-.036-.037-.073 0-.036-.036-.036-.036-.073s-.037-.037-.037-.073c0-.037-.037-.037-.037-.073 0-.037-.036-.037-.036-.074 0-.036-.037-.036-.037-.073 0-.036-.036-.036-.036-.073s-.037-.037-.037-.073c0-.037-.036-.037-.036-.073 0-.037-.037-.037-.037-.073 0-.037-.037-.037-.037-.074 0-.036-.036-.036-.036-.073s-.037-.037-.037-.073c0-.037-.036-.037-.036-.073 0-.037-.037-.037-.037-.073 0-.037-.036-.037-.036-.074 0-.036-.037-.036-.037-.073 0-.036-.037-.036-.037-.073 0-.036-.036-.036-.036-.073s-.037-.037-.037-.073c0-.037-.036-.037-.036-.073 0-.037-.037-.037-.037-.074 0-.036-.037-.036-.037-.073 0-.036-.036-.036-.036-.073s-.037-.037-.037-.073c0-.037-.036-.037-.036-.073 0-.037-.037-.037-.037-.073 0-.037-.036-.037-.036-.074 0-.036-.037-.036-.037-.073s-.037-.037-.037-.073c0-.037-.036-.037-.036-.073 0-.037-.037-.037-.037-.073 0-.037-.036-.037-.036-.074 0-.036-.037-.036-.037-.073 0-.036-.036-.036-.036-.073s-.037-.037-.037-.073c0-.037-.037-.037-.037-.073 0-.037-.036-.037-.036-.073 0-.037-.037-.037-.037-.074 0-.036-.036-.036-.036-.073 0-.036-.037-.036-.037-.073s-.036-.037-.036-.073c0-.037-.037-.037-.037-.073 0-.037-.037-.037-.037-.074 0-.036-.036-.036-.036-.073 0-.036-.037-.036-.037-.073s-.036-.037-.036-.073c0-.037-.037-.037-.037-.073 0-.037-.037-.037-.037-.073 0-.037-.036-.037-.036-.074 0-.036-.037-.036-.037-.073 0-.036-.036-.036-.036-.073s-.037-.037-.037-.073c0-.037-.036-.037-.036-.073 0-.037-.037-.037-.037-.073 0-.037-.037-.037-.037-.074 0-.036-.036-.036-.036-.073 0-.036-.037-.036-.037-.073s-.036-.037-.036-.073c0-.037-.037-.037-.037-.073 0-.037-.036-.037-.036-.074 0-.036-.037-.036-.037-.073 0-.036-.037-.036-.037-.073s-.036-.037-.036-.073c0-.037-.037-.037-.037-.073 0-.037-.036-.037-.036-.073 0-.037-.037-.037-.037-.074 0-.036-.037-.036-.037-.073 0-.036-.036-.036-.036-.073s-.037-.037-.037-.073c0-.037-.036-.037-.036-.073 0-.037-.037-.037-.037-.073 0-.037-.036-.037-.036-.074 0-.036-.037-.036-.037-.073 0-.036-.037-.036-.037-.073s-.036-.037-.036-.073c0-.037-.037-.037-.037-.073 0-.037-.036-.037-.036-.074 0-.036-.037-.036-.037-.073 0-.036-.036-.036-.036-.073s-.037-.037-.037-.073c-.11-.146-.33-.22-.622-.146l-1.244.292c-.804.183-1.609.988-1.865 1.757l-2.487 8.635c-.11.402-.074.731.146.914 0 .037.036.037.036.073 0 .037.037.037.037.073 0 .037.037.037.037.074 0 .036.036.036.036.073s.037.037.037.073c0 .037.036.037.036.073 0 .037.037.037.037.073 0 .037.037.037.037.074 0 .036.036.036.036.073 0 .036.037.036.037.073s.036.037.036.073c0 .037.037.037.037.073 0 .037.036.037.036.073 0 .037.037.037.037.074 0 .036.037.036.037.073 0 .036.036.036.036.073s.037.037.037.073c0 .037.036.037.036.073 0 .037.037.037.037.074 0 .036.036.036.036.073 0 .036.037.036.037.073s.037.037.037.073c0 .037.036.037.036.073 0 .037.037.037.037.073 0 .037.036.037.036.074 0 .036.037.036.037.073 0 .036.036.036.036.073s.037.037.037.073c0 .037.037.037.037.073 0 .037.036.037.036.073 0 .037.037.037.037.074 0 .036.036.036.036.073 0 .036.037.036.037.073s.037.037.037.073c0 .037.036.037.036.073 0 .037.037.037.037.074 0 .036.036.036.036.073 0 .036.037.036.037.073s.036.037.036.073c0 .037.037.037.037.073 0 .037.037.037.037.073 0 .037.036.037.036.074 0 .036.037.036.037.073 0 .036.036.036.036.073s.037.037.037.073c0 .037.036.037.036.073 0 .037.037.037.037.074 0 .036.037.036.037.073 0 .036.036.036.036.073 0 .036.037.036.037.073s.036.037.036.073c0 .037.037.037.037.073 0 .037.037.037.037.074 0 .036.036.036.036.073 0 .036.037.036.037.073s.036.037.036.073c0 .037.037.037.037.073 0 .037.036.037.036.073 0 .037.037.037.037.074 0 .036.037.036.037.073s.036.037.036.073c0 .037.037.037.037.073 0 .037.036.037.036.073 0 .037.037.037.037.074 0 .036.037.036.037.073 0 .036.036.036.036.073 0 .036.037.036.037.073s.036.037.036.073c0 .037.037.037.037.073 0 .037.036.037.036.074 0 .036.037.036.037.073 0 .036.037.036.037.073s.036.037.036.073c0 .037.037.037.037.073 0 .037.036.037.036.073 0 .037.037.037.037.074 0 .036.037.036.037.073s.036.037.036.073c0 .037.037.037.037.073 0 .037.036.037.036.073 0 .037.037.037.037.074 0 .036.036.036.036.073 0 .036.037.036.037.073 0 .036.037.036.037.073s.036.037.036.073c0 .037.037.037.037.073 0 .037.036.037.036.074.183.219.512.292.915.183l.804-.183c.805-.183 1.61-.988 1.866-1.757l2.597-9.074z" fill="#82960E"/><path d="M37.42 88.765l4.718 4.976.659-1.135s.11-1.866.805-2.744c.695-.878 1.755-1.39 2.597-1.5.84-.11 1.316-.073 1.316-.073l-4.791-5.05s-2.488.11-3.292 1.025c-.805.878-2.012 4.5-2.012 4.5z" fill="#A7BD29"/><path d="M45.65 90.668l-7.06-7.465 3.402-.841 7.06 7.5-3.402.806z" fill="#B3CF13"/><path d="M42.139 93.741l.914-3.037c.293-1.024 1.39-2.012 2.414-2.268l1.39-.33c.622-.146.988.22.805.842l-2.78 9.623c-.146.475-.658.951-1.134 1.06l-1.317.294 1.902-6.696-2.194.512z" fill="#4C5900"/><path d="M42.907 99.925l-.805.183c-.805.183-1.244-.293-1.024-1.062l2.487-8.635c.22-.768 1.06-1.573 1.866-1.756l1.243-.293c.549-.146.842.184.695.732l-2.597 9.111c-.256.768-1.097 1.537-1.865 1.72z" fill="#73850C"/><path d="M41.48 100.217a.528.528 0 01-.329-.22c-.22-.219-.256-.585-.146-.987l2.487-8.635c.11-.403.366-.805.732-1.134.365-.33.768-.586 1.17-.695l1.244-.293c.292-.073.548-.037.695.146.146.147.183.403.11.695l-2.598 9.11c-.11.403-.365.806-.731 1.135-.366.33-.768.586-1.17.695l-.805.183c-.256.073-.476.073-.659 0zm5.56-11.781a.62.62 0 00-.366 0l-1.243.292c-.768.183-1.573.952-1.793 1.684l-2.487 8.634c-.11.33-.073.622.11.805.183.183.439.22.804.147l.805-.183.037.073-.037-.073c.768-.183 1.573-.951 1.793-1.683l2.597-9.11c.073-.22.036-.403-.074-.513 0-.037-.073-.073-.146-.073z" fill="#536100"/><path d="M43.017 99.595l-.805.183c-.586.146-.951-.22-.768-.805l2.487-8.635c.183-.585.805-1.17 1.39-1.317l1.244-.293c.329-.073.548.11.439.476l-2.597 9.11c-.183.55-.805 1.135-1.39 1.281zm2.23-10.464c-.511.11-1.06.622-1.206 1.134L41.553 98.9c-.146.512.147.805.659.695l.804-.183c.513-.11 1.061-.622 1.208-1.134l2.597-9.11c.073-.257-.073-.403-.33-.367l-1.243.33z" fill="#FFD052"/><path d="M41.15 91.106l-1.17 3.916v1.39l.622-.732 1.17-3.915-.621-.659zm.074.769l.146.183-.073.22-.146-.184.073-.22zm-.841 3.476l-.147-.183.074-.22.146.183-.073.22zm.256-.805l-.147-.147.074-.22.146.147-.073.22z" fill="#915C19"/><path d="M41.48 93.448l-.951-1.025c-.11.037-.695 2.049-.695 2.049l.95 1.024c.11-.073.696-2.048.696-2.048zm-1.39.914l.475-1.61.293.293-.33 1.134.11.11c.11-.037.403-1.06.403-1.06l.256.255-.475 1.61-.732-.732z" fill="#A87B00"/><path d="M40.42 92.46l-.586 1.975.95 1.024.586-1.975-.95-1.024zm.328 2.78l-.768-.805.512-1.72.33.367-.33 1.134.11.11.33-1.135.328.33-.512 1.719z" fill="#FFD052"/><path d="M38.444 88.143l-1.17 3.915v1.39l.621-.731 1.17-3.915-.62-.66zm.037.768l.146.183-.073.22-.147-.183.074-.22zm-.805 3.44l-.146-.183.073-.22.146.183-.073.22zm.256-.769l-.146-.146.073-.22.146.147-.073.22z" fill="#915C19"/><path d="M38.773 90.447l-.95-1.024c-.11.037-.696 2.049-.696 2.049l.951 1.024c.11-.037.695-2.049.695-2.049zm-1.39.951l.476-1.61.292.294-.329 1.133.11.11c.11-.036.402-1.06.402-1.06l.256.255-.475 1.61-.732-.732z" fill="#A87B00"/><path d="M37.712 89.496l-.585 1.976.951 1.024.585-1.975-.95-1.025zm.293 2.744l-.768-.805.512-1.72.33.367-.33 1.134.11.11.329-1.135.329.33-.512 1.719z" fill="#FFD052"/></svg>