<?xml version="1.0" encoding="utf-8"?><svg width="130" height="124" fill="none" xmlns="http://www.w3.org/2000/svg" viewBox="0 0 130 124"><path fill-rule="evenodd" clip-rule="evenodd" d="M4.032 81.256L4 85.879 65.646 124l.292-1.009-.26-3.614L4.032 81.256z" fill="#8A6633"/><path fill-rule="evenodd" clip-rule="evenodd" d="M65.225 49.646L4.033 81.256l61.646 38.121 61.192-38.121-61.646-31.61z" fill="#BD9257"/><path fill-rule="evenodd" clip-rule="evenodd" d="M126.87 81.256l-.032 4.623L65.646 124l.032-4.623 61.192-38.121z" fill="#A37C44"/><path fill-rule="evenodd" clip-rule="evenodd" d="M6.756 33.043l.746 20.607-.94 29.266L4 81.42l.162-49.841 2.594 1.465z" fill="#E6E6E6" stroke="#E0DAD9" stroke-width=".216" stroke-miterlimit="22.926"/><path fill-rule="evenodd" clip-rule="evenodd" d="M65.321 2.571l1.621 26.044-1.816 24.22-58.565 30.08.195-50.264L65.32 2.571z" fill="#DCDCDA"/><path fill-rule="evenodd" clip-rule="evenodd" d="M124.308 32.652l1.298 18.914-1.46 31.35-59.019-30.08.195-50.264 58.986 30.08z" fill="#E6E6E6"/><path fill-rule="evenodd" clip-rule="evenodd" d="M126.87 31.578l-2.562 1.465-58.986-30.08-58.566 30.08-2.594-1.465L65.29 0l61.581 31.578z" fill="#F0F0F0"/><path fill-rule="evenodd" clip-rule="evenodd" d="M126.87 31.578l-.162 49.84-2.562 1.498.162-49.873 2.562-1.465z" fill="#DCDCDA"/><path fill-rule="evenodd" clip-rule="evenodd" d="M64.478 58.989l.26 1.563-.292 9.766-11.577-6.706.033-11.33 11.576 6.707z" fill="#D1B68A"/><path fill-rule="evenodd" clip-rule="evenodd" d="M64.478 58.989l10.961-6.38-.032 11.328-10.961 6.38.032-11.328z" fill="#C4A676"/><path fill-rule="evenodd" clip-rule="evenodd" d="M52.901 52.282l10.961-6.413 11.577 6.739-10.96 6.38L52.9 52.282z" fill="#C1A963"/><path fill-rule="evenodd" clip-rule="evenodd" d="M64.738 57.85l-.292 2.213L52.318 53v-1.986l12.42 6.836z" fill="#D1B68A"/><path fill-rule="evenodd" clip-rule="evenodd" d="M59.387 57.556v2.05l3.956 2.279v-2.05l-3.956-2.279z" fill="#E7EEF6"/><path fill-rule="evenodd" clip-rule="evenodd" d="M62.63 59.672l.42.26v1.53l-.42-.26v-1.53zm-2.95-.163v-1.53l.42.228v1.53l-.42-.228zm.745.423v-1.53l.421.228v1.53l-.421-.228zm.778.456v-1.53l.421.228v1.53l-.421-.228zm.713.423v-1.53l.422.228v1.53l-.422-.228z" fill="#8A888B"/><path fill-rule="evenodd" clip-rule="evenodd" d="M64.478 58.045l11.513-6.706v1.985l-11.545 6.74.032-2.02z" fill="#D1B68A"/><path fill-rule="evenodd" clip-rule="evenodd" d="M52.318 51.013l11.512-6.739 12.16 7.064-11.511 6.707-12.161-7.032z" fill="#DBC49E"/><path fill-rule="evenodd" clip-rule="evenodd" d="M49.82 65.955l-1.75-1.009.486 1.66 1.75 1.009-.486-1.66zM20.506 81.484l-1.751-1.01-.487 3.647 1.784 1.041.454-3.678z" fill="#54514C"/><path fill-rule="evenodd" clip-rule="evenodd" d="M51.28 63.644l-1.751-1.01-30.774 17.84 1.75 1.01 30.775-17.84z" fill="#74716C"/><path fill-rule="evenodd" clip-rule="evenodd" d="M20.505 81.484l-.454 3.678 1.427-.846.487-2.181 27.856-16.18.486 1.66 1.46-.846-.487-3.125-30.775 17.84z" fill="#3B3936"/><path fill-rule="evenodd" clip-rule="evenodd" d="M60.262 72.075l-1.75-1.041.486 1.66 1.75 1.041-.486-1.66zM30.948 87.604l-1.751-1.042-.487 3.679 1.784 1.042.454-3.679z" fill="#54514C"/><path fill-rule="evenodd" clip-rule="evenodd" d="M61.722 69.764l-1.751-1.042-30.774 17.84 1.75 1.042 30.775-17.84z" fill="#74716C"/><path fill-rule="evenodd" clip-rule="evenodd" d="M30.947 87.604l-.454 3.678 1.427-.846.486-2.214 27.856-16.147.487 1.66 1.459-.846-.486-3.125-30.775 17.84z" fill="#3B3936"/><path fill-rule="evenodd" clip-rule="evenodd" d="M59.841 71.49v.162c0 .066 0 .098.033.163v.033c0 .032.032.097.032.13v.032c0 .033.033.066.033.098.032.033.032.065.064.13.033.033.033.066.065.066 0 0 0 .032.033.032l.065.065s.032 0 .032.033c.032.032.065.032.097.065l-14.333-8.367c-.032-.032-.065-.032-.097-.065 0 0-.033 0-.033-.032l-.065-.066s0-.032-.032-.032c-.032-.033-.032-.065-.065-.065-.032-.033-.032-.065-.065-.098 0-.032-.032-.032-.032-.065v-.033-.032-.033c0-.032 0-.065-.032-.065v-.032-.065-.098-.033-.065-.065l14.3 8.302z" fill="#C1E3E3"/><path fill-rule="evenodd" clip-rule="evenodd" d="M60.036 64.88l-.195 6.609-14.333-8.334-.032-6.706 14.56 8.431z" fill="#E0DFD7"/><path fill-rule="evenodd" clip-rule="evenodd" d="M59.809 64.816l-14.334-8.367v-.065-.13-.065-.065-.065c0-.033 0-.065.033-.098v-.032-.066c0-.032 0-.065.032-.097 0-.033 0-.033.033-.065 0-.033.032-.065.032-.098 0-.032.033-.065.033-.065 0-.033 0-.033.032-.065 0-.033.032-.065.032-.065 0-.033 0-.033.033-.065 0-.033.032-.066.032-.066 0-.032.033-.065.033-.097 0-.033.032-.033.032-.065 0-.033.033-.065.033-.065s0-.033.032-.033v-.033c0-.032.032-.032.032-.065.033-.032.033-.065.065-.097.033-.033.065-.098.098-.13.032-.033.032-.066.065-.098l.064-.065.065-.065.065-.066.032-.032.065-.065.033-.033.032-.032.065-.065.032-.033.033-.032.065-.066c.032 0 .032-.032.065-.032.032 0 .032-.033.064-.033.033 0 .033-.032.065-.032l.033-.033c.032 0 .032-.032.065-.032.032 0 .032-.033.065-.033 0 0 .032 0 .032-.032.032 0 .032-.033.065-.033.032 0 .032-.033.065-.033h.032c.032 0 .032 0 .065-.032H47.778c.032 0 .065 0 .097.032.033 0 .097.033.13.066l14.333 8.366c-.26.619-1.654 2.018-2.53 2.637z" fill="#F5F4F0"/><path fill-rule="evenodd" clip-rule="evenodd" d="M61.365 62.081c.908-.52 1.622-.13 1.622.88l.032 6.706c0 1.009-.713 2.213-1.589 2.734l-.032.033c-.876.52-1.59.097-1.59-.912l-.032-6.706c.033-1.01.714-2.246 1.59-2.735zM48.621 53.878l2.14 12.078c0 .065.033.097.033.162v.717c0 .032-.033.097-.033.13 0 .032-.032.065-.032.097 0 .033-.032.066-.032.13 0 .033-.033.066-.033.098-.032.033-.032.065-.065.098 0 .032-.032.032-.032.065l-.098.098-.032.032a.705.705 0 01-.162.098L24.884 82.493c.065-.032.097-.065.162-.097-.454-1.042-1.816-13.413-1.881-13.706l25.456-14.812z" fill="#D6D5CF"/><path fill-rule="evenodd" clip-rule="evenodd" d="M20.635 65.63h-.486c-.033 0-.033 0-.065.032 0 0-.033 0-.033.033-.032 0-.032.033-.064.033l25.39-14.813s.033 0 .033-.032c0 0 .033 0 .033-.033.032 0 .032 0 .065-.032h.518c.033 0 .065 0 .13.032h.032c.033 0 .033 0 .065.033h.033c.065.032.097.032.162.065 0 0 .032 0 .032.032 0 0 .033 0 .033.033l.194.098c.065.032.098.065.162.097.033 0 .033.033.065.033.033.032.065.065.098.065l.064.065c.033.032.065.065.098.065l.065.065.097.098c.065.065.13.13.162.195l.032.033.033.032.097.098.033.032.032.033c.032.033.032.065.065.098 0 .032.032.032.032.065l.033.032c.032.033.032.066.065.066 0 .032.032.032.032.065 0 .032.032.032.032.065 0 .032.033.032.033.065l.032.032c0 .033.033.065.033.098s.032.033.032.065v.033c.033.065.065.097.097.162.033.066.065.098.065.163v.033c0 .032.033.032.033.065 0 .032.032.065.032.098v.032c0 .033.033.065.033.065 0 .033 0 .033.032.065 0 .033 0 .033.032.065 0 .033.033.066.033.098v.098c0 .032.032.065.032.13v.032c0 .033 0 .066.033.13L23.165 68.756c0-.065-.033-.098-.033-.163 0-.032-.032-.065-.032-.13 0-.032-.033-.065-.033-.098 0-.032-.032-.065-.032-.097 0-.033-.033-.065-.033-.13 0-.033-.032-.066-.032-.066-.032-.032-.032-.097-.065-.13 0-.032-.032-.032-.032-.065l-.098-.195-.097-.196c0-.032-.032-.032-.032-.065-.033-.032-.033-.097-.065-.13 0-.033-.033-.033-.033-.065-.032-.033-.032-.065-.064-.098-.033-.032-.033-.065-.065-.065-.033-.032-.033-.065-.065-.097-.033-.033-.033-.066-.065-.098-.033-.033-.033-.065-.065-.065a89.765 89.765 0 00-.097-.098l-.065-.065c-.065-.065-.097-.13-.162-.195l-.033-.033a89.443 89.443 0 00-.097-.098l-.065-.065c-.032-.032-.065-.065-.097-.065l-.065-.065c-.032-.032-.065-.065-.097-.065-.033 0-.033-.033-.065-.033-.065-.032-.097-.065-.162-.097l-.195-.098s-.032 0-.032-.032a.46.46 0 00-.195-.066h-.032c-.033 0-.065 0-.098-.032-.032 0-.064-.033-.13-.033.13-.032.098-.032.098-.032z" fill="#F5F4F0"/><path fill-rule="evenodd" clip-rule="evenodd" d="M20.863 65.695h.032c.162.033.292.098.454.195.876.521 1.654 1.66 1.88 2.8l2.141 12.078c.227 1.335-.421 2.148-1.46 1.823h-.032a1.372 1.372 0 01-.454-.195c-.875-.521-1.653-1.66-1.88-2.8l-2.14-12.078c-.228-1.335.42-2.149 1.459-1.823z" fill="#E0DFD7"/><path fill-rule="evenodd" clip-rule="evenodd" d="M26.084 79.596c-.033 0-.065-.033-.098-.033-.032-.032-.097-.032-.13-.032-.032 0-.064-.033-.097-.033-.032 0-.065 0-.065-.033H25.37c-.065 0-.097 0-.13.033h-.032c-.032 0-.065.032-.097.032h-.033c-.032.033-.097.033-.13.066L50.34 64.783c.032-.032.065-.032.097-.032h.065c.032 0 .032 0 .065-.033H51.15c.033 0 .065 0 .065.033h.065c.033 0 .097.032.13.032 0 0 .032 0 .032.033 0 0 .033 0 .033.032 0 0 .032 0 .032.033.065.033.13.065.162.098L26.28 79.79c-.066-.033-.13-.065-.163-.098 0-.097 0-.097-.032-.097z" fill="#EAE9E4"/><path fill-rule="evenodd" clip-rule="evenodd" d="M34.774 86.693l25.392-14.78v.065c0 .228-.033.423-.098.619-.032.13-.097.227-.13.325-.032.033-.064.098-.097.13-.065.065-.162.13-.227.196L34.223 88.06c.324-.228.551-.749.551-1.367z" fill="#D6D5CF"/><path fill-rule="evenodd" clip-rule="evenodd" d="M34.742 86.465c0-.033 0-.098-.032-.13 0-.066-.033-.098-.033-.163 0-.033 0-.065-.032-.098 0-.032 0-.065-.033-.098 0-.032-.032-.097-.032-.13 0-.032 0-.065-.033-.065 0-.065-.032-.098-.064-.163 0-.032 0-.032-.033-.065-.032-.065-.065-.13-.097-.228v-.032l-.098-.196c0-.032-.032-.032-.032-.065a.71.71 0 00-.097-.162s0-.033-.033-.033c-.032-.065-.065-.13-.13-.195 0-.033-.032-.033-.032-.066-.032-.032-.065-.097-.097-.13l-.065-.065-.097-.097c-.033-.033-.065-.066-.065-.098-.032-.033-.065-.065-.065-.098a79.607 79.607 0 00-.227-.228l-.065-.065-.097-.097-.065-.066c-.032-.032-.065-.065-.13-.097-.032 0-.032-.033-.064-.033a.677.677 0 01-.195-.13l16.214-10.938 9.177-3.874c.065.032.13.065.195.13.032 0 .032.032.065.032.032.033.097.066.13.098l.064.065.097.098.065.065.033.033.032.032.13.13.032.033.033.032c.032.033.065.066.065.098l.064.065c0 .033.033.033.033.065l.065.065c0 .033.032.033.032.066.033.032.033.065.065.097 0 .033.032.033.032.065v.033c.033.065.065.098.098.163 0 0 0 .032.032.032.033.033.033.065.065.13 0 .033.032.033.032.066 0 .032.033.032.033.065 0 .032.032.032.032.065.033.032.033.097.065.13v.032c.033.066.033.13.065.163v.033c0 .032 0 .032.032.065 0 .032.033.065.033.098 0 .032 0 .032.032.065 0 .032.033.065.033.065v.065c0 .032 0 .065.032.098 0 .032.033.065.033.097v.098c0 .065.032.098.032.163V71.978l-25.197 14.78v-.228c-.032-.033-.032-.033-.032-.065z" fill="#EAE9E4"/><path fill-rule="evenodd" clip-rule="evenodd" d="M32.829 83.405L58.252 68.56l-6.55-3.679L26.31 79.693l6.518 3.712z" fill="#F5F4F0"/><path fill-rule="evenodd" clip-rule="evenodd" d="M24.365 80.8c0-1.237.875-1.725 1.946-1.107l6.518 3.712c1.07.618 1.913 2.115 1.913 3.353v.032c0 1.237-.876 1.726-1.946 1.107l-8.885-5.046c-1.07-.618.421-.749.421-1.986l.033-.065z" fill="#C1E3E3"/><path fill-rule="evenodd" clip-rule="evenodd" d="M32.115 87.572v.162c0 .065 0 .098.033.163v.033c0 .032.032.097.032.13v.032c0 .033.032.066.032.098.033.033.033.065.065.13.033.033.033.065.065.065 0 0 0 .033.033.033l.065.065s.032 0 .032.033c.032.032.065.032.097.065l-14.333-8.367c-.033-.032-.065-.032-.097-.065 0 0-.033 0-.033-.032l-.065-.066s0-.032-.032-.032c-.032-.033-.032-.065-.065-.065-.032-.033-.032-.065-.065-.098 0-.032-.032-.032-.032-.065v-.032-.033-.033c0-.032 0-.065-.033-.065v-.032-.065-.098-.033-.065-.065l14.301 8.302zM32.083 80.897l.032 6.674-14.333-8.334V72.53l14.3 8.366z" fill="#E0DFD7"/><path fill-rule="evenodd" clip-rule="evenodd" d="M33.348 78.359a.568.568 0 01-.162.13l-.13.13c-.032.065-.097.098-.13.163a1.167 1.167 0 00-.226.325c-.033.033-.033.065-.065.098-.032.032-.032.065-.065.098 0 0 0 .032-.032.032a.249.249 0 00-.065.163l-.097.195c-.033.065-.065.13-.065.196-.033.065-.033.13-.065.195-.033.065-.033.13-.033.195v.033c0 .065-.032.13-.032.195s-.032.13-.032.195v.196L17.814 72.53v-.065-.13-.065-.065-.065c0-.033 0-.066.033-.098v-.033-.065c0-.032 0-.065.032-.097 0-.033 0-.033.033-.066 0-.032.032-.065.032-.097 0-.033.032-.065.032-.065 0-.033 0-.033.033-.065 0-.033.032-.066.032-.066 0-.032 0-.032.033-.065 0-.032.032-.065.032-.065 0-.032.033-.065.033-.097v-.033c0-.032.032-.032.032-.065 0-.032.032-.065.032-.065s0-.033.033-.033v-.032c0-.033.032-.033.032-.065.033-.033.033-.065.065-.098.032-.032.065-.098.097-.13.033-.033.033-.065.065-.098l.065-.065.065-.065.065-.065.032-.033.065-.065.032-.032.033-.033.065-.065.032-.033.033-.032.064-.065c.033 0 .033-.033.065-.033.033 0 .033-.032.065-.032.033 0 .033-.033.065-.033l.032-.032c.033 0 .033-.033.065-.033.033 0 .033-.033.065-.033 0 0 .033 0 .033-.032.032 0 .032-.033.064-.033.033 0 .033-.032.065-.032h.033c.032 0 .032 0 .065-.033H20.118c.032 0 .065 0 .097.033.032 0 .097.032.13.065l14.333 8.366c-.032-.032-.065-.032-.13-.065-.032 0-.065-.032-.097-.032h-.325c-.032 0-.097 0-.13.032-.032 0-.096.033-.129.033-.065.032-.097.032-.162.065-.065.032-.097.065-.162.065l-.032.033c-.065.032-.098.065-.163.097.098-.163.065-.13 0-.097z" fill="#F5F4F0"/><path fill-rule="evenodd" clip-rule="evenodd" d="M33.672 78.163c.908-.52 1.621-.13 1.621.88l.033 6.706c0 1.009-.714 2.213-1.59 2.734l-.032.033c-.875.52-1.589.097-1.589-.912l-.032-6.706c0-1.01.713-2.246 1.589-2.735z" fill="#D6D5CF"/><path fill-rule="evenodd" clip-rule="evenodd" d="M109.392 78.782l.162.846-.162 5.274-6.259-3.613v-6.12l6.259 3.613z" fill="#D1B68A"/><path fill-rule="evenodd" clip-rule="evenodd" d="M109.391 78.782l5.935-3.45v6.12l-5.935 3.45v-6.12z" fill="#C4A676"/><path fill-rule="evenodd" clip-rule="evenodd" d="M103.133 75.168l5.934-3.483 6.259 3.646-5.935 3.45-6.258-3.613z" fill="#C1A963"/><path fill-rule="evenodd" clip-rule="evenodd" d="M109.554 78.162l-.163 1.205-6.55-3.81v-1.106l6.713 3.711z" fill="#DBC49E"/><path fill-rule="evenodd" clip-rule="evenodd" d="M106.668 78v1.107l2.107 1.237.032-1.107-2.139-1.236z" fill="#F0F0F0"/><path fill-rule="evenodd" clip-rule="evenodd" d="M108.418 79.172l.227.13v.847l-.227-.13v-.847zm-1.588-.097v-.847l.227.13v.847l-.227-.13zm.389.227v-.846l.227.13v.847l-.227-.13zm.421.228v-.846l.227.13v.847l-.227-.13zm.389.228v-.846l.227.13v.846l-.227-.13z" fill="#8A888B"/><path fill-rule="evenodd" clip-rule="evenodd" d="M109.391 78.261l6.227-3.613v1.074l-6.227 3.646v-1.107z" fill="#D1B68A"/><path fill-rule="evenodd" clip-rule="evenodd" d="M102.841 74.452l6.226-3.614 6.551 3.81-6.227 3.613-6.55-3.809z" fill="#EDDDC4"/><path fill-rule="evenodd" clip-rule="evenodd" d="M109.878 72.53l.097.489-.097 2.962-3.502-2.05v-3.419l3.502 2.019z" fill="#D1B68A"/><path fill-rule="evenodd" clip-rule="evenodd" d="M109.877 72.53l3.308-1.92v3.418l-3.308 1.953v-3.45z" fill="#C4A676"/><path fill-rule="evenodd" clip-rule="evenodd" d="M106.376 70.513l3.307-1.921 3.503 2.018-3.308 1.921-3.502-2.018z" fill="#C1A963"/><path fill-rule="evenodd" clip-rule="evenodd" d="M109.942 72.205l-.065.65-3.696-2.115v-.618l3.761 2.083z" fill="#DBC49E"/><path fill-rule="evenodd" clip-rule="evenodd" d="M108.353 72.107v.618l1.167.716v-.65l-1.167-.684z" fill="#E7EEF6"/><path fill-rule="evenodd" clip-rule="evenodd" d="M109.326 72.76l.13.064v.456l-.13-.065v-.456zm-.907-.066v-.456l.129.066v.455l-.129-.065zm.227.13v-.455l.129.065v.455l-.129-.065zm.227.163v-.456l.129.066v.455l-.129-.065zm.226.098v-.456l.13.065v.456l-.13-.065z" fill="#8A888B"/><path fill-rule="evenodd" clip-rule="evenodd" d="M109.877 72.27l3.501-2.05-.032.618-3.469 2.018v-.586z" fill="#D1B68A"/><path fill-rule="evenodd" clip-rule="evenodd" d="M106.181 70.122l3.502-2.018 3.697 2.116-3.502 2.051-3.697-2.149z" fill="#EDDDC4"/><path fill-rule="evenodd" clip-rule="evenodd" d="M37.109 73.344l.13.652-.13 4.134-4.897-2.832v-4.786l4.897 2.832z" fill="#D1B68A"/><path fill-rule="evenodd" clip-rule="evenodd" d="M37.11 73.345l4.636-2.702v4.786L37.11 78.13v-4.786z" fill="#C4A676"/><path fill-rule="evenodd" clip-rule="evenodd" d="M32.212 70.513l4.638-2.735 4.896 2.865-4.637 2.702-4.897-2.832z" fill="#C1A963"/><path fill-rule="evenodd" clip-rule="evenodd" d="M37.239 72.856l-.13.944-5.156-2.995v-.846l5.286 2.897z" fill="#DBC49E"/><path fill-rule="evenodd" clip-rule="evenodd" d="M34.969 72.727v.879l1.653.976v-.879l-1.653-.976z" fill="#F0F0F0"/><path fill-rule="evenodd" clip-rule="evenodd" d="M36.33 73.638l.195.098v.65l-.194-.097v-.651zm-1.231-.065v-.651l.162.098v.65l-.163-.097zm.291.163v-.651l.162.097v.651l-.162-.097zm.325.195v-.651l.162.098v.65l-.163-.097zm.324.195v-.65l.162.097v.65l-.162-.097z" fill="#8A888B"/><path fill-rule="evenodd" clip-rule="evenodd" d="M37.11 72.955l4.896-2.865v.846l-4.897 2.865v-.846z" fill="#D1B68A"/><path fill-rule="evenodd" clip-rule="evenodd" d="M31.953 69.96l4.897-2.833 5.156 2.963-4.897 2.865-5.156-2.995z" fill="#EDDDC4"/><path d="M79.622 102.546l-2.27 1.303-8.366-12.176 2.205-1.302 8.431 12.175z" fill="#965B14"/><path d="M71.612 98.184l7.491 4.33c.357.195.649.032.649-.391v-6.25c0-.423-.292-.912-.649-1.14l-7.49-4.33c-.358-.195-.65-.032-.65.391v6.25c0 .424.292.945.65 1.14z" fill="#965B14"/><path d="M78.455 102.905v-6.25c0-.424-.292-.912-.649-1.14l-7.49-4.33c-.033 0-.26-.13-.293-.13.033-.326.52-.358.844-.196l7.49 4.33c.357.196.649.716.649 1.14v6.25c0 .391-.26.553-.584.423.033-.032.033-.065.033-.097z" fill="#D1C46A"/><path d="M69.44 99.454l7.49 4.329c.357.196.65.033.65-.39v-6.25c0-.424-.293-.912-.65-1.14l-7.49-4.33c-.357-.195-.649-.032-.649.39v6.251c0 .423.292.944.649 1.14z" fill="#BD8542"/><path d="M76.898 95.19l.973-.587-.649-.358-.972.553.648.391z" fill="#FFE699"/><path d="M76.898 95.19v.162l-.648-.358v-.195l.648.39z" fill="#E0C163"/><path d="M77.871 94.603v.196l-.972.553v-.163l.972-.586z" fill="#CCA83B"/><path d="M71.644 92.161l1.005-.586-.648-.358-1.005.586.648.358z" fill="#FFE699"/><path d="M71.644 92.161v.195l-.648-.39v-.163l.648.358z" fill="#E0C163"/><path d="M72.65 91.575v.196l-1.006.585v-.195l1.005-.586z" fill="#CCA83B"/><path d="M75.147 93.692l-.227.13-.097-.39.162-.066.162.326z" fill="#4E4E5C"/><path d="M73.07 91.413l.228-.13 1.653 1.073-.097.26-1.783-1.203z" fill="#4C4C5C"/><path d="M75.082 92.487v1.237l-.227-.13v-.977c0-.065-.065-.163-.13-.195l-1.167-.684c-.065-.032-.13 0-.13.066v.976l-.259-.13v-1.237c0-.065.065-.098.13-.065l1.653.944c.098.032.13.13.13.195z" fill="#4C4C5C"/><path d="M74.919 92.617v1.237l-.227-.13v-.977c0-.065-.065-.163-.13-.195l-1.167-.684c-.065-.032-.13 0-.13.066v.976l-.26-.13v-1.237c0-.065.066-.098.13-.065l1.654.944c.065 0 .13.097.13.195z" fill="#2B2B38"/><path d="M73.266 92.878l.227-.13-.259-.424v.424l.032.13z" fill="#4C4C5C"/><path fill-rule="evenodd" clip-rule="evenodd" d="M48.978 92.422l.26 1.433-.293 8.789-10.441-6.055.032-10.19 10.442 6.023z" fill="#D1B68A"/><path fill-rule="evenodd" clip-rule="evenodd" d="M48.978 92.422l9.858-5.73-.032 10.19-9.859 5.762.033-10.222z" fill="#C4A676"/><path fill-rule="evenodd" clip-rule="evenodd" d="M38.536 86.4l9.89-5.763 10.41 6.055-9.858 5.73-10.442-6.023z" fill="#C1A963"/><path fill-rule="evenodd" clip-rule="evenodd" d="M49.205 91.413l-.227 1.986-10.961-6.348v-1.823l11.188 6.185z" fill="#DBC49E"/><path fill-rule="evenodd" clip-rule="evenodd" d="M44.405 91.153v1.855l3.534 2.05.032-1.855-3.566-2.05z" fill="#F0F0F0"/><path fill-rule="evenodd" clip-rule="evenodd" d="M47.323 93.073l.39.228v1.4l-.39-.229v-1.4zm-2.658-.163v-1.367l.389.228v1.4l-.39-.26zm.68.39v-1.399l.39.228v1.4l-.39-.228zm.681.391v-1.4l.39.229v1.367l-.39-.196zm.649.39v-1.366l.389.228v1.4l-.39-.261z" fill="#8A888B"/><path fill-rule="evenodd" clip-rule="evenodd" d="M48.978 91.576l10.377-6.055v1.823l-10.377 6.055v-1.823z" fill="#D1B68A"/><path fill-rule="evenodd" clip-rule="evenodd" d="M38.017 85.228l10.377-6.055 10.96 6.348-10.376 6.055-10.96-6.348z" fill="#EDDDC4"/><path fill-rule="evenodd" clip-rule="evenodd" d="M81.341 69.243l.292 1.596-.324 10.059-11.901-6.902.032-11.687 11.901 6.934z" fill="#D1B68A"/><path fill-rule="evenodd" clip-rule="evenodd" d="M81.341 69.243l11.285-6.608-.032 11.687-11.285 6.576.032-11.655z" fill="#C4A676"/><path fill-rule="evenodd" clip-rule="evenodd" d="M69.44 62.309l11.285-6.576 11.9 6.901-11.284 6.609-11.901-6.934z" fill="#C1A963"/><path fill-rule="evenodd" clip-rule="evenodd" d="M81.633 68.072l-.292 2.246-12.517-7.26v-2.05l12.809 7.063z" fill="#DBC49E"/><path fill-rule="evenodd" clip-rule="evenodd" d="M76.12 67.746v2.116l4.054 2.376V70.09l-4.054-2.344z" fill="#F0F0F0"/><path fill-rule="evenodd" clip-rule="evenodd" d="M79.46 69.96l.42.26v1.594l-.42-.26v-1.595zm-3.048-.196v-1.595l.421.26v1.595l-.421-.26zm.778.456v-1.595l.422.26v1.595l-.422-.26zm.778.455V69.08l.422.26v1.596l-.422-.26zm.746.423v-1.594l.421.26v1.595l-.421-.26z" fill="#8A888B"/><path fill-rule="evenodd" clip-rule="evenodd" d="M81.341 68.267l11.869-6.934v2.083L81.34 70.318v-2.051z" fill="#D1B68A"/><path fill-rule="evenodd" clip-rule="evenodd" d="M68.824 61.007l11.868-6.934 12.518 7.26-11.869 6.934-12.517-7.26z" fill="#EDDDC4"/><path fill-rule="evenodd" clip-rule="evenodd" d="M81.6 58.566l.195 1.074-.195 6.771-8.01-4.655V53.91l8.01 4.656z" fill="#D1B68A"/><path fill-rule="evenodd" clip-rule="evenodd" d="M81.6 58.566l7.589-4.428-.033 7.846L81.6 66.41v-7.845z" fill="#C4A676"/><path fill-rule="evenodd" clip-rule="evenodd" d="M73.59 53.91l7.589-4.427 8.01 4.655-7.589 4.427-8.01-4.655z" fill="#C1A963"/><path fill-rule="evenodd" clip-rule="evenodd" d="M81.795 57.784l-.195 1.498-8.398-4.85v-1.4l8.593 4.752z" fill="#DBC49E"/><path fill-rule="evenodd" clip-rule="evenodd" d="M78.098 57.556v1.432l2.724 1.595v-1.432l-2.724-1.595z" fill="#F0F0F0"/><path fill-rule="evenodd" clip-rule="evenodd" d="M80.335 59.054l.292.162v1.074l-.292-.162v-1.074zm-2.042-.13v-1.075l.292.163v1.074l-.292-.163zm.519.292v-1.074l.291.163v1.074l-.291-.163zm.518.326v-1.074l.292.162v1.075l-.292-.163zm.519.26v-1.074l.292.163v1.074l-.292-.163z" fill="#8A888B"/><path fill-rule="evenodd" clip-rule="evenodd" d="M81.6 57.914l7.978-4.655v1.4L81.6 59.282v-1.368z" fill="#D1B68A"/><path fill-rule="evenodd" clip-rule="evenodd" d="M73.202 53.031l7.977-4.655 8.399 4.883-7.977 4.655-8.4-4.883z" fill="#EDDDC4"/><path fill-rule="evenodd" clip-rule="evenodd" d="M88.248 77.48l1.135 6.12c.13.553.584 1.107 1.297 1.53 1.816 1.042 4.702 1.042 6.518 0 .811-.488 1.265-1.107 1.33-1.725l1.102-5.925c-.13 3.776-11.382 1.66-11.382 0z" fill="#96979B"/><path fill-rule="evenodd" clip-rule="evenodd" d="M97.944 75.168c-2.237-1.302-5.837-1.302-8.042 0-2.205 1.303-2.205 3.386.032 4.688 1.103.651 2.562.977 4.022.977 1.459 0 2.918-.326 4.02-.977 2.206-1.302 2.206-3.385-.032-4.688z" fill="#9C9EA2"/><path fill-rule="evenodd" clip-rule="evenodd" d="M97.036 75.69c-1.719-1.01-4.507-1.01-6.194 0-1.718 1.008-1.686 2.603.033 3.613 1.719 1.009 4.507 1.009 6.194 0 1.686-.977 1.686-2.605-.033-3.614z" fill="#331202"/><path fill-rule="evenodd" clip-rule="evenodd" d="M94.507 61.626c0 .032 0 .032 0 0v.162l-.032.033h-.033-.032-.033-.032c-.033 0-.033.032-.065.032h-.032s-.033 0-.033.033h-.065-.065-.097H93.664h-.065-.032c-.033 0-.033 0-.065-.033h-.033s-.032 0-.032-.032c-.13-.065-.162-.163-.162-.228v15.822c0 .097.064.162.162.227 0 0 .032 0 .032.033h.033c.032 0 .032 0 .065.032H93.956s.032 0 .032-.032h.032c.033 0 .033-.033.065-.033h.065l.033-.032v-.033-.032-.033-15.886h.324z" fill="#57260D"/><path fill-rule="evenodd" clip-rule="evenodd" d="M94.345 61.398a.89.89 0 00-.81 0c-.228.13-.228.358 0 .488a.89.89 0 00.81 0c.227-.163.227-.358 0-.488z" fill="#9C9EA2"/><path fill-rule="evenodd" clip-rule="evenodd" d="M93.923 54.268c3.989 0 7.199 2.963 7.199 6.576 0 3.646-3.243 6.576-7.199 6.576-3.988 0-7.199-2.962-7.199-6.576 0-3.613 3.243-6.576 7.2-6.576z" fill="#669839"/><path fill-rule="evenodd" clip-rule="evenodd" d="M101.122 60.226c.033.228.033.423.033.65 0 3.647-3.243 6.577-7.2 6.577-3.988 0-7.198-2.963-7.198-6.576 0-.228 0-.423.032-.651 1.427 1.953 4.118 3.288 7.167 3.288 3.048-.033 5.707-1.335 7.166-3.288z" fill="#5E8838"/><path fill-rule="evenodd" clip-rule="evenodd" d="M48.621 81.972l.162 1.075-.194 6.543-7.75-4.493.032-7.617 7.75 4.492z" fill="#D1B68A"/><path fill-rule="evenodd" clip-rule="evenodd" d="M48.621 81.972l7.329-4.264-.033 7.585-7.328 4.297.032-7.618z" fill="#C4A676"/><path fill-rule="evenodd" clip-rule="evenodd" d="M40.87 77.48l7.33-4.265 7.75 4.492-7.329 4.265-7.75-4.492z" fill="#C1A963"/><path fill-rule="evenodd" clip-rule="evenodd" d="M48.783 81.222l-.162 1.465-8.172-4.72.033-1.335 8.301 4.59z" fill="#DBC49E"/><path fill-rule="evenodd" clip-rule="evenodd" d="M45.216 81.028v1.367l2.626 1.53v-1.367l-2.626-1.53z" fill="#F0F0F0"/><path fill-rule="evenodd" clip-rule="evenodd" d="M47.388 82.46l.292.163v1.042l-.292-.163V82.46zm-1.977-.13V81.29l.291.162v1.042l-.291-.163zm.486.293v-1.041l.292.162v1.042l-.292-.163zm.519.293v-1.041l.292.162v1.042l-.292-.163zm.486.293v-1.042l.292.163v1.042l-.292-.163z" fill="#8A888B"/><path fill-rule="evenodd" clip-rule="evenodd" d="M48.621 81.354l7.718-4.493v1.335l-7.718 4.493v-1.335z" fill="#D1B68A"/><path fill-rule="evenodd" clip-rule="evenodd" d="M40.483 76.633l7.685-4.492 8.172 4.72-7.718 4.493-8.14-4.72z" fill="#EDDDC4"/><path fill-rule="evenodd" clip-rule="evenodd" d="M47.94 75.135l.097.684-.13 4.134-4.896-2.865.032-4.785 4.897 2.832z" fill="#D1B68A"/><path fill-rule="evenodd" clip-rule="evenodd" d="M47.94 75.136l4.637-2.702v4.785l-4.67 2.735.033-4.818z" fill="#C4A676"/><path fill-rule="evenodd" clip-rule="evenodd" d="M43.043 72.303l4.638-2.702 4.896 2.833-4.637 2.702-4.897-2.832z" fill="#C1A963"/><path fill-rule="evenodd" clip-rule="evenodd" d="M48.037 74.647l-.097.944-5.156-2.995v-.847l5.253 2.898z" fill="#DBC49E"/><path fill-rule="evenodd" clip-rule="evenodd" d="M45.8 74.517l-.033.879 1.686.976v-.878l-1.653-.977z" fill="#F0F0F0"/><path fill-rule="evenodd" clip-rule="evenodd" d="M47.161 75.428l.195.098v.651l-.195-.098v-.65zm-1.264-.065v-.65l.162.097v.651l-.162-.098zm.324.196v-.651l.163.097v.651l-.163-.097zm.325.163v-.651l.162.097v.651l-.162-.097zm.291.195v-.651l.162.097v.651l-.162-.097z" fill="#8A888B"/><path fill-rule="evenodd" clip-rule="evenodd" d="M47.94 74.745l4.864-2.865v.88L47.94 75.59v-.846z" fill="#D1B68A"/><path fill-rule="evenodd" clip-rule="evenodd" d="M42.784 71.75l4.864-2.832 5.156 2.962-4.864 2.865-5.156-2.995z" fill="#EDDDC4"/><path fill-rule="evenodd" clip-rule="evenodd" d="M68.305 79.14l.26 1.432-.292 8.79-10.41-6.055.033-10.19 10.409 6.023z" fill="#D1B68A"/><path fill-rule="evenodd" clip-rule="evenodd" d="M68.305 79.14l9.89-5.73-.032 10.19-9.89 5.762.032-10.222z" fill="#C4A676"/><path fill-rule="evenodd" clip-rule="evenodd" d="M57.895 73.117l9.859-5.762 10.441 6.055-9.89 5.73-10.41-6.023z" fill="#C1A963"/><path fill-rule="evenodd" clip-rule="evenodd" d="M68.564 78.13l-.259 1.987-10.96-6.349.032-1.823 11.187 6.186z" fill="#DBC49E"/><path fill-rule="evenodd" clip-rule="evenodd" d="M63.733 77.87v1.855l3.566 2.05v-1.854l-3.566-2.05z" fill="#F0F0F0"/><path fill-rule="evenodd" clip-rule="evenodd" d="M66.65 79.79l.39.228v1.4l-.39-.228v-1.4zm-2.658-.162V78.26l.39.228v1.4l-.39-.261zm.68.39V78.62l.39.228v1.4l-.39-.228zm.682.391v-1.4l.389.228v1.367l-.39-.195zm.648.39v-1.366l.39.227v1.4l-.39-.26z" fill="#8A888B"/><path fill-rule="evenodd" clip-rule="evenodd" d="M68.305 78.293l10.377-6.055v1.823l-10.377 6.055v-1.823z" fill="#D1B68A"/><path fill-rule="evenodd" clip-rule="evenodd" d="M57.378 71.945l10.344-6.055 10.96 6.348-10.376 6.055-10.928-6.348z" fill="#EDDDC4"/><path fill-rule="evenodd" clip-rule="evenodd" d="M65.905 68.95l.098.683-.13 4.135-4.897-2.865v-4.786l4.93 2.833z" fill="#D1B68A"/><path fill-rule="evenodd" clip-rule="evenodd" d="M65.905 68.95l4.638-2.702-.033 4.786-4.637 2.734.032-4.818z" fill="#C4A676"/><path fill-rule="evenodd" clip-rule="evenodd" d="M60.976 66.118l4.67-2.702 4.897 2.832-4.638 2.702-4.929-2.832z" fill="#C1A963"/><path fill-rule="evenodd" clip-rule="evenodd" d="M66.003 68.461l-.098.945-5.156-2.996v-.846l5.254 2.897z" fill="#DBC49E"/><path fill-rule="evenodd" clip-rule="evenodd" d="M63.733 68.332v.879l1.685.976v-.879l-1.685-.976z" fill="#F0F0F0"/><path fill-rule="evenodd" clip-rule="evenodd" d="M65.127 69.243l.194.098v.65l-.194-.097v-.65zm-1.264-.065v-.65l.162.097v.65l-.163-.097zm.324.196v-.651l.162.097v.651l-.162-.097zm.324.195v-.651l.162.097v.651l-.162-.097zm.292.162v-.65l.162.097v.651l-.162-.097z" fill="#8A888B"/><path fill-rule="evenodd" clip-rule="evenodd" d="M65.905 68.56l4.864-2.832v.846l-4.864 2.832v-.846z" fill="#D1B68A"/><path fill-rule="evenodd" clip-rule="evenodd" d="M60.75 65.565l4.864-2.832 5.156 2.995-4.865 2.832-5.156-2.995z" fill="#EDDDC4"/><path fill-rule="evenodd" clip-rule="evenodd" d="M57.182 104.076l.097.489-.097 2.929-3.502-2.018v-3.418l3.502 2.018z" fill="#D1B68A"/><path fill-rule="evenodd" clip-rule="evenodd" d="M57.181 104.076l3.308-1.921v3.418l-3.308 1.921v-3.418z" fill="#C4A676"/><path fill-rule="evenodd" clip-rule="evenodd" d="M53.68 102.058l3.307-1.953 3.503 2.051-3.308 1.921-3.502-2.019z" fill="#C1A963"/><path fill-rule="evenodd" clip-rule="evenodd" d="M57.246 103.718l-.065.683-3.696-2.148v-.586l3.761 2.051z" fill="#DBC49E"/><path fill-rule="evenodd" clip-rule="evenodd" d="M55.657 103.652v.619l1.168.683v-.618l-1.168-.684z" fill="#E7EEF6"/><path fill-rule="evenodd" clip-rule="evenodd" d="M56.63 104.271l.13.065v.456l-.13-.065v-.456zm-.908-.033v-.455l.13.065v.455l-.13-.065zm.227.131v-.456l.13.065v.456l-.13-.065zm.227.13v-.456l.13.065v.456l-.13-.065zm.227.13v-.456l.13.065v.456l-.13-.065z" fill="#8A888B"/><path fill-rule="evenodd" clip-rule="evenodd" d="M57.181 103.783l3.502-2.018-.033.586-3.469 2.05v-.618z" fill="#D1B68A"/><path fill-rule="evenodd" clip-rule="evenodd" d="M53.485 101.668l3.503-2.051 3.696 2.148-3.502 2.019-3.697-2.116z" fill="#EDDDC4"/><path d="M68.37 86.4l.291-.065 1.59 1.692-.163.293-1.718-1.92z" fill="#FFD052"/><path d="M70.38 88.222l-.357 1.4-.227-.228.292-1.107a.254.254 0 00-.065-.26l-1.135-1.107c-.064-.065-.13-.032-.162.033l-.291 1.106-.26-.227.357-1.4c.032-.097.097-.097.162-.032l1.621 1.594c.065 0 .097.13.065.228z" fill="#FFD052"/><path d="M70.12 88.287l-.356 1.4-.227-.228.292-1.106a.254.254 0 00-.065-.26l-1.135-1.108c-.065-.065-.13-.032-.162.033l-.292 1.107-.26-.228.357-1.4c.033-.097.098-.097.163-.032l1.62 1.594c.065.033.098.163.065.228z" fill="#915C19"/><path d="M62.597 91.608l.811-2.702c.26-.911 1.232-1.79 2.14-2.018l1.233-.293c.55-.13.875.195.713.749l-1.913 6.478c-.13.423-1.103 2.962-1.524 3.06l-1.168.26 1.687-5.957-1.979.423z" fill="#A7BD29"/><path d="M63.343 96.817l-.713.163c-.519.13-.843-.196-.68-.717l2.204-7.683c.162-.52.714-1.041 1.233-1.171l1.102-.26c.292-.066.486.097.39.422l-1.784 5.99c-.13.489-1.2 3.125-1.752 3.256zm2.011-9.31c-.454.097-.94.553-1.07 1.008l-2.205 7.683c-.13.456.13.716.584.619l.713-.163c.454-.098 1.46-2.67 1.589-3.125l1.783-5.99c.065-.228-.064-.358-.291-.326l-1.103.293z" fill="#C9750E"/><path d="M71.418 91.901c.065-.26.032-.456-.098-.553 0-.033-.032-.033-.032-.065 0-.033-.032-.033-.032-.065 0-.033-.033-.033-.033-.066 0-.032-.032-.032-.032-.065 0-.032-.033-.032-.033-.065 0-.032-.032-.032-.032-.065 0-.032-.032-.032-.032-.065 0-.032-.033-.032-.033-.065s-.032-.033-.032-.065c0-.033-.033-.033-.033-.065 0-.033-.032-.033-.032-.065 0-.033-.033-.033-.033-.066 0-.032-.032-.032-.032-.065 0-.032-.032-.032-.032-.065 0-.032-.033-.032-.033-.065 0-.032-.032-.032-.032-.065 0-.032-.033-.032-.033-.065s-.032-.033-.032-.065c0-.033-.033-.033-.033-.065 0-.033-.032-.033-.032-.065 0-.033-.032-.033-.032-.066 0-.032-.033-.032-.033-.065 0-.032-.032-.032-.032-.065 0-.032-.033-.032-.033-.065 0-.032-.032-.032-.032-.065 0-.032-.033-.032-.033-.065s-.032-.033-.032-.065c0-.033-.032-.033-.032-.065 0-.033-.033-.033-.033-.065 0-.033-.032-.033-.032-.065 0-.033-.033-.033-.033-.066 0-.032-.032-.032-.032-.065 0-.032-.033-.032-.033-.065 0-.032-.032-.032-.032-.065 0-.032-.032-.032-.032-.065 0-.032-.033-.032-.033-.065s-.032-.033-.032-.065c0-.033-.033-.033-.033-.065 0-.033-.032-.033-.032-.065 0-.033-.033-.033-.033-.066 0-.032-.032-.032-.032-.065 0-.032-.032-.032-.032-.065 0-.032-.033-.032-.033-.065 0-.032-.032-.032-.032-.065 0-.032-.033-.032-.033-.065s-.032-.033-.032-.065c0-.033-.033-.033-.033-.065 0-.033-.032-.033-.032-.065 0-.033-.032-.033-.032-.066 0-.032-.033-.032-.033-.065 0-.032-.032-.032-.032-.065 0-.032-.033-.032-.033-.065 0-.032-.032-.032-.032-.065 0-.032-.033-.032-.033-.065s-.032-.033-.032-.065c0-.033-.033-.033-.033-.065 0-.033-.032-.033-.032-.065 0-.033-.032-.033-.032-.066 0-.032-.033-.032-.033-.065 0-.032-.032-.032-.032-.065 0-.032-.033-.032-.033-.065 0-.032-.032-.032-.032-.065s-.032-.033-.032-.065c0-.033-.033-.033-.033-.065 0-.033-.032-.033-.032-.065 0-.033-.033-.033-.033-.065 0-.033-.032-.033-.032-.066 0-.032-.033-.032-.033-.065 0-.032-.032-.032-.032-.065 0-.032-.032-.032-.032-.065 0-.032-.033-.032-.033-.065 0-.032-.032-.032-.032-.065s-.033-.033-.033-.065c0-.033-.032-.033-.032-.065 0-.033-.033-.033-.033-.065 0-.033-.032-.033-.032-.066 0-.032-.032-.032-.032-.065 0-.032-.033-.032-.033-.065 0-.032-.032-.032-.032-.065 0-.032-.033-.032-.033-.065 0-.032-.032-.032-.032-.065s-.033-.032-.033-.065-.032-.033-.032-.065c0-.033-.032-.033-.032-.065 0-.033-.033-.033-.033-.065 0-.033-.032-.033-.032-.065 0-.033-.033-.033-.033-.066-.097-.13-.292-.195-.551-.13l-1.103.26c-.713.163-1.427.88-1.653 1.563l-2.206 7.683c-.097.358-.064.651.13.814 0 .032.033.032.033.065s.032.033.032.065c0 .033.032.033.032.065 0 .033.033.033.033.065 0 .033.032.033.032.066 0 .032.033.032.033.065 0 .032.032.032.032.065 0 .032.033.032.033.065 0 .032.032.032.032.065 0 .032.032.032.032.065s.033.033.033.065c0 .033.032.033.032.065 0 .033.033.033.033.065 0 .033.032.033.032.065 0 .033.033.033.033.066 0 .032.032.032.032.065 0 .032.032.032.032.065 0 .032.033.032.033.065 0 .032.032.032.032.065 0 .032.033.032.033.065s.032.033.032.065c0 .033.033.033.033.065 0 .033.032.033.032.065 0 .033.032.033.032.066 0 .032.033.032.033.065 0 .032.032.032.032.065 0 .032.033.032.033.065 0 .032.032.032.032.065 0 .032.033.032.033.065s.032.033.032.065c0 .033.032.033.032.065 0 .033.033.033.033.065 0 .033.032.033.032.066 0 .032.033.032.033.065 0 .032.032.032.032.065 0 .032.033.032.033.065 0 .032.032.032.032.065 0 .032.032.032.032.065s.033.033.033.065c0 .033.032.033.032.065 0 .033.033.033.033.065 0 .033.032.033.032.066 0 .032.033.032.033.065 0 .032.032.032.032.065 0 .032.032.032.032.065 0 .032.033.032.033.065 0 .032.032.032.032.065s.033.033.033.065c0 .033.032.033.032.065 0 .033.033.033.033.065 0 .033.032.033.032.066 0 .032.032.032.032.065 0 .032.033.032.033.065 0 .032.032.032.032.065 0 .032.033.032.033.065s.032.033.032.065c0 .033.033.033.033.065 0 .033.032.033.032.065 0 .033.032.033.032.065 0 .033.033.033.033.065 0 .033.032.033.032.066 0 .032.033.032.033.065 0 .032.032.032.032.065 0 .032.033.032.033.065 0 .032.032.032.032.065s.032.033.032.065c0 .033.033.033.033.065 0 .033.032.033.032.065 0 .033.033.033.033.065 0 .033.032.033.032.066 0 .032.032.032.032.065 0 .032.033.032.033.065 0 .032.032.032.032.065 0 .032.033.032.033.065s.032.033.032.065c0 .033.033.033.033.065 0 .033.032.033.032.065 0 .033.032.033.032.065 0 .033.033.033.033.066 0 .032.032.032.032.065 0 .032.033.032.033.065 0 .032.032.032.032.065 0 .032.033.032.033.065s.032.033.032.065c0 .033.032.033.032.065 0 .033.033.033.033.065 0 .033.032.033.032.065.163.196.454.261.811.163l.713-.163c.714-.162 1.427-.879 1.654-1.562l2.303-8.074z" fill="#82960E"/><path d="M62.597 91.608l4.184 4.427.583-1.009s.098-1.66.714-2.441c.616-.782 1.556-1.237 2.302-1.335.746-.098 1.168-.065 1.168-.065l-4.249-4.493s-2.205.098-2.918.912c-.713.781-1.784 4.004-1.784 4.004z" fill="#A7BD29"/><path d="M69.894 93.301l-6.26-6.641 2.984-.749 6.291 6.674-3.016.716z" fill="#B3CF13"/><path d="M66.78 96.036l.812-2.702c.259-.912 1.232-1.79 2.14-2.019l1.232-.293c.551-.13.876.196.713.749l-2.464 8.562c-.13.423-.584.846-1.005.944l-1.168.26 1.687-5.957-1.946.456z" fill="#4C5900"/><path d="M67.462 101.538l-.713.162c-.714.163-1.103-.26-.908-.944l2.205-7.683c.194-.683.94-1.4 1.653-1.562l1.103-.26c.486-.13.746.162.616.65l-2.302 8.106c-.227.684-.973 1.368-1.654 1.531z" fill="#73850C"/><path d="M66.197 101.798a.476.476 0 01-.292-.195c-.194-.196-.227-.521-.13-.879l2.206-7.683c.097-.358.324-.716.648-1.01.325-.293.681-.52 1.038-.618l1.103-.26c.259-.066.486-.033.616.13.13.13.162.358.097.618l-2.302 8.106a2.163 2.163 0 01-.649 1.01c-.324.293-.681.52-1.038.618l-.713.163c-.227.065-.422.065-.584 0zm4.93-10.483a.549.549 0 00-.325 0l-1.103.26c-.68.163-1.394.847-1.588 1.498l-2.206 7.683c-.097.293-.064.554.098.716.162.163.389.196.713.131l.714-.163.032.065-.032-.065c.68-.163 1.394-.847 1.588-1.498l2.303-8.106c.065-.195.032-.358-.065-.456-.032-.032-.065-.065-.13-.065z" fill="#536100"/><path d="M67.56 101.245l-.714.162c-.52.131-.843-.195-.681-.716l2.205-7.683c.162-.52.713-1.041 1.232-1.172l1.103-.26c.291-.065.486.098.389.423l-2.303 8.106c-.162.489-.713 1.009-1.232 1.14zm1.977-9.311c-.454.098-.94.553-1.07 1.01l-2.205 7.682c-.13.456.13.716.584.619l.713-.163c.454-.098.94-.554 1.07-1.009l2.303-8.106c.064-.228-.065-.358-.292-.326l-1.103.293z" fill="#FFD052"/><path d="M65.905 93.692l-1.037 3.483v1.237l.55-.65 1.038-3.484-.55-.586zm.033.683l.13.163-.066.196-.13-.163.066-.196zm-.714 3.093l-.13-.163.065-.195.13.163-.065.195zm.227-.716l-.13-.13.065-.196.13.13-.065.196z" fill="#915C19"/><path d="M66.197 95.775l-.843-.912c-.097.033-.616 1.823-.616 1.823l.843.911c.097-.065.616-1.822.616-1.822zm-1.232.813l.421-1.432.26.26-.292 1.01.097.097c.097-.032.357-.944.357-.944l.227.228-.422 1.432-.648-.65z" fill="#A87B00"/><path d="M65.257 94.896l-.52 1.758.844.91.519-1.757-.843-.91zm.259 2.474l-.68-.716.453-1.53.292.325-.292 1.01.097.097.292-1.009.292.293-.454 1.53z" fill="#FFD052"/><path d="M63.506 91.055l-1.038 3.483v1.237l.551-.65 1.038-3.484-.551-.586zm.032.684l.13.162-.065.196-.13-.163.065-.195zm-.713 3.06l-.13-.163.065-.195.13.162-.065.196zm.227-.684l-.13-.13.065-.195.13.13-.065.195z" fill="#915C19"/><path d="M63.797 93.105l-.843-.91c-.097.032-.616 1.822-.616 1.822l.843.911c.097-.033.616-1.823.616-1.823zm-1.264.847l.421-1.432.26.26-.292 1.009.097.097c.097-.032.357-.943.357-.943l.227.228-.422 1.431-.648-.65z" fill="#A87B00"/><path d="M62.857 92.26l-.519 1.757.843.91.519-1.757-.843-.91zm.26 2.44l-.681-.716.453-1.53.292.326-.292 1.009.098.097.291-1.008.292.293-.454 1.53z" fill="#FFD052"/><path d="M81.665 50.263c-.843 0-1.654-.195-2.27-.553-.616-.358-.973-.847-.973-1.4 0-.521.357-1.01.973-1.4.616-.358 1.395-.553 2.27-.553.876 0 1.654.195 2.27.553.616.358.973.846.973 1.4 0 .52-.357 1.009-.973 1.4-.616.358-1.394.553-2.27.553zm0-3.58c-.778 0-1.524.162-2.108.52-.55.325-.843.716-.843 1.14 0 .423.292.846.843 1.139.584.325 1.362.52 2.108.52.778 0 1.524-.162 2.108-.52.551-.326.843-.716.843-1.14 0-.423-.292-.846-.843-1.139-.551-.358-1.33-.52-2.108-.52z" fill="#B1BAC4"/><path d="M81.665 55.375c-.097 0-.194-.097-.194-.195l-.033-7.553c0-.097.098-.195.195-.195s.195.098.195.195l.032 7.553c0 .13-.065.195-.195.195zM77.839 53.16c-.032 0-.065 0-.097-.032-.098-.065-.13-.163-.065-.26.227-.358.486-1.335.616-3.94.065-1.562.065-2.994.065-3.027 0-.098.065-.195.194-.195.098 0 .195.097.195.195 0 0 .032 1.465-.065 3.028-.097 2.148-.324 3.548-.68 4.102-.033.097-.098.13-.163.13zM85.427 53.161a.178.178 0 01-.162-.097c-.324-.586-.551-1.953-.681-4.102-.065-1.595-.065-3.028-.065-3.028 0-.097.097-.195.195-.195.097 0 .194.098.194.195 0 0-.032 1.433.065 3.028.13 2.604.422 3.58.616 3.939.065.098.033.195-.065.26h-.097z" fill="#B1BAC4"/><path d="M81.665 47.953c1.953 0 3.535-.919 3.535-2.052 0-1.132-1.582-2.05-3.535-2.05-1.952 0-3.534.918-3.534 2.05 0 1.133 1.582 2.051 3.534 2.051z" fill="#A2AEBA"/><path d="M85.232 44.762c0-.52-.356-1.041-1.037-1.465-1.395-.813-3.632-.813-5.027 0-.68.391-1.037.945-1.037 1.465 0 .521.356 1.042 1.037 1.465 1.395.814 3.632.814 5.027 0 .68-.39 1.037-.944 1.037-1.465 0 .033 0 .033 0 0 0 .033 0 .033 0 0 0 .033 0 0 0 0z" fill="#B02727"/><path d="M81.665 46.813c1.953 0 3.535-.918 3.535-2.05 0-1.133-1.582-2.052-3.535-2.052-1.952 0-3.534.919-3.534 2.051 0 1.133 1.582 2.051 3.534 2.051z" fill="#E65353"/><path fill-rule="evenodd" clip-rule="evenodd" d="M64.868 46l.227 1.302-.26 7.976-9.501-5.502.032-9.278L64.868 46z" fill="#D1B68A"/><path fill-rule="evenodd" clip-rule="evenodd" d="M64.868 46l8.982-5.242-.032 9.278-8.983 5.242.033-9.278z" fill="#C4A676"/><path fill-rule="evenodd" clip-rule="evenodd" d="M55.366 40.498l8.983-5.242 9.501 5.502-8.982 5.241-9.502-5.502z" fill="#C1A963"/><path fill-rule="evenodd" clip-rule="evenodd" d="M65.095 45.055l-.227 1.824-9.988-5.795v-1.628l10.215 5.6z" fill="#DBC49E"/><path fill-rule="evenodd" clip-rule="evenodd" d="M60.717 44.828l-.033 1.692 3.242 1.855v-1.692l-3.21-1.855z" fill="#F0F0F0"/><path fill-rule="evenodd" clip-rule="evenodd" d="M63.343 46.553l.356.195v1.27l-.356-.196v-1.27zm-2.4-.13v-1.27l.357.196v1.269l-.356-.196zm.617.358v-1.27l.356.195v1.27l-.356-.195zm.616.358v-1.27l.356.196v1.269l-.356-.196zm.583.357v-1.269l.357.196v1.269l-.357-.196z" fill="#8A888B"/><path fill-rule="evenodd" clip-rule="evenodd" d="M64.868 45.218l9.436-5.502v1.628l-9.436 5.534v-1.66z" fill="#D1B68A"/><path fill-rule="evenodd" clip-rule="evenodd" d="M54.88 39.456l9.469-5.534 9.955 5.795-9.436 5.501-9.988-5.762z" fill="#EDDDC4"/><path fill-rule="evenodd" clip-rule="evenodd" d="M64.965 36.005l.162 1.075-.195 6.543-7.75-4.525v-7.585l7.783 4.492z" fill="#D1B68A"/><path fill-rule="evenodd" clip-rule="evenodd" d="M64.965 36.005l7.329-4.264-.033 7.585-7.328 4.297.032-7.618z" fill="#C4A676"/><path fill-rule="evenodd" clip-rule="evenodd" d="M57.182 31.512l7.361-4.264 7.75 4.492-7.328 4.265-7.783-4.493z" fill="#C1A963"/><path fill-rule="evenodd" clip-rule="evenodd" d="M65.127 35.257l-.194 1.465-8.14-4.72v-1.336l8.334 4.59z" fill="#DBC49E"/><path fill-rule="evenodd" clip-rule="evenodd" d="M61.56 35.061v1.367l2.626 1.53V36.59l-2.626-1.53z" fill="#F0F0F0"/><path fill-rule="evenodd" clip-rule="evenodd" d="M63.7 36.493l.291.163v1.042l-.291-.163v-1.042zm-1.946-.13v-1.041l.292.162v1.042l-.291-.163zm.487.293v-1.041l.292.162v1.042l-.292-.163zm.519.293v-1.041l.291.162v1.042l-.291-.163zm.486.293v-1.041l.292.162v1.042l-.292-.163z" fill="#8A888B"/><path fill-rule="evenodd" clip-rule="evenodd" d="M64.965 35.387l7.685-4.493v1.335l-7.718 4.492.033-1.334z" fill="#D1B68A"/><path fill-rule="evenodd" clip-rule="evenodd" d="M56.793 30.666l7.718-4.492 8.14 4.72-7.686 4.493-8.172-4.72z" fill="#EDDDC4"/><path fill-rule="evenodd" clip-rule="evenodd" d="M64.284 29.168l.097.684-.13 4.102-4.896-2.833v-4.785l4.929 2.832z" fill="#D1B68A"/><path fill-rule="evenodd" clip-rule="evenodd" d="M64.284 29.169l4.637-2.702-.032 4.785-4.638 2.702.033-4.785z" fill="#C4A676"/><path fill-rule="evenodd" clip-rule="evenodd" d="M59.355 26.337l4.67-2.703 4.896 2.833-4.637 2.702-4.93-2.832z" fill="#C1A963"/><path fill-rule="evenodd" clip-rule="evenodd" d="M64.381 28.68l-.097.944-5.156-2.995v-.847l5.253 2.898z" fill="#DBC49E"/><path fill-rule="evenodd" clip-rule="evenodd" d="M62.111 28.55v.88l1.686.976v-.88l-1.686-.976z" fill="#F0F0F0"/><path fill-rule="evenodd" clip-rule="evenodd" d="M63.505 29.462l.195.097v.651l-.195-.098v-.65zm-1.264-.066v-.65l.162.097v.651l-.162-.098zm.324.196v-.651l.162.098v.65l-.162-.097zm.324.163v-.651l.162.097v.651l-.162-.098zm.292.195v-.651l.162.098v.65l-.162-.097z" fill="#8A888B"/><path fill-rule="evenodd" clip-rule="evenodd" d="M64.284 28.778l4.864-2.864v.846l-4.864 2.865v-.847z" fill="#D1B68A"/><path fill-rule="evenodd" clip-rule="evenodd" d="M59.128 25.783l4.864-2.832 5.156 2.962-4.864 2.865-5.156-2.995z" fill="#EDDDC4"/><path d="M80.66 86.887c-.843 0-1.654-.195-2.27-.553-.616-.359-.973-.847-.973-1.4 0-.521.357-1.01.973-1.4.616-.358 1.394-.553 2.27-.553.876 0 1.654.195 2.27.553.616.358.973.846.973 1.4 0 .52-.357 1.009-.973 1.4-.616.358-1.395.553-2.27.553zm0-3.581c-.778 0-1.524.163-2.108.52-.551.326-.843.717-.843 1.14 0 .424.292.847.843 1.14.584.325 1.362.52 2.108.52.778 0 1.524-.162 2.108-.52.551-.326.843-.716.843-1.14 0-.423-.292-.846-.843-1.14-.552-.357-1.33-.52-2.108-.52z" fill="#B1BAC4"/><path d="M80.66 91.999c-.097 0-.194-.098-.194-.195l-.033-7.553c0-.098.097-.195.195-.195.097 0 .194.097.194.195l.033 7.553c0 .13-.065.195-.195.195zM76.834 89.784c-.033 0-.065 0-.098-.032-.097-.065-.13-.163-.065-.26.227-.359.487-1.335.617-3.94.065-1.562.065-2.995.065-3.027 0-.098.064-.196.194-.196.097 0 .195.098.195.196 0 0 .032 1.465-.065 3.027-.098 2.149-.325 3.549-.681 4.102-.033.098-.097.13-.162.13zM84.422 89.785a.178.178 0 01-.162-.097c-.325-.586-.552-1.954-.681-4.102-.065-1.595-.065-3.028-.065-3.028 0-.097.097-.195.194-.195.098 0 .195.098.195.195 0 0-.032 1.433.065 3.028.13 2.604.421 3.58.616 3.939.065.098.032.195-.065.26h-.097z" fill="#B1BAC4"/><path d="M80.66 84.576c1.952 0 3.535-.918 3.535-2.05 0-1.133-1.583-2.052-3.535-2.052-1.952 0-3.535.919-3.535 2.051 0 1.133 1.583 2.051 3.535 2.051z" fill="#A2AEBA"/><path d="M84.227 81.386c0-.52-.357-1.041-1.038-1.465-1.394-.814-3.632-.814-5.026 0-.681.391-1.038.944-1.038 1.465 0 .521.357 1.042 1.038 1.465 1.394.814 3.632.814 5.026 0 .681-.39 1.038-.944 1.038-1.465 0 .033 0 .033 0 0 0 .033 0 .033 0 0 0 .033 0 .033 0 0 0 .033 0 0 0 0z" fill="#B02727"/><path d="M80.66 83.437c1.952 0 3.535-.918 3.535-2.05 0-1.133-1.583-2.052-3.535-2.052-1.952 0-3.535.919-3.535 2.051 0 1.133 1.583 2.051 3.535 2.051z" fill="#E65353"/></svg>