<?xml version="1.0" encoding="utf-8"?><svg width="96" height="23" fill="none" xmlns="http://www.w3.org/2000/svg" viewBox="0 0 96 23"><path d="M36.51 5.103h-5.227c-.384 0-.692.228-.692.609L28.44 19.04c0 .228.154.457.384.533h2.614c.384 0 .692-.229.692-.61l.538-3.579c.076-.38.384-.61.691-.61h1.691c3.459 0 5.457-1.675 5.995-4.95.231-1.447 0-2.589-.691-3.35-.769-.838-2.076-1.371-3.843-1.371zm.614 4.95c-.307 1.904-1.69 1.904-3.15 1.904h-.77l.539-3.503c0-.229.23-.381.46-.381h.385c.922 0 1.845 0 2.306.533.23.305.307.762.23 1.447zm15.142-.076H49.73c-.23 0-.385.152-.461.38l-.077.686-.154-.228c-.538-.762-1.768-1.067-2.998-1.067-2.767 0-5.15 2.057-5.61 5.027-.231 1.447.076 2.894.922 3.808.768.914 1.845 1.295 3.151 1.295 2.23 0 3.459-1.448 3.459-1.448l-.077.686c0 .228.154.457.384.533h2.383c.384 0 .692-.229.692-.61l1.383-8.53c0-.304-.153-.532-.46-.532zm-3.535 4.798c-.231 1.447-1.384 2.36-2.844 2.36-.769 0-1.307-.228-1.691-.685-.385-.457-.538-1.066-.385-1.751.231-1.447 1.384-2.437 2.844-2.437.692 0 1.307.228 1.691.685a2.93 2.93 0 01.385 1.828zM65.64 9.977h-2.537c-.23 0-.46.152-.614.304l-3.46 5.103-1.46-4.874a.737.737 0 00-.691-.533h-2.46c-.23 0-.461.228-.461.457v.152l2.767 8.073-2.613 3.656c-.154.228-.077.456.077.609.076.076.153.076.23.076h2.537c.23 0 .46-.152.614-.305l8.455-12.033c.154-.228.077-.457-.077-.609-.153-.076-.23-.076-.307-.076z" fill="#253B80"/><path d="M74.018 5.103H68.79c-.384 0-.691.228-.691.609L65.948 19.04c0 .228.153.457.384.533h2.767c.23 0 .461-.152.538-.457l.615-3.808c.077-.38.384-.61.692-.61h1.69c3.46 0 5.457-1.675 5.995-4.95.231-1.447 0-2.589-.691-3.35-.846-.762-2.152-1.295-3.92-1.295zm.615 4.95c-.308 1.904-1.691 1.904-3.151 1.904h-.77l.539-3.503c0-.229.23-.381.461-.381h.384c.923 0 1.845 0 2.306.533.23.305.308.762.23 1.447zm15.065-.076H87.16c-.23 0-.384.152-.461.38l-.077.686-.154-.228c-.538-.762-1.767-1.067-2.997-1.067-2.767 0-5.15 2.057-5.611 5.027-.23 1.447.077 2.894.922 3.808.769.914 1.845 1.295 3.152 1.295 2.228 0 3.458-1.448 3.458-1.448l-.077.686c0 .228.154.457.385.533h2.306c.384 0 .691-.229.691-.61l1.384-8.53c.077-.304-.077-.532-.384-.532.076 0 .076 0 0 0zm-3.46 4.798c-.23 1.447-1.383 2.36-2.843 2.36-.692 0-1.307-.228-1.691-.685-.384-.457-.538-1.066-.384-1.751.23-1.447 1.383-2.437 2.844-2.437.691 0 1.306.228 1.69.685a2.93 2.93 0 01.385 1.828zm6.457-9.292l-2.152 13.633c0 .228.154.457.384.533h2.229c.385 0 .692-.229.692-.61L96 5.713a.573.573 0 00-.384-.533h-2.537c-.153-.076-.384.152-.384.304z" fill="#179BD7"/><path d="M6.61 22.238l.385-2.513H1.845L4.766.99c.077-.152.154-.228.23-.228h7.226c2.382 0 4.073.533 4.919 1.523.384.457.692.914.768 1.447.154.533.154 1.218 0 1.98v.609l.385.229c.384.152.615.304.845.609.384.38.538.914.692 1.447.077.61.077 1.295-.077 2.132-.154.914-.461 1.752-.922 2.438-.385.609-.846 1.142-1.384 1.523a4.904 4.904 0 01-1.921.837c-.692.153-1.46.305-2.383.305h-.538c-.384 0-.769.152-1.076.38-.307.23-.538.61-.538.99l-.077.23-.692 4.493v.152c0 .076 0 .076-.077.076h-.076c0 .076-3.46.076-3.46.076z" fill="#253B80"/><path d="M18.678 5.864v.381c-.922 4.874-4.227 6.474-8.378 6.474H8.148a.997.997 0 00-1 .837l-1.075 6.778-.308 1.904c-.076.305.154.534.462.61h3.843c.46 0 .845-.305.922-.762v-.152l.692-4.417.077-.229c.076-.457.46-.762.922-.762h.538c3.612 0 6.456-1.447 7.302-5.711.384-1.752.153-3.275-.769-4.265-.307-.229-.615-.533-1.076-.686z" fill="#179BD7"/><path d="M17.756 5.483a2.062 2.062 0 00-.923-.228c-.614-.076-1.23-.152-1.844-.152H9.3c-.461 0-.845.304-.922.761l-1.23 7.54v.229c.077-.534.538-.838 1-.838H10.3c4.15 0 7.379-1.676 8.378-6.474v-.457c-.23-.152-.538-.228-.769-.304-.076-.077-.153-.077-.153-.077z" fill="#222D65"/><path d="M8.378 5.864c.077-.457.46-.761.922-.761h5.688c.692 0 1.306.076 1.844.152.385.076.769.152 1.153.305.308.076.538.228.769.304.307-1.751 0-2.97-1-4.112C16.68.533 14.758 0 12.222 0H4.996c-.461 0-.922.38-1 .838L1 19.725c-.077.305.154.686.538.686h4.535l1.153-7.007 1.153-7.54z" fill="#253B80"/></svg>