<?xml version="1.0" encoding="utf-8"?><svg width="130" height="124" fill="none" xmlns="http://www.w3.org/2000/svg" viewBox="0 0 130 124"><path fill-rule="evenodd" clip-rule="evenodd" d="M11.039 88.72L11 94.207 65.42 124l.35-1.198-.311-4.289-54.42-29.793z" fill="#8A6633"/><path fill-rule="evenodd" clip-rule="evenodd" d="M64.916 58.928L11.04 88.72l54.42 29.793 53.877-30.179-54.42-29.406z" fill="#BD9257"/><path fill-rule="evenodd" clip-rule="evenodd" d="M119.335 88.334l-.039 5.487L65.42 124l.039-5.487 53.876-30.18z" fill="#A37C44"/><path fill-rule="evenodd" clip-rule="evenodd" d="M14.302 31.493l.893 24.46L14.07 90.69 11 88.914l.194-59.16 3.108 1.739z" fill="#E6E6E6" stroke="#E0DAD9" stroke-width=".216" stroke-miterlimit="22.926"/><path fill-rule="evenodd" clip-rule="evenodd" d="M65.03 3.053l1.943 30.913-2.175 28.749-50.73 27.976.233-59.662L65.03 3.053z" fill="#DCDCDA"/><path fill-rule="evenodd" clip-rule="evenodd" d="M116.267 30.643l1.553 22.45-1.748 37.212-51.273-27.59.233-59.662 51.235 27.59z" fill="#E6E6E6"/><path fill-rule="evenodd" clip-rule="evenodd" d="M119.335 29.367l-3.068 1.74-51.235-27.59-50.73 27.976-3.108-1.74L64.993 0l54.342 29.367z" fill="#F0F0F0"/><path fill-rule="evenodd" clip-rule="evenodd" d="M119.334 29.367l-.194 59.16-3.068 1.778.195-59.199 3.067-1.739z" fill="#DCDCDA"/><path fill-rule="evenodd" clip-rule="evenodd" d="M63.556 70.366l.35 1.893-.39 11.94-14.294-8.192.039-13.872 14.294 8.23z" fill="#D1B68A"/><path fill-rule="evenodd" clip-rule="evenodd" d="M63.556 70.366l13.517-7.844-.039 13.872-13.517 7.805.039-13.833z" fill="#C4A676"/><path fill-rule="evenodd" clip-rule="evenodd" d="M49.26 62.135L62.78 54.33l14.294 8.192-13.518 7.844-14.294-8.23z" fill="#C1A963"/><path fill-rule="evenodd" clip-rule="evenodd" d="M63.866 68.975l-.31 2.666-14.994-8.617V60.59l15.304 8.385z" fill="#DBC49E"/><path fill-rule="evenodd" clip-rule="evenodd" d="M57.302 68.588V71.1l4.855 2.82v-2.55l-4.855-2.782z" fill="#F0F0F0"/><path fill-rule="evenodd" clip-rule="evenodd" d="M61.264 71.216l.505.309v1.893l-.505-.309v-1.893zm-3.613-.232v-1.893l.505.309v1.893l-.505-.309zm.933.541v-1.893l.505.309v1.893l-.505-.309zm.932.541v-1.894l.505.31v1.893l-.505-.309zm.893.502v-1.893l.505.309v1.893l-.505-.309z" fill="#8A888B"/><path fill-rule="evenodd" clip-rule="evenodd" d="M63.556 69.206l14.178-8.23v2.473L63.556 71.64v-2.435z" fill="#D1B68A"/><path fill-rule="evenodd" clip-rule="evenodd" d="M48.562 60.59l14.217-8.192 14.955 8.578-14.178 8.23-14.994-8.617z" fill="#EDDDC4"/><path fill-rule="evenodd" clip-rule="evenodd" d="M63.866 57.691l.233 1.276-.272 8.037-9.594-5.526.039-9.312 9.594 5.526z" fill="#D1B68A"/><path fill-rule="evenodd" clip-rule="evenodd" d="M63.866 57.691l9.09-5.255-.04 9.313-9.088 5.255.038-9.313z" fill="#C4A676"/><path fill-rule="evenodd" clip-rule="evenodd" d="M54.272 52.166l9.09-5.255 9.593 5.525-9.089 5.255-9.594-5.525z" fill="#C1A963"/><path fill-rule="evenodd" clip-rule="evenodd" d="M64.1 56.764l-.234 1.778-10.1-5.758v-1.662L64.1 56.764z" fill="#DBC49E"/><path fill-rule="evenodd" clip-rule="evenodd" d="M59.671 56.494l-.039 1.7 3.301 1.893v-1.7l-3.262-1.893z" fill="#F0F0F0"/><path fill-rule="evenodd" clip-rule="evenodd" d="M62.35 58.271l.35.193v1.276l-.35-.194v-1.275zm-2.446-.154V56.84l.35.194v1.275l-.35-.193zm.622.347V57.19l.35.193v1.276l-.35-.194zm.62.387v-1.275l.35.193v1.275l-.35-.193zm.583.309v-1.275l.35.193v1.275l-.35-.193z" fill="#8A888B"/><path fill-rule="evenodd" clip-rule="evenodd" d="M63.866 56.919l9.556-5.526-.039 1.662-9.517 5.487v-1.623z" fill="#D1B68A"/><path fill-rule="evenodd" clip-rule="evenodd" d="M53.767 51.122l9.555-5.525 10.1 5.796-9.556 5.526-10.1-5.797z" fill="#EDDDC4"/><path d="M63.944 47.838c-1.01 0-1.981-.232-2.72-.657-.737-.425-1.165-1.005-1.165-1.662 0-.618.428-1.197 1.166-1.661.738-.425 1.67-.657 2.719-.657s1.98.232 2.719.657c.738.425 1.165 1.005 1.165 1.661 0 .619-.427 1.198-1.165 1.662-.738.425-1.71.657-2.72.657zm0-4.25c-.933 0-1.826.193-2.525.618-.66.386-1.01.85-1.01 1.352 0 .502.35 1.005 1.01 1.352.7.387 1.631.619 2.525.619.932 0 1.825-.194 2.525-.619.66-.386 1.01-.85 1.01-1.352 0-.502-.35-1.005-1.01-1.352-.7-.425-1.593-.619-2.525-.619z" fill="#B1BAC4"/><path d="M63.944 53.904c-.117 0-.233-.116-.233-.231l-.039-8.965c0-.116.117-.232.233-.232.117 0 .233.116.233.232l.039 9.003c0 .116-.117.193-.233.193zM59.36 51.277c-.038 0-.077 0-.116-.039-.117-.077-.155-.193-.078-.309.272-.425.583-1.584.738-4.675.078-1.855.078-3.555.078-3.594 0-.116.077-.232.233-.232.116 0 .233.116.233.232 0 0 .039 1.739-.078 3.594-.116 2.55-.388 4.212-.815 4.868-.04.116-.117.155-.194.155zM68.41 51.277a.214.214 0 01-.194-.116c-.388-.696-.66-2.319-.815-4.869-.078-1.893-.078-3.593-.078-3.593 0-.116.117-.232.233-.232.117 0 .233.116.233.232 0 0-.038 1.7.078 3.593.155 3.091.505 4.25.738 4.676.078.116.039.232-.078.309h-.116z" fill="#B1BAC4"/><path d="M63.944 45.094c2.338 0 4.234-1.09 4.234-2.434 0-1.345-1.896-2.434-4.234-2.434s-4.234 1.09-4.234 2.434 1.896 2.434 4.234 2.434z" fill="#A2AEBA"/><path d="M68.178 41.307c0-.618-.427-1.236-1.243-1.738-1.67-.966-4.35-.966-6.021 0-.816.463-1.243 1.12-1.243 1.738 0 .619.427 1.237 1.243 1.74 1.67.965 4.35.965 6.02 0 .817-.464 1.244-1.121 1.244-1.74 0 .04 0 .04 0 0 0 .04 0 .04 0 0 0 .04 0 .04 0 0z" fill="#B02727"/><path d="M63.944 43.742c2.338 0 4.234-1.09 4.234-2.434 0-1.345-1.896-2.435-4.234-2.435s-4.234 1.09-4.234 2.435c0 1.344 1.896 2.434 4.234 2.434z" fill="#E65353"/><path fill-rule="evenodd" clip-rule="evenodd" d="M85.93 82.693l.31 1.7-.35 10.433-12.468-7.187.038-12.134 12.47 7.188z" fill="#D1B68A"/><path fill-rule="evenodd" clip-rule="evenodd" d="M85.93 82.692l11.847-6.84-.039 12.134-11.847 6.84.039-12.134z" fill="#C4A676"/><path fill-rule="evenodd" clip-rule="evenodd" d="M73.46 75.505l11.809-6.84 12.508 7.188-11.848 6.84-12.469-7.188z" fill="#C1A963"/><path fill-rule="evenodd" clip-rule="evenodd" d="M86.24 81.495l-.31 2.318-13.13-7.496v-2.164l13.44 7.342z" fill="#DBC49E"/><path fill-rule="evenodd" clip-rule="evenodd" d="M80.453 81.147v2.202l4.272 2.473v-2.24l-4.272-2.435z" fill="#F0F0F0"/><path fill-rule="evenodd" clip-rule="evenodd" d="M83.947 83.427l.466.27v1.662l-.466-.27v-1.662zm-3.184-.155V81.65l.466.27v1.662l-.466-.309zm.816.464v-1.662l.466.27v1.662l-.466-.27zm.815.463v-1.661l.466.27v1.623l-.466-.231zm.777.425v-1.622l.466.27v1.662l-.466-.31z" fill="#8A888B"/><path fill-rule="evenodd" clip-rule="evenodd" d="M85.93 81.688L98.36 74.5v2.164l-12.43 7.149v-2.125z" fill="#D1B68A"/><path fill-rule="evenodd" clip-rule="evenodd" d="M72.8 74.153l12.43-7.187L98.36 74.5l-12.43 7.187-13.13-7.535z" fill="#EDDDC4"/><path fill-rule="evenodd" clip-rule="evenodd" d="M85.502 70.288l.233 1.276-.272 7.728-9.283-5.333.038-9.003 9.284 5.332z" fill="#D1B68A"/><path fill-rule="evenodd" clip-rule="evenodd" d="M85.502 70.288l8.78-5.062v9.004l-8.818 5.062.038-9.004z" fill="#C4A676"/><path fill-rule="evenodd" clip-rule="evenodd" d="M76.219 64.956l8.778-5.1 9.284 5.37-8.779 5.062-9.283-5.332z" fill="#C1A963"/><path fill-rule="evenodd" clip-rule="evenodd" d="M85.697 69.4l-.195 1.739-9.75-5.603V63.95l9.945 5.449z" fill="#DBC49E"/><path fill-rule="evenodd" clip-rule="evenodd" d="M81.424 69.13v1.66l3.145 1.817.039-1.662-3.184-1.816z" fill="#F0F0F0"/><path fill-rule="evenodd" clip-rule="evenodd" d="M84.025 70.83l.35.193v1.236l-.35-.193v-1.237zm-2.368-.116v-1.237l.35.193v1.237l-.35-.193zm.582.347v-1.236l.35.193v1.236l-.35-.193zm.621.348v-1.236l.35.193v1.236l-.35-.193zm.583.348V70.52l.35.194v1.236l-.35-.193z" fill="#8A888B"/><path fill-rule="evenodd" clip-rule="evenodd" d="M85.502 69.554l9.245-5.37v1.622l-9.245 5.333v-1.585z" fill="#D1B68A"/><path fill-rule="evenodd" clip-rule="evenodd" d="M75.753 63.951l9.244-5.37 9.75 5.602-9.245 5.371-9.75-5.603z" fill="#EDDDC4"/><path fill-rule="evenodd" clip-rule="evenodd" d="M85.502 61.285l.078.58-.117 3.477-4.195-2.395V58.85l4.234 2.434z" fill="#D1B68A"/><path fill-rule="evenodd" clip-rule="evenodd" d="M85.502 61.285l3.963-2.318v4.096l-4.001 2.28.038-4.058z" fill="#C4A676"/><path fill-rule="evenodd" clip-rule="evenodd" d="M81.268 58.85l4.001-2.28 4.195 2.397-3.962 2.318-4.234-2.434z" fill="#C1A963"/><path fill-rule="evenodd" clip-rule="evenodd" d="M85.58 60.86l-.117.811-4.389-2.55v-.696l4.506 2.435z" fill="#DBC49E"/><path fill-rule="evenodd" clip-rule="evenodd" d="M83.637 60.744v.773l1.437.811v-.734l-1.437-.85z" fill="#E7EEF6"/><path fill-rule="evenodd" clip-rule="evenodd" d="M84.802 61.517l.155.077v.541l-.155-.077v-.541zm-1.049-.039v-.54l.156.076v.541l-.156-.077zm.272.155v-.541l.156.077v.541l-.156-.077zm.272.154v-.54l.155.077v.54l-.155-.077zm.272.155V61.4l.155.077v.541l-.155-.077z" fill="#8A888B"/><path fill-rule="evenodd" clip-rule="evenodd" d="M85.464 60.937l4.195-2.395v.695l-4.195 2.434v-.734z" fill="#D1B68A"/><path fill-rule="evenodd" clip-rule="evenodd" d="M81.074 58.426l4.195-2.435 4.39 2.55-4.196 2.396-4.389-2.511z" fill="#EDDDC4"/><path fill-rule="evenodd" clip-rule="evenodd" d="M46.736 97.299l.117.772-.156 4.908-5.865-3.362v-5.68l5.904 3.362z" fill="#D1B68A"/><path fill-rule="evenodd" clip-rule="evenodd" d="M46.736 97.299l5.555-3.208-.039 5.68-5.555 3.208.04-5.68z" fill="#C4A676"/><path fill-rule="evenodd" clip-rule="evenodd" d="M40.832 93.937l5.555-3.246 5.904 3.4-5.555 3.208-5.904-3.362z" fill="#C1A963"/><path fill-rule="evenodd" clip-rule="evenodd" d="M46.853 96.72l-.156 1.12-6.137-3.555V93.28l6.293 3.44z" fill="#DBC49E"/><path fill-rule="evenodd" clip-rule="evenodd" d="M44.132 96.564v1.044l2.02 1.159v-1.043l-2.02-1.16z" fill="#F0F0F0"/><path fill-rule="evenodd" clip-rule="evenodd" d="M45.763 97.647l.233.116v.772l-.233-.115v-.773zm-1.475-.078v-.773l.194.116v.773l-.194-.116zm.388.194v-.773l.194.116v.773l-.194-.116zm.388.231v-.772l.194.116v.772l-.194-.116zm.35.232v-.773l.194.116v.773l-.194-.116z" fill="#8A888B"/><path fill-rule="evenodd" clip-rule="evenodd" d="M46.736 96.835l5.827-3.4v1.004l-5.866 3.4.04-1.004z" fill="#D1B68A"/><path fill-rule="evenodd" clip-rule="evenodd" d="M40.56 93.28l5.827-3.362 6.176 3.517-5.827 3.4-6.176-3.555z" fill="#EDDDC4"/><path d="M78.821 100.313l-2.719 1.546L66.08 87.407l2.642-1.507 10.1 14.413z" fill="#965B14"/><path d="M69.226 95.135l8.973 5.139c.427.232.777.039.777-.463v-7.42c0-.502-.35-1.082-.777-1.352l-8.973-5.1c-.427-.233-.777-.04-.777.463v7.42c0 .463.35 1.081.777 1.313z" fill="#965B14"/><path d="M77.422 100.738v-7.42c0-.502-.35-1.081-.777-1.352l-8.972-5.1c-.04 0-.311-.155-.35-.155.039-.386.621-.425 1.01-.232l8.973 5.14c.427.231.777.85.777 1.352v7.419c0 .464-.311.657-.7.502.04-.077.04-.116.04-.154z" fill="#D1C46A"/><path d="M66.624 96.642l8.973 5.139c.427.232.777.039.777-.464v-7.419c0-.502-.35-1.082-.777-1.352l-8.973-5.14c-.427-.231-.777-.038-.777.464v7.42c0 .502.35 1.12.777 1.352z" fill="#BD8542"/><path d="M75.558 91.58l1.165-.696-.777-.425-1.165.657.777.464z" fill="#FFE699"/><path d="M75.558 91.58v.193l-.815-.425.038-.232.777.464z" fill="#E0C163"/><path d="M76.723 90.884v.232l-1.165.657v-.193l1.165-.696z" fill="#CCA83B"/><path d="M69.264 87.986l1.204-.657-.776-.463-1.204.695.776.425z" fill="#FFE699"/><path d="M69.264 87.986v.232l-.776-.464v-.193l.776.425z" fill="#E0C163"/><path d="M70.468 87.33v.192l-1.204.696v-.232l1.204-.657z" fill="#CCA83B"/><path d="M73.46 89.802l-.271.194-.117-.503.194-.077.195.386z" fill="#4E4E5C"/><path d="M70.976 87.097l.272-.154 1.98 1.275-.117.31-2.135-1.43z" fill="#4C4C5C"/><path d="M73.382 88.373v1.468l-.272-.193v-1.16c0-.077-.077-.193-.155-.231l-1.398-.812c-.078-.038-.155 0-.155.078v1.159l-.31-.155V87.06c0-.077.077-.116.155-.077l1.98 1.12a.334.334 0 01.155.27z" fill="#4C4C5C"/><path d="M73.188 88.527v1.468l-.272-.154v-1.16c0-.077-.078-.193-.155-.231l-1.398-.812c-.078-.038-.155 0-.155.078v1.159l-.311-.155v-1.468c0-.077.078-.116.155-.077l1.98 1.12c.078 0 .156.116.156.232z" fill="#2B2B38"/><path d="M71.208 88.836l.272-.154-.311-.503v.503l.039.154z" fill="#4C4C5C"/><path d="M65.342 81.147l.35-.077 1.903 2.009-.195.348-2.058-2.28z" fill="#FFD052"/><path d="M67.75 83.31l-.427 1.662-.272-.27.35-1.314a.3.3 0 00-.078-.309l-1.36-1.314c-.077-.077-.155-.038-.194.039l-.35 1.314-.31-.27.427-1.662c.04-.116.117-.116.195-.039l1.941 1.893c.078 0 .117.155.078.27z" fill="#FFD052"/><path d="M67.439 83.427l-.427 1.661-.272-.27.35-1.314a.3.3 0 00-.078-.31l-1.36-1.313c-.077-.077-.154-.039-.193.039l-.35 1.313-.31-.27.427-1.662c.038-.116.116-.116.194-.038l1.941 1.893c.078 0 .117.155.078.27z" fill="#915C19"/><path d="M58.428 87.33l.971-3.208c.31-1.082 1.476-2.125 2.564-2.395l1.476-.348c.66-.155 1.048.231.854.888l-2.292 7.69c-.155.502-1.32 3.516-1.825 3.632l-1.437.31 2.02-7.072-2.331.502z" fill="#A7BD29"/><path d="M59.322 93.512l-.855.193c-.621.155-1.01-.232-.816-.85l2.642-9.12c.194-.617.854-1.236 1.476-1.39l1.32-.31c.35-.077.583.117.467.503l-2.137 7.11c-.155.58-1.437 3.71-2.097 3.864zm2.408-11.051c-.544.116-1.127.657-1.282 1.198l-2.641 9.119c-.156.54.155.85.699.734l.854-.193c.544-.116 1.748-3.169 1.904-3.71L63.4 82.5c.078-.27-.078-.425-.35-.386l-1.32.348z" fill="#C9750E"/><path d="M68.993 87.677c.078-.31.04-.54-.116-.657 0-.038-.04-.038-.04-.077s-.038-.039-.038-.077c0-.039-.039-.039-.039-.078 0-.038-.039-.038-.039-.077s-.038-.039-.038-.077c0-.039-.04-.039-.04-.078 0-.038-.038-.038-.038-.077 0-.038-.039-.038-.039-.077s-.039-.039-.039-.077c0-.039-.039-.039-.039-.078 0-.038-.038-.038-.038-.077s-.04-.039-.04-.077c0-.039-.038-.039-.038-.078 0-.038-.04-.038-.04-.077 0-.038-.038-.038-.038-.077s-.039-.039-.039-.077c0-.039-.039-.039-.039-.078 0-.038-.038-.038-.038-.077 0-.038-.04-.039-.04-.077 0-.039-.038-.039-.038-.078 0-.038-.039-.038-.039-.077 0-.038-.039-.038-.039-.077s-.039-.039-.039-.077c0-.039-.038-.039-.038-.078 0-.038-.04-.038-.04-.077 0-.038-.038-.038-.038-.077s-.039-.039-.039-.078c0-.038-.039-.038-.039-.077 0-.038-.039-.038-.039-.077s-.039-.039-.039-.077c0-.039-.038-.039-.038-.078 0-.038-.04-.038-.04-.077 0-.038-.038-.038-.038-.077s-.039-.039-.039-.077c0-.04-.039-.04-.039-.078s-.039-.038-.039-.077-.038-.039-.038-.077c0-.039-.04-.039-.04-.078 0-.038-.038-.038-.038-.077 0-.038-.039-.038-.039-.077s-.039-.039-.039-.077c0-.04-.039-.04-.039-.078s-.038-.038-.038-.077-.04-.039-.04-.077c0-.039-.038-.039-.038-.078 0-.038-.04-.038-.04-.077 0-.038-.038-.038-.038-.077s-.039-.039-.039-.077c0-.039-.039-.039-.039-.078 0-.038-.038-.038-.038-.077s-.04-.039-.04-.077c0-.039-.038-.039-.038-.078 0-.038-.039-.038-.039-.077 0-.038-.039-.039-.039-.077 0-.039-.039-.039-.039-.077 0-.039-.038-.039-.038-.078 0-.038-.04-.038-.04-.077s-.038-.039-.038-.077c0-.039-.039-.039-.039-.078 0-.038-.039-.038-.039-.077 0-.038-.039-.038-.039-.077s-.039-.039-.039-.077c0-.039-.038-.039-.038-.078 0-.038-.04-.038-.04-.077s-.038-.039-.038-.077c0-.039-.039-.039-.039-.078 0-.038-.039-.038-.039-.077 0-.038-.039-.038-.039-.077s-.038-.039-.038-.077c0-.039-.04-.039-.04-.078 0-.038-.038-.038-.038-.077 0-.038-.039-.038-.039-.077s-.039-.039-.039-.078c0-.038-.039-.038-.039-.077 0-.038-.038-.038-.038-.077s-.04-.039-.04-.077c0-.039-.038-.039-.038-.078 0-.038-.04-.038-.04-.077 0-.038-.038-.038-.038-.077s-.039-.039-.039-.077c0-.04-.039-.04-.039-.078s-.038-.038-.038-.077-.04-.039-.04-.077c0-.039-.038-.039-.038-.078 0-.038-.039-.038-.039-.077 0-.038-.039-.038-.039-.077s-.039-.039-.039-.077c-.116-.155-.35-.232-.66-.155l-1.32.31c-.855.192-1.71 1.043-1.982 1.854l-2.641 9.12c-.117.424-.078.772.155.965 0 .039.04.039.04.078 0 .038.038.038.038.077 0 .038.039.038.039.077s.039.039.039.078c0 .038.038.038.038.077 0 .038.04.038.04.077s.038.039.038.077c0 .039.039.039.039.078 0 .038.039.038.039.077 0 .038.039.038.039.077s.039.039.039.077c0 .04.038.04.038.078s.04.038.04.077.038.039.038.077c0 .039.039.039.039.078 0 .038.039.038.039.077 0 .038.039.038.039.077s.038.039.038.077c0 .04.04.04.04.078s.038.038.038.077.039.039.039.077c0 .039.039.039.039.078 0 .038.039.038.039.077 0 .038.038.038.038.077s.04.039.04.077c0 .039.038.039.038.078 0 .038.039.038.039.077s.039.039.039.077c0 .039.039.039.039.077 0 .04.039.04.039.078 0 .039.038.039.038.077 0 .039.04.039.04.077 0 .039.038.039.038.078 0 .038.039.038.039.077s.039.039.039.077c0 .039.039.039.039.078 0 .038.038.038.038.077 0 .038.04.038.04.077s.038.039.038.077c0 .039.039.039.039.078 0 .038.039.038.039.077s.039.039.039.077c0 .039.039.039.039.078 0 .038.038.038.038.077 0 .038.04.038.04.077s.038.039.038.077c0 .039.039.039.039.078 0 .038.039.038.039.077 0 .038.039.038.039.077s.038.039.038.078c0 .038.04.038.04.077 0 .038.038.038.038.077s.039.039.039.077c0 .039.039.039.039.078 0 .038.039.038.039.077 0 .038.038.038.038.077s.04.039.04.077c0 .04.038.04.038.078s.039.038.039.077.039.039.039.077c0 .039.039.039.039.078 0 .038.039.038.039.077 0 .038.038.038.038.077s.04.039.04.077c0 .04.038.04.038.078s.039.038.039.077.039.039.039.077c0 .039.039.039.039.078 0 .038.038.038.038.077 0 .038.04.038.04.077s.038.039.038.077c0 .039.039.039.039.078 0 .038.039.038.039.077s.039.039.039.077c0 .039.039.039.039.078 0 .038.038.038.038.077 0 .038.04.038.04.077s.038.039.038.077c0 .039.039.039.039.078 0 .038.039.038.039.077s.039.039.039.077c0 .039.038.039.038.078 0 .038.04.038.04.077 0 .038.038.038.038.077s.039.039.039.077c0 .039.039.039.039.078 0 .038.039.038.039.077.194.232.543.31.97.193l.855-.193c.855-.193 1.71-1.043 1.981-1.855l2.758-9.583z" fill="#82960E"/><path d="M58.428 87.33l5.01 5.254.7-1.198s.116-1.97.855-2.897c.738-.928 1.864-1.469 2.757-1.585.894-.116 1.399-.077 1.399-.077l-5.089-5.333s-2.641.116-3.496 1.082c-.854.928-2.136 4.753-2.136 4.753z" fill="#A7BD29"/><path d="M67.167 89.339l-7.497-7.883 3.574-.889 7.536 7.922-3.613.85z" fill="#B3CF13"/><path d="M63.439 92.585l.971-3.208c.31-1.082 1.476-2.125 2.564-2.395l1.476-.348c.66-.155 1.049.232.854.889l-2.952 10.162c-.155.503-.699 1.005-1.204 1.12l-1.398.31 2.02-7.071-2.331.54z" fill="#4C5900"/><path d="M64.255 99.154l-.855.193c-.854.193-1.32-.31-1.087-1.12l2.64-9.12c.234-.812 1.127-1.662 1.982-1.855l1.32-.309c.583-.155.894.193.739.773l-2.758 9.622c-.272.772-1.166 1.584-1.981 1.816z" fill="#73850C"/><path d="M62.74 99.424a.566.566 0 01-.35-.232c-.233-.232-.272-.618-.155-1.043l2.641-9.12c.117-.424.389-.85.777-1.197.389-.348.816-.618 1.243-.734l1.32-.31c.312-.077.584-.038.739.155.155.154.194.425.116.734L66.314 97.3c-.117.425-.389.85-.777 1.198-.389.347-.816.618-1.243.734l-.855.193c-.272.077-.505.077-.7 0zm5.904-12.442a.662.662 0 00-.388 0l-1.321.309c-.816.193-1.67 1.004-1.903 1.777l-2.642 9.12c-.116.347-.077.656.117.85.194.193.466.231.854.154l.855-.193.039.077-.04-.077c.817-.193 1.671-1.005 1.904-1.777l2.758-9.622c.078-.232.039-.425-.078-.541-.038-.039-.077-.039-.155-.077z" fill="#536100"/><path d="M64.371 98.767l-.854.193c-.622.155-1.01-.231-.816-.85l2.641-9.12c.195-.617.855-1.236 1.476-1.39l1.321-.31c.35-.077.583.117.466.503l-2.758 9.622c-.194.58-.854 1.198-1.476 1.352zm2.37-11.013c-.544.116-1.127.657-1.282 1.198l-2.642 9.12c-.155.54.156.85.7.734l.854-.193c.544-.116 1.127-.657 1.282-1.198l2.758-9.622c.078-.27-.078-.425-.35-.386l-1.32.347z" fill="#FFD052"/><path d="M62.389 89.841l-1.243 4.135v1.468l.66-.773 1.243-4.134-.66-.696zm.038.812l.156.193-.078.232-.155-.194.077-.231zm-.854 3.632l-.155-.193.077-.232.156.193-.078.232zm.272-.85l-.155-.155.077-.232.155.155-.077.232z" fill="#915C19"/><path d="M62.738 92.276l-1.01-1.082c-.116.038-.737 2.163-.737 2.163L62 94.44c.116-.077.737-2.163.737-2.163zm-1.475.966l.504-1.7.31.308-.349 1.198.117.116c.116-.038.427-1.12.427-1.12l.272.27-.505 1.7-.776-.772z" fill="#A87B00"/><path d="M61.612 91.232l-.621 2.087L62 94.4l.62-2.087-1.01-1.082zm.31 2.937l-.815-.85.544-1.816.35.386-.35 1.198.116.116.35-1.198.35.348-.544 1.816z" fill="#FFD052"/><path d="M59.515 86.672l-1.242 4.135v1.468l.66-.772 1.242-4.135-.66-.695zm.039.812l.155.193-.077.232-.156-.193.078-.232zm-.854 3.632l-.156-.193.078-.232.155.193-.077.232zm.271-.811l-.155-.155.078-.232.155.155-.078.232z" fill="#915C19"/><path d="M59.865 89.107l-1.01-1.082c-.116.038-.738 2.164-.738 2.164l1.01 1.082c.116-.039.738-2.164.738-2.164zm-1.515 1.005l.505-1.7.31.308-.349 1.198.117.116c.116-.038.427-1.12.427-1.12l.272.27-.505 1.7-.777-.772z" fill="#A87B00"/><path d="M58.739 88.102l-.622 2.087 1.01 1.082.621-2.087-1.01-1.082zm.31 2.937l-.815-.85.543-1.816.35.386-.35 1.198.117.116.35-1.198.349.348-.544 1.816z" fill="#FFD052"/><path fill-rule="evenodd" clip-rule="evenodd" d="M60.875 106.766l.078.579-.117 3.517-4.195-2.435v-4.057l4.234 2.396z" fill="#D1B68A"/><path fill-rule="evenodd" clip-rule="evenodd" d="M60.875 106.766l3.962-2.28v4.057l-4 2.319.038-4.096z" fill="#C4A676"/><path fill-rule="evenodd" clip-rule="evenodd" d="M56.641 104.37l4.001-2.318 4.195 2.434-3.962 2.28-4.234-2.396z" fill="#C1A963"/><path fill-rule="evenodd" clip-rule="evenodd" d="M60.953 106.379l-.117.773-4.389-2.511v-.735l4.506 2.473z" fill="#DBC49E"/><path fill-rule="evenodd" clip-rule="evenodd" d="M59.01 106.263v.734l1.437.812v-.734l-1.437-.812z" fill="#E7EEF6"/><path fill-rule="evenodd" clip-rule="evenodd" d="M60.175 107.036l.155.078v.541l-.155-.078v-.541zm-1.049-.077v-.541l.156.077v.541l-.156-.077zm.272.155v-.541l.155.077v.541l-.155-.077zm.272.154v-.541l.155.077v.541l-.155-.077zm.272.155v-.541l.155.077v.541l-.155-.077z" fill="#8A888B"/><path fill-rule="evenodd" clip-rule="evenodd" d="M60.836 106.418l4.195-2.396v.734l-4.195 2.396v-.734z" fill="#D1B68A"/><path fill-rule="evenodd" clip-rule="evenodd" d="M56.447 103.906l4.195-2.434 4.39 2.55-4.195 2.396-4.39-2.512z" fill="#EDDDC4"/><path d="M50.232 87.6h-6.176l6.06-4.753.116 4.753z" fill="#175AA8"/><path d="M37.336 62.328l.855-.386.893-1.43-2.486-1.468c-.427-.232-1.049-.193-1.71.155l-8.273 4.752c-1.282.735-2.292 2.512-2.292 3.942V80.76l12.974-7.457.039-10.974z" fill="#A31F1F"/><path d="M41.064 64.917l-1.048.58c-.894.502-1.632 1.778-1.632 2.782V74L26.46 80.837v5.68l11.925-6.84v.773L49.3 86.75l2.68-15.534-10.915-6.299z" fill="#A31F1F"/><path d="M49.3 86.711l2.68-1.546V71.138l-1.05.58c-.892.502-1.63 1.778-1.63 2.782v12.211z" fill="#E34D4D"/><path d="M49.3 80.258c-.194 0-10.915-6.299-10.915-6.299l-9.711 5.565 8.701 7.612L49.3 80.258z" fill="#BF3737"/><path d="M28.984 65.304l8.273-4.753c1.321-.773 2.409-.155 2.409 1.39v12.753L26.692 82.15V69.284c0-1.469 1.01-3.246 2.292-3.98zM37.375 92.817l11.925-6.84v-5.719l-11.925 6.878v5.68z" fill="#E34D4D"/><path d="M23.818 88.836l2.68-1.545V75.04c0-.966-.7-1.39-1.553-.888l-1.127.657v14.026z" fill="#CF3C3C"/><path d="M37.025 80.451l-11.031-6.376-1.826 2.628 7.07 6.53 3.767.04 2.02-2.822z" fill="#CF3C3C"/><path d="M34.695 95.135l2.679-1.546V81.34c0-.966-.699-1.391-1.553-.889l-1.126.657v14.027z" fill="#E34D4D"/><path d="M34.695 81.108l-10.877-6.26v13.988l10.877 6.299V81.108z" fill="#A31F1F"/><path fill-rule="evenodd" clip-rule="evenodd" d="M42.191 77.437l.156.773-.156 4.907-5.865-3.361v-5.72l5.865 3.401z" fill="#D1B68A"/><path fill-rule="evenodd" clip-rule="evenodd" d="M42.191 77.437l5.555-3.246v5.72l-5.555 3.206v-5.68z" fill="#C4A676"/><path fill-rule="evenodd" clip-rule="evenodd" d="M36.326 74.037l5.555-3.208 5.865 3.362-5.555 3.246-5.865-3.4z" fill="#C1A963"/><path fill-rule="evenodd" clip-rule="evenodd" d="M42.347 76.857l-.156 1.082-6.176-3.516v-1.005l6.332 3.44z" fill="#DBC49E"/><path fill-rule="evenodd" clip-rule="evenodd" d="M39.627 76.703v1.043l1.98 1.12v-1.004l-1.98-1.159z" fill="#F0F0F0"/><path fill-rule="evenodd" clip-rule="evenodd" d="M41.259 77.785l.233.116v.773l-.233-.116v-.773zm-1.476-.116v-.773l.194.116v.773l-.194-.116zm.35.232v-.773l.194.116v.773l-.194-.116zm.427.231v-.772l.194.116v.772l-.194-.116zm.35.194v-.773l.194.116v.773l-.195-.116z" fill="#8A888B"/><path fill-rule="evenodd" clip-rule="evenodd" d="M42.191 76.935l5.866-3.362v1.005L42.19 77.94v-1.005z" fill="#D1B68A"/><path fill-rule="evenodd" clip-rule="evenodd" d="M36.015 73.418l5.866-3.4 6.176 3.555-5.866 3.362-6.176-3.517z" fill="#EDDDC4"/></svg>