<?xml version="1.0" encoding="utf-8"?><svg width="25" height="25" fill="none" xmlns="http://www.w3.org/2000/svg" viewBox="0 0 25 25"><path d="M22.722 5.556v-.5H20.64v-.39h1.752a.736.736 0 01.72.75h0v15.549h0v.009a.735.735 0 01-.72.748H2.61a.737.737 0 01-.72-.748h0V5.424h0v-.009a.736.736 0 01.72-.748H4.36v.389H2.278v16.277h20.444V5.556z" fill="currentColor" stroke="currentColor"/><path d="M6.056 10.222h.388v.39h-.388v-.39zM10.222 10.222h.39v.39h-.39v-.39zM14.389 10.222h.389v.39h-.39v-.39zM18.555 10.222h.39v.39h-.39v-.39zM6.056 13.694h.388v.39h-.388v-.39zM10.222 13.694h.39v.39h-.39v-.39zM14.389 13.694h.389v.39h-.39v-.39zM18.555 13.694h.39v.39h-.39v-.39zM6.056 17.167h.388v.388h-.388v-.388zM10.222 17.167h.39v.388h-.39v-.388zM14.389 17.167h.389v.388h-.39v-.388zM18.555 17.167h.39v.388h-.39v-.388zM7.082 6.388a.194.194 0 01-.332-.138V2.083a.194.194 0 01.332-.137l.353-.354-.353.354a.194.194 0 01.057.137V6.25c0 .052-.02.101-.057.138zM18.193 6.388a.194.194 0 01-.332-.138V2.083a.195.195 0 01.389 0V6.25c0 .052-.02.101-.057.138zM9.528 4.667h5.944v.389H9.528v-.39z" fill="currentColor" stroke="currentColor"/></svg>