<?xml version="1.0" encoding="utf-8"?><svg width="48" height="48" fill="none" xmlns="http://www.w3.org/2000/svg" viewBox="0 0 48 48"><g clip-path="url(#axclip0)" fill="currentColor"><path d="M46.084 1H27.296a.92.92 0 00-.916.916v18.788c0 .514.413.916.916.916h18.788a.913.913 0 00.916-.916V1.916A.913.913 0 0046.084 1zm-.916 18.788H28.211V2.842h16.957v16.946z"/><path d="M31.462 12.24h4.307v4.308a.92.92 0 00.916.916.913.913 0 00.916-.916v-4.307h4.307a.913.913 0 00.916-.916.913.913 0 00-.916-.916h-4.307V6.092a.92.92 0 00-.916-.916.92.92 0 00-.916.916V10.4h-4.307a.92.92 0 00-.916.916c0 .513.403.926.916.926zM20.714 26.37H1.916a.913.913 0 00-.916.916v18.798c0 .513.413.916.916.916h18.788a.913.913 0 00.916-.916V27.296a.906.906 0 00-.906-.926zm-.925 18.799H2.841V28.212h16.957v16.957h-.01z"/><path d="M6.968 41.032a.914.914 0 00.654.272c.241 0 .473-.09.654-.272l3.049-3.049 3.05 3.05a.914.914 0 00.653.271c.232 0 .473-.09.654-.272a.911.911 0 000-1.298l-3.049-3.049 3.05-3.05a.911.911 0 000-1.297.911.911 0 00-1.299 0l-3.049 3.049-3.05-3.05a.911.911 0 00-1.297 0 .911.911 0 000 1.299l3.049 3.049-3.05 3.05a.911.911 0 00-.02 1.297zM20.714 1H1.916A.92.92 0 001 1.916v18.788c0 .514.413.916.916.916h18.788a.913.913 0 00.916-.916V1.916A.904.904 0 0020.714 1zm-.925 18.788H2.841V2.842h16.957v16.946h-.01z"/><path d="M6.092 12.24h10.456a.913.913 0 00.916-.915.913.913 0 00-.916-.916H6.092a.92.92 0 00-.916.916.906.906 0 00.916.916zM46.084 26.37H27.296a.92.92 0 00-.916.916v18.798c0 .513.413.916.916.916h18.788a.913.913 0 00.916-.916V27.296a.915.915 0 00-.916-.926zm-.916 18.799H28.211V28.212h16.957v16.957z"/><path d="M31.462 40.006h10.456a.913.913 0 00.916-.916.92.92 0 00-.916-.916H31.462a.92.92 0 00-.916.916c0 .503.403.916.916.916zM31.462 35.216h10.456a.913.913 0 00.916-.916.92.92 0 00-.916-.916H31.462a.92.92 0 00-.916.916c0 .503.403.916.916.916z"/></g><defs><clipPath id="axclip0"><path fill="#fff" transform="translate(1 1)" d="M0 0h46v46H0z"/></clipPath></defs></svg>