<?xml version="1.0" encoding="utf-8"?><svg width="272" height="259" fill="none" xmlns="http://www.w3.org/2000/svg" viewBox="0 0 272 259"><path fill-rule="evenodd" clip-rule="evenodd" d="M6.353 175.469l-.076 10.852L136.459 259l.689-2.369-.612-8.483L6.353 175.469z" fill="#8A6633"/><path fill-rule="evenodd" clip-rule="evenodd" d="M135.463 116.546L6.353 175.469l130.181 72.679 129.111-71.915-130.182-59.687z" fill="#BD9257"/><path fill-rule="evenodd" clip-rule="evenodd" d="M265.646 176.233l-.077 10.852L136.459 259l.076-10.852 129.111-71.915z" fill="#A37C44"/><path fill-rule="evenodd" clip-rule="evenodd" d="M12.782 62.285l1.76 48.376-2.22 68.705-6.045-3.515.383-117.005 6.122 3.439z" fill="#E6E6E6" stroke="#E0DAD9" stroke-width=".216" stroke-miterlimit="22.926"/><path fill-rule="evenodd" clip-rule="evenodd" d="M135.692 6.036l3.827 61.138-4.286 56.86-122.912 55.33.46-117.998 122.911-55.33z" fill="#DCDCDA"/><path fill-rule="evenodd" clip-rule="evenodd" d="M259.6 62.132l3.061 44.402-3.444 73.596-123.983-56.095.46-117.998L259.6 62.132z" fill="#E6E6E6"/><path fill-rule="evenodd" clip-rule="evenodd" d="M265.646 59.61l-6.046 3.44L135.694 6.955 12.782 62.285l-6.123-3.439L135.617 0l130.029 59.61z" fill="#F0F0F0"/><path fill-rule="evenodd" clip-rule="evenodd" d="M265.646 59.61l-.383 117.005-6.046 3.515.383-117.08 6.046-3.44z" fill="#DCDCDA"/><path fill-rule="evenodd" clip-rule="evenodd" d="M136.306 137.945l.612 3.668-.689 22.927-27.322-15.743.077-26.672 27.322 15.82z" fill="#D1B68A"/><path fill-rule="evenodd" clip-rule="evenodd" d="M136.306 137.944l25.868-15.055-.077 26.595-25.868 15.056.077-26.596z" fill="#C4A676"/><path fill-rule="evenodd" clip-rule="evenodd" d="M108.983 122.124l25.868-14.979 27.323 15.743-25.868 15.055-27.323-15.819z" fill="#C1A963"/><path fill-rule="evenodd" clip-rule="evenodd" d="M136.918 135.27l-.689 5.12-28.623-16.507v-4.739l29.312 16.126z" fill="#D1B68A"/><path fill-rule="evenodd" clip-rule="evenodd" d="M124.29 134.506v4.891l9.337 5.349v-4.814l-9.337-5.426z" fill="#E7EEF6"/><path fill-rule="evenodd" clip-rule="evenodd" d="M131.941 139.548l.995.611v3.591l-.995-.611v-3.591zm-6.962-.382v-3.591l.995.535v3.591l-.995-.535zm1.76.993v-3.591l.994.535v3.591l-.994-.535zm1.836 1.07v-3.591l.995.535v3.591l-.995-.535zm1.683.993v-3.591l.995.535v3.591l-.995-.535z" fill="#8A888B"/><path fill-rule="evenodd" clip-rule="evenodd" d="M136.306 135.728l27.169-15.819v4.738l-27.246 15.743.077-4.662z" fill="#D1B68A"/><path fill-rule="evenodd" clip-rule="evenodd" d="M107.606 119.144l27.169-15.743 28.7 16.508-27.169 15.819-28.7-16.584z" fill="#DBC49E"/><path fill-rule="evenodd" clip-rule="evenodd" d="M130.642 112.648l.383 2.522-.459 15.361-18.292-10.546v-17.883l18.368 10.546z" fill="#D1B68A"/><path fill-rule="evenodd" clip-rule="evenodd" d="M130.642 112.648l17.297-10.011-.077 17.806-17.296 10.088.076-17.883z" fill="#C4A676"/><path fill-rule="evenodd" clip-rule="evenodd" d="M112.274 102.101l17.373-10.011 18.291 10.546-17.296 10.012-18.368-10.547z" fill="#C1A963"/><path fill-rule="evenodd" clip-rule="evenodd" d="M131.025 110.891l-.459 3.439-19.21-11.082v-3.133l19.669 10.776z" fill="#DBC49E"/><path fill-rule="evenodd" clip-rule="evenodd" d="M122.606 110.432v3.209l6.198 3.591v-3.209l-6.198-3.591z" fill="#F0F0F0"/><path fill-rule="evenodd" clip-rule="evenodd" d="M127.656 113.794l.689.382v2.445l-.689-.382v-2.445zm-4.591-.305v-2.445l.689.382v2.445l-.689-.382zm1.148.687v-2.445l.689.382v2.445l-.689-.382zm1.224.688v-2.445l.689.382v2.445l-.689-.382zm1.148.687v-2.444l.689.382v2.444l-.689-.382z" fill="#8A888B"/><path fill-rule="evenodd" clip-rule="evenodd" d="M130.642 111.196l18.138-10.546v3.133l-18.214 10.547.076-3.134z" fill="#D1B68A"/><path fill-rule="evenodd" clip-rule="evenodd" d="M111.356 100.115l18.215-10.546 19.209 11.081-18.138 10.546-19.286-11.081z" fill="#EDDDC4"/><path fill-rule="evenodd" clip-rule="evenodd" d="M129.035 96.597l.23 1.605-.306 9.706-11.557-6.726V89.948l11.633 6.649z" fill="#D1B68A"/><path fill-rule="evenodd" clip-rule="evenodd" d="M129.035 96.6l10.944-6.344-.076 11.235-10.944 6.419.076-11.31z" fill="#C4A676"/><path fill-rule="evenodd" clip-rule="evenodd" d="M117.402 89.95l11.021-6.343 11.556 6.649-10.944 6.343-11.633-6.649z" fill="#C1A963"/><path fill-rule="evenodd" clip-rule="evenodd" d="M129.265 95.451l-.23 2.217-12.168-7.031V88.65l12.398 6.801z" fill="#DBC49E"/><path fill-rule="evenodd" clip-rule="evenodd" d="M123.908 95.148v2.063l3.978 2.292V97.44l-3.978-2.292z" fill="#F0F0F0"/><path fill-rule="evenodd" clip-rule="evenodd" d="M127.198 97.287l.459.229v1.528l-.459-.23v-1.527zm-2.984-.153v-1.528l.382.229v1.528l-.382-.23zm.765.458v-1.528l.383.23v1.527l-.383-.229zm.765.382v-1.528l.383.23v1.527l-.383-.229zm.689.459v-1.529l.382.23v1.528l-.382-.23z" fill="#8A888B"/><path fill-rule="evenodd" clip-rule="evenodd" d="M129.035 95.683l11.48-6.726v2.064l-11.48 6.649v-1.987z" fill="#D1B68A"/><path fill-rule="evenodd" clip-rule="evenodd" d="M116.867 88.651l11.48-6.648 12.168 6.954-11.48 6.725-12.168-7.03z" fill="#EDDDC4"/><path fill-rule="evenodd" clip-rule="evenodd" d="M182.149 160.566l.612 3.287-.689 20.634-24.567-14.138v-23.997l24.644 14.214z" fill="#D1B68A"/><path fill-rule="evenodd" clip-rule="evenodd" d="M182.149 160.566l23.266-13.527v23.921l-23.342 13.527.076-23.921z" fill="#C4A676"/><path fill-rule="evenodd" clip-rule="evenodd" d="M157.505 146.351l23.343-13.527 24.567 14.215-23.266 13.526-24.644-14.214z" fill="#C1A963"/><path fill-rule="evenodd" clip-rule="evenodd" d="M182.685 158.121l-.536 4.662-25.868-14.903v-4.203l26.404 14.444z" fill="#DBC49E"/><path fill-rule="evenodd" clip-rule="evenodd" d="M171.358 157.509v4.355l8.339 4.813.077-4.355-8.416-4.813z" fill="#F0F0F0"/><path fill-rule="evenodd" clip-rule="evenodd" d="M178.244 162.017l.918.535v3.285l-.918-.535v-3.285zm-6.274-.382v-3.209l.919.535v3.285l-.919-.611zm1.607.917v-3.285l.918.534v3.286l-.918-.535zm1.607.993v-3.285l.918.535v3.208l-.918-.458zm1.53.84v-3.208l.918.534v3.286l-.918-.612z" fill="#8A888B"/><path fill-rule="evenodd" clip-rule="evenodd" d="M182.149 158.579l24.491-14.215v4.204l-24.491 14.214v-4.203z" fill="#D1B68A"/><path fill-rule="evenodd" clip-rule="evenodd" d="M156.281 143.676l24.491-14.214 25.868 14.902-24.491 14.215-25.868-14.903z" fill="#EDDDC4"/><path fill-rule="evenodd" clip-rule="evenodd" d="M181.307 136.034l.383 2.446-.459 15.361-18.292-10.547.077-17.806 18.291 10.546z" fill="#D1B68A"/><path fill-rule="evenodd" clip-rule="evenodd" d="M181.307 136.034l17.296-10.088v17.807l-17.373 10.088.077-17.807z" fill="#C4A676"/><path fill-rule="evenodd" clip-rule="evenodd" d="M163.016 125.487l17.296-10.088 18.292 10.547-17.297 10.088-18.291-10.547z" fill="#C1A963"/><path fill-rule="evenodd" clip-rule="evenodd" d="M181.69 134.2l-.383 3.516-19.286-11.082.076-3.21L181.69 134.2z" fill="#DBC49E"/><path fill-rule="evenodd" clip-rule="evenodd" d="M173.271 133.741v3.285l6.198 3.591v-3.285l-6.198-3.591z" fill="#F0F0F0"/><path fill-rule="evenodd" clip-rule="evenodd" d="M178.398 137.103l.688.382v2.445l-.688-.382v-2.445zm-4.668-.229v-2.445l.689.382v2.445l-.689-.382zm1.148.688v-2.445l.689.382v2.445l-.689-.382zm1.224.687v-2.444l.689.382v2.444l-.689-.382zm1.148.612v-2.445l.689.382v2.445l-.689-.382z" fill="#8A888B"/><path fill-rule="evenodd" clip-rule="evenodd" d="M181.307 134.505l18.215-10.546v3.133l-18.215 10.623v-3.21z" fill="#D1B68A"/><path fill-rule="evenodd" clip-rule="evenodd" d="M162.096 123.424l18.215-10.546 19.209 11.081-18.214 10.547-19.21-11.082z" fill="#EDDDC4"/><path fill-rule="evenodd" clip-rule="evenodd" d="M202.966 170.884l2.679 14.367c.306 1.299 1.377 2.599 3.061 3.592 4.286 2.446 11.097 2.446 15.383 0 1.914-1.146 2.985-2.598 3.138-4.05l2.602-13.909c-.382 8.865-26.939 3.897-26.863 0z" fill="#96979B"/><path fill-rule="evenodd" clip-rule="evenodd" d="M225.773 165.458c-5.281-3.057-13.776-3.057-18.98 0-5.204 3.056-5.204 7.948.076 11.005 2.602 1.528 6.046 2.292 9.49 2.292s6.888-.764 9.49-2.292c5.205-3.057 5.205-7.949-.076-11.005z" fill="#9C9EA2"/><path fill-rule="evenodd" clip-rule="evenodd" d="M223.63 166.681c-4.056-2.37-10.638-2.37-14.618 0-4.056 2.369-3.979 6.113.077 8.483 4.056 2.369 10.638 2.369 14.618 0 4.056-2.293 3.979-6.114-.077-8.483z" fill="#331202"/><path fill-rule="evenodd" clip-rule="evenodd" d="M217.737 133.741v.383l-.076.076h-.077-.076-.077-.077c-.076 0-.076.076-.153.076h-.076s-.077 0-.077.077h-.153-.153H216.513 215.747h-.153-.076c-.077 0-.077 0-.153-.077h-.077s-.076 0-.076-.076c-.307-.153-.383-.382-.383-.535v37.142c0 .229.153.382.383.535 0 0 .076 0 .076.076h.077c.076 0 .076 0 .153.077H216.436s.077 0 .077-.077h.076c.077 0 .077-.076.153-.076h.153l.077-.077v-.076-.076-.077-37.295c.765-.076.765-.076.765 0z" fill="#57260D"/><path fill-rule="evenodd" clip-rule="evenodd" d="M217.277 133.13c-.536-.306-1.377-.306-1.913 0-.535.306-.535.84 0 1.146.536.306 1.377.306 1.913 0 .612-.382.536-.84 0-1.146z" fill="#9C9EA2"/><path fill-rule="evenodd" clip-rule="evenodd" d="M216.36 116.393c9.413 0 16.99 6.955 16.99 15.438 0 8.559-7.653 15.437-16.99 15.437-9.414 0-16.991-6.954-16.991-15.437-.076-8.483 7.577-15.438 16.991-15.438z" fill="#669839"/><path fill-rule="evenodd" clip-rule="evenodd" d="M233.274 130.379c.076.535.076.993.076 1.528 0 8.559-7.653 15.438-16.99 15.438-9.414 0-16.99-6.955-16.99-15.438 0-.535 0-.993.076-1.528 3.368 4.585 9.72 7.718 16.914 7.718 7.194-.076 13.546-3.133 16.914-7.718z" fill="#5E8838"/><path d="M180.465 114.862c-1.99 0-3.903-.458-5.357-1.299-1.455-.841-2.296-1.987-2.296-3.286 0-1.223.841-2.369 2.296-3.286 1.454-.841 3.29-1.3 5.357-1.3 2.066 0 3.903.459 5.357 1.3 1.454.84 2.296 1.987 2.296 3.286 0 1.223-.842 2.369-2.296 3.286-1.454.841-3.367 1.299-5.357 1.299zm0-8.406c-1.837 0-3.597.382-4.975 1.222-1.301.765-1.99 1.682-1.99 2.675 0 .994.689 1.987 1.99 2.675 1.378.764 3.215 1.223 4.975 1.223 1.837 0 3.597-.382 4.974-1.223 1.301-.764 1.99-1.681 1.99-2.675 0-.993-.689-1.987-1.99-2.675-1.301-.84-3.137-1.222-4.974-1.222z" fill="#B1BAC4"/><path d="M180.466 126.939c-.23 0-.46-.229-.46-.458l-.076-17.73c0-.23.23-.459.459-.459.23 0 .459.229.459.459l.077 17.73c0 .229-.23.458-.459.458zM171.435 121.665c-.077 0-.153 0-.23-.077-.229-.153-.306-.382-.153-.611.536-.841 1.148-3.133 1.454-9.247.153-3.669.153-7.031.153-7.108 0-.229.153-.458.459-.458.23 0 .46.229.46.458 0 0 .076 3.439-.153 7.108-.23 5.044-.766 8.33-1.608 9.629-.076.229-.229.306-.382.306zM189.266 121.667a.419.419 0 01-.382-.229c-.766-1.376-1.301-4.586-1.607-9.63-.153-3.744-.153-7.107-.153-7.107 0-.229.229-.459.459-.459.229 0 .459.23.459.459 0 0-.077 3.363.153 7.107.306 6.114.995 8.407 1.454 9.248.153.229.077.458-.153.611h-.23z" fill="#B1BAC4"/><path d="M180.465 109.438c4.607 0 8.342-2.156 8.342-4.815 0-2.659-3.735-4.814-8.342-4.814-4.607 0-8.342 2.155-8.342 4.814 0 2.659 3.735 4.815 8.342 4.815z" fill="#A2AEBA"/><path d="M188.883 101.949c0-1.222-.841-2.445-2.449-3.439-3.29-1.91-8.571-1.91-11.862 0-1.607.917-2.449 2.217-2.449 3.439 0 1.223.842 2.446 2.449 3.439 3.291 1.911 8.572 1.911 11.862 0 1.608-.917 2.449-2.216 2.449-3.439 0 .077 0 .077 0 0 0 .077 0 .077 0 0 0 .077 0 .077 0 0 0 .077 0 .077 0 0z" fill="#B02727"/><path d="M180.465 106.764c4.607 0 8.342-2.155 8.342-4.815 0-2.659-3.735-4.814-8.342-4.814-4.607 0-8.342 2.155-8.342 4.814 0 2.66 3.735 4.815 8.342 4.815z" fill="#E65353"/><path d="M162.25 204.813c-1.99 0-3.903-.458-5.357-1.299-1.454-.84-2.296-1.987-2.296-3.286 0-1.223.842-2.369 2.296-3.286 1.454-.841 3.291-1.299 5.357-1.299 1.99 0 3.903.458 5.357 1.299 1.454.84 2.296 1.987 2.296 3.286 0 1.223-.842 2.369-2.296 3.286-1.454.841-3.367 1.299-5.357 1.299zm0-8.483c-1.837 0-3.597.383-4.975 1.223-1.301.764-1.99 1.681-1.99 2.675 0 .994.689 1.987 1.99 2.675 1.378.764 3.215 1.223 4.975 1.223 1.837 0 3.597-.383 4.975-1.223 1.301-.764 1.989-1.681 1.989-2.675 0-.994-.688-1.987-1.989-2.675-1.378-.764-3.138-1.223-4.975-1.223z" fill="#B1BAC4"/><path d="M162.251 216.814a.493.493 0 01-.459-.459l-.077-17.73c0-.229.23-.458.46-.458.229 0 .459.229.459.458l.076 17.73c0 .23-.229.459-.459.459zM153.22 211.615c-.077 0-.153 0-.23-.076-.229-.153-.306-.382-.153-.612.536-.84 1.148-3.133 1.454-9.247.153-3.668.153-7.031.153-7.107 0-.229.154-.459.46-.459.229 0 .459.23.459.459 0 0 .076 3.439-.153 7.107-.23 5.044-.766 8.33-1.607 9.63-.077.229-.23.305-.383.305zM171.052 211.618a.422.422 0 01-.383-.23c-.765-1.375-1.301-4.585-1.607-9.629-.153-3.745-.153-7.107-.153-7.107 0-.23.23-.459.459-.459.23 0 .459.229.459.459 0 0-.076 3.362.153 7.107.307 6.114.995 8.407 1.455 9.247.153.229.076.459-.154.612h-.229z" fill="#B1BAC4"/><path d="M162.251 199.312c4.607 0 8.342-2.155 8.342-4.814 0-2.66-3.735-4.815-8.342-4.815-4.607 0-8.342 2.155-8.342 4.815 0 2.659 3.735 4.814 8.342 4.814z" fill="#A2AEBA"/><path d="M170.592 191.9c0-1.223-.842-2.445-2.449-3.439-3.291-1.911-8.571-1.911-11.862 0-1.608.917-2.449 2.216-2.449 3.439 0 1.223.841 2.446 2.449 3.439 3.291 1.911 8.571 1.911 11.862 0 1.607-.917 2.449-2.216 2.449-3.439 0 .077 0 .077 0 0 0 .077 0 0 0 0z" fill="#B02727"/><path d="M162.251 196.715c4.607 0 8.342-2.156 8.342-4.815 0-2.659-3.735-4.815-8.342-4.815-4.607 0-8.342 2.156-8.342 4.815 0 2.659 3.735 4.815 8.342 4.815z" fill="#E65353"/><path fill-rule="evenodd" clip-rule="evenodd" d="M128.346 82.69l.23 1.069-.23 6.954-8.265-4.738v-8.1l8.265 4.814z" fill="#D1B68A"/><path fill-rule="evenodd" clip-rule="evenodd" d="M128.344 82.69l7.883-4.586-.077 8.1-7.806 4.51v-8.025z" fill="#C4A676"/><path fill-rule="evenodd" clip-rule="evenodd" d="M120.081 77.875l7.806-4.509 8.342 4.739-7.883 4.585-8.265-4.815z" fill="#C1A963"/><path fill-rule="evenodd" clip-rule="evenodd" d="M128.573 81.847l-.229 1.605-8.646-5.043v-1.451l8.875 4.89z" fill="#DBC49E"/><path fill-rule="evenodd" clip-rule="evenodd" d="M124.748 81.618v1.451l2.831 1.681v-1.528l-2.831-1.604z" fill="#E7EEF6"/><path fill-rule="evenodd" clip-rule="evenodd" d="M127.044 83.146l.306.153v1.07l-.306-.153v-1.07zm-2.066-.076V82l.306.153v1.07l-.306-.153zm.459.305v-1.07l.306.153v1.07l-.306-.153zm.612.306v-1.07l.306.153v1.07l-.306-.153zm.459.305v-1.07l.306.154v1.07l-.306-.154z" fill="#8A888B"/><path fill-rule="evenodd" clip-rule="evenodd" d="M128.344 82l8.263-4.813v1.451l-8.263 4.814V82z" fill="#D1B68A"/><path fill-rule="evenodd" clip-rule="evenodd" d="M119.698 76.96l8.189-4.74 8.725 4.968-8.266 4.815-8.648-5.044z" fill="#EDDDC4"/><path d="M105.846 168.438H93.601l12.015-9.4.23 9.4z" fill="#175AA8"/><path d="M80.36 118.533l1.684-.764 1.76-2.828-4.898-2.904c-.841-.458-2.066-.382-3.367.306l-16.301 9.4c-2.526 1.452-4.516 4.968-4.516 7.795v25.449l25.562-14.749.077-21.705z" fill="#A31F1F"/><path d="M87.708 123.577l-2.066 1.147c-1.76.993-3.215 3.515-3.215 5.502v11.311L59.008 155.14v11.235l23.496-13.527v1.528l21.506 12.457 5.28-30.722-21.582-12.534z" fill="#A31F1F"/><path d="M103.933 166.756l5.281-3.057v-27.741l-2.067 1.146c-1.76.993-3.214 3.515-3.214 5.502v24.15z" fill="#E34D4D"/><path d="M104.009 153.994c-.382 0-21.505-12.457-21.505-12.457L63.37 152.542l17.143 14.979 23.495-13.527z" fill="#BF3737"/><path d="M63.905 124.417l16.301-9.4c2.602-1.528 4.745-.305 4.745 2.752v25.219l-25.562 14.75v-25.449c0-2.981 2.066-6.42 4.516-7.872zM80.514 178.831l23.495-13.603v-11.234l-23.495 13.603v11.234z" fill="#E34D4D"/><path d="M53.727 170.96l5.281-3.057v-24.227c0-1.91-1.378-2.751-3.061-1.757l-2.22 1.299v27.742z" fill="#CF3C3C"/><path d="M79.749 154.376l-21.66-12.61-3.596 5.12 13.852 12.992 7.5.077 3.904-5.579z" fill="#CF3C3C"/><path d="M75.233 183.417l5.28-3.057v-24.226c0-1.911-1.377-2.752-3.06-1.758l-2.22 1.299v27.742z" fill="#E34D4D"/><path d="M75.233 155.675l-21.506-12.457v27.741l21.506 12.457v-27.741z" fill="#A31F1F"/><path fill-rule="evenodd" clip-rule="evenodd" d="M88.932 146.043l.306 1.529-.306 9.705-11.633-6.649.077-11.31 11.556 6.725z" fill="#D1B68A"/><path fill-rule="evenodd" clip-rule="evenodd" d="M88.932 146.046l10.944-6.42v11.311l-10.944 6.343v-11.234z" fill="#C4A676"/><path fill-rule="evenodd" clip-rule="evenodd" d="M77.376 139.32l10.944-6.344 11.556 6.649-10.944 6.42-11.556-6.725z" fill="#C1A963"/><path fill-rule="evenodd" clip-rule="evenodd" d="M89.238 144.897l-.306 2.14-12.169-6.955v-1.987l12.475 6.802z" fill="#DBC49E"/><path fill-rule="evenodd" clip-rule="evenodd" d="M83.88 144.593v2.063l3.903 2.216v-1.987l-3.902-2.292z" fill="#F0F0F0"/><path fill-rule="evenodd" clip-rule="evenodd" d="M87.094 146.733l.46.229v1.528l-.46-.229v-1.528zm-2.907-.229v-1.528l.383.229v1.528l-.383-.229zm.689.458v-1.528l.382.229v1.528l-.382-.229zm.765.459v-1.528l.382.229v1.528l-.382-.229zm.765.382v-1.528l.382.229v1.528l-.382-.229z" fill="#8A888B"/><path fill-rule="evenodd" clip-rule="evenodd" d="M88.932 145.052l11.557-6.649-.077 1.987-11.48 6.649v-1.987z" fill="#D1B68A"/><path fill-rule="evenodd" clip-rule="evenodd" d="M76.763 138.097l11.557-6.725 12.169 7.031-11.557 6.649-12.169-6.955z" fill="#EDDDC4"/><path fill-rule="evenodd" clip-rule="evenodd" d="M50.742 181.427l.23 1.605-.306 9.706-11.557-6.725v-11.235l11.633 6.649z" fill="#D1B68A"/><path fill-rule="evenodd" clip-rule="evenodd" d="M50.743 181.429l10.944-6.343-.077 11.235-10.944 6.419.077-11.311z" fill="#C4A676"/><path fill-rule="evenodd" clip-rule="evenodd" d="M39.11 174.78l10.944-6.343 11.633 6.649-10.945 6.343-11.633-6.649z" fill="#C1A963"/><path fill-rule="evenodd" clip-rule="evenodd" d="M50.972 180.281l-.306 2.216-12.092-7.03v-1.988l12.398 6.802z" fill="#DBC49E"/><path fill-rule="evenodd" clip-rule="evenodd" d="M45.614 179.978v2.063l3.979 2.292v-2.063l-3.979-2.292z" fill="#F0F0F0"/><path fill-rule="evenodd" clip-rule="evenodd" d="M48.828 182.117l.46.229v1.528l-.46-.229v-1.528zm-2.907-.153v-1.528l.383.23v1.528l-.383-.23zm.765.459v-1.528l.383.229v1.528l-.383-.229zm.765.458v-1.528l.383.229v1.528l-.383-.229zm.689.382v-1.528l.383.229v1.528l-.383-.229z" fill="#8A888B"/><path fill-rule="evenodd" clip-rule="evenodd" d="M50.666 180.513l11.556-6.649v1.987L50.666 182.5v-1.987z" fill="#D1B68A"/><path fill-rule="evenodd" clip-rule="evenodd" d="M38.574 173.482l11.48-6.649 12.168 7.031-11.556 6.649-12.092-7.031z" fill="#EDDDC4"/><path fill-rule="evenodd" clip-rule="evenodd" d="M131.408 182.882l.612 3.286-.612 20.634-24.643-14.214.076-23.921 24.567 14.215z" fill="#D1B68A"/><path fill-rule="evenodd" clip-rule="evenodd" d="M131.408 182.882l23.342-13.527-.076 23.921-23.266 13.527v-23.921z" fill="#C4A676"/><path fill-rule="evenodd" clip-rule="evenodd" d="M106.84 168.666l23.266-13.527 24.644 14.215-23.343 13.527-24.567-14.215z" fill="#C1A963"/><path fill-rule="evenodd" clip-rule="evenodd" d="M132.02 180.437l-.612 4.661-25.868-14.902.076-4.28 26.404 14.521z" fill="#DBC49E"/><path fill-rule="evenodd" clip-rule="evenodd" d="M120.617 179.825v4.355l8.416 4.813v-4.355l-8.416-4.813z" fill="#F0F0F0"/><path fill-rule="evenodd" clip-rule="evenodd" d="M127.503 184.333l.918.534v3.286l-.918-.535v-3.285zm-6.274-.382v-3.209l.918.535v3.285l-.918-.611zm1.607.916v-3.285l.918.535v3.285l-.918-.535zm1.606.917v-3.285l.919.535v3.209l-.919-.459zm1.531.917v-3.209l.918.535v3.285l-.918-.611z" fill="#8A888B"/><path fill-rule="evenodd" clip-rule="evenodd" d="M131.408 180.819l24.49-14.139v4.203l-24.49 14.215v-4.279z" fill="#D1B68A"/><path fill-rule="evenodd" clip-rule="evenodd" d="M105.615 165.916l24.49-14.138 25.792 14.902-24.49 14.139-25.792-14.903z" fill="#EDDDC4"/><path fill-rule="evenodd" clip-rule="evenodd" d="M129.341 159.876l.306 1.605-.306 9.629-11.556-6.648v-11.235l11.556 6.649z" fill="#D1B68A"/><path fill-rule="evenodd" clip-rule="evenodd" d="M129.341 159.879l10.944-6.343v11.234l-10.944 6.343v-11.234z" fill="#C4A676"/><path fill-rule="evenodd" clip-rule="evenodd" d="M117.785 153.229l10.944-6.343 11.557 6.649-10.945 6.343-11.556-6.649z" fill="#C1A963"/><path fill-rule="evenodd" clip-rule="evenodd" d="M129.647 158.731l-.306 2.216-12.168-7.031v-1.987l12.474 6.802z" fill="#DBC49E"/><path fill-rule="evenodd" clip-rule="evenodd" d="M124.29 158.427v2.062l3.902 2.292v-2.062l-3.902-2.292z" fill="#F0F0F0"/><path fill-rule="evenodd" clip-rule="evenodd" d="M127.504 160.566l.459.229v1.528l-.459-.229v-1.528zm-2.908-.153v-1.528l.383.229v1.528l-.383-.229zm.689.458v-1.528l.383.229v1.528l-.383-.229zm.765.382v-1.528l.383.229v1.528l-.383-.229zm.765.459v-1.528l.383.229v1.528l-.383-.229z" fill="#8A888B"/><path fill-rule="evenodd" clip-rule="evenodd" d="M129.341 158.962l11.557-6.726v1.987l-11.557 6.726v-1.987z" fill="#D1B68A"/><path fill-rule="evenodd" clip-rule="evenodd" d="M117.173 151.931l11.556-6.649 12.169 6.954-11.557 6.726-12.168-7.031z" fill="#EDDDC4"/><path d="M118.474 211.082l-5.357 3.057-19.746-28.582 5.204-3.057 19.899 28.582z" fill="#965B14"/><path d="M99.645 200.841l17.679 10.165c.842.458 1.531.076 1.531-.917v-14.674c0-.993-.689-2.14-1.531-2.674l-17.679-10.088c-.842-.459-1.53-.077-1.53.917v14.673c0 .917.688 2.14 1.53 2.598z" fill="#965B14"/><path d="M115.718 211.922v-14.673c0-.993-.689-2.14-1.531-2.675L96.508 184.41c-.076 0-.612-.306-.689-.306.077-.764 1.225-.84 1.99-.458l17.679 10.164c.842.459 1.531 1.681 1.531 2.675v14.673c0 .917-.612 1.299-1.378.994.077-.077.077-.153.077-.23z" fill="#D1C46A"/><path d="M94.442 203.821l17.68 10.165c.841.458 1.53.076 1.53-.918v-14.673c0-.993-.689-2.14-1.53-2.675l-17.68-10.164c-.841-.459-1.53-.077-1.53.917v14.673c0 .994.689 2.217 1.53 2.675z" fill="#BD8542"/><path d="M112.045 193.81l2.295-1.376-1.53-.84-2.295 1.299 1.53.917z" fill="#FFE699"/><path d="M112.045 193.81v.382l-1.53-.84v-.459l1.53.917z" fill="#E0C163"/><path d="M114.34 192.435v.458l-2.295 1.299v-.382l2.295-1.375z" fill="#CCA83B"/><path d="M99.645 186.702l2.372-1.375-1.531-.841-2.371 1.376 1.53.84z" fill="#FFE699"/><path d="M99.645 186.701v.459l-1.53-.917v-.382l1.53.84z" fill="#E0C163"/><path d="M102.017 185.326v.459l-2.372 1.375v-.458l2.372-1.376z" fill="#CCA83B"/><path d="M107.912 190.294l-.536.306-.229-.917.382-.153.383.764z" fill="#4E4E5C"/><path d="M103.015 184.945l.535-.305 3.902 2.521-.229.611-4.208-2.827z" fill="#4C4C5C"/><path d="M107.835 187.466v2.903l-.536-.305v-2.292c0-.153-.153-.382-.306-.459l-2.754-1.604c-.153-.077-.306 0-.306.153v2.292l-.612-.306v-2.903c0-.153.153-.229.306-.153l3.902 2.216c.153.076.306.305.306.458z" fill="#4C4C5C"/><path d="M107.376 187.772v2.903l-.536-.305v-2.292c0-.153-.153-.382-.306-.459l-2.754-1.604c-.153-.076-.306 0-.306.153v2.292l-.612-.306v-2.903c0-.153.153-.229.306-.153l3.902 2.216c.153 0 .306.229.306.458z" fill="#2B2B38"/><path d="M103.473 188.384l.536-.306-.612-.993v.993l.076.306z" fill="#4C4C5C"/><path d="M91.917 173.176l.689-.153 3.825 3.973-.459.688-4.055-4.508z" fill="#FFD052"/><path d="M96.66 177.454l-.841 3.285-.536-.534.689-2.598a.593.593 0 00-.153-.611l-2.678-2.598c-.153-.153-.306-.076-.383.077l-.688 2.597-.612-.535.841-3.285c.077-.229.23-.229.383-.076l3.825 3.743c.153 0 .23.306.153.535z" fill="#FFD052"/><path d="M96.124 177.607l-.841 3.286-.536-.535.689-2.598a.593.593 0 00-.153-.611l-2.678-2.598c-.153-.152-.306-.076-.383.077l-.688 2.597-.612-.534.841-3.286c.077-.229.23-.229.383-.076l3.826 3.744c.076.076.153.382.153.534z" fill="#915C19"/><path d="M78.293 185.403l1.914-6.343c.612-2.14 2.908-4.203 5.05-4.738l2.91-.688c1.3-.306 2.066.458 1.683 1.758L85.335 190.6c-.307.993-2.603 6.955-3.598 7.184l-2.755.611 3.98-13.985-4.669.993z" fill="#A7BD29"/><path d="M80.054 197.631l-1.683.382c-1.225.306-1.99-.459-1.608-1.681l5.205-18.036c.382-1.223 1.683-2.446 2.908-2.752l2.602-.611c.689-.153 1.148.229.918.994l-4.209 14.062c-.306 1.146-2.832 7.336-4.133 7.642zm4.745-21.857c-1.071.229-2.22 1.299-2.525 2.369l-5.204 18.036c-.307 1.07.306 1.681 1.377 1.452l1.684-.382c1.071-.23 3.444-6.267 3.75-7.337l4.21-14.062c.152-.535-.154-.841-.69-.764l-2.602.688z" fill="#C9750E"/><path d="M99.11 186.092c.153-.611.077-1.07-.23-1.299 0-.077-.076-.077-.076-.153s-.076-.076-.076-.153c0-.076-.077-.076-.077-.153 0-.076-.076-.076-.076-.152 0-.077-.077-.077-.077-.153 0-.077-.077-.077-.077-.153 0-.077-.076-.077-.076-.153s-.076-.076-.076-.153c0-.076-.077-.076-.077-.153 0-.076-.077-.076-.077-.153 0-.076-.076-.076-.076-.152 0-.077-.077-.077-.077-.153 0-.077-.076-.077-.076-.153 0-.077-.077-.077-.077-.153s-.076-.076-.076-.153c0-.076-.077-.076-.077-.153 0-.076-.076-.076-.076-.153 0-.076-.077-.076-.077-.152 0-.077-.076-.077-.076-.153 0-.077-.077-.077-.077-.153s-.076-.076-.076-.153c0-.076-.077-.076-.077-.153 0-.076-.076-.076-.076-.153 0-.076-.077-.076-.077-.152 0-.077-.077-.077-.077-.153 0-.077-.076-.077-.076-.153 0-.077-.077-.077-.077-.153s-.076-.076-.076-.153c0-.076-.077-.076-.077-.153 0-.076-.076-.076-.076-.153 0-.076-.077-.076-.077-.152 0-.077-.076-.077-.076-.153 0-.077-.077-.077-.077-.153s-.076-.076-.076-.153c0-.076-.077-.076-.077-.153 0-.076-.076-.076-.076-.153 0-.076-.077-.076-.077-.152 0-.077-.077-.077-.077-.153 0-.077-.076-.077-.076-.153 0-.077-.077-.077-.077-.153s-.076-.076-.076-.153c0-.076-.077-.076-.077-.153 0-.076-.076-.076-.076-.153 0-.076-.077-.076-.077-.152 0-.077-.076-.077-.076-.153 0-.077-.077-.077-.077-.153 0-.077-.076-.077-.076-.153s-.077-.076-.077-.153c0-.076-.076-.076-.076-.153 0-.076-.077-.076-.077-.152 0-.077-.076-.077-.076-.153 0-.077-.077-.077-.077-.153 0-.077-.076-.077-.076-.153s-.077-.076-.077-.153c0-.076-.077-.076-.077-.153 0-.076-.076-.076-.076-.153 0-.076-.077-.076-.077-.152 0-.077-.076-.077-.076-.153 0-.077-.077-.077-.077-.153 0-.077-.076-.077-.076-.153s-.077-.076-.077-.153c0-.076-.076-.076-.076-.153 0-.076-.077-.076-.077-.152 0-.077-.076-.077-.076-.153 0-.077-.077-.077-.077-.153 0-.077-.076-.077-.076-.153s-.077-.076-.077-.153c0-.076-.076-.076-.076-.153 0-.076-.077-.076-.077-.153 0-.076-.077-.076-.077-.152 0-.077-.076-.077-.076-.153 0-.077-.077-.077-.077-.153 0-.077-.076-.077-.076-.153s-.077-.076-.077-.153c0-.076-.076-.076-.076-.153 0-.076-.077-.076-.077-.152 0-.077-.076-.077-.076-.153 0-.077-.077-.077-.077-.153 0-.077-.076-.077-.076-.153s-.077-.076-.077-.153c0-.076-.076-.076-.076-.153 0-.076-.077-.076-.077-.153 0-.076-.077-.076-.077-.152 0-.077-.076-.077-.076-.153 0-.077-.077-.077-.077-.153 0-.077-.076-.077-.076-.153s-.077-.076-.077-.153c-.23-.306-.688-.458-1.3-.306l-2.603.612c-1.684.382-3.367 2.063-3.903 3.668l-5.204 18.036c-.23.841-.153 1.529.306 1.911 0 .076.076.076.076.153 0 .076.077.076.077.152 0 .077.076.077.076.153 0 .077.077.077.077.153 0 .077.077.077.077.153s.076.076.076.153c0 .076.077.076.077.153 0 .076.076.076.076.153 0 .076.077.076.077.152 0 .077.076.077.076.153 0 .077.077.077.077.153 0 .077.076.077.076.153s.077.076.077.153c0 .076.076.076.076.153 0 .076.077.076.077.153 0 .076.077.076.077.152 0 .077.076.077.076.153 0 .077.076.077.076.153s.077.076.077.153c0 .076.077.076.077.153 0 .076.076.076.076.153 0 .076.077.076.077.152 0 .077.076.077.076.153 0 .077.077.077.077.153 0 .077.076.077.076.153s.077.076.077.153c0 .076.076.076.076.153 0 .076.077.076.077.153 0 .076.076.076.076.152 0 .077.077.077.077.153 0 .077.076.077.076.153s.077.076.077.153c0 .076.076.076.076.153 0 .076.077.076.077.153 0 .076.077.076.077.152 0 .077.076.077.076.153 0 .077.077.077.077.153 0 .077.076.077.076.153s.077.076.077.153c0 .076.076.076.076.153 0 .076.077.076.077.153 0 .076.076.076.076.152 0 .077.077.077.077.153 0 .077.076.077.076.153 0 .077.077.077.077.153s.076.076.076.153c0 .076.077.076.077.153 0 .076.077.076.077.152 0 .077.076.077.076.153 0 .077.077.077.077.153 0 .077.076.077.076.153s.077.076.077.153c0 .076.076.076.076.153 0 .076.077.076.077.153 0 .076.076.076.076.152 0 .077.077.077.077.153 0 .077.076.077.076.153 0 .077.077.077.077.153s.076.076.076.153c0 .076.077.076.077.153 0 .076.076.076.076.152 0 .077.077.077.077.153 0 .077.076.077.076.153 0 .077.077.077.077.153s.077.076.077.153c0 .076.076.076.076.153 0 .076.077.076.077.153 0 .076.076.076.076.152 0 .077.077.077.077.153 0 .077.076.077.076.153 0 .077.077.077.077.153s.076.076.076.153c0 .076.077.076.077.153 0 .076.076.076.076.152 0 .077.077.077.077.153 0 .077.076.077.076.153 0 .077.077.077.077.153s.076.076.076.153c0 .076.077.076.077.153 0 .076.077.076.077.153 0 .076.076.076.076.152 0 .077.077.077.077.153 0 .077.076.077.076.153 0 .077.077.077.077.153s.076.076.076.153c0 .076.077.076.077.153 0 .076.076.076.076.153.383.458 1.072.611 1.914.382l1.683-.382c1.684-.383 3.368-2.064 3.904-3.669l5.433-18.953z" fill="#82960E"/><path d="M78.293 185.403l9.873 10.394 1.378-2.369s.23-3.898 1.684-5.732 3.673-2.904 5.433-3.133c1.76-.23 2.755-.153 2.755-.153l-10.025-10.547s-5.205.23-6.888 2.14c-1.684 1.834-4.21 9.4-4.21 9.4z" fill="#A7BD29"/><path d="M95.513 189.378l-14.771-15.59 7.117-1.758 14.771 15.667-7.117 1.681z" fill="#B3CF13"/><path d="M88.166 195.798l1.914-6.343c.612-2.14 2.908-4.203 5.051-4.738l2.908-.688c1.301-.306 2.067.458 1.684 1.758l-5.817 20.099c-.306.993-1.377 1.987-2.372 2.216l-2.755.612 3.98-13.986-4.593 1.07z" fill="#4C5900"/><path d="M89.775 208.715l-1.684.382c-1.684.382-2.602-.612-2.143-2.216l5.204-18.036c.46-1.605 2.22-3.287 3.903-3.669l2.602-.611c1.148-.306 1.76.382 1.455 1.528l-5.434 19.03c-.536 1.605-2.296 3.21-3.903 3.592z" fill="#73850C"/><path d="M86.79 209.325c-.307-.076-.537-.229-.69-.459-.459-.458-.535-1.222-.306-2.063L91 188.767c.23-.841.765-1.681 1.53-2.369.766-.688 1.607-1.223 2.45-1.452l2.601-.611c.613-.153 1.148-.077 1.454.305.307.306.383.841.23 1.452l-5.434 19.03c-.23.84-.765 1.681-1.53 2.369-.766.688-1.608 1.223-2.45 1.452l-1.683.382c-.536.153-.995.153-1.378 0zm11.632-24.608c-.23-.077-.459-.077-.765 0l-2.602.611c-1.607.382-3.291 1.987-3.75 3.516L86.1 206.879c-.23.688-.153 1.3.23 1.682.383.382.918.458 1.684.305l1.684-.382.076.153-.076-.153c1.607-.382 3.29-1.987 3.75-3.515l5.433-19.03c.153-.458.077-.84-.153-1.069 0-.077-.153-.153-.306-.153z" fill="#536100"/><path d="M90.004 208.026l-1.684.382c-1.225.305-1.99-.459-1.607-1.682l5.204-18.036c.382-1.222 1.684-2.445 2.908-2.751l2.602-.611c.689-.153 1.148.229.919.993l-5.434 19.03c-.383 1.146-1.684 2.369-2.908 2.675zm4.668-21.858c-1.071.23-2.22 1.3-2.525 2.37l-5.205 18.036c-.306 1.069.306 1.681 1.378 1.452l1.684-.383c1.071-.229 2.219-1.299 2.525-2.369l5.434-19.029c.153-.535-.153-.841-.689-.764l-2.602.687z" fill="#FFD052"/><path d="M86.1 190.295l-2.449 8.177v2.904l1.301-1.528 2.45-8.177-1.302-1.376zm.153 1.605l.306.382-.153.458-.306-.382.153-.458zm-1.76 7.26l-.306-.382.153-.459.306.383-.153.458zm.536-1.681l-.306-.306.153-.458.306.305-.153.459z" fill="#915C19"/><path d="M86.788 195.185l-1.99-2.139c-.229.076-1.453 4.278-1.453 4.278l1.99 2.139c.229-.153 1.453-4.278 1.453-4.278zm-2.907 1.91l.994-3.362.612.611-.688 2.369.23.229c.229-.076.841-2.216.841-2.216l.536.535-.995 3.362-1.53-1.528z" fill="#A87B00"/><path d="M84.57 193.122l-1.225 4.125 1.99 2.14 1.224-4.126-1.99-2.139zm.688 5.806l-1.607-1.681 1.071-3.59.689.764-.689 2.368.23.229.689-2.368.688.687-1.071 3.591z" fill="#FFD052"/><path d="M80.437 184.105l-2.45 8.178v2.904l1.302-1.529 2.449-8.177-1.301-1.376zm.076 1.605l.306.382-.153.459-.306-.382.153-.459zm-1.683 7.184l-.306-.382.153-.459.306.382-.153.459zm.535-1.605l-.306-.306.153-.458.306.306-.153.458z" fill="#915C19"/><path d="M81.125 188.918l-1.99-2.139c-.229.076-1.453 4.278-1.453 4.278l1.99 2.14c.229-.077 1.453-4.279 1.453-4.279zm-2.907 1.987l.994-3.362.612.611-.688 2.369.23.229c.229-.077.84-2.216.84-2.216l.536.535-.994 3.362-1.53-1.528z" fill="#A87B00"/><path d="M78.906 186.932l-1.224 4.126 1.99 2.139 1.223-4.126-1.989-2.139zm.612 5.73l-1.607-1.681 1.072-3.59.688.764-.688 2.368.23.229.688-2.368.688.687-1.07 3.591z" fill="#FFD052"/></svg>