<?xml version="1.0" encoding="utf-8"?><svg width="52" height="48" fill="none" xmlns="http://www.w3.org/2000/svg" viewBox="0 0 52 48"><path d="M46.864 35.579h3.422a.714.714 0 00.714-.715V20.843a.714.714 0 00-.147-.434l-6.214-8.122a.713.713 0 00-.568-.28h-9.5m3.422 23.572H34.57a.714.714 0 01-.714-.715" stroke="currentColor" stroke-width="2"/><path d="M17.014 35.579h17.558a.714.714 0 00.714-.715V7.714A.714.714 0 0034.57 7H1.715A.714.714 0 001 7.714v27.15a.714.714 0 00.714.715h6.429M42.428 39.013a4.148 4.148 0 110-8.296 4.148 4.148 0 010 8.296z" stroke="currentColor" stroke-width="2"/><path d="M12.398 39.214a4.149 4.149 0 114.15-4.149 4.154 4.154 0 01-4.15 4.149zM45.836 20.972v3.607h-7.407v-7.407h4.508l2.899 3.8zm.058.077s0 0 0 0h0z" stroke="currentColor" stroke-width="2"/></svg>