<?xml version="1.0" encoding="utf-8"?><svg width="272" height="257" fill="none" xmlns="http://www.w3.org/2000/svg" viewBox="0 0 272 257"><path fill-rule="evenodd" clip-rule="evenodd" d="M19.927 183.88l-.08 11.373L132.872 257l.726-2.483-.646-8.89L19.927 183.88z" fill="#8A6633"/><path fill-rule="evenodd" clip-rule="evenodd" d="M131.827 122.133L19.93 183.88l113.026 61.747 111.897-62.548-113.026-60.946z" fill="#BD9257"/><path fill-rule="evenodd" clip-rule="evenodd" d="M244.85 183.079l-.08 11.373L132.873 257l.08-11.373 111.897-62.548z" fill="#A37C44"/><path fill-rule="evenodd" clip-rule="evenodd" d="M26.704 65.271l1.855 50.695-2.34 71.999-6.373-3.684.404-122.614 6.454 3.604z" fill="#E6E6E6" stroke="#E0DAD9" stroke-width=".216" stroke-miterlimit="22.926"/><path fill-rule="evenodd" clip-rule="evenodd" d="M132.064 6.327l4.033 64.07-4.517 59.585-105.363 57.983.484-123.655L132.064 6.327z" fill="#DCDCDA"/><path fill-rule="evenodd" clip-rule="evenodd" d="M238.477 63.51l3.227 46.53-3.63 77.124-106.492-57.182.484-123.655L238.477 63.51z" fill="#E6E6E6"/><path fill-rule="evenodd" clip-rule="evenodd" d="M244.85 60.866l-6.373 3.604L132.066 7.288 26.704 65.27l-6.454-3.604L131.984 0 244.85 60.866z" fill="#F0F0F0"/><path fill-rule="evenodd" clip-rule="evenodd" d="M244.848 60.866l-.403 122.614-6.371 3.684.403-122.694 6.371-3.604z" fill="#DCDCDA"/><path fill-rule="evenodd" clip-rule="evenodd" d="M129 145.839l.726 3.924-.807 24.747-29.689-16.979.081-28.751L129 145.839z" fill="#D1B68A"/><path fill-rule="evenodd" clip-rule="evenodd" d="M129 145.839l28.075-16.258-.081 28.751-28.075 16.178.081-28.671z" fill="#C4A676"/><path fill-rule="evenodd" clip-rule="evenodd" d="M99.311 128.78l28.075-16.177 29.689 16.978L129 145.839 99.311 128.78z" fill="#C1A963"/><path fill-rule="evenodd" clip-rule="evenodd" d="M129.646 142.955l-.646 5.526-31.14-17.859v-5.045l31.786 17.378z" fill="#DBC49E"/><path fill-rule="evenodd" clip-rule="evenodd" d="M116.011 142.155v5.205l10.085 5.847v-5.286l-10.085-5.766z" fill="#F0F0F0"/><path fill-rule="evenodd" clip-rule="evenodd" d="M124.24 147.601l1.049.64v3.924l-1.049-.64v-3.924zm-7.502-.481v-3.924l1.048.64v3.925l-1.048-.641zm1.936 1.121v-3.924l1.049.641v3.924l-1.049-.641zm1.936 1.121v-3.924l1.049.641v3.924l-1.049-.641zm1.856 1.042v-3.925l1.048.641v3.924l-1.048-.64z" fill="#8A888B"/><path fill-rule="evenodd" clip-rule="evenodd" d="M129 143.436l29.447-17.059v5.126L129 148.481v-5.045z" fill="#D1B68A"/><path fill-rule="evenodd" clip-rule="evenodd" d="M97.86 125.577l29.527-16.979 31.06 17.779L129 143.436l-31.14-17.859z" fill="#EDDDC4"/><path fill-rule="evenodd" clip-rule="evenodd" d="M129.645 119.57l.484 2.643-.564 16.658-19.927-11.452.08-19.301 19.927 11.452z" fill="#D1B68A"/><path fill-rule="evenodd" clip-rule="evenodd" d="M129.646 119.57l18.878-10.892-.081 19.301-18.878 10.892.081-19.301z" fill="#C4A676"/><path fill-rule="evenodd" clip-rule="evenodd" d="M109.718 108.118l18.878-10.892 19.927 11.452-18.878 10.892-19.927-11.452z" fill="#C1A963"/><path fill-rule="evenodd" clip-rule="evenodd" d="M130.13 117.648l-.484 3.684-20.976-11.933v-3.444l21.46 11.693z" fill="#DBC49E"/><path fill-rule="evenodd" clip-rule="evenodd" d="M120.933 117.087l-.081 3.524 6.855 3.925v-3.524l-6.774-3.925z" fill="#F0F0F0"/><path fill-rule="evenodd" clip-rule="evenodd" d="M126.498 120.772l.725.4v2.643l-.725-.4v-2.643zm-5.081-.321v-2.643l.726.401v2.643l-.726-.401zm1.29.721v-2.643l.726.401v2.643l-.726-.401zm1.29.801v-2.643l.726.401v2.642l-.726-.4zm1.21.641v-2.643l.726.4v2.643l-.726-.4z" fill="#8A888B"/><path fill-rule="evenodd" clip-rule="evenodd" d="M129.646 117.969l19.846-11.453-.081 3.444-19.765 11.372v-3.363z" fill="#D1B68A"/><path fill-rule="evenodd" clip-rule="evenodd" d="M108.67 105.955l19.846-11.452 20.976 12.013-19.846 11.452-20.976-12.013z" fill="#EDDDC4"/><path d="M129.806 99.148c-2.097 0-4.114-.48-5.647-1.362-1.533-.88-2.42-2.082-2.42-3.443 0-1.282.887-2.483 2.42-3.444 1.533-.881 3.469-1.362 5.647-1.362 2.179 0 4.115.48 5.648 1.362 1.532.88 2.42 2.082 2.42 3.444 0 1.281-.888 2.482-2.42 3.443-1.533.881-3.55 1.362-5.648 1.362zm0-8.81c-1.936 0-3.791.4-5.244 1.282-1.371.8-2.097 1.761-2.097 2.803 0 1.04.726 2.082 2.097 2.803 1.453.8 3.389 1.281 5.244 1.281 1.937 0 3.792-.4 5.244-1.281 1.372-.801 2.098-1.762 2.098-2.803s-.726-2.083-2.098-2.803c-1.452-.881-3.307-1.282-5.244-1.282z" fill="#B1BAC4"/><path d="M129.807 111.721c-.242 0-.484-.24-.484-.48l-.081-18.58c0-.24.242-.481.484-.481s.484.24.484.48l.081 18.661c0 .24-.242.4-.484.4zM120.287 106.276c-.08 0-.161 0-.242-.08-.242-.161-.322-.401-.161-.641.564-.881 1.21-3.284 1.532-9.69.162-3.845.162-7.369.162-7.449 0-.24.161-.48.483-.48.242 0 .484.24.484.48 0 0 .081 3.604-.161 7.448-.242 5.286-.806 8.73-1.694 10.091-.08.241-.242.321-.403.321zM139.084 106.275a.442.442 0 01-.403-.24c-.807-1.441-1.371-4.805-1.694-10.09-.161-3.925-.161-7.449-.161-7.449 0-.24.242-.48.484-.48.241 0 .483.24.483.48 0 0-.08 3.524.162 7.448.322 6.407 1.048 8.81 1.532 9.691.161.24.081.48-.161.64h-.242z" fill="#B1BAC4"/><path d="M129.807 93.462c4.856 0 8.793-2.26 8.793-5.046 0-2.787-3.937-5.045-8.793-5.045-4.857 0-8.794 2.258-8.794 5.045s3.937 5.046 8.794 5.046z" fill="#A2AEBA"/><path d="M138.6 85.613c0-1.281-.887-2.563-2.582-3.604-3.469-2.002-9.035-2.002-12.504 0-1.694.961-2.582 2.323-2.582 3.604 0 1.281.888 2.563 2.582 3.604 3.469 2.002 9.035 2.002 12.504 0 1.695-.961 2.582-2.323 2.582-3.604 0 .08 0 .08 0 0 0 .08 0 .08 0 0 0 .08 0 .08 0 0z" fill="#B02727"/><path d="M129.807 90.659c4.856 0 8.793-2.26 8.793-5.046 0-2.786-3.937-5.045-8.793-5.045-4.857 0-8.794 2.259-8.794 5.045 0 2.787 3.937 5.046 8.794 5.046z" fill="#E65353"/><path fill-rule="evenodd" clip-rule="evenodd" d="M175.469 171.387l.645 3.524-.726 21.623-25.897-14.896.081-25.147 25.897 14.896z" fill="#D1B68A"/><path fill-rule="evenodd" clip-rule="evenodd" d="M175.469 171.387l24.606-14.176-.08 25.148-24.607 14.175.081-25.147z" fill="#C4A676"/><path fill-rule="evenodd" clip-rule="evenodd" d="M149.572 156.491l24.525-14.176 25.978 14.896-24.606 14.176-25.897-14.896z" fill="#C1A963"/><path fill-rule="evenodd" clip-rule="evenodd" d="M176.114 168.904l-.645 4.805-27.268-15.537v-4.485l27.913 15.217z" fill="#DBC49E"/><path fill-rule="evenodd" clip-rule="evenodd" d="M164.094 168.183v4.565l8.874 5.126v-4.645l-8.874-5.046z" fill="#F0F0F0"/><path fill-rule="evenodd" clip-rule="evenodd" d="M171.352 172.908l.968.561v3.444l-.968-.561v-3.444zm-6.613-.32v-3.364l.968.561v3.444l-.968-.641zm1.694.961v-3.444l.968.561v3.444l-.968-.561zm1.693.961v-3.444l.968.561v3.364l-.968-.481zm1.613.881v-3.364l.968.561v3.444l-.968-.641z" fill="#8A888B"/><path fill-rule="evenodd" clip-rule="evenodd" d="M175.469 169.304l25.817-14.896v4.485l-25.817 14.816v-4.405z" fill="#D1B68A"/><path fill-rule="evenodd" clip-rule="evenodd" d="M148.201 153.688l25.816-14.897 27.268 15.617-25.816 14.897-27.268-15.617z" fill="#EDDDC4"/><path fill-rule="evenodd" clip-rule="evenodd" d="M174.582 145.678l.484 2.643-.565 16.018-19.282-11.052.081-18.661 19.282 11.052z" fill="#D1B68A"/><path fill-rule="evenodd" clip-rule="evenodd" d="M174.582 145.679l18.233-10.492v18.661l-18.314 10.491.081-18.66z" fill="#C4A676"/><path fill-rule="evenodd" clip-rule="evenodd" d="M155.3 134.627l18.233-10.572 19.281 11.132-18.232 10.492-19.282-11.052z" fill="#C1A963"/><path fill-rule="evenodd" clip-rule="evenodd" d="M174.985 143.837l-.403 3.604-20.249-11.613v-3.284l20.652 11.293z" fill="#DBC49E"/><path fill-rule="evenodd" clip-rule="evenodd" d="M166.111 143.276v3.444l6.533 3.764.08-3.444-6.613-3.764z" fill="#F0F0F0"/><path fill-rule="evenodd" clip-rule="evenodd" d="M171.514 146.8l.726.4v2.563l-.726-.4V146.8zm-4.919-.24v-2.563l.726.4v2.563l-.726-.4zm1.209.721v-2.563l.726.4v2.563l-.726-.4zm1.291.72v-2.563l.726.401v2.563l-.726-.401zm1.21.721v-2.563l.725.401v2.563l-.725-.401z" fill="#8A888B"/><path fill-rule="evenodd" clip-rule="evenodd" d="M174.582 144.157l19.201-11.132v3.364l-19.201 11.052v-3.284z" fill="#D1B68A"/><path fill-rule="evenodd" clip-rule="evenodd" d="M154.333 132.544l19.2-11.132 20.25 11.613-19.201 11.132-20.249-11.613z" fill="#EDDDC4"/><path fill-rule="evenodd" clip-rule="evenodd" d="M174.582 127.018l.161 1.201-.242 7.208-8.713-4.965v-8.489l8.794 5.045z" fill="#D1B68A"/><path fill-rule="evenodd" clip-rule="evenodd" d="M174.582 127.018l8.229-4.805v8.489l-8.31 4.725.081-8.409z" fill="#C4A676"/><path fill-rule="evenodd" clip-rule="evenodd" d="M165.788 121.973l8.31-4.725 8.713 4.965-8.229 4.805-8.794-5.045z" fill="#C1A963"/><path fill-rule="evenodd" clip-rule="evenodd" d="M174.743 126.137l-.242 1.682-9.116-5.286v-1.441l9.358 5.045z" fill="#DBC49E"/><path fill-rule="evenodd" clip-rule="evenodd" d="M170.708 125.897v1.602l2.983 1.682v-1.522l-2.983-1.762z" fill="#E7EEF6"/><path fill-rule="evenodd" clip-rule="evenodd" d="M173.127 127.499l.323.16v1.121l-.323-.16v-1.121zm-2.178-.08v-1.122l.323.16v1.122l-.323-.16zm.565.32v-1.121l.323.16v1.121l-.323-.16zm.565.32v-1.121l.322.16v1.121l-.322-.16zm.564.321v-1.122l.323.161v1.121l-.323-.16z" fill="#8A888B"/><path fill-rule="evenodd" clip-rule="evenodd" d="M174.501 126.297l8.713-4.965v1.441l-8.713 5.046v-1.522z" fill="#D1B68A"/><path fill-rule="evenodd" clip-rule="evenodd" d="M165.385 121.092l8.713-5.045 9.116 5.285-8.713 4.966-9.116-5.206z" fill="#EDDDC4"/><path fill-rule="evenodd" clip-rule="evenodd" d="M94.068 201.659l.242 1.602-.323 10.171-12.182-6.967v-11.773l12.263 6.967z" fill="#D1B68A"/><path fill-rule="evenodd" clip-rule="evenodd" d="M94.068 201.659l11.536-6.647-.08 11.773-11.537 6.647.08-11.773z" fill="#C4A676"/><path fill-rule="evenodd" clip-rule="evenodd" d="M81.805 194.692l11.536-6.728 12.263 7.048-11.536 6.647-12.263-6.967z" fill="#C1A963"/><path fill-rule="evenodd" clip-rule="evenodd" d="M94.31 200.458l-.323 2.323-12.747-7.368v-2.083l13.07 7.128z" fill="#DBC49E"/><path fill-rule="evenodd" clip-rule="evenodd" d="M88.66 200.138v2.162l4.193 2.403v-2.163l-4.193-2.402z" fill="#F0F0F0"/><path fill-rule="evenodd" clip-rule="evenodd" d="M92.047 202.38l.484.241v1.601l-.484-.24v-1.602zm-3.065-.16v-1.602l.404.241v1.601l-.404-.24zm.807.401v-1.602l.403.24v1.602l-.403-.24zm.806.48v-1.602l.404.241v1.601l-.404-.24zm.726.481v-1.602l.403.24v1.602l-.403-.24z" fill="#8A888B"/><path fill-rule="evenodd" clip-rule="evenodd" d="M94.068 200.698l12.101-7.047v2.082l-12.182 7.048.08-2.083z" fill="#D1B68A"/><path fill-rule="evenodd" clip-rule="evenodd" d="M81.24 193.33l12.102-6.967 12.827 7.288-12.101 7.048-12.828-7.369z" fill="#EDDDC4"/><path d="M160.706 207.907l-5.648 3.203-20.814-29.952 5.486-3.124 20.976 29.873z" fill="#965B14"/><path d="M140.777 197.175l18.636 10.651c.887.481 1.613.08 1.613-.961v-15.377c0-1.041-.726-2.242-1.613-2.803l-18.636-10.571c-.888-.481-1.614-.08-1.614.961v15.377c0 .961.726 2.242 1.614 2.723z" fill="#965B14"/><path d="M157.8 208.787V193.41c0-1.041-.726-2.242-1.613-2.803l-18.636-10.571c-.081 0-.646-.321-.726-.321.08-.801 1.291-.881 2.097-.48l18.636 10.651c.888.481 1.614 1.762 1.614 2.803v15.377c0 .961-.646 1.362-1.452 1.041.08-.16.08-.24.08-.32z" fill="#D1C46A"/><path d="M135.374 200.298l18.636 10.651c.887.481 1.613.08 1.613-.961v-15.376c0-1.042-.726-2.243-1.613-2.804l-18.636-10.651c-.888-.481-1.614-.08-1.614.961v15.377c0 1.041.726 2.322 1.614 2.803z" fill="#BD8542"/><path d="M153.928 189.807l2.42-1.442-1.613-.881-2.42 1.362 1.613.961z" fill="#FFE699"/><path d="M153.928 189.806v.401l-1.693-.881.08-.481 1.613.961z" fill="#E0C163"/><path d="M156.348 188.365v.48l-2.419 1.362v-.401l2.419-1.441z" fill="#CCA83B"/><path d="M140.857 182.358l2.5-1.361-1.613-.961-2.5 1.441 1.613.881z" fill="#FFE699"/><path d="M140.857 182.358v.481l-1.613-.961v-.401l1.613.881z" fill="#E0C163"/><path d="M143.357 180.997v.4l-2.5 1.442v-.481l2.5-1.361z" fill="#CCA83B"/><path d="M149.572 186.122l-.564.401-.242-1.041.403-.16.403.8z" fill="#4E4E5C"/><path d="M144.411 180.516l.565-.32 4.113 2.643-.242.64-4.436-2.963z" fill="#4C4C5C"/><path d="M149.41 183.159v3.044l-.565-.401V183.4c0-.161-.161-.401-.323-.481l-2.903-1.682c-.161-.08-.322 0-.322.16v2.403l-.646-.32v-3.044c0-.16.162-.24.323-.16l4.113 2.323c.242.16.323.4.323.56z" fill="#4C4C5C"/><path d="M149.006 183.48v3.044l-.564-.321v-2.402c0-.161-.162-.401-.323-.481l-2.903-1.682c-.161-.08-.323 0-.323.16v2.403l-.645-.32v-3.044c0-.16.161-.24.323-.16l4.113 2.323c.161 0 .322.24.322.48z" fill="#2B2B38"/><path d="M144.893 184.12l.565-.32-.646-1.041v1.041l.081.32z" fill="#4C4C5C"/><path d="M132.711 168.184l.726-.16 3.951 4.164-.403.721-4.274-4.725z" fill="#FFD052"/><path d="M137.711 172.669l-.887 3.444-.565-.561.726-2.723a.62.62 0 00-.161-.641l-2.823-2.723c-.161-.16-.323-.08-.403.081l-.726 2.722-.645-.56.887-3.444c.081-.24.242-.24.403-.08l4.033 3.924c.161 0 .242.321.161.561z" fill="#FFD052"/><path d="M137.066 172.909l-.888 3.444-.564-.561.726-2.723c.08-.24 0-.48-.162-.64l-2.822-2.723c-.162-.161-.323-.08-.403.08l-.726 2.723-.645-.561.887-3.444c.08-.24.242-.24.403-.08l4.032 3.925c.162 0 .242.32.162.56z" fill="#915C19"/><path d="M118.35 180.997l2.017-6.647c.645-2.242 3.066-4.405 5.325-4.965l3.065-.721c1.372-.321 2.178.48 1.775 1.842l-4.76 15.937c-.322 1.041-2.743 7.288-3.792 7.528l-2.984.641 4.195-14.656-4.841 1.041z" fill="#A7BD29"/><path d="M120.206 193.811l-1.775.401c-1.29.32-2.097-.481-1.694-1.762l5.486-18.901c.404-1.281 1.775-2.563 3.066-2.883l2.743-.641c.726-.16 1.21.241.968 1.041l-4.437 14.737c-.323 1.201-2.985 7.688-4.357 8.008zm5.002-22.905c-1.129.241-2.339 1.362-2.662 2.483l-5.486 18.901c-.323 1.121.323 1.762 1.452 1.521l1.775-.4c1.129-.24 3.63-6.567 3.953-7.689l4.437-14.736c.162-.56-.161-.881-.726-.8l-2.743.72z" fill="#C9750E"/><path d="M140.294 181.718c.161-.641.08-1.121-.242-1.361 0-.081-.081-.081-.081-.161s-.081-.08-.081-.16-.08-.08-.08-.16-.081-.08-.081-.16-.081-.08-.081-.16-.081-.08-.081-.16c0-.081-.08-.081-.08-.161s-.081-.08-.081-.16-.081-.08-.081-.16-.08-.08-.08-.16-.081-.08-.081-.16-.081-.08-.081-.161c0-.08-.08-.08-.08-.16s-.081-.08-.081-.16-.081-.08-.081-.16-.08-.08-.08-.16-.081-.08-.081-.16c0-.081-.081-.081-.081-.161s-.08-.08-.08-.16-.081-.08-.081-.16-.081-.08-.081-.16-.08-.08-.08-.16-.081-.08-.081-.16c0-.081-.081-.081-.081-.161s-.08-.08-.08-.16-.081-.08-.081-.16-.081-.08-.081-.16-.08-.08-.08-.16-.081-.08-.081-.161c0-.08-.081-.08-.081-.16s-.08-.08-.08-.16-.081-.08-.081-.16-.081-.08-.081-.16-.08-.08-.08-.16-.081-.08-.081-.161c0-.08-.081-.08-.081-.16s-.08-.08-.08-.16-.081-.08-.081-.16-.081-.08-.081-.16-.08-.08-.08-.16c0-.081-.081-.081-.081-.161s-.081-.08-.081-.16-.08-.08-.08-.16-.081-.08-.081-.16-.081-.08-.081-.16-.081-.08-.081-.16c0-.081-.08-.081-.08-.161s-.081-.08-.081-.16-.081-.08-.081-.16-.08-.08-.08-.16-.081-.08-.081-.16-.081-.08-.081-.161c0-.08-.08-.08-.08-.16s-.081-.08-.081-.16-.081-.08-.081-.16-.08-.08-.08-.16-.081-.08-.081-.16-.081-.08-.081-.161c0-.08-.08-.08-.08-.16s-.081-.08-.081-.16-.081-.08-.081-.16-.08-.08-.08-.16-.081-.08-.081-.16c0-.081-.081-.081-.081-.161s-.08-.08-.08-.16-.081-.08-.081-.16-.081-.08-.081-.16-.08-.08-.08-.16-.081-.08-.081-.161c0-.08-.081-.08-.081-.16s-.08-.08-.08-.16-.081-.08-.081-.16-.081-.08-.081-.16-.08-.08-.08-.16-.081-.08-.081-.161c0-.08-.081-.08-.081-.16s-.08-.08-.08-.16-.081-.08-.081-.16-.081-.08-.081-.16-.08-.08-.08-.16c0-.081-.081-.081-.081-.161s-.081-.08-.081-.16-.081-.08-.081-.16-.08-.08-.08-.16-.081-.08-.081-.16-.081-.08-.081-.16c0-.081-.08-.081-.08-.161-.242-.32-.726-.48-1.372-.32l-2.743.641c-1.775.4-3.549 2.162-4.114 3.844l-5.486 18.901c-.242.88-.161 1.601.323 2.002 0 .08.08.08.08.16s.081.08.081.16.081.08.081.16.08.08.08.16.081.08.081.161c0 .08.081.08.081.16s.08.08.08.16.081.08.081.16.081.08.081.16.08.08.08.16c0 .081.081.081.081.161s.081.08.081.16.08.08.08.16.081.08.081.16.081.08.081.16.08.08.08.16c0 .081.081.081.081.161s.081.08.081.16.08.08.08.16.081.08.081.16.081.08.081.16.081.08.081.161c0 .08.08.08.08.16s.081.08.081.16.081.08.081.16.08.08.08.16.081.08.081.16.081.08.081.161c0 .08.08.08.08.16s.081.08.081.16.081.08.081.16.08.08.08.16.081.08.081.16c0 .081.081.081.081.161s.08.08.08.16.081.08.081.16.081.08.081.16.08.08.08.16.081.08.081.16c0 .081.081.081.081.161s.08.08.08.16.081.08.081.16.081.08.081.16.08.08.08.16.081.08.081.161c0 .08.081.08.081.16s.08.08.08.16.081.08.081.16.081.08.081.16.08.08.08.16c0 .081.081.081.081.161s.081.08.081.16.08.08.08.16.081.08.081.16.081.08.081.16.08.08.08.16c0 .081.081.081.081.161s.081.08.081.16.081.08.081.16.08.08.08.16.081.08.081.16.081.08.081.161c0 .08.08.08.08.16s.081.08.081.16.081.08.081.16.08.08.08.16.081.08.081.16.081.08.081.161c0 .08.08.08.08.16s.081.08.081.16.081.08.081.16.08.08.08.16.081.08.081.16c0 .081.081.081.081.161s.08.08.08.16.081.08.081.16.081.08.081.16.08.08.08.16.081.08.081.16c0 .081.081.081.081.161s.08.08.08.16.081.08.081.16.081.08.081.16.08.08.08.16.081.08.081.161c0 .08.081.08.081.16s.08.08.08.16c.404.48 1.13.641 2.017.4l1.775-.4c1.775-.401 3.55-2.162 4.115-3.844l5.728-19.862z" fill="#82960E"/><path d="M118.35 180.997l10.407 10.892 1.452-2.483s.242-4.085 1.775-6.007c1.533-1.922 3.873-3.043 5.728-3.283 1.856-.24 2.905-.16 2.905-.16l-10.569-11.052s-5.486.24-7.261 2.242c-1.775 1.922-4.437 9.851-4.437 9.851z" fill="#A7BD29"/><path d="M136.501 185.162l-15.57-16.338 7.422-1.842 15.651 16.418-7.503 1.762z" fill="#B3CF13"/><path d="M128.758 191.889l2.017-6.647c.645-2.243 3.065-4.405 5.324-4.966l3.066-.721c1.371-.32 2.178.481 1.775 1.842l-6.132 21.063c-.322 1.042-1.452 2.083-2.5 2.323l-2.905.641 4.195-14.656-4.84 1.121z" fill="#4C5900"/><path d="M130.452 205.504l-1.774.401c-1.775.4-2.743-.641-2.259-2.323l5.486-18.9c.484-1.682 2.339-3.444 4.114-3.844l2.743-.641c1.21-.32 1.856.4 1.533 1.602l-5.728 19.941c-.565 1.602-2.42 3.284-4.115 3.764z" fill="#73850C"/><path d="M127.306 206.064c-.323-.08-.565-.24-.726-.48-.484-.481-.565-1.282-.323-2.163l5.486-18.9c.242-.881.807-1.762 1.614-2.483.806-.721 1.694-1.281 2.581-1.521l2.743-.641c.646-.16 1.21-.08 1.533.32.323.321.403.881.242 1.522l-5.728 19.942c-.242.881-.807 1.761-1.613 2.482-.807.721-1.695 1.282-2.582 1.522l-1.775.4c-.565.161-1.049.161-1.452 0zm12.263-25.788c-.242-.08-.484-.08-.807 0l-2.743.641c-1.694.4-3.469 2.082-3.953 3.684l-5.486 18.901c-.242.72-.161 1.361.242 1.761.403.401.968.481 1.775.321l1.775-.401.08.161-.08-.161c1.694-.4 3.469-2.082 3.953-3.684l5.728-19.941c.161-.481.08-.881-.162-1.122-.08-.08-.161-.08-.322-.16z" fill="#536100"/><path d="M130.694 204.703l-1.775.4c-1.291.321-2.097-.48-1.694-1.762l5.486-18.9c.403-1.281 1.775-2.563 3.066-2.883l2.743-.641c.726-.16 1.21.24.968 1.041L133.76 201.9c-.404 1.201-1.775 2.483-3.066 2.803zm4.921-22.825c-1.129.24-2.339 1.362-2.662 2.483l-5.486 18.9c-.323 1.122.323 1.762 1.452 1.522l1.775-.4c1.13-.241 2.34-1.362 2.662-2.483l5.728-19.942c.162-.56-.161-.881-.726-.801l-2.743.721z" fill="#FFD052"/><path d="M126.576 186.203l-2.581 8.569v3.044l1.371-1.602 2.581-8.569-1.371-1.442zm.081 1.682l.322.4-.161.481-.323-.401.162-.48zm-1.775 7.528l-.322-.4.161-.481.323.4-.162.481zm.565-1.762l-.323-.32.162-.481.322.321-.161.48z" fill="#915C19"/><path d="M127.302 191.248l-2.097-2.242c-.242.08-1.532 4.485-1.532 4.485l2.097 2.242c.242-.16 1.532-4.485 1.532-4.485zm-3.065 2.003l1.049-3.524.645.64-.726 2.483.242.24c.242-.08.887-2.322.887-2.322l.565.561-1.049 3.523-1.613-1.601z" fill="#A87B00"/><path d="M124.963 189.086l-1.29 4.325 2.097 2.243 1.29-4.325-2.097-2.243zm.645 6.087l-1.693-1.762 1.129-3.764.726.801-.726 2.483.242.24.726-2.483.725.721-1.129 3.764z" fill="#FFD052"/><path d="M120.608 179.636l-2.58 8.569v3.044l1.371-1.602 2.58-8.57-1.371-1.441zm.081 1.682l.323.4-.162.481-.322-.401.161-.48zm-1.774 7.528l-.323-.401.161-.48.323.4-.161.481zm.564-1.682l-.322-.32.161-.481.323.321-.162.48z" fill="#915C19"/><path d="M121.334 184.681l-2.097-2.242c-.242.08-1.532 4.485-1.532 4.485l2.097 2.242c.242-.08 1.532-4.485 1.532-4.485zm-3.145 2.083l1.048-3.524.646.641-.726 2.482.242.24c.242-.08.887-2.322.887-2.322l.564.561-1.048 3.523-1.613-1.601z" fill="#A87B00"/><path d="M118.995 182.599l-1.29 4.325 2.097 2.242 1.29-4.324-2.097-2.243zm.646 6.087l-1.694-1.762 1.129-3.764.726.801-.726 2.483.242.24.726-2.483.726.721-1.129 3.764z" fill="#FFD052"/><path fill-rule="evenodd" clip-rule="evenodd" d="M123.434 221.281l.161 1.201-.242 7.288-8.713-5.045v-8.41l8.794 4.966z" fill="#D1B68A"/><path fill-rule="evenodd" clip-rule="evenodd" d="M123.434 221.281l8.229-4.725v8.409l-8.31 4.805.081-8.489z" fill="#C4A676"/><path fill-rule="evenodd" clip-rule="evenodd" d="M114.64 216.315l8.309-4.805 8.713 5.046-8.228 4.725-8.794-4.966z" fill="#C1A963"/><path fill-rule="evenodd" clip-rule="evenodd" d="M123.595 220.48l-.242 1.602-9.116-5.206v-1.522l9.358 5.126z" fill="#DBC49E"/><path fill-rule="evenodd" clip-rule="evenodd" d="M119.559 220.239v1.522l2.984 1.682v-1.522l-2.984-1.682z" fill="#E7EEF6"/><path fill-rule="evenodd" clip-rule="evenodd" d="M121.979 221.842l.322.16v1.121l-.322-.16v-1.121zm-2.178-.161v-1.121l.323.16v1.122l-.323-.161zm.565.321v-1.122l.322.161v1.121l-.322-.16zm.564.32v-1.121l.323.16v1.121l-.323-.16zm.565.32v-1.121l.322.16v1.122l-.322-.161z" fill="#8A888B"/><path fill-rule="evenodd" clip-rule="evenodd" d="M123.353 220.56l8.713-4.966v1.522l-8.713 4.966v-1.522z" fill="#D1B68A"/><path fill-rule="evenodd" clip-rule="evenodd" d="M114.237 215.354l8.713-5.045 9.116 5.285-8.713 4.966-9.116-5.206z" fill="#EDDDC4"/><path d="M101.328 181.558H88.501l12.585-9.851.242 9.851z" fill="#175AA8"/><path d="M74.544 129.181l1.775-.801 1.855-2.963-5.163-3.044c-.887-.48-2.178-.4-3.55.321l-17.184 9.85c-2.662 1.522-4.76 5.206-4.76 8.169v26.669l26.946-15.457.08-22.744z" fill="#A31F1F"/><path d="M82.287 134.546l-2.178 1.202c-1.855 1.041-3.388 3.684-3.388 5.766v11.853l-24.768 14.175v11.773l24.768-14.175v1.601l22.67 13.055 5.566-32.195-22.67-13.055z" fill="#A31F1F"/><path d="M99.392 179.716l5.565-3.204V147.44l-2.177 1.202c-1.855 1.041-3.388 3.684-3.388 5.766v25.308z" fill="#E34D4D"/><path d="M99.392 166.341c-.403 0-22.67-13.054-22.67-13.054l-20.168 11.532 18.071 15.777 24.767-14.255z" fill="#BF3737"/><path d="M57.197 135.347l17.184-9.851c2.743-1.601 5.002-.32 5.002 2.884v26.428l-26.946 15.457v-26.669c0-3.043 2.098-6.727 4.76-8.249zM74.624 192.37l24.768-14.176v-11.853l-24.767 14.256v11.773z" fill="#E34D4D"/><path d="M46.469 184.12l5.565-3.203v-25.388c0-2.002-1.452-2.883-3.226-1.842l-2.339 1.362v29.071z" fill="#CF3C3C"/><path d="M73.899 166.742l-22.912-13.215-3.792 5.446 14.683 13.535 7.826.08 4.195-5.846z" fill="#CF3C3C"/><path d="M69.058 197.175l5.565-3.204v-25.387c0-2.002-1.452-2.883-3.226-1.842l-2.339 1.361v29.072z" fill="#E34D4D"/><path d="M69.058 168.103L46.47 155.129v28.992l22.59 13.054v-29.072z" fill="#A31F1F"/><path fill-rule="evenodd" clip-rule="evenodd" d="M84.628 160.495l.323 1.602-.323 10.171-12.182-6.968v-11.853l12.182 7.048z" fill="#D1B68A"/><path fill-rule="evenodd" clip-rule="evenodd" d="M84.628 160.495l11.537-6.727v11.852l-11.537 6.648v-11.773z" fill="#C4A676"/><path fill-rule="evenodd" clip-rule="evenodd" d="M72.446 153.447l11.537-6.647 12.182 6.968-11.537 6.727-12.182-7.048z" fill="#C1A963"/><path fill-rule="evenodd" clip-rule="evenodd" d="M84.951 159.293l-.322 2.243-12.828-7.288v-2.083l13.15 7.128z" fill="#DBC49E"/><path fill-rule="evenodd" clip-rule="evenodd" d="M79.302 158.973v2.163l4.112 2.322v-2.082l-4.112-2.403z" fill="#F0F0F0"/><path fill-rule="evenodd" clip-rule="evenodd" d="M82.692 161.215l.483.241v1.601l-.483-.24v-1.602zm-3.065-.24v-1.602l.403.241v1.601l-.403-.24zm.726.481v-1.602l.403.24v1.602l-.403-.24zm.887.48v-1.602l.403.241v1.601l-.403-.24zm.726.401v-1.602l.403.24v1.602l-.403-.24z" fill="#8A888B"/><path fill-rule="evenodd" clip-rule="evenodd" d="M84.628 159.454l12.182-6.968v2.083l-12.182 6.967v-2.082z" fill="#D1B68A"/><path fill-rule="evenodd" clip-rule="evenodd" d="M71.801 152.166l12.182-7.048 12.828 7.368-12.182 6.968-12.828-7.288z" fill="#EDDDC4"/></svg>