<?xml version="1.0" encoding="utf-8"?><svg width="272" height="260" fill="none" xmlns="http://www.w3.org/2000/svg" viewBox="0 0 272 260"><g clip-path="url(#arclip0)"><path fill-rule="evenodd" clip-rule="evenodd" d="M8.437 170.012l-.068 9.673 128.982 79.761.611-2.111-.543-7.561L8.437 170.012z" fill="#8A6633"/><path fill-rule="evenodd" clip-rule="evenodd" d="M136.471 103.874L8.439 170.013l128.982 79.761 128.032-79.761-128.982-66.139z" fill="#BD9257"/><path fill-rule="evenodd" clip-rule="evenodd" d="M265.452 170.012l-.068 9.673-128.033 79.761.068-9.672 128.033-79.762z" fill="#A37C44"/><path fill-rule="evenodd" clip-rule="evenodd" d="M14.136 69.136l1.56 43.116-1.967 61.234-5.36-3.133.34-104.282 5.427 3.065z" fill="#E6E6E6" stroke="#E0DAD9" stroke-width=".216" stroke-miterlimit="22.926"/><path fill-rule="evenodd" clip-rule="evenodd" d="M136.671 5.38l3.393 54.49-3.8 50.678-122.536 62.937.407-105.168L136.67 5.38z" fill="#DCDCDA"/><path fill-rule="evenodd" clip-rule="evenodd" d="M260.091 68.318l2.714 39.575-3.053 65.593-123.486-62.937.407-105.168 123.418 62.937z" fill="#E6E6E6"/><path fill-rule="evenodd" clip-rule="evenodd" d="M265.451 66.07l-5.36 3.066L136.673 6.198 14.136 69.136 8.708 66.07 136.605 0l128.846 66.07z" fill="#F0F0F0"/><path fill-rule="evenodd" clip-rule="evenodd" d="M265.452 66.07l-.34 104.283-5.36 3.133.339-104.35 5.361-3.065z" fill="#DCDCDA"/><path fill-rule="evenodd" clip-rule="evenodd" d="M134.909 123.423l.542 3.27-.61 20.434-24.223-14.032.068-23.703 24.223 14.031z" fill="#D1B68A"/><path fill-rule="evenodd" clip-rule="evenodd" d="M134.909 123.423l22.933-13.35-.068 23.703-22.933 13.351.068-23.704z" fill="#C4A676"/><path fill-rule="evenodd" clip-rule="evenodd" d="M110.686 109.39l22.933-13.418 24.223 14.1-22.934 13.35-24.222-14.032z" fill="#C1A963"/><path fill-rule="evenodd" clip-rule="evenodd" d="M135.452 121.039l-.611 4.632-25.376-14.781v-4.155l25.987 14.304z" fill="#D1B68A"/><path fill-rule="evenodd" clip-rule="evenodd" d="M124.256 120.426v4.29l8.276 4.766v-4.29l-8.276-4.766z" fill="#E7EEF6"/><path fill-rule="evenodd" clip-rule="evenodd" d="M131.04 124.852l.881.545v3.2l-.881-.544v-3.201zm-6.173-.34v-3.201l.882.477v3.2l-.882-.476zm1.56.885v-3.201l.882.477v3.2l-.882-.476zm1.628.953v-3.2l.882.476v3.201l-.882-.477zm1.492.885v-3.2l.882.477v3.2l-.882-.477z" fill="#8A888B"/><path fill-rule="evenodd" clip-rule="evenodd" d="M134.909 121.448l24.086-14.032v4.155l-24.154 14.1.068-4.223z" fill="#D1B68A"/><path fill-rule="evenodd" clip-rule="evenodd" d="M109.465 106.735l24.087-14.1 25.443 14.781-24.086 14.031-25.444-14.712z" fill="#DBC49E"/><path fill-rule="evenodd" clip-rule="evenodd" d="M104.239 137.998l-3.663-2.111 1.018 3.473 3.663 2.111-1.018-3.473zM42.904 170.489l-3.663-2.111-1.018 7.629 3.732 2.179.95-7.697z" fill="#54514C"/><path fill-rule="evenodd" clip-rule="evenodd" d="M107.294 133.163l-3.664-2.112-64.39 37.327 3.664 2.111 64.39-37.326z" fill="#74716C"/><path fill-rule="evenodd" clip-rule="evenodd" d="M42.904 170.489l-.95 7.697 2.985-1.771 1.018-4.564 58.283-33.853 1.017 3.474 3.054-1.771-1.018-6.539-64.39 37.327z" fill="#3B3936"/><path fill-rule="evenodd" clip-rule="evenodd" d="M126.087 150.804l-3.663-2.179 1.018 3.473 3.663 2.179-1.018-3.473zM64.752 183.295l-3.664-2.18-1.017 7.697 3.731 2.18.95-7.697z" fill="#54514C"/><path fill-rule="evenodd" clip-rule="evenodd" d="M129.141 145.968l-3.664-2.179-64.389 37.326 3.664 2.18 64.389-37.327z" fill="#74716C"/><path fill-rule="evenodd" clip-rule="evenodd" d="M64.751 183.294l-.95 7.697 2.986-1.771 1.017-4.632 58.283-33.784 1.018 3.474 3.053-1.771-1.017-6.539-64.39 37.326z" fill="#3B3936"/><path fill-rule="evenodd" clip-rule="evenodd" d="M125.207 149.578v.341c0 .136 0 .204.067.341v.068c0 .068.068.204.068.272v.068c0 .068.068.136.068.205.068.068.068.136.136.272.068.068.068.136.136.136 0 0 0 .068.067.068l.136.137s.068 0 .068.068c.068.068.136.068.204.136l-29.99-17.505c-.068-.068-.136-.068-.204-.137 0 0-.067 0-.067-.068l-.136-.136s0-.068-.068-.068c-.068-.068-.068-.136-.136-.136-.067-.068-.067-.136-.135-.205 0-.068-.068-.068-.068-.136v-.068-.068-.068c0-.068 0-.136-.068-.136v-.069-.136V132.55v-.068-.136-.137l29.922 17.369z" fill="#C1E3E3"/><path fill-rule="evenodd" clip-rule="evenodd" d="M125.613 135.75l-.407 13.827-29.99-17.437-.067-14.032 30.464 17.642z" fill="#E0DFD7"/><path fill-rule="evenodd" clip-rule="evenodd" d="M125.138 135.615l-29.99-17.505v-.137-.272-.136-.137-.136c0-.068 0-.136.069-.204v-.068-.136c0-.069 0-.137.068-.205 0-.068 0-.068.068-.136 0-.068.067-.136.067-.204 0-.068.068-.137.068-.137 0-.068 0-.068.068-.136 0-.068.068-.136.068-.136 0-.068 0-.068.068-.136 0-.068.068-.136.068-.136 0-.069.067-.137.067-.205 0-.068.068-.068.068-.136s.068-.136.068-.136 0-.068.068-.068v-.068c0-.069.068-.069.068-.137.068-.068.068-.136.135-.204.068-.068.136-.204.204-.273.068-.068.068-.136.136-.204l.136-.136.135-.136.136-.137.068-.068.135-.136.068-.068.068-.068.136-.136.068-.068.067-.069.136-.136c.068 0 .068-.068.136-.068s.068-.068.136-.068.068-.068.135-.068l.068-.068c.068 0 .068-.068.136-.068s.068-.068.136-.068c0 0 .067 0 .067-.069.068 0 .068-.068.136-.068s.068-.068.136-.068h.068c.067 0 .067 0 .135-.068H99.966c.068 0 .136 0 .204.068.068 0 .203.068.271.136l29.99 17.506c-.543 1.294-3.461 4.223-5.293 5.517z" fill="#F5F4F0"/><path fill-rule="evenodd" clip-rule="evenodd" d="M128.395 129.893c1.9-1.089 3.393-.272 3.393 1.839l.068 14.032c0 2.111-1.493 4.632-3.325 5.721l-.068.069c-1.832 1.089-3.325.204-3.325-1.908l-.067-14.031c.067-2.112 1.492-4.7 3.324-5.722zM101.73 112.729l4.478 25.27c0 .137.068.205.068.341V139.838c0 .068-.068.205-.068.273 0 .068-.068.136-.068.204 0 .068-.067.136-.067.273 0 .068-.068.136-.068.204-.068.068-.068.136-.136.204 0 .068-.068.068-.068.137l-.203.204-.068.068c-.068.068-.204.136-.339.204l-53.127 30.992c.136-.068.204-.136.34-.204-.95-2.18-3.8-28.063-3.936-28.676l53.262-30.992z" fill="#D6D5CF"/><path fill-rule="evenodd" clip-rule="evenodd" d="M43.175 137.318h-1.018c-.068 0-.068 0-.136.068 0 0-.067 0-.067.068-.068 0-.068.068-.136.068l53.126-30.992s.068 0 .068-.068c0 0 .068 0 .068-.068.068 0 .068 0 .136-.068H96.3c.068 0 .136 0 .272.068h.067c.068 0 .068 0 .136.068h.068c.136.068.204.068.34.136 0 0 .067 0 .067.068 0 0 .068 0 .068.069l.407.204c.136.068.204.136.34.204.067 0 .067.068.135.068.068.069.136.137.204.137l.135.136c.068.068.136.136.204.136l.135.136.204.205c.136.136.271.272.34.408l.067.068.068.069.203.204.068.068.068.068c.068.068.068.136.136.204 0 .069.068.069.068.137l.068.068c.067.068.067.136.135.136 0 .068.068.068.068.136s.068.068.068.137c0 .068.068.068.068.136l.068.068c0 .068.068.136.068.204 0 .068.067.068.067.136v.069c.068.136.136.204.204.34.068.136.136.204.136.341v.068c0 .068.068.068.068.136s.067.136.067.204v.068c0 .069.068.137.068.137 0 .068 0 .068.068.136 0 .068 0 .068.068.136 0 .068.068.136.068.205V112.252c0 .068.068.136.068.272v.068c0 .069 0 .137.067.273l-53.126 30.992c0-.136-.068-.205-.068-.341 0-.068-.068-.136-.068-.272 0-.068-.067-.137-.067-.205 0-.068-.068-.136-.068-.204 0-.068-.068-.136-.068-.272 0-.069-.068-.137-.068-.137-.068-.068-.068-.204-.136-.272 0-.068-.068-.068-.068-.136l-.203-.409-.204-.409c0-.068-.067-.068-.067-.136-.068-.068-.068-.204-.136-.272 0-.069-.068-.069-.068-.137-.068-.068-.068-.136-.136-.204-.068-.068-.068-.136-.135-.136-.068-.068-.068-.136-.136-.205-.068-.068-.068-.136-.136-.204-.068-.068-.068-.136-.136-.136l-.203-.204-.136-.137c-.135-.136-.203-.272-.339-.408l-.068-.068a39.487 39.487 0 00-.203-.205l-.136-.136c-.068-.068-.136-.136-.204-.136l-.135-.136c-.068-.069-.136-.137-.204-.137-.068 0-.068-.068-.136-.068-.135-.068-.203-.136-.339-.204l-.407-.205s-.068 0-.068-.068c-.136-.068-.271-.136-.407-.136h-.068c-.068 0-.135 0-.203-.068-.068 0-.136-.068-.272-.068.272-.068.204-.068.204-.068z" fill="#F5F4F0"/><path fill-rule="evenodd" clip-rule="evenodd" d="M43.651 137.454h.068c.34.068.61.205.95.409 1.832 1.09 3.46 3.474 3.935 5.858l4.478 25.27c.475 2.793-.882 4.496-3.053 3.814h-.068c-.34-.068-.61-.204-.95-.408-1.832-1.09-3.46-3.474-3.935-5.858l-4.478-25.27c-.475-2.793.882-4.496 3.053-3.815z" fill="#E0DFD7"/><path fill-rule="evenodd" clip-rule="evenodd" d="M54.575 166.539c-.068 0-.136-.068-.204-.068-.068-.069-.203-.068-.271-.068s-.136-.069-.204-.069c-.068 0-.136 0-.136-.068H53.083c-.136 0-.204 0-.271.068h-.068c-.068 0-.136.069-.204.069h-.068c-.067.068-.203.068-.271.136l53.126-30.992c.068-.068.136-.068.204-.068h.136c.067 0 .067 0 .135-.068H107.022c.068 0 .136 0 .136.068h.136c.068 0 .203.068.271.068 0 0 .068 0 .068.068 0 0 .068 0 .068.068 0 0 .068 0 .068.068.136.068.271.136.339.205l-53.126 30.991c-.136-.068-.272-.136-.34-.204 0-.204 0-.204-.067-.204z" fill="#EAE9E4"/><path fill-rule="evenodd" clip-rule="evenodd" d="M72.759 181.388l53.126-30.924v.136c0 .477-.068.886-.204 1.294-.067.273-.203.477-.271.681-.068.069-.136.205-.204.273-.135.136-.339.272-.474.409l-53.127 30.991c.679-.476 1.154-1.566 1.154-2.86z" fill="#D6D5CF"/><path fill-rule="evenodd" clip-rule="evenodd" d="M72.69 180.911c0-.068 0-.205-.067-.273 0-.136-.068-.204-.068-.34 0-.068 0-.137-.068-.205 0-.068 0-.136-.068-.204 0-.068-.067-.204-.067-.272 0-.069 0-.137-.068-.137 0-.136-.068-.204-.136-.34 0-.068 0-.068-.068-.136-.068-.137-.136-.273-.203-.477v-.068l-.204-.409c0-.068-.068-.068-.068-.136-.068-.137-.136-.273-.203-.341 0 0 0-.068-.068-.068-.068-.136-.136-.272-.272-.409 0-.068-.067-.068-.067-.136-.068-.068-.136-.204-.204-.272l-.136-.137-.203-.204c-.068-.068-.136-.136-.136-.204-.068-.068-.136-.137-.136-.205l-.271-.272-.204-.204-.135-.137-.204-.204-.135-.136c-.068-.068-.136-.136-.272-.205-.068 0-.068-.068-.136-.068a1.42 1.42 0 01-.407-.272l33.925-22.886 19.202-8.106c.135.068.271.136.407.272.068 0 .068.069.135.069.068.068.204.136.272.204l.135.136.204.204.136.137.068.068.067.068.272.272.068.069.068.068c.067.068.135.136.135.204l.136.136c0 .068.068.068.068.136l.135.137c0 .068.068.068.068.136.068.068.068.136.136.204 0 .068.068.068.068.136v.069c.068.136.136.204.203.34 0 0 0 .068.068.068.068.068.068.136.136.273 0 .068.068.068.068.136s.068.068.068.136.068.068.068.136c.067.068.067.205.135.273v.068c.068.136.068.272.136.341v.068c0 .068 0 .068.068.136 0 .068.068.136.068.204 0 .068 0 .068.067.136 0 .069.068.137.068.137v.136c0 .068 0 .136.068.204 0 .068.068.136.068.205V149.374c0 .136.068.204.068.34v.886l-52.72 30.924v-.477c-.067-.068-.067-.068-.067-.136z" fill="#EAE9E4"/><path fill-rule="evenodd" clip-rule="evenodd" d="M68.688 174.508l53.194-31.06-13.706-7.697-53.126 30.992 13.638 7.765z" fill="#F5F4F0"/><path fill-rule="evenodd" clip-rule="evenodd" d="M50.979 169.059c0-2.589 1.832-3.61 4.07-2.316l13.639 7.765c2.239 1.294 4.003 4.427 4.003 7.016v.068c0 2.588-1.832 3.61-4.071 2.316L50.029 173.35c-2.24-1.294.882-1.567.882-4.155l.068-.136z" fill="#C1E3E3"/><path fill-rule="evenodd" clip-rule="evenodd" d="M67.195 183.227v.34c0 .137 0 .205.068.341v.068c0 .068.068.204.068.272v.069c0 .068.067.136.067.204.068.068.068.136.136.272.068.068.068.137.136.137 0 0 0 .068.068.068l.135.136s.068 0 .068.068c.068.068.136.068.204.136l-29.99-17.505c-.068-.068-.136-.068-.203-.136 0 0-.068 0-.068-.068l-.136-.137s0-.068-.068-.068c-.068-.068-.068-.136-.135-.136-.068-.068-.068-.136-.136-.204 0-.068-.068-.068-.068-.137v-.068-.068-.068c0-.068 0-.136-.068-.136v-.068-.136V166.198v-.068-.136-.136l29.922 17.369zM67.127 169.262l.068 13.963-29.99-17.437v-14.031l29.922 17.505z" fill="#E0DFD7"/><path fill-rule="evenodd" clip-rule="evenodd" d="M69.775 163.95c-.136.137-.204.205-.34.273l-.27.272c-.069.137-.204.205-.272.341-.204.204-.34.409-.475.681-.068.068-.068.136-.136.204-.068.068-.068.137-.135.205 0 0 0 .068-.068.068a.52.52 0 00-.136.34l-.204.409c-.067.136-.135.273-.135.409-.068.136-.068.272-.136.408-.068.137-.068.273-.068.409v.068c0 .136-.068.273-.068.409 0 .136-.067.272-.067.409v.408l-29.99-17.505v-.136-.273-.136-.136-.136c0-.069 0-.137.068-.205v-.068-.136c0-.068 0-.136.068-.204 0-.069 0-.069.067-.137 0-.068.068-.136.068-.204 0-.068.068-.136.068-.136 0-.068 0-.068.068-.136 0-.069.068-.137.068-.137 0-.068 0-.068.068-.136 0-.068.068-.136.068-.136 0-.068.067-.136.067-.204v-.069c0-.068.068-.068.068-.136s.068-.136.068-.136 0-.068.068-.068v-.068c0-.068.068-.068.068-.137.068-.068.068-.136.136-.204.067-.068.135-.204.203-.272.068-.068.068-.137.136-.205l.135-.136.136-.136.136-.136.068-.068.135-.137.068-.068.068-.068.136-.136.068-.068.068-.068.135-.137c.068 0 .068-.068.136-.068s.068-.068.136-.068c.067 0 .067-.068.135-.068l.068-.068c.068 0 .068-.068.136-.068s.068-.068.136-.068c0 0 .067 0 .067-.068.068 0 .068-.069.136-.069s.068-.068.136-.068h.068c.068 0 .068 0 .135-.068H42.092c.068 0 .136 0 .204.068a.51.51 0 01.271.137l29.99 17.505c-.068-.068-.136-.068-.272-.136-.067 0-.135-.068-.203-.068h-.679c-.068 0-.203 0-.271.068-.068 0-.204.068-.272.068-.135.068-.203.068-.339.136s-.203.136-.339.136l-.068.068c-.136.068-.203.137-.34.205.204-.341.137-.273 0-.205z" fill="#F5F4F0"/><path fill-rule="evenodd" clip-rule="evenodd" d="M70.452 163.542c1.9-1.09 3.392-.273 3.392 1.839l.068 14.031c0 2.112-1.493 4.632-3.325 5.722l-.068.068c-1.832 1.09-3.324.204-3.324-1.907l-.068-14.032c0-2.111 1.493-4.699 3.325-5.721z" fill="#D6D5CF"/><path fill-rule="evenodd" clip-rule="evenodd" d="M228.881 164.836l.339 1.771-.339 11.035-13.095-7.561v-12.805l13.095 7.56z" fill="#D1B68A"/><path fill-rule="evenodd" clip-rule="evenodd" d="M228.881 164.836l12.416-7.22v12.805l-12.416 7.22v-12.805z" fill="#C4A676"/><path fill-rule="evenodd" clip-rule="evenodd" d="M215.786 157.275l12.416-7.289 13.095 7.629-12.416 7.22-13.095-7.56z" fill="#C1A963"/><path fill-rule="evenodd" clip-rule="evenodd" d="M229.22 163.54l-.339 2.52-13.706-7.97v-2.315l14.045 7.765z" fill="#DBC49E"/><path fill-rule="evenodd" clip-rule="evenodd" d="M223.182 163.201v2.315l4.409 2.588.068-2.315-4.477-2.588z" fill="#F0F0F0"/><path fill-rule="evenodd" clip-rule="evenodd" d="M226.845 165.653l.474.272v1.771l-.474-.273v-1.77zm-3.324-.204v-1.771l.475.272v1.771l-.475-.272zm.814.476v-1.77l.475.272v1.771l-.475-.273zm.882.477v-1.771l.474.273v1.77l-.474-.272zm.814.477v-1.771l.474.272v1.771l-.474-.272z" fill="#8A888B"/><path fill-rule="evenodd" clip-rule="evenodd" d="M228.881 163.746l13.027-7.56v2.247l-13.027 7.629v-2.316z" fill="#D1B68A"/><path fill-rule="evenodd" clip-rule="evenodd" d="M215.175 155.777l13.027-7.561 13.706 7.969-13.027 7.561-13.706-7.969z" fill="#EDDDC4"/><path fill-rule="evenodd" clip-rule="evenodd" d="M229.898 151.757l.204 1.021-.204 6.199-7.327-4.292v-7.152l7.327 4.224z" fill="#D1B68A"/><path fill-rule="evenodd" clip-rule="evenodd" d="M229.896 151.757l6.921-4.019v7.152l-6.921 4.087v-7.22z" fill="#C4A676"/><path fill-rule="evenodd" clip-rule="evenodd" d="M222.571 147.534l6.92-4.018 7.328 4.223-6.921 4.018-7.327-4.223z" fill="#C1A963"/><path fill-rule="evenodd" clip-rule="evenodd" d="M230.032 151.075l-.136 1.362-7.732-4.427v-1.294l7.868 4.359z" fill="#DBC49E"/><path fill-rule="evenodd" clip-rule="evenodd" d="M226.708 150.87v1.294l2.442 1.498V152.3l-2.442-1.43z" fill="#E7EEF6"/><path fill-rule="evenodd" clip-rule="evenodd" d="M228.744 152.235l.272.136v.953l-.272-.136v-.953zm-1.899-.137v-.953l.272.136v.954l-.272-.137zm.475.273v-.953l.271.136v.953l-.271-.136zm.475.34v-.953l.271.136v.954l-.271-.137zm.475.205v-.954l.271.136v.954l-.271-.136z" fill="#8A888B"/><path fill-rule="evenodd" clip-rule="evenodd" d="M229.896 151.211l7.326-4.29-.067 1.293-7.259 4.222v-1.225z" fill="#D1B68A"/><path fill-rule="evenodd" clip-rule="evenodd" d="M222.164 146.718l7.327-4.223 7.735 4.427-7.328 4.291-7.734-4.495z" fill="#EDDDC4"/><path fill-rule="evenodd" clip-rule="evenodd" d="M77.643 153.459l.272 1.362-.272 8.651-10.245-5.926v-10.013l10.245 5.926z" fill="#D1B68A"/><path fill-rule="evenodd" clip-rule="evenodd" d="M77.644 153.461l9.702-5.654v10.013l-9.702 5.654v-10.013z" fill="#C4A676"/><path fill-rule="evenodd" clip-rule="evenodd" d="M67.398 147.535l9.703-5.722 10.245 5.994-9.703 5.654-10.245-5.926z" fill="#C1A963"/><path fill-rule="evenodd" clip-rule="evenodd" d="M77.915 152.438l-.271 1.975-10.788-6.267v-1.771l11.059 6.063z" fill="#DBC49E"/><path fill-rule="evenodd" clip-rule="evenodd" d="M73.165 152.167v1.839l3.46 2.042v-1.838l-3.46-2.043z" fill="#F0F0F0"/><path fill-rule="evenodd" clip-rule="evenodd" d="M76.014 154.073l.407.205v1.362l-.407-.205v-1.362zm-2.577-.136v-1.362l.339.204v1.362l-.34-.204zm.61.341v-1.362l.34.204v1.362l-.34-.204zm.679.408v-1.362l.339.205v1.361l-.34-.204zm.678.409v-1.362l.34.204v1.362l-.34-.204z" fill="#8A888B"/><path fill-rule="evenodd" clip-rule="evenodd" d="M77.644 152.644l10.245-5.994v1.771l-10.245 5.994v-1.771z" fill="#D1B68A"/><path fill-rule="evenodd" clip-rule="evenodd" d="M66.856 146.377l10.245-5.926 10.788 6.199-10.245 5.994-10.788-6.267z" fill="#EDDDC4"/><path d="M166.595 214.559l-4.75 2.724-17.505-25.474 4.614-2.725 17.641 25.475z" fill="#965B14"/><path d="M149.835 205.432l15.673 9.059c.746.408 1.357.068 1.357-.818v-13.078c0-.885-.611-1.907-1.357-2.384l-15.673-9.059c-.747-.408-1.357-.068-1.357.818v13.078c0 .885.61 1.975 1.357 2.384z" fill="#965B14"/><path d="M164.151 215.308V202.23c0-.885-.611-1.907-1.357-2.384l-15.673-9.059c-.068 0-.543-.273-.611-.273.068-.681 1.086-.749 1.764-.408l15.674 9.059c.746.409 1.357 1.498 1.357 2.384v13.078c0 .817-.543 1.158-1.222.885.068-.068.068-.136.068-.204z" fill="#D1C46A"/><path d="M145.29 208.088l15.673 9.059c.746.408 1.357.068 1.357-.818v-13.078c0-.885-.611-1.907-1.357-2.384l-15.673-9.059c-.747-.408-1.357-.068-1.357.818v13.078c0 .885.61 1.975 1.357 2.384z" fill="#BD8542"/><path d="M160.895 199.165l2.035-1.226-1.357-.749-2.035 1.158 1.357.817z" fill="#FFE699"/><path d="M160.895 199.165v.341l-1.357-.75v-.408l1.357.817z" fill="#E0C163"/><path d="M162.93 197.939v.409l-2.035 1.157v-.34l2.035-1.226z" fill="#CCA83B"/><path d="M149.902 192.829l2.103-1.225-1.357-.749-2.103 1.225 1.357.749z" fill="#FFE699"/><path d="M149.902 192.83v.408l-1.357-.817v-.34l1.357.749z" fill="#E0C163"/><path d="M152.005 191.604v.408l-2.103 1.226v-.408l2.103-1.226z" fill="#CCA83B"/><path d="M157.231 196.032l-.475.272-.203-.817.339-.136.339.681z" fill="#4E4E5C"/><path d="M152.886 191.263l.475-.272 3.46 2.247-.204.545-3.731-2.52z" fill="#4C4C5C"/><path d="M157.095 193.511v2.588l-.475-.273v-2.042c0-.137-.136-.341-.272-.409l-2.441-1.43c-.136-.068-.272 0-.272.136v2.043l-.542-.272v-2.588c0-.136.135-.204.271-.136l3.459 1.975c.204.068.272.272.272.408z" fill="#4C4C5C"/><path d="M156.753 193.783v2.588l-.475-.273v-2.042c0-.137-.136-.341-.271-.409l-2.442-1.43c-.136-.068-.272 0-.272.136v2.043l-.542-.272v-2.588c0-.136.135-.204.271-.136l3.46 1.975c.135 0 .271.204.271.408z" fill="#2B2B38"/><path d="M153.296 194.329l.475-.273-.543-.885v.885l.068.273z" fill="#4C4C5C"/><path fill-rule="evenodd" clip-rule="evenodd" d="M102.476 193.376l.543 2.997-.61 18.391-21.848-12.67.068-21.319 21.847 12.601z" fill="#D1B68A"/><path fill-rule="evenodd" clip-rule="evenodd" d="M102.477 193.376l20.626-11.989-.068 21.32-20.626 12.056.068-21.387z" fill="#C4A676"/><path fill-rule="evenodd" clip-rule="evenodd" d="M80.629 180.774l20.694-12.056 21.78 12.669-20.626 11.988-21.848-12.601z" fill="#C1A963"/><path fill-rule="evenodd" clip-rule="evenodd" d="M102.952 191.264l-.475 4.155-22.934-13.282v-3.814l23.409 12.941z" fill="#DBC49E"/><path fill-rule="evenodd" clip-rule="evenodd" d="M92.91 190.719v3.882l7.393 4.29.068-3.882-7.461-4.29z" fill="#F0F0F0"/><path fill-rule="evenodd" clip-rule="evenodd" d="M99.015 194.737l.814.477v2.928l-.814-.477v-2.928zm-5.562-.34v-2.861l.814.477v2.928l-.814-.544zm1.424.817v-2.928l.814.476v2.928l-.814-.476zm1.425.817v-2.928l.814.476v2.86l-.814-.408zm1.356.817v-2.86l.814.477v2.928l-.814-.545z" fill="#8A888B"/><path fill-rule="evenodd" clip-rule="evenodd" d="M102.477 191.605l21.711-12.67v3.815l-21.711 12.669v-3.814z" fill="#D1B68A"/><path fill-rule="evenodd" clip-rule="evenodd" d="M79.543 178.322l21.712-12.669 22.934 13.282-21.712 12.67-22.934-13.283z" fill="#EDDDC4"/><path fill-rule="evenodd" clip-rule="evenodd" d="M170.19 144.879l.611 3.337-.678 21.047-24.901-14.44.068-24.453 24.9 14.509z" fill="#D1B68A"/><path fill-rule="evenodd" clip-rule="evenodd" d="M170.19 144.878l23.612-13.827-.068 24.453-23.611 13.759.067-24.385z" fill="#C4A676"/><path fill-rule="evenodd" clip-rule="evenodd" d="M145.289 130.369l23.612-13.759 24.901 14.44-23.612 13.828-24.901-14.509z" fill="#C1A963"/><path fill-rule="evenodd" clip-rule="evenodd" d="M170.801 142.427l-.611 4.699L144 131.937v-4.291l26.801 14.781z" fill="#DBC49E"/><path fill-rule="evenodd" clip-rule="evenodd" d="M159.267 141.745v4.428l8.481 4.972v-4.496l-8.481-4.904z" fill="#F0F0F0"/><path fill-rule="evenodd" clip-rule="evenodd" d="M166.253 146.376l.882.545v3.337l-.882-.545v-3.337zm-6.376-.409v-3.336l.882.545v3.336l-.882-.545zm1.628.954v-3.337l.882.545v3.337l-.882-.545zm1.628.953v-3.337l.882.545v3.337l-.882-.545zm1.56.885v-3.336l.882.544v3.337l-.882-.545z" fill="#8A888B"/><path fill-rule="evenodd" clip-rule="evenodd" d="M170.19 142.835l24.833-14.508v4.359l-24.833 14.441v-4.292z" fill="#D1B68A"/><path fill-rule="evenodd" clip-rule="evenodd" d="M144 127.646l24.833-14.509 26.19 15.19-24.833 14.508L144 127.646z" fill="#EDDDC4"/><path fill-rule="evenodd" clip-rule="evenodd" d="M170.733 122.537l.408 2.248-.408 14.168-16.758-9.741v-16.415l16.758 9.74z" fill="#D1B68A"/><path fill-rule="evenodd" clip-rule="evenodd" d="M170.733 122.537l15.877-9.263-.068 16.415-15.809 9.264v-16.416z" fill="#C4A676"/><path fill-rule="evenodd" clip-rule="evenodd" d="M153.974 112.796l15.877-9.263 16.759 9.74-15.877 9.264-16.759-9.741z" fill="#C1A963"/><path fill-rule="evenodd" clip-rule="evenodd" d="M171.141 120.903l-.408 3.133-17.573-10.149v-2.929l17.981 9.945z" fill="#DBC49E"/><path fill-rule="evenodd" clip-rule="evenodd" d="M163.406 120.426v2.996l5.698 3.336v-2.996l-5.698-3.336z" fill="#F0F0F0"/><path fill-rule="evenodd" clip-rule="evenodd" d="M168.086 123.558l.61.341v2.247l-.61-.341v-2.247zm-4.274-.272v-2.247l.611.34v2.247l-.611-.34zm1.086.613v-2.247l.61.34v2.247l-.61-.34zm1.085.681v-2.247l.611.34v2.247l-.611-.34zm1.085.544v-2.247l.611.341v2.247l-.611-.341z" fill="#8A888B"/><path fill-rule="evenodd" clip-rule="evenodd" d="M170.733 121.175l16.691-9.74v2.928l-16.691 9.673v-2.861z" fill="#D1B68A"/><path fill-rule="evenodd" clip-rule="evenodd" d="M153.16 110.958l16.691-9.74 17.573 10.217-16.691 9.74-17.573-10.217z" fill="#EDDDC4"/><path fill-rule="evenodd" clip-rule="evenodd" d="M184.643 162.111l2.374 12.806c.272 1.158 1.222 2.316 2.714 3.201 3.8 2.18 9.838 2.18 13.638 0 1.696-1.022 2.646-2.316 2.782-3.61l2.307-12.397c-.272 7.901-23.815 3.474-23.815 0z" fill="#96979B"/><path fill-rule="evenodd" clip-rule="evenodd" d="M204.929 157.275c-4.681-2.724-12.212-2.724-16.826 0-4.614 2.725-4.614 7.084.068 9.809 2.307 1.362 5.36 2.043 8.413 2.043s6.106-.681 8.413-2.043c4.614-2.725 4.614-7.084-.068-9.809z" fill="#9C9EA2"/><path fill-rule="evenodd" clip-rule="evenodd" d="M203.029 158.365c-3.596-2.112-9.431-2.112-12.959 0-3.596 2.112-3.528 5.449.068 7.561 3.596 2.111 9.431 2.111 12.959 0 3.528-2.044 3.528-5.449-.068-7.561z" fill="#331202"/><path fill-rule="evenodd" clip-rule="evenodd" d="M197.737 128.94c0 .068 0 .068 0 0v.34l-.068.068h-.067-.068-.068-.068c-.068 0-.068.068-.136.068h-.068s-.067.001-.067.069h-.136-.136-.203-.679-.136-.067c-.068 0-.068 0-.136-.069h-.068s-.068 0-.068-.068c-.271-.136-.339-.34-.339-.476v33.103c0 .204.136.341.339.477 0 0 .068 0 .068.068h.068c.068 0 .068 0 .136.068H196.584s.068 0 .068-.068h.067c.068 0 .068-.068.136-.068h.136l.068-.068v-.068-.069-.068-33.239h.678z" fill="#57260D"/><path fill-rule="evenodd" clip-rule="evenodd" d="M197.398 128.463c-.475-.273-1.221-.273-1.696 0-.475.272-.475.749 0 1.021.475.273 1.221.273 1.696 0 .474-.34.474-.749 0-1.021z" fill="#9C9EA2"/><path fill-rule="evenodd" clip-rule="evenodd" d="M196.516 113.546c8.346 0 15.063 6.198 15.063 13.759 0 7.629-6.785 13.759-15.063 13.759-8.345 0-15.062-6.198-15.062-13.759s6.785-13.759 15.062-13.759z" fill="#669839"/><path fill-rule="evenodd" clip-rule="evenodd" d="M211.579 126.011c.068.477.068.885.068 1.362 0 7.629-6.785 13.759-15.063 13.759-8.345 0-15.063-6.198-15.063-13.759 0-.477 0-.885.068-1.362 2.986 4.087 8.617 6.879 14.995 6.879 6.378-.068 11.942-2.792 14.995-6.879z" fill="#5E8838"/><path fill-rule="evenodd" clip-rule="evenodd" d="M101.73 171.511l.339 2.248-.407 13.691-16.216-9.4.068-15.939 16.216 9.4z" fill="#D1B68A"/><path fill-rule="evenodd" clip-rule="evenodd" d="M101.73 171.511l15.334-8.923-.068 15.871-15.334 8.991.068-15.939z" fill="#C4A676"/><path fill-rule="evenodd" clip-rule="evenodd" d="M85.514 162.111l15.334-8.923 16.216 9.4-15.334 8.923-16.216-9.4z" fill="#C1A963"/><path fill-rule="evenodd" clip-rule="evenodd" d="M102.069 169.942l-.339 3.065-17.098-9.876.068-2.793 17.369 9.604z" fill="#DBC49E"/><path fill-rule="evenodd" clip-rule="evenodd" d="M94.606 169.536v2.86l5.494 3.201v-2.86l-5.494-3.201z" fill="#F0F0F0"/><path fill-rule="evenodd" clip-rule="evenodd" d="M99.15 172.532l.611.341v2.179l-.61-.341v-2.179zm-4.137-.272v-2.179l.61.34v2.179l-.61-.34zm1.017.613v-2.179l.61.34v2.179l-.61-.34zm1.086.613v-2.179l.61.34v2.179l-.61-.34zm1.017.613v-2.179l.61.34v2.179l-.61-.34z" fill="#8A888B"/><path fill-rule="evenodd" clip-rule="evenodd" d="M101.73 170.217l16.148-9.399v2.792l-16.148 9.4v-2.793z" fill="#D1B68A"/><path fill-rule="evenodd" clip-rule="evenodd" d="M84.702 160.341l16.08-9.4 17.098 9.876-16.148 9.4-17.03-9.876z" fill="#EDDDC4"/><path fill-rule="evenodd" clip-rule="evenodd" d="M100.306 157.205l.203 1.431-.271 8.65-10.246-5.994.068-10.012 10.246 5.925z" fill="#D1B68A"/><path fill-rule="evenodd" clip-rule="evenodd" d="M100.306 157.207l9.702-5.654v10.013l-9.77 5.722.068-10.081z" fill="#C4A676"/><path fill-rule="evenodd" clip-rule="evenodd" d="M90.06 151.281l9.703-5.653 10.245 5.926-9.703 5.653-10.245-5.926z" fill="#C1A963"/><path fill-rule="evenodd" clip-rule="evenodd" d="M100.509 156.184l-.203 1.975-10.788-6.266v-1.771l10.991 6.062z" fill="#DBC49E"/><path fill-rule="evenodd" clip-rule="evenodd" d="M95.828 155.913l-.068 1.839 3.527 2.042v-1.838l-3.46-2.043z" fill="#F0F0F0"/><path fill-rule="evenodd" clip-rule="evenodd" d="M98.677 157.82l.406.204v1.362l-.406-.204v-1.362zm-2.646-.137v-1.361l.34.204v1.362l-.34-.205zm.678.409v-1.362l.34.204v1.362l-.34-.204zm.679.341v-1.362l.339.204v1.362l-.34-.204zm.61.408v-1.362l.34.204v1.362l-.34-.204z" fill="#8A888B"/><path fill-rule="evenodd" clip-rule="evenodd" d="M100.306 156.39l10.177-5.994v1.839l-10.177 5.926v-1.771z" fill="#D1B68A"/><path fill-rule="evenodd" clip-rule="evenodd" d="M89.518 150.123l10.177-5.926 10.788 6.199-10.177 5.994-10.788-6.267z" fill="#EDDDC4"/><path fill-rule="evenodd" clip-rule="evenodd" d="M142.915 165.585l.543 2.997-.611 18.391-21.78-12.669.068-21.32 21.78 12.601z" fill="#D1B68A"/><path fill-rule="evenodd" clip-rule="evenodd" d="M142.915 165.585l20.694-11.988-.068 21.32-20.694 12.056.068-21.388z" fill="#C4A676"/><path fill-rule="evenodd" clip-rule="evenodd" d="M121.135 152.983l20.626-12.056 21.848 12.669-20.694 11.988-21.78-12.601z" fill="#C1A963"/><path fill-rule="evenodd" clip-rule="evenodd" d="M143.458 163.474l-.543 4.155-22.933-13.283.068-3.814 23.408 12.942z" fill="#DBC49E"/><path fill-rule="evenodd" clip-rule="evenodd" d="M133.348 162.928v3.882l7.461 4.29v-3.881l-7.461-4.291z" fill="#F0F0F0"/><path fill-rule="evenodd" clip-rule="evenodd" d="M139.453 166.946l.814.477v2.928l-.814-.476v-2.929zm-5.562-.34v-2.86l.814.477v2.928l-.814-.545zm1.424.817v-2.928l.814.477v2.928l-.814-.477zm1.425.817v-2.928l.814.477v2.86l-.814-.409zm1.356.817v-2.86l.814.477v2.928l-.814-.545z" fill="#8A888B"/><path fill-rule="evenodd" clip-rule="evenodd" d="M142.915 163.814l21.712-12.669v3.814l-21.712 12.669v-3.814z" fill="#D1B68A"/><path fill-rule="evenodd" clip-rule="evenodd" d="M120.051 150.532l21.644-12.669 22.934 13.282-21.712 12.669-22.866-13.282z" fill="#EDDDC4"/><path fill-rule="evenodd" clip-rule="evenodd" d="M137.894 144.264l.204 1.43-.272 8.651-10.245-5.994v-10.013l10.313 5.926z" fill="#D1B68A"/><path fill-rule="evenodd" clip-rule="evenodd" d="M137.894 144.266l9.703-5.654-.068 10.013-9.703 5.722.068-10.081z" fill="#C4A676"/><path fill-rule="evenodd" clip-rule="evenodd" d="M127.581 138.34l9.77-5.654 10.245 5.926-9.702 5.654-10.313-5.926z" fill="#C1A963"/><path fill-rule="evenodd" clip-rule="evenodd" d="M138.098 143.242l-.204 1.976-10.788-6.267v-1.771l10.992 6.062z" fill="#DBC49E"/><path fill-rule="evenodd" clip-rule="evenodd" d="M133.348 142.972v1.838l3.528 2.043v-1.838l-3.528-2.043z" fill="#F0F0F0"/><path fill-rule="evenodd" clip-rule="evenodd" d="M136.266 144.878l.407.205v1.362l-.407-.205v-1.362zm-2.646-.136v-1.362l.339.205v1.362l-.339-.205zm.678.409v-1.362l.34.204v1.362l-.34-.204zm.679.408v-1.361l.339.204v1.362l-.339-.205zm.61.341v-1.362l.339.204v1.362l-.339-.204z" fill="#8A888B"/><path fill-rule="evenodd" clip-rule="evenodd" d="M137.894 143.449l10.178-5.926v1.771l-10.178 5.925v-1.77z" fill="#D1B68A"/><path fill-rule="evenodd" clip-rule="evenodd" d="M127.106 137.182l10.178-5.926 10.788 6.266-10.178 5.926-10.788-6.266z" fill="#EDDDC4"/><path fill-rule="evenodd" clip-rule="evenodd" d="M119.642 217.76l.204 1.021-.204 6.131-7.327-4.224v-7.152l7.327 4.224z" fill="#D1B68A"/><path fill-rule="evenodd" clip-rule="evenodd" d="M119.641 217.759l6.92-4.019v7.152l-6.92 4.019v-7.152z" fill="#C4A676"/><path fill-rule="evenodd" clip-rule="evenodd" d="M112.315 213.537l6.92-4.087 7.328 4.292-6.921 4.018-7.327-4.223z" fill="#C1A963"/><path fill-rule="evenodd" clip-rule="evenodd" d="M119.776 217.009l-.135 1.43-7.733-4.494v-1.226l7.868 4.29z" fill="#DBC49E"/><path fill-rule="evenodd" clip-rule="evenodd" d="M116.452 216.873v1.294l2.442 1.43v-1.294l-2.442-1.43z" fill="#E7EEF6"/><path fill-rule="evenodd" clip-rule="evenodd" d="M118.487 218.167l.272.136v.953l-.272-.136v-.953zm-1.899-.068v-.954l.271.137v.953l-.271-.136zm.475.272v-.953l.271.136v.953l-.271-.136zm.475.273v-.954l.271.136v.954l-.271-.136zm.474.272v-.953l.272.136v.953l-.272-.136z" fill="#8A888B"/><path fill-rule="evenodd" clip-rule="evenodd" d="M119.641 217.146l7.325-4.222-.067 1.225-7.258 4.29v-1.293z" fill="#D1B68A"/><path fill-rule="evenodd" clip-rule="evenodd" d="M111.908 212.72l7.327-4.291 7.735 4.496-7.327 4.223-7.735-4.428z" fill="#EDDDC4"/><path d="M143.051 180.775l.61-.136 3.324 3.541-.339.612-3.595-4.017z" fill="#FFD052"/><path d="M147.256 184.588l-.746 2.928-.475-.477.611-2.315a.533.533 0 00-.136-.545l-2.374-2.315c-.136-.136-.271-.068-.339.068l-.611 2.316-.542-.477.746-2.928c.068-.205.203-.205.339-.068l3.391 3.336c.136 0 .204.273.136.477z" fill="#FFD052"/><path d="M146.713 184.724l-.746 2.928-.475-.476.611-2.315a.53.53 0 00-.136-.545l-2.374-2.315c-.136-.137-.271-.069-.339.068l-.611 2.315-.542-.477.746-2.928c.068-.204.203-.204.339-.068l3.392 3.337c.135.068.203.34.135.476z" fill="#915C19"/><path d="M130.973 191.672l1.696-5.653c.543-1.907 2.579-3.746 4.478-4.223l2.579-.613c1.153-.273 1.832.409 1.492 1.567l-4.003 13.554c-.271.886-2.307 6.199-3.189 6.403l-2.442.545 3.528-12.465-4.139.885z" fill="#A7BD29"/><path d="M132.534 202.57l-1.493.341c-1.085.272-1.764-.409-1.425-1.499l4.614-16.074c.339-1.09 1.493-2.18 2.578-2.453l2.307-.544c.611-.137 1.018.204.815.885l-3.732 12.533c-.272 1.022-2.511 6.539-3.664 6.811zm4.207-19.48c-.95.204-1.968 1.158-2.239 2.111l-4.614 16.075c-.272.954.271 1.499 1.221 1.294l1.493-.34c.95-.205 3.053-5.586 3.324-6.539l3.732-12.533c.136-.477-.136-.749-.61-.681l-2.307.613z" fill="#C9750E"/><path d="M149.428 192.286c.135-.545.067-.954-.204-1.158 0-.068-.068-.068-.068-.136s-.068-.068-.068-.137c0-.068-.067-.068-.067-.136s-.068-.068-.068-.136-.068-.068-.068-.136-.068-.068-.068-.136c0-.069-.068-.069-.068-.137s-.068-.068-.068-.136-.068-.068-.068-.136-.067-.068-.067-.136-.068-.068-.068-.137c0-.068-.068-.068-.068-.136s-.068-.068-.068-.136-.068-.068-.068-.136-.068-.068-.068-.136c0-.069-.068-.069-.068-.137s-.067-.068-.067-.136-.068-.068-.068-.136-.068-.068-.068-.136c0-.069-.068-.069-.068-.137s-.068-.068-.068-.136-.068-.068-.068-.136-.067-.068-.067-.136-.068-.068-.068-.137c0-.068-.068-.068-.068-.136s-.068-.068-.068-.136-.068-.068-.068-.136-.068-.068-.068-.136c0-.069-.068-.069-.068-.137s-.067-.068-.067-.136-.068-.068-.068-.136-.068-.068-.068-.136-.068-.068-.068-.137c0-.068-.068-.068-.068-.136s-.068-.068-.068-.136-.068-.068-.068-.136-.067-.068-.067-.136c0-.069-.068-.069-.068-.137s-.068-.068-.068-.136-.068-.068-.068-.136-.068-.068-.068-.136c0-.069-.068-.069-.068-.137s-.067-.068-.067-.136-.068-.068-.068-.136-.068-.068-.068-.136-.068-.068-.068-.137c0-.068-.068-.068-.068-.136s-.068-.068-.068-.136-.068-.068-.068-.136-.067-.068-.067-.136c0-.069-.068-.069-.068-.137s-.068-.068-.068-.136-.068-.068-.068-.136-.068-.068-.068-.136-.068-.068-.068-.137c0-.068-.068-.068-.068-.136s-.067-.068-.067-.136-.068-.068-.068-.136-.068-.068-.068-.137c0-.068-.068-.068-.068-.136s-.068-.068-.068-.136-.068-.068-.068-.136-.067-.068-.067-.136c0-.069-.068-.069-.068-.137s-.068-.068-.068-.136-.068-.068-.068-.136-.068-.068-.068-.136-.068-.068-.068-.137c0-.068-.068-.068-.068-.136s-.067-.068-.067-.136-.068-.068-.068-.136-.068-.068-.068-.136c0-.069-.068-.069-.068-.137s-.068-.068-.068-.136-.068-.068-.068-.136-.068-.068-.068-.136c0-.069-.067-.068-.067-.137 0-.068-.068-.068-.068-.136s-.068-.068-.068-.136-.068-.068-.068-.136-.068-.068-.068-.137c0-.068-.068-.068-.068-.136s-.067-.068-.067-.136-.068-.068-.068-.136-.068-.068-.068-.136c0-.069-.068-.069-.068-.137s-.068-.068-.068-.136c-.203-.272-.611-.409-1.153-.272l-2.307.545c-1.493.34-2.986 1.839-3.461 3.269l-4.613 16.075c-.204.749-.136 1.362.271 1.703 0 .068.068.068.068.136s.068.068.068.136.068.068.068.136c0 .069.067.069.067.137s.068.068.068.136.068.068.068.136.068.068.068.136.068.069.068.137.068.068.068.136.068.068.068.136.067.068.067.136.068.068.068.137c0 .068.068.068.068.136s.068.068.068.136.068.068.068.136.068.068.068.136c0 .069.068.069.068.137s.067.068.067.136.068.068.068.136.068.068.068.136.068.068.068.137c0 .068.068.068.068.136s.068.068.068.136.067.068.067.136.068.068.068.136c0 .069.068.069.068.137s.068.068.068.136.068.068.068.136.068.068.068.136c0 .069.068.069.068.137s.067.068.067.136.068.068.068.136.068.068.068.136.068.068.068.137c0 .068.068.068.068.136s.068.068.068.136.068.068.068.136.067.068.067.136c0 .069.068.069.068.137s.068.068.068.136.068.068.068.136.068.068.068.136.068.068.068.137c0 .068.067.068.067.136s.068.068.068.136.068.068.068.136.068.068.068.137c0 .068.068.068.068.136s.068.068.068.136.068.068.068.136.067.068.067.136c0 .069.068.069.068.137s.068.068.068.136.068.068.068.136.068.068.068.136.068.068.068.137c0 .068.068.068.068.136s.067.068.067.136.068.068.068.136.068.068.068.136c0 .069.068.069.068.137s.068.068.068.136.068.068.068.136.067.068.067.136.068.069.068.137.068.068.068.136.068.068.068.136.068.068.068.136.068.068.068.137c0 .068.068.068.068.136s.067.068.067.136.068.068.068.136.068.068.068.136c0 .069.068.069.068.137s.068.068.068.136.068.068.068.136.068.068.068.136.067.068.067.137c0 .068.068.068.068.136s.068.068.068.136.068.068.068.136.068.068.068.136c0 .069.068.069.068.137s.067.068.067.136.068.068.068.136.068.068.068.136c0 .069.068.069.068.137.339.408.95.545 1.696.34l1.493-.34c1.493-.341 2.985-1.839 3.46-3.27l4.818-16.892z" fill="#82960E"/><path d="M130.973 191.672l8.753 9.264 1.221-2.112s.204-3.474 1.493-5.108c1.289-1.635 3.256-2.589 4.817-2.793 1.561-.205 2.443-.136 2.443-.136l-8.889-9.4s-4.613.204-6.106 1.907c-1.493 1.635-3.732 8.378-3.732 8.378z" fill="#A7BD29"/><path d="M146.239 195.215l-13.095-13.896 6.242-1.566 13.163 13.963-6.31 1.499z" fill="#B3CF13"/><path d="M139.726 200.936l1.697-5.653c.542-1.908 2.578-3.747 4.478-4.223l2.578-.613c1.153-.273 1.832.408 1.493 1.566l-5.157 17.914c-.271.886-1.221 1.771-2.103 1.976l-2.443.544 3.528-12.464-4.071.953z" fill="#4C5900"/><path d="M141.151 212.448l-1.493.34c-1.492.341-2.307-.545-1.9-1.975l4.614-16.075c.407-1.43 1.968-2.929 3.461-3.269l2.307-.545c1.017-.273 1.56.34 1.289 1.362l-4.818 16.96c-.475 1.431-2.035 2.861-3.46 3.202z" fill="#73850C"/><path d="M138.505 212.992a.99.99 0 01-.611-.408c-.407-.409-.475-1.09-.271-1.839l4.614-16.075c.203-.749.678-1.499 1.357-2.112.678-.613 1.424-1.09 2.171-1.294l2.307-.545c.543-.136 1.017-.068 1.289.273.271.272.339.749.203 1.294l-4.817 16.96c-.203.749-.678 1.499-1.357 2.112-.678.613-1.425 1.09-2.171 1.294l-1.493.34c-.475.137-.882.137-1.221 0zm10.313-21.932c-.203-.068-.407-.068-.678 0l-2.307.545c-1.425.34-2.918 1.771-3.325 3.133l-4.614 16.075c-.203.613-.135 1.158.204 1.498.339.341.814.409 1.493.273l1.492-.341.068.136-.068-.136c1.425-.34 2.918-1.771 3.325-3.133l4.817-16.96c.136-.409.068-.75-.136-.954-.067-.068-.135-.136-.271-.136z" fill="#536100"/><path d="M141.355 211.835l-1.493.34c-1.086.273-1.764-.408-1.425-1.498l4.614-16.075c.339-1.09 1.493-2.18 2.578-2.452l2.307-.545c.611-.136 1.018.204.814.885l-4.817 16.961c-.339 1.022-1.493 2.111-2.578 2.384zm4.139-19.481c-.95.205-1.968 1.158-2.239 2.112l-4.614 16.075c-.272.953.271 1.498 1.221 1.294l1.493-.341c.95-.204 1.967-1.158 2.239-2.111l4.817-16.961c.136-.477-.136-.749-.611-.681l-2.306.613z" fill="#FFD052"/><path d="M137.894 196.032l-2.171 7.288v2.589l1.153-1.363 2.171-7.288-1.153-1.226zm.068 1.431l.271.34-.136.409-.271-.341.136-.408zm-1.493 6.47l-.271-.34.135-.409.272.341-.136.408zm.475-1.498l-.271-.273.135-.408.272.272-.136.409z" fill="#915C19"/><path d="M138.504 200.39l-1.764-1.906c-.203.068-1.289 3.813-1.289 3.813l1.764 1.907c.204-.136 1.289-3.814 1.289-3.814zm-2.578 1.703l.882-2.996.543.544-.611 2.111.204.205c.203-.068.746-1.975.746-1.975l.475.477-.882 2.996-1.357-1.362z" fill="#A87B00"/><path d="M136.537 198.552l-1.086 3.677 1.764 1.907 1.085-3.677-1.763-1.907zm.542 5.175l-1.424-1.498.95-3.2.61.681-.61 2.111.203.204.611-2.111.61.613-.95 3.2z" fill="#FFD052"/><path d="M132.873 190.515l-2.171 7.288v2.589l1.153-1.363 2.172-7.288-1.154-1.226zm.068 1.431l.271.34-.135.409-.272-.341.136-.408zm-1.493 6.402l-.271-.34.136-.409.271.341-.136.408zm.475-1.43l-.271-.273.136-.408.271.272-.136.409z" fill="#915C19"/><path d="M133.483 194.805l-1.764-1.907c-.203.069-1.288 3.814-1.288 3.814l1.763 1.907c.204-.069 1.289-3.814 1.289-3.814zm-2.645 1.771l.881-2.997.543.545-.61 2.111.203.204c.204-.068.746-1.974.746-1.974l.475.476-.882 2.997-1.356-1.362z" fill="#A87B00"/><path d="M131.516 193.035l-1.085 3.677 1.763 1.907 1.086-3.678-1.764-1.906zm.543 5.107l-1.425-1.498.95-3.201.61.681-.61 2.111.203.204.611-2.111.61.613-.949 3.201z" fill="#FFD052"/><path d="M170.869 105.166c-1.764 0-3.461-.409-4.75-1.158-1.289-.749-2.035-1.771-2.035-2.929 0-1.09.746-2.111 2.035-2.929 1.289-.749 2.918-1.158 4.75-1.158 1.832 0 3.46.409 4.749 1.158 1.289.75 2.036 1.771 2.036 2.929 0 1.09-.747 2.112-2.036 2.929-1.289.749-2.917 1.158-4.749 1.158zm0-7.493c-1.629 0-3.189.341-4.411 1.09-1.153.681-1.764 1.499-1.764 2.384 0 .886.611 1.771 1.764 2.384 1.222.681 2.85 1.09 4.411 1.09 1.628 0 3.189-.34 4.41-1.09 1.153-.681 1.764-1.498 1.764-2.384 0-.885-.611-1.77-1.764-2.384-1.154-.749-2.782-1.09-4.41-1.09z" fill="#B1BAC4"/><path d="M170.869 115.862c-.203 0-.407-.204-.407-.409l-.068-15.802c0-.204.204-.409.407-.409.204 0 .408.204.408.409l.067 15.802c0 .273-.135.409-.407.409zM162.863 111.228c-.068 0-.136 0-.204-.068-.203-.136-.271-.34-.135-.545.475-.749 1.017-2.792 1.289-8.241.136-3.27.136-6.267.136-6.335 0-.204.135-.409.407-.409.203 0 .407.205.407.41 0 0 .068 3.064-.136 6.334-.203 4.495-.678 7.424-1.425 8.582-.068.204-.203.272-.339.272zM178.74 111.23a.374.374 0 01-.34-.204c-.678-1.226-1.153-4.087-1.424-8.583-.136-3.337-.136-6.334-.136-6.334 0-.204.203-.409.407-.409.203 0 .407.204.407.409 0 0-.068 2.997.136 6.334.271 5.45.882 7.493 1.289 8.242.136.205.068.409-.136.545h-.203z" fill="#B1BAC4"/><path d="M170.869 100.331c4.084 0 7.395-1.92 7.395-4.29s-3.311-4.292-7.395-4.292c-4.085 0-7.396 1.921-7.396 4.291s3.311 4.291 7.396 4.291z" fill="#A2AEBA"/><path d="M178.332 93.657c0-1.09-.746-2.18-2.171-3.065-2.917-1.703-7.599-1.703-10.517 0-1.425.817-2.171 1.975-2.171 3.065 0 1.09.746 2.18 2.171 3.065 2.918 1.703 7.6 1.703 10.517 0 1.425-.817 2.171-1.975 2.171-3.065 0 .068 0 .068 0 0 0 .068 0 .068 0 0 0 .068 0 0 0 0z" fill="#B02727"/><path d="M170.869 97.948c4.084 0 7.395-1.921 7.395-4.291s-3.311-4.291-7.395-4.291c-4.085 0-7.396 1.92-7.396 4.29s3.311 4.292 7.396 4.292z" fill="#E65353"/><path fill-rule="evenodd" clip-rule="evenodd" d="M135.723 96.245l.475 2.725-.543 16.688-19.88-11.512.068-19.412 19.88 11.511z" fill="#D1B68A"/><path fill-rule="evenodd" clip-rule="evenodd" d="M135.723 96.245l18.794-10.966-.068 19.412-18.794 10.967.068-19.413z" fill="#C4A676"/><path fill-rule="evenodd" clip-rule="evenodd" d="M115.843 84.733l18.794-10.966 19.88 11.511-18.794 10.966-19.88-11.51z" fill="#C1A963"/><path fill-rule="evenodd" clip-rule="evenodd" d="M136.198 94.27l-.475 3.814-20.898-12.124v-3.406l21.373 11.716z" fill="#DBC49E"/><path fill-rule="evenodd" clip-rule="evenodd" d="M127.038 93.793l-.068 3.541 6.783 3.881v-3.54l-6.715-3.882z" fill="#F0F0F0"/><path fill-rule="evenodd" clip-rule="evenodd" d="M132.533 97.403l.746.408v2.656l-.746-.409v-2.656zm-5.02-.273v-2.656l.746.409v2.656l-.746-.409zm1.289.75v-2.657l.746.409v2.656l-.746-.409zm1.289.748v-2.656l.746.41v2.655l-.746-.409zm1.221.75v-2.656l.746.408v2.656l-.746-.409z" fill="#8A888B"/><path fill-rule="evenodd" clip-rule="evenodd" d="M135.723 94.61L155.467 83.1v3.406l-19.744 11.58V94.61z" fill="#D1B68A"/><path fill-rule="evenodd" clip-rule="evenodd" d="M114.825 82.554l19.812-11.579 20.83 12.124-19.744 11.511-20.898-12.056z" fill="#EDDDC4"/><path fill-rule="evenodd" clip-rule="evenodd" d="M135.927 75.334l.339 2.248-.407 13.69-16.216-9.467v-15.87l16.284 9.399z" fill="#D1B68A"/><path fill-rule="evenodd" clip-rule="evenodd" d="M135.926 75.334l15.334-8.923-.067 15.87-15.334 8.992.067-15.939z" fill="#C4A676"/><path fill-rule="evenodd" clip-rule="evenodd" d="M119.642 65.934l15.402-8.923 16.216 9.4-15.334 8.922-16.284-9.4z" fill="#C1A963"/><path fill-rule="evenodd" clip-rule="evenodd" d="M136.266 73.767l-.407 3.066-17.031-9.877v-2.793l17.438 9.605z" fill="#DBC49E"/><path fill-rule="evenodd" clip-rule="evenodd" d="M128.802 73.359v2.86l5.495 3.2v-2.86l-5.495-3.2z" fill="#F0F0F0"/><path fill-rule="evenodd" clip-rule="evenodd" d="M133.279 76.356l.611.34v2.18l-.611-.341v-2.18zm-4.07-.273v-2.179l.611.34v2.18l-.611-.34zm1.018.613v-2.18l.61.341v2.18l-.61-.341zm1.085.613v-2.18l.611.341v2.18l-.611-.341zm1.018.613v-2.18l.61.341v2.18l-.61-.341z" fill="#8A888B"/><path fill-rule="evenodd" clip-rule="evenodd" d="M135.926 74.04l16.081-9.4v2.793l-16.148 9.4.067-2.793z" fill="#D1B68A"/><path fill-rule="evenodd" clip-rule="evenodd" d="M118.828 64.163l16.149-9.4 17.03 9.877-16.081 9.4-17.098-9.877z" fill="#EDDDC4"/><path fill-rule="evenodd" clip-rule="evenodd" d="M134.501 61.029l.204 1.43-.271 8.582-10.246-5.926V55.103l10.313 5.925z" fill="#D1B68A"/><path fill-rule="evenodd" clip-rule="evenodd" d="M134.501 61.03l9.703-5.653-.068 10.012-9.702 5.654.067-10.013z" fill="#C4A676"/><path fill-rule="evenodd" clip-rule="evenodd" d="M124.188 55.104l9.771-5.653 10.245 5.926-9.703 5.653-10.313-5.926z" fill="#C1A963"/><path fill-rule="evenodd" clip-rule="evenodd" d="M134.705 60.007l-.203 1.975-10.788-6.266v-1.771l10.991 6.062z" fill="#DBC49E"/><path fill-rule="evenodd" clip-rule="evenodd" d="M129.956 59.736v1.839l3.527 2.043v-1.839l-3.527-2.043z" fill="#F0F0F0"/><path fill-rule="evenodd" clip-rule="evenodd" d="M132.873 61.643l.407.204v1.362l-.407-.204v-1.362zm-2.646-.136v-1.362l.339.204v1.362l-.339-.204zm.678.408v-1.362l.34.205v1.361l-.34-.204zm.679.34v-1.361l.339.204v1.362l-.339-.204zm.61.41v-1.363l.339.205v1.361l-.339-.204z" fill="#8A888B"/><path fill-rule="evenodd" clip-rule="evenodd" d="M134.501 60.213l10.178-5.994v1.771l-10.178 5.994v-1.771z" fill="#D1B68A"/><path fill-rule="evenodd" clip-rule="evenodd" d="M123.714 53.946l10.177-5.926 10.788 6.199-10.177 5.994-10.788-6.267z" fill="#EDDDC4"/><path d="M168.765 181.794c-1.764 0-3.46-.408-4.749-1.158-1.289-.749-2.036-1.771-2.036-2.929 0-1.089.747-2.111 2.036-2.928 1.289-.75 2.917-1.158 4.749-1.158 1.832 0 3.461.408 4.75 1.158 1.289.749 2.035 1.771 2.035 2.928 0 1.09-.746 2.112-2.035 2.929-1.289.75-2.918 1.158-4.75 1.158zm0-7.492c-1.628 0-3.189.34-4.41 1.09-1.153.681-1.764 1.498-1.764 2.384 0 .885.611 1.771 1.764 2.384 1.221.681 2.85 1.089 4.41 1.089 1.629 0 3.189-.34 4.41-1.089 1.154-.682 1.765-1.499 1.765-2.384 0-.886-.611-1.771-1.765-2.384-1.153-.75-2.781-1.09-4.41-1.09z" fill="#B1BAC4"/><path d="M168.766 192.49c-.204 0-.407-.204-.407-.409l-.068-15.802c0-.204.203-.409.407-.409.203 0 .407.205.407.409l.068 15.802c0 .273-.136.409-.407.409zM160.759 187.857c-.067 0-.135 0-.203-.068-.204-.137-.271-.341-.136-.545.475-.75 1.018-2.793 1.289-8.242.136-3.27.136-6.267.136-6.335 0-.204.136-.408.407-.408.204 0 .407.204.407.408 0 0 .068 3.065-.135 6.335-.204 4.495-.679 7.424-1.425 8.582-.068.205-.204.273-.34.273zM176.637 187.858a.374.374 0 01-.34-.204c-.678-1.226-1.153-4.087-1.424-8.582-.136-3.338-.136-6.335-.136-6.335 0-.204.203-.409.407-.409.203 0 .407.205.407.409 0 0-.068 2.997.136 6.335.271 5.449.882 7.492 1.289 8.241.136.205.068.409-.136.545h-.203z" fill="#B1BAC4"/><path d="M168.765 176.959c4.085 0 7.396-1.921 7.396-4.291s-3.311-4.291-7.396-4.291c-4.084 0-7.395 1.921-7.395 4.291s3.311 4.291 7.395 4.291z" fill="#A2AEBA"/><path d="M176.229 170.285c0-1.09-.746-2.18-2.171-3.065-2.918-1.703-7.599-1.703-10.517 0-1.425.817-2.171 1.975-2.171 3.065 0 1.09.746 2.18 2.171 3.065 2.918 1.703 7.599 1.703 10.517 0 1.425-.817 2.171-1.975 2.171-3.065 0 .068 0 .068 0 0 0 .068 0 .068 0 0 0 .068 0 .068 0 0 0 .068 0 0 0 0z" fill="#B02727"/><path d="M168.765 174.576c4.085 0 7.396-1.921 7.396-4.291s-3.311-4.291-7.396-4.291c-4.084 0-7.395 1.921-7.395 4.291s3.311 4.291 7.395 4.291z" fill="#E65353"/></g><defs><clipPath id="arclip0"><path fill="#fff" d="M0 0h272v259.446H0z"/></clipPath></defs></svg>