<?xml version="1.0" encoding="utf-8"?><svg width="272" height="260" fill="none" xmlns="http://www.w3.org/2000/svg" viewBox="0 0 272 260"><g clip-path="url(#asclip0)"><path fill-rule="evenodd" clip-rule="evenodd" d="M.123 172.348l-.061 8.753 136.371 78.345.558-1.911-.496-6.842-22.553-15.41L.123 172.348z" fill="#8A6633"/><path fill-rule="evenodd" clip-rule="evenodd" d="M135.627 94.002L.123 172.348l136.372 78.345 135.504-78.345-136.372-78.346z" fill="#BD9257"/><path fill-rule="evenodd" clip-rule="evenodd" d="M272 172.348l-.062 8.753-135.504 78.345.062-8.753L272 172.348z" fill="#A37C44"/><path fill-rule="evenodd" clip-rule="evenodd" d="M5.328 81.058l1.425 39.018-1.797 55.415-4.894-2.835.31-94.372 4.956 2.774z" fill="#E6E6E6" stroke="#E0DAD9" stroke-width=".216" stroke-miterlimit="22.926"/><path fill-rule="evenodd" clip-rule="evenodd" d="M135.814 4.87l3.098 49.312-3.47 45.861L4.956 175.491l.372-95.173L135.814 4.87z" fill="#DCDCDA"/><path fill-rule="evenodd" clip-rule="evenodd" d="M267.105 80.318l2.479 35.813-2.789 59.36-131.353-75.448.372-95.173 131.291 75.448z" fill="#E6E6E6"/><path fill-rule="evenodd" clip-rule="evenodd" d="M271.998 78.284l-4.895 2.774L135.812 5.609 5.327 81.058.37 78.284 135.75 0l136.248 78.284z" fill="#F0F0F0"/><path fill-rule="evenodd" clip-rule="evenodd" d="M272 78.284l-.31 94.372-4.895 2.835.31-94.433L272 78.284z" fill="#DCDCDA"/><path d="M119.209 34.519l29.059 88.085-1.673-1.048-27.386-83.832V34.52z" fill="#fff"/><path d="M118.156 35.136l28.997 88.084-1.611-1.048-27.386-83.77v-3.267z" fill="#666"/><path d="M119.209 34.519l-1.053.617 28.997 88.084 1.115-.616-29.059-88.085z" fill="#3C3A3B"/><path d="M118.651 38.649l-11.525 6.596.992 1.294 11.4-7.335-.867-.555z" fill="#999"/><path d="M120.077 40.93l-12.516 7.212-.62-1.85 12.578-7.088.558 1.726z" fill="#3C3A3B"/><path d="M121.996 48.943l-11.463 6.596.93 1.294 11.4-7.335-.867-.555z" fill="#999"/><path d="M123.422 51.224l-12.515 7.212-.62-1.85 12.578-7.088.557 1.726z" fill="#3C3A3B"/><path d="M125.404 59.237l-11.463 6.596.93 1.294 11.4-7.335-.867-.555z" fill="#999"/><path d="M126.83 61.518l-12.515 7.212-.62-1.85 12.578-7.088.557 1.726z" fill="#3C3A3B"/><path d="M128.812 69.531l-11.525 6.596.992 1.294 11.4-7.335-.867-.555z" fill="#999"/><path d="M130.238 71.812l-12.516 7.212-.619-1.85 12.577-7.088.558 1.726z" fill="#3C3A3B"/><path d="M132.158 79.825l-11.463 6.596.992 1.294 11.4-7.335-.929-.555z" fill="#999"/><path d="M133.646 82.106l-12.516 7.212-.62-1.85 12.578-7.088.558 1.726z" fill="#3C3A3B"/><path d="M135.565 90.119l-11.462 6.596.929 1.294 11.401-7.335-.868-.555z" fill="#999"/><path d="M136.992 92.4l-12.516 7.212-.62-1.85 12.578-7.088.558 1.726z" fill="#3C3A3B"/><path d="M138.973 100.413l-11.463 6.596.93 1.294 11.4-7.335-.867-.555z" fill="#999"/><path d="M140.399 102.694l-12.515 7.212-.62-1.849 12.578-7.089.557 1.726z" fill="#3C3A3B"/><path d="M142.381 110.707l-11.524 6.596.991 1.294 11.4-7.335-.867-.555z" fill="#999"/><path d="M143.807 112.926l-12.516 7.274-.619-1.849 12.578-7.089.557 1.664z" fill="#3C3A3B"/><path d="M145.726 121.001l-11.462 6.596.929 1.294 11.401-7.335-.868-.555z" fill="#999"/><path d="M147.153 123.22l-12.516 7.274-.619-1.85 12.577-7.088.558 1.664z" fill="#3C3A3B"/><path d="M106.693 41.731l29.059 88.085-1.673-1.048-27.386-83.77v-3.267z" fill="#fff"/><path d="M105.64 42.348l28.997 88.146-1.611-1.11-27.386-83.77v-3.266z" fill="#666"/><path d="M106.693 41.731l-1.053.617 28.997 88.146 1.115-.678-29.059-88.085z" fill="#3C3A3B"/><path fill-rule="evenodd" clip-rule="evenodd" d="M108.304 128.644l.496 3.082-.558 18.986-22.8-13.068.061-22.067 22.801 13.067z" fill="#D1B68A"/><path fill-rule="evenodd" clip-rule="evenodd" d="M108.304 128.644l21.562-12.451-.062 22.067-21.562 12.452.062-22.068z" fill="#C4A676"/><path fill-rule="evenodd" clip-rule="evenodd" d="M85.504 115.576l21.561-12.451 22.801 13.068-21.561 12.451-22.801-13.068z" fill="#C1A963"/><path fill-rule="evenodd" clip-rule="evenodd" d="M108.8 126.425l-.558 4.315-23.854-13.746v-3.883l24.412 13.314z" fill="#DBC49E"/><path fill-rule="evenodd" clip-rule="evenodd" d="M98.329 125.87l-.062 4.007 7.807 4.438v-4.006l-7.745-4.439z" fill="#F0F0F0"/><path fill-rule="evenodd" clip-rule="evenodd" d="M104.649 130l.805.493v3.021l-.805-.493V130zm-5.763-.308v-3.02l.806.493v3.02l-.805-.493zm1.426.863v-3.02l.805.493v3.02l-.805-.493zm1.548.863v-3.02l.806.493v3.02l-.806-.493zm1.364.801v-3.02l.805.493v3.02l-.805-.493z" fill="#8A888B"/><path fill-rule="evenodd" clip-rule="evenodd" d="M108.304 126.795l22.615-13.068v3.884l-22.677 13.129.062-3.945z" fill="#D1B68A"/><path fill-rule="evenodd" clip-rule="evenodd" d="M84.388 113.111l22.615-13.13 23.916 13.746-22.615 13.068-23.916-13.684z" fill="#EDDDC4"/><path d="M182.097 139.863h-9.913l9.727-7.582.186 7.582z" fill="#175AA8"/><path d="M161.465 99.55l1.363-.617 1.425-2.28-3.965-2.343c-.682-.37-1.673-.308-2.726.247l-13.198 7.582c-2.044 1.171-3.655 4.006-3.655 6.287v20.526l20.694-11.896.062-17.506z" fill="#A31F1F"/><path d="M167.413 103.68l-1.673.924c-1.425.802-2.602 2.836-2.602 4.438v9.123l-19.021 10.911v9.061l19.021-10.911v1.233l17.411 10.048 4.275-24.78-17.411-10.047z" fill="#A31F1F"/><path d="M180.549 138.507l4.275-2.465v-22.376l-1.673.925c-1.425.801-2.602 2.835-2.602 4.438v19.478z" fill="#E34D4D"/><path d="M180.61 128.213c-.309 0-17.41-10.048-17.41-10.048l-15.49 8.877 13.879 12.081 19.021-10.91z" fill="#BF3737"/><path d="M148.144 104.296l13.197-7.581c2.106-1.233 3.841-.247 3.841 2.219v20.341l-20.694 11.897v-20.527c0-2.342 1.611-5.177 3.656-6.349zM161.527 148.185l19.083-10.911v-9.061l-19.083 10.91v9.062z" fill="#E34D4D"/><path d="M139.903 141.897l4.275-2.466v-19.54c0-1.541-1.115-2.219-2.478-1.417l-1.797 1.047v22.376z" fill="#CF3C3C"/><path d="M160.969 128.46l-17.596-10.171-2.85 4.191 11.215 10.418 6.072.061 3.159-4.499z" fill="#CF3C3C"/><path d="M157.314 151.883l4.275-2.466v-19.54c0-1.541-1.115-2.219-2.478-1.418l-1.797 1.048v22.376z" fill="#E34D4D"/><path d="M157.314 129.569l-17.411-10.047v22.375l17.411 9.986v-22.314z" fill="#A31F1F"/><path fill-rule="evenodd" clip-rule="evenodd" d="M69.146 148.801l.496 3.02-.558 18.492-22.12-12.759.063-21.451 22.119 12.698z" fill="#D1B68A"/><path fill-rule="evenodd" clip-rule="evenodd" d="M69.146 148.801l20.942-12.082-.062 21.451-20.942 12.143.062-21.512z" fill="#C4A676"/><path fill-rule="evenodd" clip-rule="evenodd" d="M47.027 136.103l20.942-12.082 22.12 12.698-20.943 12.082-22.12-12.698z" fill="#C1A963"/><path fill-rule="evenodd" clip-rule="evenodd" d="M69.642 146.705l-.496 4.13-23.235-13.314v-3.822l23.73 13.006z" fill="#D1B68A"/><path fill-rule="evenodd" clip-rule="evenodd" d="M59.419 146.089v3.945l7.559 4.315v-3.946l-7.56-4.314z" fill="#E7EEF6"/><path fill-rule="evenodd" clip-rule="evenodd" d="M65.614 150.157l.806.493v2.897l-.806-.493v-2.897zm-5.638-.308v-2.897l.806.431v2.897l-.806-.431zm1.425.801v-2.897l.806.431v2.897l-.806-.431zm1.487.863v-2.897l.806.431v2.897l-.806-.431zm1.363.74v-2.897l.806.431v2.897l-.806-.431z" fill="#8A888B"/><path fill-rule="evenodd" clip-rule="evenodd" d="M69.146 147.013l21.996-12.698v3.822l-21.996 12.698v-3.822z" fill="#D1B68A"/><path fill-rule="evenodd" clip-rule="evenodd" d="M45.911 133.699l21.996-12.698 23.234 13.314-21.995 12.698-23.235-13.314z" fill="#DBC49E"/><path fill-rule="evenodd" clip-rule="evenodd" d="M37.857 165.937l.434 2.651-.496 16.643-19.951-11.404.062-19.355 19.95 11.465z" fill="#D1B68A"/><path fill-rule="evenodd" clip-rule="evenodd" d="M37.857 165.937l18.835-10.91-.062 19.355-18.835 10.849.062-19.294z" fill="#C4A676"/><path fill-rule="evenodd" clip-rule="evenodd" d="M17.906 154.472l18.835-10.91 19.951 11.465-18.835 10.91-19.951-11.465z" fill="#C1A963"/><path fill-rule="evenodd" clip-rule="evenodd" d="M38.29 163.965l-.495 3.76-20.88-12.02v-3.391l21.375 11.651z" fill="#DBC49E"/><path fill-rule="evenodd" clip-rule="evenodd" d="M29.12 163.471l-.061 3.514 6.815 3.883v-3.513l-6.753-3.884z" fill="#F0F0F0"/><path fill-rule="evenodd" clip-rule="evenodd" d="M34.635 167.108l.743.432v2.65l-.743-.431v-2.651zm-5.08-.308v-2.589l.743.432v2.65l-.744-.493zm1.3.74v-2.651l.744.432v2.65l-.744-.431zm1.363.801v-2.651l.744.432v2.589l-.744-.37zm1.178.678v-2.589l.743.432v2.65l-.743-.493z" fill="#8A888B"/><path fill-rule="evenodd" clip-rule="evenodd" d="M37.795 164.334l19.827-11.465v3.391l-19.827 11.465v-3.391z" fill="#D1B68A"/><path fill-rule="evenodd" clip-rule="evenodd" d="M16.915 152.314l19.826-11.465 20.88 12.02-19.826 11.465-20.88-12.02z" fill="#EDDDC4"/><path fill-rule="evenodd" clip-rule="evenodd" d="M105.826 108.426l.371 2.096-.371 12.76-15.366-8.753.062-14.856 15.304 8.753z" fill="#D1B68A"/><path fill-rule="evenodd" clip-rule="evenodd" d="M105.826 108.426l14.498-8.383-.062 14.856-14.436 8.383v-14.856z" fill="#C4A676"/><path fill-rule="evenodd" clip-rule="evenodd" d="M90.522 99.673l14.498-8.383 15.304 8.753-14.498 8.383-15.304-8.753z" fill="#C1A963"/><path fill-rule="evenodd" clip-rule="evenodd" d="M106.197 106.947l-.371 2.897-16.048-9.246v-2.589l16.419 8.938z" fill="#DBC49E"/><path fill-rule="evenodd" clip-rule="evenodd" d="M99.134 106.577v2.712l5.205 2.959v-2.712l-5.205-2.959z" fill="#F0F0F0"/><path fill-rule="evenodd" clip-rule="evenodd" d="M103.41 109.351l.557.308v2.034l-.557-.308v-2.034zm-3.904-.185v-2.034l.558.308v2.034l-.558-.308zm.991.555v-2.034l.558.308v2.034l-.558-.308zm.992.555v-2.035l.557.309v2.034l-.557-.308zm.991.554v-2.034l.558.308v2.034l-.558-.308z" fill="#8A888B"/><path fill-rule="evenodd" clip-rule="evenodd" d="M105.826 107.193l15.242-8.814v2.65l-15.242 8.815v-2.651z" fill="#D1B68A"/><path fill-rule="evenodd" clip-rule="evenodd" d="M89.778 98.009l15.18-8.815 16.11 9.185-15.242 8.814-16.048-9.184z" fill="#EDDDC4"/><path fill-rule="evenodd" clip-rule="evenodd" d="M33.21 146.644l.186 1.232-.186 7.829-9.418-5.363.062-9.123 9.356 5.425z" fill="#D1B68A"/><path fill-rule="evenodd" clip-rule="evenodd" d="M33.21 146.644l8.86-5.178v9.123l-8.86 5.116v-9.061z" fill="#C4A676"/><path fill-rule="evenodd" clip-rule="evenodd" d="M23.854 141.219l8.86-5.116 9.356 5.363-8.86 5.178-9.356-5.425z" fill="#C1A963"/><path fill-rule="evenodd" clip-rule="evenodd" d="M33.396 145.719l-.186 1.726-9.851-5.609v-1.603l10.037 5.486z" fill="#DBC49E"/><path fill-rule="evenodd" clip-rule="evenodd" d="M29.12 145.472v1.665l3.16 1.787v-1.602l-3.16-1.85z" fill="#F0F0F0"/><path fill-rule="evenodd" clip-rule="evenodd" d="M31.723 147.198l.372.185v1.233l-.372-.185v-1.233zm-2.416-.185v-1.232l.31.184v1.233l-.31-.185zm.62.37v-1.233l.309.185v1.233l-.31-.185zm.619.37v-1.233l.31.185v1.233l-.31-.185zm.557.308v-1.233l.31.185v1.233l-.31-.185z" fill="#8A888B"/><path fill-rule="evenodd" clip-rule="evenodd" d="M33.21 145.842l9.294-5.362v1.602l-9.294 5.363v-1.603z" fill="#D1B68A"/><path fill-rule="evenodd" clip-rule="evenodd" d="M23.359 140.233l9.355-5.424 9.79 5.671-9.294 5.362-9.851-5.609z" fill="#EDDDC4"/><path fill-rule="evenodd" clip-rule="evenodd" d="M127.512 158.355l-3.346-1.911.929 3.144 3.346 1.911-.929-3.144zM71.5 187.758l-3.407-1.911-.868 6.904 3.408 1.972.867-6.965z" fill="#54514C"/><path fill-rule="evenodd" clip-rule="evenodd" d="M130.299 153.979l-3.407-1.911-58.8 33.779 3.408 1.911 58.799-33.779z" fill="#74716C"/><path fill-rule="evenodd" clip-rule="evenodd" d="M71.5 187.758l-.867 6.965 2.726-1.602.93-4.13 53.222-30.636.93 3.144 2.788-1.603-.929-5.917-58.8 33.779z" fill="#3B3936"/><path fill-rule="evenodd" clip-rule="evenodd" d="M147.462 169.944l-3.346-1.973.93 3.144 3.345 1.972-.929-3.143zM91.45 199.347l-3.407-1.973-.867 6.965 3.407 1.973.868-6.965z" fill="#54514C"/><path fill-rule="evenodd" clip-rule="evenodd" d="M150.25 165.567l-3.408-1.972-58.799 33.779 3.408 1.972 58.799-33.779z" fill="#74716C"/><path fill-rule="evenodd" clip-rule="evenodd" d="M91.451 199.346l-.867 6.966 2.726-1.603.93-4.192 53.222-30.573.93 3.143 2.788-1.602-.93-5.918-58.799 33.779z" fill="#3B3936"/><path fill-rule="evenodd" clip-rule="evenodd" d="M146.594 168.834v.308c0 .124 0 .185.062.309v.061c0 .062.062.185.062.247v.061c0 .062.062.124.062.185.062.062.062.124.124.247.062.062.062.123.124.123 0 0 0 .062.062.062l.124.123s.062 0 .062.062c.062.061.124.061.186.123l-27.386-15.842c-.062-.061-.124-.061-.186-.123 0 0-.062 0-.062-.062l-.124-.123s0-.062-.062-.062c-.062-.061-.062-.123-.124-.123-.062-.061-.062-.123-.124-.185 0-.061-.062-.061-.062-.123v-.062-.061-.062c0-.062 0-.123-.062-.123v-.062-.123-.185-.062-.123-.123l27.324 15.718z" fill="#C1E3E3"/><path fill-rule="evenodd" clip-rule="evenodd" d="M147.028 156.321l-.433 12.513-27.324-15.78-.062-12.698 27.819 15.965z" fill="#E0DFD7"/><path fill-rule="evenodd" clip-rule="evenodd" d="M146.595 156.198l-27.386-15.842v-.123-.247-.123-.123-.124c0-.061 0-.123.062-.184v-.062-.123c0-.062 0-.124.062-.185 0-.062 0-.062.062-.124 0-.061.062-.123.062-.184 0-.062.062-.124.062-.124 0-.061 0-.061.061-.123 0-.062.062-.123.062-.123 0-.062 0-.062.062-.124 0-.061.062-.123.062-.123 0-.062.062-.123.062-.185 0-.061.062-.061.062-.123s.062-.123.062-.123 0-.062.062-.062v-.062c0-.061.062-.061.062-.123.062-.062.062-.123.124-.185s.124-.185.186-.246c.062-.062.062-.124.124-.185l.124-.124.124-.123.124-.123.062-.062.124-.123.061-.062.062-.061.124-.124.062-.061.062-.062.124-.123c.062 0 .062-.062.124-.062s.062-.062.124-.062.062-.061.124-.061l.062-.062c.062 0 .062-.061.124-.061s.062-.062.124-.062c0 0 .062 0 .062-.062.062 0 .062-.061.124-.061s.062-.062.124-.062h.061c.062 0 .062 0 .124-.062H123.608c.062 0 .124 0 .186.062.062 0 .186.062.248.123l27.385 15.842c-.557 1.171-3.159 3.822-4.832 4.993z" fill="#F5F4F0"/><path fill-rule="evenodd" clip-rule="evenodd" d="M149.568 151.02c1.735-.986 3.098-.246 3.098 1.664l.062 12.698c0 1.911-1.363 4.192-3.036 5.178l-.062.062c-1.672.986-3.036.185-3.036-1.726l-.062-12.698c.062-1.911 1.364-4.253 3.036-5.178zM125.219 135.486l4.089 22.869c0 .123.062.185.062.308v1.357c0 .061-.062.184-.062.246s-.062.123-.062.185-.062.123-.062.247c0 .061-.062.123-.062.184-.062.062-.062.124-.124.185 0 .062-.062.062-.062.124l-.185.185-.062.061c-.062.062-.186.124-.31.185l-48.514 28.047c.124-.062.186-.124.31-.185-.868-1.973-3.47-25.396-3.594-25.951l48.638-28.047z" fill="#D6D5CF"/><path fill-rule="evenodd" clip-rule="evenodd" d="M71.686 157.739H70.757c-.062 0-.062 0-.124.061 0 0-.062 0-.062.062-.062 0-.062.062-.124.062l48.514-28.047s.062 0 .062-.061c0 0 .062 0 .062-.062.062 0 .062 0 .124-.062H120.2c.062 0 .124 0 .248.062h.062c.062 0 .062 0 .124.062h.062c.124.061.186.061.31.123 0 0 .062 0 .062.061 0 0 .061 0 .061.062l.372.185c.124.062.186.123.31.185.062 0 .062.062.124.062.062.061.124.123.186.123l.124.123c.062.062.124.123.186.123l.124.124.185.185c.124.123.248.246.31.369l.062.062.062.062.186.185.062.061.062.062c.062.062.062.123.124.185 0 .062.062.062.062.123l.062.062c.062.061.062.123.124.123 0 .062.062.062.062.123 0 .062.062.062.062.124 0 .061.062.061.062.123l.062.062c0 .061.061.123.061.185 0 .061.062.061.062.123v.061c.062.124.124.185.186.309.062.123.124.185.124.308v.061c0 .062.062.062.062.124 0 .061.062.123.062.185v.061c0 .062.062.124.062.124 0 .061 0 .061.062.123 0 .062 0 .062.062.123 0 .062.062.123.062.185v.185c0 .062.062.123.062.247v.061c0 .062 0 .124.062.247l-48.514 28.046c0-.123-.062-.185-.062-.308 0-.061-.062-.123-.062-.246 0-.062-.062-.124-.062-.185 0-.062-.062-.124-.062-.185 0-.062-.062-.124-.062-.247 0-.061-.062-.123-.062-.123-.062-.062-.062-.185-.124-.247 0-.061-.062-.061-.062-.123-.062-.123-.123-.247-.186-.37l-.185-.37c0-.061-.062-.061-.062-.123-.062-.062-.062-.185-.124-.246 0-.062-.062-.062-.062-.124-.062-.061-.062-.123-.124-.185-.062-.061-.062-.123-.124-.123-.062-.062-.062-.123-.124-.185s-.062-.123-.124-.185c-.062-.061-.062-.123-.124-.123l-.186-.185-.124-.123c-.124-.124-.186-.247-.31-.37l-.061-.062a32.338 32.338 0 01-.186-.185l-.124-.123c-.062-.062-.124-.123-.186-.123l-.124-.124c-.062-.061-.124-.123-.186-.123s-.062-.061-.124-.061c-.124-.062-.186-.124-.31-.185l-.371-.185s-.062 0-.062-.062c-.124-.062-.248-.123-.372-.123h-.062c-.062 0-.124 0-.186-.062-.062 0-.124-.062-.248-.062.248-.061.248-.061.186-.061z" fill="#F5F4F0"/><path fill-rule="evenodd" clip-rule="evenodd" d="M72.182 157.862h.062c.31.062.557.185.867.37 1.673.986 3.16 3.144 3.594 5.301l4.089 22.869c.434 2.527-.805 4.068-2.788 3.452h-.062c-.31-.062-.558-.185-.868-.37-1.672-.986-3.16-3.144-3.593-5.301l-4.09-22.869c-.433-2.527.806-4.068 2.789-3.452z" fill="#E0DFD7"/><path fill-rule="evenodd" clip-rule="evenodd" d="M82.158 184.183c-.062 0-.124-.062-.186-.062-.062-.062-.186-.062-.248-.062s-.124-.061-.186-.061-.124 0-.124-.062h-.619c-.124 0-.186 0-.248.062h-.062c-.062 0-.124.061-.186.061h-.062c-.062.062-.186.062-.248.124l48.514-28.047c.062-.062.124-.062.186-.062h.124c.062 0 .062 0 .124-.061h1.115c.062 0 .124 0 .124.061h.124c.062 0 .186.062.248.062 0 0 .062 0 .062.062 0 0 .061 0 .061.061 0 0 .062 0 .062.062.124.062.248.123.31.185l-48.514 28.046c-.124-.061-.248-.123-.31-.185 0-.184-.061-.184-.061-.184z" fill="#EAE9E4"/><path fill-rule="evenodd" clip-rule="evenodd" d="M98.7 197.62l48.514-27.985v.124c0 .431-.062.801-.186 1.171-.062.247-.186.431-.248.616-.061.062-.123.185-.185.247-.124.123-.31.246-.434.37l-48.514 28.046c.681-.431 1.053-1.417 1.053-2.589z" fill="#D6D5CF"/><path fill-rule="evenodd" clip-rule="evenodd" d="M98.7 197.189c0-.062 0-.185-.062-.246 0-.124-.062-.185-.062-.309 0-.061 0-.123-.062-.185 0-.061 0-.123-.061-.185 0-.061-.063-.184-.063-.246s0-.123-.061-.123c0-.124-.062-.185-.124-.309 0-.061 0-.061-.062-.123a2.96 2.96 0 01-.186-.431v-.062l-.186-.37c0-.061-.062-.061-.062-.123-.062-.123-.124-.247-.186-.308 0 0 0-.062-.062-.062-.062-.123-.124-.247-.248-.37 0-.061-.062-.061-.062-.123-.062-.062-.124-.185-.186-.247l-.124-.123-.185-.185c-.062-.061-.124-.123-.124-.185-.062-.061-.124-.123-.124-.185l-.248-.246-.186-.185-.124-.123-.186-.185-.124-.124c-.062-.061-.124-.123-.248-.185-.061 0-.061-.061-.123-.061-.124-.062-.248-.124-.372-.247l30.979-20.711 17.535-7.335c.124.061.248.123.371.246.062 0 .062.062.124.062.062.061.186.123.248.185l.124.123.186.185.124.123.062.062.062.062.248.246.062.062.062.061c.062.062.124.124.124.185l.123.124c0 .061.062.061.062.123l.124.123c0 .062.062.062.062.123.062.062.062.124.124.185 0 .062.062.062.062.124v.061c.062.124.124.185.186.308 0 0 0 .062.062.062.062.062.062.123.124.247 0 .061.062.061.062.123s.062.062.062.123c0 .062.062.062.062.124.062.061.062.184.124.246v.062c.062.123.062.246.124.308v.062c0 .061 0 .061.062.123 0 .061.062.123.062.185 0 .061 0 .061.062.123 0 .062.061.123.061.123v.124c0 .061 0 .123.062.185 0 .061.062.123.062.184v.185c0 .124.062.185.062.309V169.759l-48.513 28.046v-.431c.31-.123.31-.123.31-.185z" fill="#EAE9E4"/><path fill-rule="evenodd" clip-rule="evenodd" d="M95.045 191.395l48.576-28.109-12.516-6.965-48.514 28.047 12.454 7.027z" fill="#F5F4F0"/><path fill-rule="evenodd" clip-rule="evenodd" d="M78.874 186.463c0-2.342 1.673-3.267 3.717-2.095l12.454 6.965c2.045 1.171 3.656 4.007 3.656 6.349v.062c0 2.342-1.673 3.267-3.718 2.095l-16.915-9.492c-2.044-1.171.806-1.418.806-3.76v-.124z" fill="#C1E3E3"/><path fill-rule="evenodd" clip-rule="evenodd" d="M93.681 199.285v.308c0 .123 0 .185.062.308v.062c0 .061.062.185.062.246v.062c0 .061.062.123.062.185.062.061.062.123.124.246.062.062.062.124.124.124 0 0 0 .061.062.061l.124.124s.062 0 .062.061c.062.062.124.062.186.123l-27.386-15.841c-.062-.062-.124-.062-.186-.124 0 0-.062 0-.062-.061l-.124-.123s0-.062-.062-.062c-.062-.062-.062-.123-.124-.123-.062-.062-.062-.124-.124-.185 0-.062-.062-.062-.062-.124v-.061-.062-.061c0-.062 0-.124-.062-.124v-.061-.124-.185-.061-.124-.123l27.324 15.719zM93.62 186.648l.062 12.637-27.386-15.78-.062-12.698 27.386 15.841z" fill="#E0DFD7"/><path fill-rule="evenodd" clip-rule="evenodd" d="M96.036 181.84c-.124.123-.186.185-.31.247l-.248.246c-.062.124-.186.185-.248.308-.186.185-.31.37-.433.617-.062.062-.062.123-.124.185-.062.061-.062.123-.124.185 0 0 0 .061-.062.061a.471.471 0 00-.124.309l-.186.369c-.062.124-.124.247-.124.37-.062.124-.062.247-.124.37s-.062.247-.062.37v.062c0 .123-.062.246-.062.369 0 .124-.062.247-.062.37v.37l-27.386-15.842v-.123-.246-.124-.123-.123c0-.062 0-.123.062-.185v-.062-.123c0-.062 0-.123.062-.185 0-.062 0-.062.062-.123 0-.062.062-.124.062-.185 0-.062.062-.123.062-.123 0-.062 0-.062.062-.124 0-.061.062-.123.062-.123 0-.062 0-.062.062-.123 0-.062.062-.124.062-.124 0-.061.062-.123.062-.185v-.061c0-.062.062-.062.062-.123 0-.062.062-.124.062-.124s0-.061.062-.061v-.062c0-.062.062-.062.062-.123.062-.062.062-.124.124-.185.062-.062.124-.185.186-.247.062-.061.062-.123.124-.185l.123-.123.124-.123.124-.124.062-.061.124-.123.062-.062.062-.062.124-.123.062-.062.062-.061.124-.124c.062 0 .062-.061.124-.061s.062-.062.124-.062.062-.062.124-.062l.062-.061c.061 0 .061-.062.123-.062.063 0 .063-.061.124-.061 0 0 .062 0 .062-.062.062 0 .062-.062.124-.062s.062-.061.124-.061h.062c.062 0 .062 0 .124-.062H70.757c.061 0 .123 0 .185.062.062 0 .186.061.248.123l27.386 15.842c-.062-.062-.124-.062-.248-.124-.062 0-.124-.061-.186-.061h-.619c-.062 0-.186 0-.248.061-.062 0-.186.062-.248.062-.124.062-.186.062-.31.123-.124.062-.186.124-.31.124l-.061.061c-.124.062-.186.123-.31.185.186-.308.062-.246 0-.185z" fill="#F5F4F0"/><path fill-rule="evenodd" clip-rule="evenodd" d="M96.656 181.47c1.735-.986 3.098-.246 3.098 1.665l.062 12.698c0 1.91-1.363 4.191-3.036 5.177l-.062.062c-1.673.986-3.036.185-3.036-1.726l-.062-12.698c0-1.911 1.363-4.253 3.036-5.178z" fill="#D6D5CF"/><path fill-rule="evenodd" clip-rule="evenodd" d="M127.264 159.034l.31 1.602-.31 9.986-11.958-6.842v-11.65l11.958 6.904z" fill="#D1B68A"/><path fill-rule="evenodd" clip-rule="evenodd" d="M127.264 159.034l11.338-6.534v11.588l-11.338 6.534v-11.588z" fill="#C4A676"/><path fill-rule="evenodd" clip-rule="evenodd" d="M115.306 152.13l11.338-6.534 11.958 6.903-11.338 6.534-11.958-6.903z" fill="#C1A963"/><path fill-rule="evenodd" clip-rule="evenodd" d="M127.574 157.862l-.31 2.219-12.516-7.212v-2.034l12.826 7.027z" fill="#DBC49E"/><path fill-rule="evenodd" clip-rule="evenodd" d="M122.059 157.554v2.096l4.027 2.342v-2.095l-4.027-2.343z" fill="#F0F0F0"/><path fill-rule="evenodd" clip-rule="evenodd" d="M125.405 159.712l.434.246v1.603l-.434-.247v-1.602zm-3.098-.124v-1.602l.434.246v1.603l-.434-.247zm.806.432v-1.603l.433.247v1.602l-.433-.246zm.805.431v-1.602l.434.246v1.603l-.434-.247zm.744.432v-1.603l.433.247v1.602l-.433-.246z" fill="#8A888B"/><path fill-rule="evenodd" clip-rule="evenodd" d="M127.264 158.047l11.896-6.842v2.034l-11.896 6.842v-2.034z" fill="#D1B68A"/><path fill-rule="evenodd" clip-rule="evenodd" d="M114.748 150.835l11.896-6.842 12.516 7.212-11.896 6.842-12.516-7.212z" fill="#EDDDC4"/><path fill-rule="evenodd" clip-rule="evenodd" d="M128.191 147.198l.124.925-.124 5.609-6.753-3.883.062-6.473 6.691 3.822z" fill="#D1B68A"/><path fill-rule="evenodd" clip-rule="evenodd" d="M128.193 147.198l6.32-3.637v6.473l-6.32 3.698v-6.534z" fill="#C4A676"/><path fill-rule="evenodd" clip-rule="evenodd" d="M121.499 143.376l6.32-3.698 6.692 3.883-6.32 3.637-6.692-3.822z" fill="#C1A963"/><path fill-rule="evenodd" clip-rule="evenodd" d="M128.317 146.582l-.124 1.233-7.064-4.007v-1.171l7.188 3.945z" fill="#DBC49E"/><path fill-rule="evenodd" clip-rule="evenodd" d="M125.281 146.397l-.062 1.171 2.292 1.294v-1.171l-2.23-1.294z" fill="#E7EEF6"/><path fill-rule="evenodd" clip-rule="evenodd" d="M127.14 147.63l.247.123v.863l-.247-.123v-.863zm-1.735-.124v-.863l.248.124v.863l-.248-.124zm.434.247v-.863l.247.123v.863l-.247-.123zm.433.247v-.863l.248.123v.863l-.248-.123zm.434.246v-.863l.248.123v.863l-.248-.123z" fill="#8A888B"/><path fill-rule="evenodd" clip-rule="evenodd" d="M128.193 146.643l6.629-3.821v1.171l-6.629 3.822v-1.172z" fill="#D1B68A"/><path fill-rule="evenodd" clip-rule="evenodd" d="M121.129 142.637l6.692-3.884 7.001 4.069-6.629 3.821-7.064-4.006z" fill="#EDDDC4"/><path fill-rule="evenodd" clip-rule="evenodd" d="M197.277 146.582l.558 2.959-.62 18.492-22.119-12.76.062-21.451 22.119 12.76z" fill="#D1B68A"/><path fill-rule="evenodd" clip-rule="evenodd" d="M197.277 146.582l20.942-12.143-.062 21.451-20.942 12.143.062-21.451z" fill="#C4A676"/><path fill-rule="evenodd" clip-rule="evenodd" d="M175.158 133.822l20.942-12.081 22.12 12.698-20.942 12.143-22.12-12.76z" fill="#C1A963"/><path fill-rule="evenodd" clip-rule="evenodd" d="M197.835 144.424l-.558 4.13-23.234-13.314v-3.822l23.792 13.006z" fill="#D1B68A"/><path fill-rule="evenodd" clip-rule="evenodd" d="M187.612 143.808v3.945l7.497 4.315v-3.884l-7.497-4.376z" fill="#E7EEF6"/><path fill-rule="evenodd" clip-rule="evenodd" d="M193.746 147.876l.805.494v2.897l-.805-.493v-2.898zm-5.576-.308v-2.897l.805.432V148l-.805-.432zm1.425.802v-2.898l.805.432v2.897l-.805-.431zm1.425.863v-2.898l.805.432v2.897l-.805-.431zm1.363.739v-2.897l.805.432v2.897l-.805-.432z" fill="#8A888B"/><path fill-rule="evenodd" clip-rule="evenodd" d="M197.278 144.794l22.057-12.759-.062 3.821-21.995 12.698v-3.76z" fill="#D1B68A"/><path fill-rule="evenodd" clip-rule="evenodd" d="M174.043 131.418L196.1 118.72l23.235 13.315-22.058 12.759-23.234-13.376z" fill="#DBC49E"/><path fill-rule="evenodd" clip-rule="evenodd" d="M138.85 196.449l.496 2.712-.558 16.643-19.889-11.465.062-19.293 19.889 11.403z" fill="#D1B68A"/><path fill-rule="evenodd" clip-rule="evenodd" d="M138.85 196.449l18.898-10.849-.062 19.294-18.898 10.91.062-19.355z" fill="#C4A676"/><path fill-rule="evenodd" clip-rule="evenodd" d="M118.961 185.046l18.836-10.911 19.95 11.465-18.897 10.849-19.889-11.403z" fill="#C1A963"/><path fill-rule="evenodd" clip-rule="evenodd" d="M139.346 194.538l-.496 3.76-20.942-12.02v-3.451l21.438 11.711z" fill="#DBC49E"/><path fill-rule="evenodd" clip-rule="evenodd" d="M130.114 194.045v3.514l6.815 3.883v-3.513l-6.815-3.884z" fill="#F0F0F0"/><path fill-rule="evenodd" clip-rule="evenodd" d="M135.69 197.682l.744.432v2.65l-.744-.431v-2.651zm-5.08-.308v-2.589l.743.431v2.651l-.743-.493zm1.301.74v-2.651l.744.431v2.651l-.744-.431zm1.301.739v-2.65l.744.431v2.589l-.744-.37zm1.239.74v-2.589l.744.431v2.651l-.744-.493z" fill="#8A888B"/><path fill-rule="evenodd" clip-rule="evenodd" d="M138.85 194.847l19.827-11.466v3.452l-19.827 11.465v-3.451z" fill="#D1B68A"/><path fill-rule="evenodd" clip-rule="evenodd" d="M117.908 182.827l19.827-11.466 20.942 12.02-19.827 11.465-20.942-12.019z" fill="#EDDDC4"/><path fill-rule="evenodd" clip-rule="evenodd" d="M134.265 177.156l.186 1.294-.248 7.829-9.356-5.425v-9.061l9.418 5.363z" fill="#D1B68A"/><path fill-rule="evenodd" clip-rule="evenodd" d="M134.265 177.155l8.86-5.116-.062 9.123-8.86 5.116.062-9.123z" fill="#C4A676"/><path fill-rule="evenodd" clip-rule="evenodd" d="M124.847 171.793l8.922-5.116 9.356 5.362-8.86 5.117-9.418-5.363z" fill="#C1A963"/><path fill-rule="evenodd" clip-rule="evenodd" d="M134.451 176.231l-.186 1.787-9.851-5.67v-1.603l10.037 5.486z" fill="#DBC49E"/><path fill-rule="evenodd" clip-rule="evenodd" d="M130.114 176.046v1.603l3.222 1.849v-1.664l-3.222-1.788z" fill="#F0F0F0"/><path fill-rule="evenodd" clip-rule="evenodd" d="M132.778 177.711l.372.184v1.233l-.372-.185v-1.232zm-2.416-.124v-1.233l.309.185v1.233l-.309-.185zm.619.37v-1.233l.31.185v1.233l-.31-.185zm.62.37v-1.233l.31.185v1.233l-.31-.185zm.557.308v-1.233l.31.185v1.233l-.31-.185z" fill="#8A888B"/><path fill-rule="evenodd" clip-rule="evenodd" d="M134.265 176.416l9.294-5.363v1.603l-9.294 5.363v-1.603z" fill="#D1B68A"/><path fill-rule="evenodd" clip-rule="evenodd" d="M124.414 170.745l9.293-5.363 9.852 5.671-9.294 5.363-9.851-5.671z" fill="#EDDDC4"/><path fill-rule="evenodd" clip-rule="evenodd" d="M167.35 123.59l.186.924-.186 5.548-6.692-3.822v-6.534l6.692 3.884z" fill="#D1B68A"/><path fill-rule="evenodd" clip-rule="evenodd" d="M167.351 123.59l6.382-3.699-.062 6.534-6.32 3.637v-6.472z" fill="#C4A676"/><path fill-rule="evenodd" clip-rule="evenodd" d="M160.658 119.706l6.32-3.637 6.754 3.822-6.382 3.699-6.692-3.884z" fill="#C1A963"/><path fill-rule="evenodd" clip-rule="evenodd" d="M167.537 122.912l-.186 1.294-7.001-4.068v-1.11l7.187 3.884z" fill="#DBC49E"/><path fill-rule="evenodd" clip-rule="evenodd" d="M164.439 122.788v1.172l2.293 1.294v-1.171l-2.293-1.295z" fill="#E7EEF6"/><path fill-rule="evenodd" clip-rule="evenodd" d="M166.298 123.96l.248.123v.863l-.248-.124v-.862zm-1.735-.062v-.863l.248.123v.863l-.248-.123zm.434.246v-.863l.248.124v.863l-.248-.124zm.495.247v-.863l.248.123v.863l-.248-.123zm.372.247v-.863l.248.123v.863l-.248-.123z" fill="#8A888B"/><path fill-rule="evenodd" clip-rule="evenodd" d="M167.351 123.035l6.692-3.822v1.11l-6.692 3.883v-1.171z" fill="#D1B68A"/><path fill-rule="evenodd" clip-rule="evenodd" d="M160.35 119.028l6.629-3.883 7.064 4.068-6.692 3.822-7.001-4.007z" fill="#EDDDC4"/><path d="M194.428 176.046l-4.275 2.466-15.986-23.116 4.213-2.404 16.048 23.054z" fill="#965B14"/><path d="M179.185 167.786l14.313 8.199c.682.369 1.239.061 1.239-.74V163.41c0-.801-.557-1.726-1.239-2.158l-14.313-8.198c-.681-.37-1.239-.061-1.239.74v11.835c0 .801.558 1.788 1.239 2.157z" fill="#965B14"/><path d="M192.197 176.724v-11.835c0-.801-.557-1.726-1.239-2.157l-14.312-8.198c-.062 0-.496-.247-.558-.247.062-.616.991-.678 1.611-.37l14.312 8.198c.682.37 1.24 1.357 1.24 2.158v11.835c0 .74-.496 1.048-1.116.801.062-.061.062-.123.062-.185z" fill="#D1C46A"/><path d="M174.972 170.19l14.313 8.199c.681.369 1.239.061 1.239-.74v-11.835c0-.802-.558-1.726-1.239-2.158l-14.313-8.198c-.681-.37-1.239-.062-1.239.74v11.835c.062.801.558 1.787 1.239 2.157z" fill="#BD8542"/><path d="M189.223 162.115l1.921-1.109-1.239-.74-1.921 1.11 1.239.739z" fill="#FFE699"/><path d="M189.223 162.116v.308l-1.239-.74v-.308l1.239.74z" fill="#E0C163"/><path d="M191.144 161.006v.308l-1.921 1.11v-.308l1.921-1.11z" fill="#CCA83B"/><path d="M179.248 156.383l1.92-1.11-1.301-.678-1.858 1.048 1.239.74z" fill="#FFE699"/><path d="M179.248 156.383v.308l-1.239-.678v-.37l1.239.74z" fill="#E0C163"/><path d="M181.169 155.273l-.062.37-1.859 1.048v-.308l1.921-1.11z" fill="#CCA83B"/><path d="M185.939 159.28l-.496.246-.123-.739.309-.185.31.678z" fill="#4E4E5C"/><path d="M181.911 154.965l.496-.247 3.16 2.035-.186.493-3.47-2.281z" fill="#4C4C5C"/><path d="M185.813 156.999v2.342l-.433-.246v-1.849c0-.124-.124-.309-.248-.37l-2.231-1.295c-.124-.061-.248 0-.248.124v1.849l-.495-.247v-2.342c0-.123.124-.185.248-.123l3.159 1.787c.186 0 .248.185.248.37z" fill="#4C4C5C"/><path d="M185.443 157.184v2.342l-.433-.246v-1.849c0-.124-.124-.309-.248-.37l-2.231-1.295c-.124-.061-.247 0-.247.124v1.849l-.496-.247v-2.342c0-.123.124-.185.248-.123l3.16 1.787c.185.062.247.247.247.37z" fill="#2B2B38"/><path d="M182.345 157.739l.434-.246-.496-.802v.802l.062.246z" fill="#4C4C5C"/><path d="M106.259 92.954c-1.611 0-3.16-.37-4.337-1.048-1.177-.678-1.859-1.602-1.859-2.65 0-.986.682-1.911 1.859-2.65 1.177-.679 2.664-1.049 4.337-1.049 1.611 0 3.16.37 4.337 1.048 1.178.678 1.859 1.603 1.859 2.65 0 .987-.681 1.912-1.859 2.651-1.177.74-2.726 1.048-4.337 1.048zm0-6.78c-1.487 0-2.912.308-4.027.986-1.053.616-1.611 1.356-1.611 2.157 0 .802.558 1.603 1.611 2.158 1.115.616 2.602.986 4.027.986 1.487 0 2.912-.308 4.028-.986 1.053-.616 1.611-1.356 1.611-2.157 0-.802-.558-1.603-1.611-2.158-1.054-.678-2.541-.986-4.028-.986z" fill="#B1BAC4"/><path d="M106.259 102.694c-.185 0-.371-.185-.371-.37l-.062-14.301c0-.185.186-.37.371-.37.186 0 .372.185.372.37l.062 14.301c0 .185-.186.37-.372.37zM98.948 98.502c-.062 0-.124 0-.186-.062-.186-.123-.248-.308-.124-.493.434-.678.93-2.527 1.178-7.459.124-2.958.124-5.67.124-5.732 0-.185.124-.37.371-.37.186 0 .372.185.372.37 0 0 .062 2.774-.124 5.732-.186 4.069-.62 6.72-1.301 7.767-.062.185-.186.247-.31.247zM113.385 98.502a.341.341 0 01-.31-.185c-.62-1.11-1.053-3.698-1.301-7.767-.124-3.02-.124-5.732-.124-5.732 0-.185.186-.37.372-.37s.371.185.371.37c0 0-.062 2.712.124 5.732.248 4.931.806 6.78 1.178 7.459.123.185.062.37-.124.493-.062-.062-.124 0-.186 0z" fill="#B1BAC4"/><path d="M106.259 88.578c3.73 0 6.754-1.739 6.754-3.883 0-2.145-3.024-3.884-6.754-3.884-3.729 0-6.753 1.739-6.753 3.883 0 2.145 3.024 3.884 6.753 3.884z" fill="#A2AEBA"/><path d="M113.075 82.599c0-.987-.682-1.973-1.983-2.774-2.664-1.541-6.939-1.541-9.603 0-1.302.74-1.983 1.787-1.983 2.773 0 .987.681 1.973 1.983 2.774 2.664 1.541 6.939 1.541 9.603 0 1.301-.74 1.983-1.787 1.983-2.773 0 .061 0 .061 0 0z" fill="#B02727"/><path d="M106.259 86.42c3.73 0 6.754-1.738 6.754-3.883s-3.024-3.883-6.754-3.883c-3.729 0-6.753 1.738-6.753 3.883s3.024 3.883 6.753 3.883z" fill="#E65353"/><path d="M172.927 145.472l.62-.185 3.036 3.267-.31.493-3.346-3.575z" fill="#FFD052"/><path d="M176.831 148.924l-.682 2.651-.433-.432.557-2.096a.477.477 0 00-.124-.493l-2.168-2.096c-.124-.123-.248-.061-.31.062l-.558 2.096-.495-.432.681-2.65c.062-.185.186-.185.31-.062l3.098 3.021c.124 0 .186.246.124.431z" fill="#FFD052"/><path d="M176.335 149.047l-.681 2.651-.434-.432.558-2.096a.478.478 0 00-.124-.493l-2.169-2.095c-.124-.124-.248-.062-.31.061l-.557 2.096-.496-.431.682-2.651c.062-.185.186-.185.309-.062l3.098 3.021c.124.061.186.246.124.431z" fill="#915C19"/><path d="M161.899 155.273l1.549-5.116c.495-1.726 2.354-3.391 4.089-3.822l2.354-.555c1.054-.246 1.673.37 1.364 1.418l-3.656 12.267c-.248.801-2.107 5.609-2.912 5.794l-2.231.493 3.222-11.28-3.779.801z" fill="#A7BD29"/><path d="M163.386 165.197l-1.363.308c-.992.247-1.611-.369-1.302-1.356l4.214-14.547c.309-.986 1.363-1.972 2.354-2.219l2.107-.493c.557-.123.929.185.743.801l-3.408 11.342c-.247.925-2.354 5.918-3.345 6.164zm3.841-17.629c-.867.185-1.797 1.048-2.045 1.911l-4.213 14.547c-.248.863.248 1.356 1.115 1.171l1.364-.308c.867-.185 2.788-5.055 3.036-5.918l3.407-11.341c.124-.432-.124-.679-.557-.617l-2.107.555z" fill="#C9750E"/><path d="M178.751 155.828c.124-.493.062-.863-.186-1.048 0-.062-.061-.062-.061-.123 0-.062-.062-.062-.062-.124 0-.061-.062-.061-.062-.123s-.062-.062-.062-.123c0-.062-.062-.062-.062-.124 0-.061-.062-.061-.062-.123s-.062-.062-.062-.123c0-.062-.062-.062-.062-.123 0-.062-.062-.062-.062-.124 0-.061-.062-.061-.062-.123s-.062-.062-.062-.123c0-.062-.062-.062-.062-.124 0-.061-.062-.061-.062-.123 0-.061-.062-.061-.062-.123s-.062-.062-.062-.123c0-.062-.062-.062-.062-.124 0-.061-.062-.061-.062-.123s-.062-.062-.062-.123c0-.062-.062-.062-.062-.124 0-.061-.062-.061-.062-.123 0-.061-.062-.061-.062-.123s-.062-.062-.062-.123c0-.062-.062-.062-.062-.124 0-.061-.062-.061-.062-.123s-.061-.062-.061-.123c0-.062-.062-.062-.062-.124 0-.061-.062-.061-.062-.123 0-.061-.062-.061-.062-.123s-.062-.062-.062-.123c0-.062-.062-.062-.062-.124 0-.061-.062-.061-.062-.123s-.062-.062-.062-.123c0-.062-.062-.062-.062-.123 0-.062-.062-.062-.062-.124 0-.061-.062-.061-.062-.123s-.062-.062-.062-.123c0-.062-.062-.062-.062-.124 0-.061-.062-.061-.062-.123s-.062-.062-.062-.123c0-.062-.062-.062-.062-.123 0-.062-.062-.062-.062-.124 0-.061-.062-.061-.062-.123s-.062-.062-.062-.123c0-.062-.062-.062-.062-.124 0-.061-.062-.061-.062-.123 0-.061-.062-.061-.062-.123s-.062-.062-.062-.123c0-.062-.062-.062-.062-.124 0-.061-.062-.061-.062-.123s-.061-.062-.061-.123c0-.062-.062-.062-.062-.124 0-.061-.062-.061-.062-.123 0-.061-.062-.061-.062-.123s-.062-.062-.062-.123c0-.062-.062-.062-.062-.124 0-.061-.062-.061-.062-.123s-.062-.062-.062-.123c0-.062-.062-.062-.062-.124 0-.061-.062-.061-.062-.123 0-.061-.062-.061-.062-.123s-.062-.062-.062-.123c0-.062-.062-.062-.062-.124 0-.061-.062-.061-.062-.123s-.062-.062-.062-.123c0-.062-.062-.062-.062-.123 0-.062-.062-.062-.062-.124 0-.061-.062-.061-.062-.123s-.062-.062-.062-.123c0-.062-.062-.062-.062-.124 0-.061-.062-.061-.062-.123s-.062-.062-.062-.123c0-.062-.062-.062-.062-.123 0-.062-.062-.062-.062-.124 0-.061-.061-.061-.061-.123s-.062-.062-.062-.123c0-.062-.062-.062-.062-.124 0-.061-.062-.061-.062-.123s-.062-.062-.062-.123c0-.062-.062-.062-.062-.123 0-.062-.062-.062-.062-.124 0-.061-.062-.061-.062-.123s-.062-.062-.062-.123c0-.062-.062-.062-.062-.124 0-.061-.062-.061-.062-.123 0-.061-.062-.061-.062-.123s-.062-.062-.062-.123c0-.062-.062-.062-.062-.124-.186-.246-.558-.37-1.053-.246l-2.107.493c-1.363.308-2.726 1.664-3.16 2.959l-4.213 14.547c-.186.678-.124 1.233.248 1.541 0 .062.062.062.062.123 0 .062.062.062.062.123 0 .062.062.062.062.124 0 .061.062.061.062.123s.062.062.062.123c0 .062.062.062.062.124 0 .061.062.061.062.123 0 .061.062.062.062.123 0 .062.061.062.061.123 0 .062.062.062.062.124 0 .061.062.061.062.123s.062.062.062.123c0 .062.062.062.062.124 0 .061.062.061.062.123 0 .061.062.061.062.123s.062.062.062.123c0 .062.062.062.062.124 0 .061.062.061.062.123s.062.062.062.123c0 .062.062.062.062.124 0 .061.062.061.062.123 0 .061.062.061.062.123s.062.062.062.123c0 .062.062.062.062.124 0 .061.062.061.062.123s.062.062.062.123c0 .062.062.062.062.123 0 .062.062.062.062.124 0 .061.062.061.062.123s.062.062.062.123c0 .062.062.062.062.124 0 .061.062.061.062.123s.062.062.062.123c0 .062.061.062.061.123 0 .062.062.062.062.124 0 .061.062.061.062.123s.062.062.062.123c0 .062.062.062.062.124 0 .061.062.061.062.123 0 .061.062.062.062.123 0 .062.062.062.062.123 0 .062.062.062.062.124 0 .061.062.061.062.123s.062.062.062.123c0 .062.062.062.062.124 0 .061.062.061.062.123 0 .061.062.061.062.123s.062.062.062.123c0 .062.062.062.062.124 0 .061.062.061.062.123s.062.062.062.123c0 .062.062.062.062.124 0 .061.062.061.062.123 0 .061.062.061.062.123s.062.062.062.123c0 .062.062.062.062.124 0 .061.062.061.062.123s.061.062.061.123c0 .062.062.062.062.123 0 .062.062.062.062.124 0 .061.062.061.062.123s.062.062.062.123c0 .062.062.062.062.124 0 .061.062.061.062.123s.062.062.062.123c0 .062.062.062.062.123 0 .062.062.062.062.124 0 .061.062.061.062.123s.062.062.062.123c0 .062.062.062.062.124 0 .061.062.061.062.123s.062.062.062.123c0 .062.062.062.062.123 0 .062.062.062.062.124 0 .061.062.061.062.123s.062.062.062.123c0 .062.062.062.062.124 0 .061.062.061.062.123 0 .061.062.061.062.123s.062.062.062.123c0 .062.062.062.062.124 0 .061.062.061.062.123s.061.062.061.123c0 .062.062.062.062.124 0 .061.062.061.062.123 0 .061.062.061.062.123s.062.062.062.123c.31.37.868.494 1.549.309l1.363-.309c1.363-.308 2.727-1.664 3.16-2.958l4.399-15.287z" fill="#82960E"/><path d="M161.899 155.273l7.992 8.383 1.116-1.911s.186-3.144 1.363-4.623 2.974-2.342 4.399-2.527c1.425-.185 2.23-.123 2.23-.123l-8.116-8.507s-4.213.185-5.577 1.726c-1.301 1.541-3.407 7.582-3.407 7.582z" fill="#A7BD29"/><path d="M175.902 158.54l-12.02-12.636 5.762-1.357 12.02 12.637-5.762 1.356z" fill="#B3CF13"/><path d="M169.953 163.656l1.549-5.116c.496-1.726 2.355-3.39 4.09-3.822l2.354-.554c1.053-.247 1.673.369 1.363 1.417l-4.709 16.212c-.248.801-1.115 1.603-1.92 1.787l-2.231.494 3.222-11.281-3.718.863z" fill="#4C5900"/><path d="M171.192 174.135l-1.363.308c-1.363.309-2.106-.493-1.735-1.787l4.214-14.547c.371-1.295 1.796-2.651 3.16-2.959l2.106-.493c.929-.247 1.425.308 1.177 1.233l-4.399 15.348c-.372 1.295-1.797 2.589-3.16 2.897z" fill="#73850C"/><path d="M168.838 174.628a.9.9 0 01-.557-.369c-.372-.37-.434-.987-.248-1.665l4.213-14.547c.186-.678.62-1.356 1.239-1.911.62-.555 1.301-.986 1.983-1.171l2.107-.493c.495-.123.929-.062 1.177.246.248.247.31.678.186 1.172l-4.399 15.348c-.186.678-.62 1.356-1.24 1.911-.619.555-1.301.986-1.982 1.171l-1.363.308c-.434.062-.806.062-1.116 0zm9.418-19.848c-.186-.062-.372-.062-.619 0l-2.107.493c-1.301.308-2.664 1.603-3.036 2.836l-4.213 14.547c-.186.555-.124 1.048.186 1.356.309.308.743.37 1.363.247l1.363-.309.062.124-.062-.124c1.301-.308 2.664-1.602 3.036-2.835l4.399-15.349c.124-.37.062-.678-.124-.863-.062-.061-.124-.123-.248-.123z" fill="#536100"/><path d="M171.379 173.58l-1.364.308c-.991.247-1.611-.369-1.301-1.356l4.214-14.547c.309-.986 1.363-1.972 2.354-2.219l2.107-.493c.557-.123.929.185.743.801l-4.399 15.349c-.248.924-1.301 1.911-2.354 2.157zm3.841-17.629c-.867.185-1.797 1.048-2.045 1.911l-4.213 14.547c-.248.863.248 1.356 1.115 1.171l1.363-.308c.868-.185 1.797-1.048 2.045-1.911l4.399-15.348c.124-.432-.124-.678-.557-.617l-2.107.555z" fill="#FFD052"/><path d="M168.279 159.28l-1.983 6.595v2.342l1.053-1.232 1.983-6.596-1.053-1.109zm.062 1.294l.248.308-.124.37-.248-.308.124-.37zm-1.363 5.794l-.248-.308.124-.37.248.308-.124.37zm.371-1.294l-.247-.247.124-.37.247.247-.124.37z" fill="#915C19"/><path d="M168.838 163.163l-1.611-1.726c-.186.062-1.177 3.452-1.177 3.452l1.611 1.726c.186-.062 1.177-3.452 1.177-3.452zm-2.416 1.603l.805-2.713.496.493-.558 1.911.186.185c.186-.061.681-1.787.681-1.787l.434.431-.805 2.712-1.239-1.232z" fill="#A87B00"/><path d="M167.041 161.56l-.991 3.329 1.611 1.726.991-3.329-1.611-1.726zm.496 4.685l-1.301-1.356.867-2.897.558.616-.558 1.911.186.185.558-1.911.557.555-.867 2.897z" fill="#FFD052"/><path d="M163.694 154.287l-1.983 6.595v2.343l1.053-1.233 1.983-6.596-1.053-1.109zm.062 1.294l.247.308-.123.37-.248-.308.124-.37zm-1.364 5.794l-.247-.308.124-.37.247.309-.124.369zm.372-1.294l-.248-.247.124-.369.248.246-.124.37z" fill="#915C19"/><path d="M164.253 158.17l-1.611-1.726c-.186.062-1.177 3.452-1.177 3.452l1.611 1.726c.185-.123 1.177-3.452 1.177-3.452zm-2.417 1.603l.806-2.712.495.493-.557 1.911.186.185c.186-.062.681-1.788.681-1.788l.434.432-.805 2.712-1.24-1.233z" fill="#A87B00"/><path d="M162.456 156.568l-.991 3.328 1.611 1.726.991-3.329-1.611-1.725zm.496 4.623l-1.302-1.357.868-2.897.558.617-.558 1.911.186.185.557-1.911.558.554-.867 2.898z" fill="#FFD052"/><path fill-rule="evenodd" clip-rule="evenodd" d="M180.858 202.49l.372 1.911-.372 11.896-14.251-8.198v-13.807l14.251 8.198z" fill="#D1B68A"/><path fill-rule="evenodd" clip-rule="evenodd" d="M180.858 202.49l13.507-7.829-.062 13.87-13.445 7.766V202.49z" fill="#C4A676"/><path fill-rule="evenodd" clip-rule="evenodd" d="M166.607 194.291l13.508-7.766 14.25 8.136-13.507 7.829-14.251-8.199z" fill="#C1A963"/><path fill-rule="evenodd" clip-rule="evenodd" d="M181.23 201.072l-.372 2.712-14.932-8.63v-2.404l15.304 8.322z" fill="#DBC49E"/><path fill-rule="evenodd" clip-rule="evenodd" d="M174.663 200.702l-.062 2.527 4.894 2.774v-2.465l-4.832-2.836z" fill="#F0F0F0"/><path fill-rule="evenodd" clip-rule="evenodd" d="M178.628 203.353l.495.308v1.849l-.495-.308v-1.849zm-3.656-.247v-1.849l.496.308v1.849l-.496-.308zm.929.555v-1.849l.496.308v1.849l-.496-.308zm.93.555v-1.85l.495.309v1.849l-.495-.308zm.929.493v-1.849l.496.308v1.849l-.496-.308z" fill="#8A888B"/><path fill-rule="evenodd" clip-rule="evenodd" d="M180.858 201.318l14.189-8.198v2.466l-14.189 8.198v-2.466z" fill="#D1B68A"/><path fill-rule="evenodd" clip-rule="evenodd" d="M165.926 192.75l14.189-8.198 14.932 8.568-14.189 8.199-14.932-8.569z" fill="#EDDDC4"/><path d="M121.254 220.797v2.034c0 .37-.248.802-.558.987-.248.123-.496.123-.558-.124l-.867-1.726 1.983-1.171z" fill="#858B9E"/><path d="M120.634 225.482l-.805-.493.185-1.665 1.549-1.664 1.054.555-.186.555-1.797 2.712z" fill="#171821"/><path d="M120.758 221.784c.743-.432 1.363-.062 1.363.801s-.62 1.911-1.363 2.342c-.744.432-1.363.062-1.363-.801s.619-1.911 1.363-2.342z" fill="#171821"/><path d="M120.262 224.619c0 .863.62 1.233 1.363.801.744-.431 1.363-1.479 1.363-2.342s-.619-1.233-1.363-.802c-.743.432-1.363 1.48-1.363 2.343z" fill="#3B3D4A"/><path d="M120.758 224.311c0 .493.372.739.805.493.434-.247.806-.925.806-1.418 0-.493-.372-.74-.806-.493-.433.246-.805.863-.805 1.418z" fill="#CCD3DE"/><path d="M120.944 224.187c0 .432.309.555.681.37.372-.185.682-.739.682-1.109 0-.432-.31-.555-.682-.37-.372.185-.681.678-.681 1.109z" fill="#636C7A"/><path d="M122.183 221.352v2.034c0 .37-.248.802-.557.986-.248.124-.496.124-.558-.123l-.868-1.726 1.983-1.171z" fill="#ADB3C4"/><path d="M121.377 223.941c0 .123.124.185.185.123.124-.061.185-.246.185-.37 0-.123-.123-.184-.185-.123-.061.062-.185.247-.185.37z" fill="#CDD4E8"/><path d="M122.183 221.352l-.929-.555-1.983 1.171.929.555 1.983-1.171z" fill="#CCD1DE"/><path d="M108.056 213.216v2.034c0 .37-.248.801-.557.986-.248.123-.496.123-.558-.123l-.868-1.726 1.983-1.171z" fill="#858B9E"/><path d="M107.499 217.9l-.868-.493.186-1.726 1.611-1.603.991.494-.186.616-1.734 2.712z" fill="#171821"/><path d="M107.56 214.202c.744-.432 1.363-.062 1.363.801s-.619 1.911-1.363 2.343c-.743.431-1.363.061-1.363-.802s.62-1.911 1.363-2.342z" fill="#171821"/><path d="M107.065 217.037c0 .863.619 1.233 1.363.802.743-.432 1.363-1.48 1.363-2.343s-.62-1.233-1.363-.801c-.744.431-1.363 1.479-1.363 2.342z" fill="#3B3D4A"/><path d="M107.56 216.729c0 .493.372.74.806.493.433-.246.805-.924.805-1.418 0-.493-.372-.739-.805-.493-.434.247-.806.863-.806 1.418z" fill="#CCD3DE"/><path d="M107.746 216.606c0 .431.31.555.682.37.371-.185.681-.74.681-1.11 0-.431-.31-.555-.681-.37-.372.185-.682.678-.682 1.11z" fill="#636C7A"/><path d="M108.986 213.709v2.034c0 .37-.248.801-.558.986-.248.123-.496.123-.558-.123l-.867-1.726 1.983-1.171z" fill="#ADB3C4"/><path d="M108.18 216.359c0 .124.123.185.185.124.123-.062.185-.247.185-.37s-.124-.185-.185-.123c-.062.061-.185.246-.185.369z" fill="#CDD4E8"/><path d="M108.986 213.709l-.93-.493-1.983 1.171.93.555 1.983-1.233z" fill="#CCD1DE"/><path d="M104.959 200.887l.248-6.349c.062-2.157 1.672-4.623 3.593-5.609l2.541-1.356c1.177-.617 2.044-.062 1.982 1.294l-.619 15.349c-.062.986-.806 2.219-1.673 2.65l-2.417 7.829.372-15.719-4.027 1.911z" fill="#E6291E"/><path d="M109.606 206.99l-1.487 7.335c-1.116.555-1.983.062-1.921-1.233l.558-19.848c.062-1.233.991-2.712 2.106-3.267l2.355-1.233c.619-.308 1.115 0 1.115.678l-.62 14.239c-.062 1.295-.991 2.774-2.106 3.329zm-.744-16.643c-.929.493-1.735 1.787-1.797 2.835l-.557 19.848c-.062 1.048.681 1.541 1.673 1.048l1.487-7.335c.929-.493 1.735-1.787 1.796-2.835l.62-14.239c0-.555-.372-.802-.805-.555l-2.417 1.233z" fill="#C9750E"/><path d="M124.785 196.573c0-.617-.186-.987-.557-1.171-.062-.062-.062-.062-.124-.062-.062-.062-.062-.062-.124-.062-.062-.061-.062-.061-.124-.061-.062-.062-.062-.062-.124-.062-.062-.062-.062-.062-.124-.062-.062-.061-.062-.061-.124-.061-.062-.062-.062-.062-.124-.062-.062-.062-.062-.062-.124-.062-.062-.061-.062-.061-.124-.061-.062-.062-.062-.062-.124-.062-.062-.061-.062-.061-.124-.061-.061-.062-.061-.062-.123-.062-.062-.062-.062-.062-.124-.062-.062-.061-.062-.061-.124-.061-.062-.062-.062-.062-.124-.062-.062-.062-.062-.062-.124-.062-.062-.061-.062-.061-.124-.061-.062-.062-.062-.062-.124-.062-.062-.062-.062-.062-.124-.062-.062-.061-.062-.061-.124-.061-.062-.062-.062-.062-.124-.062-.062-.062-.062-.062-.124-.062-.062-.061-.062-.061-.124-.061-.061-.062-.061-.062-.123-.062-.062-.061-.062-.061-.124-.061-.062-.062-.062-.062-.124-.062-.062-.062-.062-.062-.124-.062-.062-.061-.062-.061-.124-.061-.062-.062-.062-.062-.124-.062-.062-.062-.062-.062-.124-.062-.062-.061-.062-.061-.124-.061-.062-.062-.062-.062-.124-.062-.062-.062-.062-.062-.124-.062-.062-.061-.062-.061-.124-.061-.062-.062-.062-.062-.124-.062-.062-.062-.062-.062-.123-.062-.062-.061-.062-.061-.124-.061-.062-.062-.062-.062-.124-.062-.062-.061-.062-.061-.124-.061-.062-.062-.062-.062-.124-.062-.062-.062-.062-.062-.124-.062-.062-.061-.062-.061-.124-.061-.062-.062-.062-.062-.124-.062-.062-.062-.062-.062-.124-.062-.062-.061-.062-.061-.124-.061-.062-.062-.062-.062-.124-.062-.062-.062-.062-.062-.124-.062-.062-.061-.062-.061-.123-.061-.062-.062-.062-.062-.124-.062-.062-.061-.062-.061-.124-.061-.062-.062-.062-.062-.124-.062-.062-.062-.062-.062-.124-.062-.062-.061-.062-.061-.124-.061-.062-.062-.062-.062-.124-.062-.062-.062-.062-.062-.124-.062-.062-.061-.062-.061-.124-.061-.062-.062-.062-.062-.124-.062-.062-.062-.062-.062-.124-.062-.062-.061-.062-.061-.124-.061-.062-.062-.062-.062-.123-.062-.062-.062-.062-.062-.124-.062-.062-.061-.062-.061-.124-.061-.062-.062-.062-.062-.124-.062-.062-.061-.062-.061-.124-.061-.062-.062-.062-.062-.124-.062-.062-.062-.062-.062-.124-.062-.062-.061-.062-.061-.124-.061-.062-.062-.062-.062-.124-.062-.062-.062-.062-.062-.124-.062-.062-.061-.062-.061-.124-.061-.062-.062-.062-.062-.124-.062-.062-.062-.062-.062-.124-.062-.061-.061-.061-.061-.123-.061-.062-.062-.062-.062-.124-.062-.062-.061-.062-.061-.124-.061-.062-.062-.062-.062-.124-.062-.062-.062-.062-.062-.124-.062-.062-.061-.062-.061-.124-.061-.062-.062-.062-.062-.124-.062-.062-.062-.062-.062-.124-.062-.062-.061-.062-.061-.124-.061-.062-.062-.062-.062-.124-.062-.062-.062-.062-.062-.124-.062-.062-.061-.062-.061-.124-.061-.061-.062-.061-.062-.123-.062-.062-.062-.062-.062-.124-.062-.062-.061-.062-.061-.124-.061-.31-.247-.806-.247-1.301 0l-2.355 1.233c-1.487.739-2.726 2.712-2.788 4.376l-.558 19.848c-.062.863.248 1.48.744 1.726.062.062.062.062.124.062.062.062.062.062.124.062.062.061.062.061.124.061.062.062.062.062.124.062.061.062.061.062.123.062.062.061.062.061.124.061.062.062.062.062.124.062.062.062.062.062.124.062.062.061.062.061.124.061.062.062.062.062.124.062.062.061.062.061.124.061.062.062.062.062.124.062.062.062.062.062.124.062.062.061.062.061.124.061.062.062.062.062.124.062.062.062.062.062.124.062.062.061.062.061.123.061.062.062.062.062.124.062.062.062.062.062.124.062.062.061.062.061.124.061.062.062.062.062.124.062.062.061.062.061.124.061.062.062.062.062.124.062.062.062.062.062.124.062.062.061.062.061.124.061.062.062.062.062.124.062.062.062.062.062.124.062.062.061.062.061.124.061.062.062.062.062.123.062.062.062.062.062.124.062.062.061.062.061.124.061.062.062.062.062.124.062.062.062.062.062.124.062.062.061.062.061.124.061.062.062.062.062.124.062.062.061.062.061.124.061.062.062.062.062.124.062.062.062.062.062.124.062.062.061.062.061.124.061.062.062.062.062.124.062.062.062.062.062.123.062.062.061.062.061.124.061.062.062.062.062.124.062.062.062.062.062.124.062.062.061.062.061.124.061.062.062.062.062.124.062.062.062.062.062.124.062.062.061.062.061.124.061.062.062.062.062.124.062.062.061.062.061.124.061.062.062.062.062.124.062.062.062.062.062.124.062.062.061.062.061.124.061.061.062.061.062.123.062.062.062.062.062.124.062.062.061.062.061.124.061.062.062.062.062.124.062.062.062.062.062.124.062.062.061.062.061.124.061.062.062.062.062.124.062.062.061.062.061.124.061.062.062.062.062.124.062.062.062.062.062.124.062.062.061.062.061.124.061.062.062.062.062.124.062.061.062.061.062.123.062.062.061.062.061.124.061.062.062.062.062.124.062.062.062.062.062.124.062.062.061.062.061.124.061.062.062.062.062.124.062.062.062.062.062.124.062.062.061.062.061.124.061.062.062.062.062.124.062.062.061.062.061.124.061.062.062.062.062.124.062.062.062.062.062.124.062.061.061.062.061.123.061.062.062.062.062.124.062.062.062.062.062.124.062.062.061.062.061.124.061.062.062.062.062.124.062.062.062.062.062.124.062.062.061.062.061.124.061.062.062.062.062.124.062.062.061.062.061.124.061.062.062.062.062.124.062.433.308 1.115.308 1.92-.062l1.487-.739c1.487-.74 2.727-2.712 2.789-4.377l.619-20.834z" fill="#DEA259"/><path d="M104.959 200.888l11.772 7.396.743-2.588s-.743-3.699.186-5.795c.93-2.096 2.788-3.575 4.337-4.191 1.611-.678 2.603-.802 2.603-.802l-11.896-7.52s-4.833 1.48-6.01 3.637c-1.116 2.219-1.735 9.863-1.735 9.863z" fill="#E6291E"/><path d="M116.792 208.284l.248-6.349c.062-2.157 1.673-4.623 3.594-5.609l2.54-1.356c1.177-.617 2.045-.062 1.983 1.294l-.62 21.944c-.062.987-.805 2.22-1.673 2.651l-2.416 1.233.372-15.719-4.028 1.911z" fill="#C2140A"/><path d="M121.377 221.783l-1.487.74c-1.487.74-2.602.062-2.54-1.602l.557-19.849c.062-1.664 1.301-3.575 2.788-4.376l2.355-1.233c.991-.493 1.797-.062 1.735 1.109l-.62 20.773c-.062 1.665-1.301 3.637-2.788 4.438z" fill="#F9C687"/><path d="M118.714 223.016c-.248 0-.558-.061-.744-.246-.558-.308-.805-.986-.743-1.849l.557-19.849c.062-.801.372-1.726.868-2.589.557-.863 1.239-1.541 1.982-1.911l2.355-1.232c.557-.309 1.053-.309 1.425-.062.372.247.557.678.557 1.294l-.619 20.773c-.062.802-.372 1.726-.868 2.589-.557.863-1.239 1.541-1.982 1.911l-1.487.74c-.496.308-.93.431-1.301.431zm5.142-27.553a1.62 1.62 0 00-.681.185l-2.355 1.233c-1.425.739-2.602 2.65-2.664 4.191l-.558 19.849c0 .739.186 1.294.62 1.541.434.246.991.246 1.673-.124l1.487-.739.062.185-.062-.185c1.425-.74 2.602-2.651 2.664-4.192l.62-20.773c0-.493-.124-.801-.372-.986-.186-.123-.31-.185-.434-.185z" fill="#B36300"/><path d="M121.377 221.044l-1.487.74c-1.115.554-1.982.061-1.92-1.233l.557-19.849c.062-1.232.992-2.712 2.107-3.267l2.354-1.232c.62-.309 1.116 0 1.116.678l-.62 20.773c-.062 1.294-.991 2.773-2.107 3.39zm-.743-23.3c-.929.493-1.735 1.787-1.797 2.835l-.558 19.848c-.061 1.048.682 1.541 1.673 1.048l1.487-.739c.93-.493 1.735-1.788 1.797-2.836l.62-20.773c0-.555-.372-.801-.806-.555l-2.416 1.172z" fill="#C9750E"/><path d="M104.215 208.161l.062-1.972c0-.678.558-1.48 1.115-1.788l.806-.431c.372-.185.619 0 .619.369l-.186 4.808c0 .309-.247.678-.557.863l-.744.37.124-2.835-1.239.616z" fill="#E6291E"/><path d="M105.638 210.072l-.433.247c-.372.185-.62 0-.62-.37l.186-4.13c0-.37.31-.863.681-1.048l.744-.37c.186-.123.372 0 .372.247l-.186 4.438c-.062.37-.372.801-.744.986zm-.186-5.178c-.309.185-.557.555-.557.863l-.186 4.13c0 .308.186.493.496.308l.433-.246c.31-.185.558-.555.558-.863l.186-4.438c0-.185-.124-.247-.248-.185l-.682.431z" fill="#C9750E"/><path d="M110.411 206.805c0-.185-.062-.308-.186-.37h-.062-.062-.062-.062-.062-.062-.062-.062-.062-.062-.062-.062-.062-.061-.062-.062-.062-.062-.062-.062-.062-.062-.062-.062-.062-.062-.062-.062-.062-.062-.062-.062-.062-.062-.062-.062-.062-.061-.062-.062-.062-.062-.062-.062-.062-.062-.062-.062-.062-.062-.062-.062-.062-.062-.062-.062-.062-.062-.062-.062-.062-.062-.061-.062-.062-.062-.062-.062-.062-.062-.062-.062-.062-.062-.062-.062-.062-.062-.062-.062-.062-.062-.062-.062-.062-.062-.061c-.124-.061-.248-.061-.434 0l-.744.37c-.433.247-.867.863-.867 1.356l-.186 4.13c0 .247.062.432.248.555H108.242c.124.123.372.123.62 0l.434-.247c.433-.246.867-.863.867-1.356l.248-4.438z" fill="#DEA259"/><path d="M104.214 208.161l3.656 2.342.248-.801s-.248-1.171.062-1.788a2.5 2.5 0 011.363-1.294c.496-.185.805-.247.805-.247l-3.717-2.342s-1.487.432-1.859 1.171c-.372.555-.558 2.959-.558 2.959z" fill="#E6291E"/><path d="M109.605 208.038l-5.514-3.452 1.921-1.048 5.576 3.514-1.983.986z" fill="#FF564D"/><path d="M107.932 210.503l.062-1.972c0-.678.558-1.479 1.115-1.788l.806-.431c.372-.185.619 0 .619.37l-.185 4.808c0 .308-.248.678-.558.863l-.744.37.124-2.836-1.239.616z" fill="#C2140A"/><path d="M109.357 212.599l-.434.247c-.433.246-.805 0-.805-.493l.186-4.13c0-.493.434-1.11.867-1.356l.744-.37c.31-.185.557 0 .557.37l-.185 4.438c-.124.493-.496 1.109-.93 1.294z" fill="#F9C687"/><path d="M108.49 213.031c-.062 0-.186 0-.248-.061-.186-.123-.248-.308-.248-.555l.186-4.13c0-.246.124-.555.31-.801.186-.247.372-.493.62-.617l.743-.369c.186-.062.31-.124.434 0 .124.061.186.246.186.431l-.186 4.438c0 .247-.124.555-.31.802-.186.246-.372.493-.62.616l-.433.246c-.186-.061-.31 0-.434 0zm1.611-6.533c-.062 0-.124 0-.248.061l-.743.37c-.434.247-.806.801-.868 1.294l-.186 4.13c0 .247.062.37.186.494.124.061.31.061.496-.062l.434-.247v.062-.062c.433-.246.805-.801.867-1.294l.186-4.438a.466.466 0 00-.124-.308c.062 0 .062 0 0 0z" fill="#B36300"/><path d="M109.357 212.414l-.433.247c-.372.185-.62 0-.62-.37l.186-4.13c0-.37.31-.863.681-1.048l.744-.37c.186-.123.372 0 .372.247l-.186 4.438c-.124.308-.434.801-.744.986zm-.248-5.239c-.309.185-.557.555-.557.863l-.186 4.13c0 .308.186.493.496.308l.433-.247c.31-.184.558-.554.558-.863l.186-4.438c0-.185-.124-.246-.248-.185l-.682.432z" fill="#C9750E"/><path d="M107.064 208.654l-.124 2.589.186.863.248-.554.124-2.589-.434-.309zm.124.494l.124.061v.123l-.124-.061v-.123zm.062 2.219l-.124-.062v-.123l.124.061v.124zm0-.494l-.124-.061v-.123l.124.061v.123z" fill="#915C19"/><path d="M107.623 210.01l-.744-.493c-.062.062-.124 1.356-.124 1.356l.744.494c.062-.062.124-1.357.124-1.357zm-.744.802l.062-1.048.186.123-.062.74.062.062c.062-.062.062-.679.062-.679l.186.124-.062 1.048-.434-.37z" fill="#A87B00"/><path d="M106.817 209.579l-.062 1.294.744.494.062-1.295-.744-.493zm.62 1.664l-.62-.37.062-1.109.248.185-.062.74.062.061.062-.74.248.185v1.048z" fill="#FFD052"/><path d="M104.957 207.236l-.124 2.589.186.863.248-.554.124-2.589-.434-.309zm.124.494l.124.061v.123l-.124-.061v-.123zm.062 2.219l-.124-.062v-.123l.124.061v.124zm0-.494l-.124-.061v-.123l.124.061v.123z" fill="#915C19"/><path d="M105.516 208.592l-.744-.493c-.062.062-.124 1.356-.124 1.356l.744.494c.062 0 .124-1.357.124-1.357zm-.744.802l.062-1.048.186.123-.062.74.062.062c.062-.062.062-.679.062-.679l.186.124-.062 1.048-.434-.37z" fill="#A87B00"/><path d="M104.71 208.223l-.062 1.294.744.493.062-1.294-.744-.493zm.62 1.602l-.62-.369.062-1.11.248.185-.062.74.062.061.062-.739.248.185v1.047z" fill="#FFD052"/><path d="M110.596 211.798l.062-1.973c0-.678.558-1.479 1.116-1.787l.805-.432c.372-.185.62 0 .62.37l-.186 4.808c0 .308-.248.678-.558.863l-.743.37.124-2.836-1.24.617z" fill="#E6291E"/><path d="M112.02 213.77l-.434.247c-.372.185-.62 0-.62-.37l.186-4.13c0-.37.31-.863.682-1.048l.743-.37c.186-.123.372 0 .372.247l-.186 4.438c-.124.308-.372.801-.743.986zm-.248-5.239c-.31.185-.558.555-.558.863l-.186 4.13c0 .308.186.493.496.308l.434-.247c.309-.184.557-.554.557-.863l.186-4.438c0-.185-.124-.246-.248-.185l-.681.432z" fill="#C9750E"/><path d="M116.731 210.503c0-.185-.062-.308-.186-.369h-.062-.062-.062-.062-.062-.062-.062-.062-.062-.062-.062-.062-.062-.062-.062-.062-.062-.061-.062-.062-.062-.062-.062-.062-.062-.062-.062-.062-.062-.062-.062-.062-.062-.062-.062-.062-.062-.062-.062-.062-.062-.061-.062-.062-.062-.062-.062-.062-.062-.062-.062-.062-.062-.062-.062-.062-.062-.062-.062-.062-.062-.062-.062-.062-.062-.062-.061-.062-.062-.062-.062-.062-.062-.062-.062-.062-.062-.062-.062-.062-.062-.062-.062-.062-.062-.062-.062c-.124-.062-.247-.062-.433 0l-.744.369c-.434.247-.867.863-.867 1.356l-.186 4.13c0 .247.062.432.248.555H114.562c.124.123.372.123.62 0l.433-.246c.434-.247.868-.863.868-1.356l.248-4.439z" fill="#DEA259"/><path d="M110.596 211.798l3.656 2.342.247-.801s-.247-1.171.062-1.788a2.504 2.504 0 011.363-1.294c.496-.185.806-.247.806-.247l-3.718-2.342s-1.487.431-1.858 1.171c-.372.617-.558 2.959-.558 2.959z" fill="#E6291E"/><path d="M115.987 211.736l-5.576-3.513 1.983-.987 5.514 3.452-1.921 1.048z" fill="#FF564D"/><path d="M114.252 214.14l.062-1.972c0-.678.558-1.48 1.116-1.788l.805-.431c.372-.185.62 0 .62.369l-.186 4.808c0 .309-.248.678-.558.863l-.743.37.124-2.835-1.24.616z" fill="#C2140A"/><path d="M115.677 216.298l-.434.246c-.433.247-.805 0-.805-.493l.186-4.13c0-.493.433-1.109.867-1.356l.744-.37c.309-.185.557 0 .557.37l-.186 4.438c-.062.432-.433 1.048-.929 1.295z" fill="#F9C687"/><path d="M114.872 216.667c-.062 0-.186 0-.248-.061-.186-.124-.248-.309-.248-.555l.186-4.13c0-.247.124-.555.31-.801.186-.247.372-.493.619-.617l.744-.37c.186-.061.31-.123.434 0 .124.062.186.247.186.432l-.186 4.438c0 .247-.124.555-.31.801-.186.247-.372.494-.62.617l-.433.246h-.434zm1.611-6.534c-.062 0-.124 0-.248.062l-.744.37c-.433.246-.805.801-.867 1.294l-.186 4.13c0 .247.062.37.186.493.124.062.31.062.496-.061l.433-.247v.062-.062c.434-.246.806-.801.868-1.294l.186-4.438a.47.47 0 00-.124-.309s.062 0 0 0z" fill="#B36300"/><path d="M115.74 216.051l-.434.247c-.372.185-.619 0-.619-.37l.185-4.13c0-.37.31-.863.682-1.048l.743-.37c.186-.123.372 0 .372.247l-.186 4.438c-.124.37-.433.801-.743.986zm-.248-5.178c-.31.185-.558.555-.558.863l-.186 4.13c0 .308.186.493.496.308l.434-.246c.31-.185.557-.555.557-.863l.186-4.438c0-.185-.124-.247-.247-.185l-.682.431z" fill="#C9750E"/><path d="M113.446 212.353l-.124 2.589.186.863.248-.555.123-2.589-.433-.308zm.124.431l.124.062v.123l-.124-.062v-.123zm.062 2.219l-.124-.061v-.124l.124.062v.123zm0-.493l-.124-.062v-.123l.124.062v.123z" fill="#915C19"/><path d="M114.004 213.709l-.743-.493c-.062.061-.124 1.356-.124 1.356l.743.493c.062-.062.124-1.356.124-1.356zm-.743.801l.062-1.048.186.123-.062.74.062.062c.062-.062.062-.678.062-.678l.186.123-.062 1.048-.434-.37z" fill="#A87B00"/><path d="M113.199 213.277l-.062 1.295.743.493.062-1.295-.743-.493zm.62 1.665l-.62-.37.062-1.11.248.185-.062.74.062.061.062-.739.248.185v1.048z" fill="#FFD052"/><path d="M111.277 210.935l-.124 2.589.186.863.248-.555.124-2.589-.434-.308zm.186.431l.124.062v.123l-.124-.061v-.124zm0 2.281l-.124-.062v-.123l.124.062v.123zm.062-.555l-.124-.061v-.124l.124.062v.123z" fill="#915C19"/><path d="M111.836 212.291l-.744-.493c-.062.061-.124 1.356-.124 1.356l.744.493c.062-.062.124-1.356.124-1.356zm-.682.801l.062-1.048.186.124-.062.739.062.062c.062-.062.062-.678.062-.678l.186.123-.062 1.048-.434-.37z" fill="#A87B00"/><path d="M111.03 211.859l-.062 1.295.744.493.062-1.295-.744-.493zm.62 1.665l-.62-.37.062-1.11.248.185-.062.74.062.062.062-.74.248.185v1.048z" fill="#FFD052"/><path d="M120.882 192.258v.863l-.124-.124.124 1.665 1.425-.863v-.74l-1.425-.801z" fill="#070D12"/><path d="M120.882 194.662l-1.425-.863v-.74l1.425.863v.74z" fill="#253138"/><path d="M120.882 193.922l1.425-.801-1.425-.802s-1.487.802-1.425.802c.062 0 1.425.801 1.425.801z" fill="#425663"/><path d="M113.013 187.696v.863l-.186-.123.186 1.664 1.425-.863v-.739l-1.425-.802z" fill="#070D12"/><path d="M113.013 190.1l-1.425-.863v-.739l1.425.863v.739z" fill="#253138"/><path d="M113.013 189.361l1.425-.802-1.425-.801s-1.487.801-1.425.801l1.425.802z" fill="#425663"/><path d="M113.013 188.991l.805-.432-1.053-1.294.248 1.726z" fill="#C2C2C2"/><path d="M113.819 188.559l-.806-.493v-14.177l.806.431v14.239z" fill="#C2C2C2"/><path d="M113.013 188.991l-.743-.432V174.32l.743.493v14.178z" fill="#DEDEDE"/><path d="M120.944 193.49l.743-.431-1.053-1.295.31 1.726z" fill="#C2C2C2"/><path d="M121.687 193.059l-.805-.431v-14.239l.805.493v14.177z" fill="#C2C2C2"/><path d="M120.944 193.49l-.806-.431v-14.177l.806.431v14.177z" fill="#DEDEDE"/><path d="M121.997 177.279c0-.493-.372-1.11-.744-1.356l-7.559-4.315c-.247-.123-.433-.123-.557-.062-.124.062-.248.247-.248.493v2.898l1.239.739v-1.048l5.514 3.144v2.281l1.24.739v-3.513h1.115z" fill="#070D12"/><path d="M119.641 180.053v-2.281l-6.567-3.76v2.281l-1.24-.74v-2.897c0-.493.372-.678.806-.432l7.559 4.315c.434.247.743.863.743 1.356v2.959l-1.301-.801z" fill="#1F2E38"/><path fill-rule="evenodd" clip-rule="evenodd" d="M222.742 166.43l2.169 11.589c.248 1.047 1.115 2.095 2.478 2.897 3.47 1.972 8.984 1.972 12.454 0 1.549-.925 2.416-2.096 2.54-3.267l2.107-11.219c-.31 7.212-21.748 3.205-21.748 0z" fill="#96979B"/><path fill-rule="evenodd" clip-rule="evenodd" d="M241.268 162.054c-4.275-2.466-11.152-2.466-15.366 0-4.213 2.465-4.213 6.41.062 8.876 2.107 1.233 4.895 1.849 7.683 1.849 2.788 0 5.577-.616 7.683-1.849 4.213-2.466 4.151-6.411-.062-8.876z" fill="#9C9EA2"/><path fill-rule="evenodd" clip-rule="evenodd" d="M239.533 163.04c-3.284-1.911-8.612-1.911-11.834 0-3.284 1.911-3.222 4.931.062 6.842 3.284 1.911 8.612 1.911 11.834 0 3.222-1.849 3.222-4.931-.062-6.842z" fill="#331202"/><path fill-rule="evenodd" clip-rule="evenodd" d="M234.701 136.473v.308l-.062.062h-.062-.062-.062-.062c-.062 0-.062.061-.124.061h-.062s-.062 0-.062.062h-.124-.124-.186-.619-.124-.062c-.062 0-.062 0-.124-.062h-.062s-.062 0-.062-.061c-.248-.124-.31-.309-.31-.432v29.958c0 .184.124.308.31.431 0 0 .062 0 .062.062h.062c.062 0 .062 0 .124.061H233.647s.062 0 .062-.061h.062c.062 0 .062-.062.124-.062h.124l.062-.062v-.061-.062-.062-30.08c.62-.062.62 0 .62 0z" fill="#57260D"/><path fill-rule="evenodd" clip-rule="evenodd" d="M234.39 135.98c-.433-.247-1.115-.247-1.549 0-.433.246-.433.678 0 .924.434.247 1.116.247 1.549 0 .434-.308.434-.678 0-.924z" fill="#9C9EA2"/><path fill-rule="evenodd" clip-rule="evenodd" d="M233.585 122.48c7.621 0 13.755 5.61 13.755 12.452 0 6.903-6.196 12.451-13.755 12.451-7.621 0-13.755-5.609-13.755-12.451 0-6.842 6.134-12.452 13.755-12.452z" fill="#669839"/><path fill-rule="evenodd" clip-rule="evenodd" d="M247.278 133.76c.062.432.062.802.062 1.233 0 6.904-6.196 12.452-13.755 12.452-7.621 0-13.755-5.61-13.755-12.452 0-.431 0-.801.062-1.233 2.726 3.699 7.869 6.226 13.693 6.226 5.886 0 10.967-2.527 13.693-6.226z" fill="#5E8838"/><path fill-rule="evenodd" clip-rule="evenodd" d="M197.03 124.268l.433 2.466-.495 15.102-18.154-10.418.062-17.567 18.154 10.417z" fill="#D1B68A"/><path fill-rule="evenodd" clip-rule="evenodd" d="M197.03 124.268l17.163-9.924-.062 17.568-17.163 9.924.062-17.568z" fill="#C4A676"/><path fill-rule="evenodd" clip-rule="evenodd" d="M178.876 113.851l17.162-9.924 18.154 10.417-17.162 9.924-18.154-10.417z" fill="#C1A963"/><path fill-rule="evenodd" clip-rule="evenodd" d="M197.463 122.481l-.433 3.451-19.084-10.972v-3.082l19.517 10.603z" fill="#DBC49E"/><path fill-rule="evenodd" clip-rule="evenodd" d="M189.099 122.049l-.062 3.205 6.196 3.514v-3.205l-6.134-3.514z" fill="#F0F0F0"/><path fill-rule="evenodd" clip-rule="evenodd" d="M194.118 125.378l.681.37v2.404l-.681-.37v-2.404zm-4.585-.308v-2.404l.681.369v2.404l-.681-.369zm1.177.678v-2.404l.681.369v2.404l-.681-.369zm1.177.678v-2.404l.682.369v2.404l-.682-.369zm1.115.678V124.7l.682.37v2.404l-.682-.37z" fill="#8A888B"/><path fill-rule="evenodd" clip-rule="evenodd" d="M197.03 122.789l18.03-10.418v3.082l-18.03 10.479v-3.143z" fill="#D1B68A"/><path fill-rule="evenodd" clip-rule="evenodd" d="M177.946 111.878l18.092-10.479 19.022 10.972-18.03 10.418-19.084-10.911z" fill="#EDDDC4"/><path fill-rule="evenodd" clip-rule="evenodd" d="M197.587 105.591l.31 1.972-.372 12.39-14.808-8.506.062-14.363 14.808 8.507z" fill="#D1B68A"/><path fill-rule="evenodd" clip-rule="evenodd" d="M197.587 105.591l14.003-8.137-.062 14.363-14.003 8.136.062-14.362z" fill="#C4A676"/><path fill-rule="evenodd" clip-rule="evenodd" d="M182.779 97.084l14.003-8.136 14.808 8.506-14.003 8.137-14.808-8.507z" fill="#C1A963"/><path fill-rule="evenodd" clip-rule="evenodd" d="M197.897 104.112l-.31 2.835-15.613-8.938.062-2.589 15.861 8.692z" fill="#DBC49E"/><path fill-rule="evenodd" clip-rule="evenodd" d="M191.082 103.741v2.651l5.018 2.897v-2.65l-5.018-2.898z" fill="#F0F0F0"/><path fill-rule="evenodd" clip-rule="evenodd" d="M195.233 106.454l.557.308v1.972l-.557-.308v-1.972zm-3.78-.185v-1.973l.558.308v1.973l-.558-.308zm.93.555v-1.973l.557.308v1.973l-.557-.308zm.991.554v-1.972l.558.308v1.973l-.558-.309zm.929.493v-1.972l.558.308v1.973l-.558-.309z" fill="#8A888B"/><path fill-rule="evenodd" clip-rule="evenodd" d="M197.587 104.358l14.746-8.507v2.528l-14.746 8.568v-2.589z" fill="#D1B68A"/><path fill-rule="evenodd" clip-rule="evenodd" d="M182.035 95.42l14.684-8.506 15.614 8.938-14.746 8.506-15.552-8.938z" fill="#EDDDC4"/><path fill-rule="evenodd" clip-rule="evenodd" d="M69.208 126.61l.434 2.466-.496 15.102-18.03-10.418.062-17.505 18.03 10.355z" fill="#D1B68A"/><path fill-rule="evenodd" clip-rule="evenodd" d="M69.208 126.61l17.1-9.862-.062 17.506-17.1 9.924.062-17.568z" fill="#C4A676"/><path fill-rule="evenodd" clip-rule="evenodd" d="M51.178 116.255l17.1-9.863 18.03 10.356-17.1 9.862-18.03-10.355z" fill="#C1A963"/><path fill-rule="evenodd" clip-rule="evenodd" d="M69.642 124.884l-.434 3.39-18.96-10.91v-3.082l19.394 10.602z" fill="#DBC49E"/><path fill-rule="evenodd" clip-rule="evenodd" d="M61.277 124.391v3.205l6.196 3.514v-3.144l-6.196-3.575z" fill="#F0F0F0"/><path fill-rule="evenodd" clip-rule="evenodd" d="M66.358 127.72l.682.37v2.403l-.682-.369v-2.404zm-4.647-.247v-2.404l.62.37v2.404l-.62-.37zm1.177.678v-2.404l.62.37v2.404l-.62-.37zm1.24.678v-2.404l.62.37v2.404l-.62-.37zm1.115.617v-2.404l.62.369v2.404l-.62-.369z" fill="#8A888B"/><path fill-rule="evenodd" clip-rule="evenodd" d="M69.208 125.192l17.968-10.417v3.144l-17.968 10.355v-3.082z" fill="#D1B68A"/><path fill-rule="evenodd" clip-rule="evenodd" d="M50.248 114.282l17.969-10.417 18.96 10.91-17.969 10.417-18.96-10.91z" fill="#EDDDC4"/><path fill-rule="evenodd" clip-rule="evenodd" d="M69.146 107.502l.371 1.972-.433 12.39-14.808-8.507.062-14.424 14.808 8.569z" fill="#D1B68A"/><path fill-rule="evenodd" clip-rule="evenodd" d="M69.146 107.502l14.003-8.137v14.362l-14.065 8.137.062-14.362z" fill="#C4A676"/><path fill-rule="evenodd" clip-rule="evenodd" d="M54.338 98.933l14.003-8.075 14.808 8.507-14.003 8.137-14.808-8.569z" fill="#C1A963"/><path fill-rule="evenodd" clip-rule="evenodd" d="M69.518 106.022l-.372 2.774-15.552-8.938v-2.527l15.924 8.691z" fill="#DBC49E"/><path fill-rule="evenodd" clip-rule="evenodd" d="M62.64 105.652v2.589l5.08 2.897v-2.589l-5.08-2.897z" fill="#F0F0F0"/><path fill-rule="evenodd" clip-rule="evenodd" d="M66.791 108.365l.558.308v1.972l-.558-.308v-1.972zm-3.78-.247v-1.972l.558.308v1.972l-.557-.308zm.992.555V106.7l.558.309v1.972l-.558-.308zm.93.616v-1.972l.557.308v1.973l-.558-.309zm.929.493v-1.972l.558.308v1.973l-.558-.309z" fill="#8A888B"/><path fill-rule="evenodd" clip-rule="evenodd" d="M69.146 106.269l14.746-8.507v2.528l-14.746 8.506v-2.527z" fill="#D1B68A"/><path fill-rule="evenodd" clip-rule="evenodd" d="M53.594 97.33l14.747-8.505 15.551 8.937-14.746 8.507-15.552-8.938z" fill="#EDDDC4"/><path fill-rule="evenodd" clip-rule="evenodd" d="M69.084 94.495l.248 1.295-.248 7.828-9.356-5.424v-9.061l9.356 5.362z" fill="#D1B68A"/><path fill-rule="evenodd" clip-rule="evenodd" d="M69.084 94.495l8.86-5.116v9.123l-8.86 5.116v-9.123z" fill="#C4A676"/><path fill-rule="evenodd" clip-rule="evenodd" d="M59.728 89.132l8.86-5.116 9.356 5.363-8.86 5.116-9.356-5.363z" fill="#C1A963"/><path fill-rule="evenodd" clip-rule="evenodd" d="M69.332 93.57l-.248 1.788-9.851-5.67v-1.603l10.099 5.486z" fill="#DBC49E"/><path fill-rule="evenodd" clip-rule="evenodd" d="M64.995 93.386v1.602l3.16 1.85v-1.665l-3.16-1.787z" fill="#F0F0F0"/><path fill-rule="evenodd" clip-rule="evenodd" d="M67.597 95.05l.372.185v1.233l-.372-.185V95.05zm-2.354-.123v-1.233l.31.185v1.233l-.31-.185zm.558.37v-1.233l.31.185v1.232l-.31-.184zm.62.37v-1.234l.309.185v1.233l-.31-.185zm.619.308v-1.233l.31.185v1.232l-.31-.184z" fill="#8A888B"/><path fill-rule="evenodd" clip-rule="evenodd" d="M69.084 93.756l9.356-5.363-.062 1.603-9.294 5.362v-1.602z" fill="#D1B68A"/><path fill-rule="evenodd" clip-rule="evenodd" d="M59.233 88.085l9.355-5.363 9.852 5.67-9.356 5.364-9.851-5.671z" fill="#EDDDC4"/><path fill-rule="evenodd" clip-rule="evenodd" d="M209.979 178.759l.248 1.294-.248 7.828-9.418-5.424.062-9.061 9.356 5.363z" fill="#D1B68A"/><path fill-rule="evenodd" clip-rule="evenodd" d="M209.979 178.758l8.86-5.116v9.123l-8.86 5.116v-9.123z" fill="#C4A676"/><path fill-rule="evenodd" clip-rule="evenodd" d="M200.623 173.396l8.86-5.116 9.356 5.362-8.86 5.116-9.356-5.362z" fill="#C1A963"/><path fill-rule="evenodd" clip-rule="evenodd" d="M210.226 177.895l-.247 1.726-9.852-5.671v-1.602l10.099 5.547z" fill="#DBC49E"/><path fill-rule="evenodd" clip-rule="evenodd" d="M205.889 177.649v1.603l3.16 1.849v-1.665l-3.16-1.787z" fill="#F0F0F0"/><path fill-rule="evenodd" clip-rule="evenodd" d="M208.492 179.313l.371.185v1.233l-.371-.185v-1.233zm-2.355-.123v-1.233l.31.185v1.233l-.31-.185zm.558.37v-1.233l.31.185v1.233l-.31-.185zm.619.37v-1.233l.31.185v1.232l-.31-.184zm.62.308v-1.233l.31.185v1.233l-.31-.185z" fill="#8A888B"/><path fill-rule="evenodd" clip-rule="evenodd" d="M209.979 178.019l9.356-5.363-.062 1.603-9.294 5.363v-1.603z" fill="#D1B68A"/><path fill-rule="evenodd" clip-rule="evenodd" d="M200.127 172.348l9.356-5.363 9.851 5.671-9.355 5.363-9.852-5.671z" fill="#EDDDC4"/><path d="M197.525 89.811c-1.611 0-3.16-.37-4.337-1.048-1.177-.678-1.859-1.603-1.859-2.65 0-.987.682-1.911 1.859-2.651 1.177-.678 2.664-1.048 4.337-1.048 1.673 0 3.16.37 4.337 1.048 1.177.678 1.859 1.603 1.859 2.65 0 .987-.682 1.911-1.859 2.651-1.177.678-2.726 1.048-4.337 1.048zm0-6.78c-1.487 0-2.912.308-4.027.986-1.054.616-1.611 1.356-1.611 2.157 0 .801.557 1.603 1.611 2.158 1.115.616 2.602.986 4.027.986 1.487 0 2.912-.308 4.027-.986 1.054-.617 1.611-1.356 1.611-2.158 0-.801-.557-1.603-1.611-2.157-1.115-.678-2.54-.986-4.027-.986z" fill="#B1BAC4"/><path d="M197.525 99.55c-.186 0-.372-.185-.372-.37l-.062-14.3c0-.185.186-.37.372-.37s.372.185.372.37l.062 14.3c0 .185-.186.37-.372.37zM190.214 95.359c-.062 0-.124 0-.186-.062-.186-.123-.248-.308-.124-.493.434-.678.929-2.527 1.177-7.459.124-2.958.124-5.67.124-5.732 0-.185.124-.37.372-.37.186 0 .372.185.372.37 0 0 .062 2.774-.124 5.732-.186 4.069-.62 6.72-1.301 7.767-.062.185-.186.247-.31.247zM204.65 95.359a.34.34 0 01-.309-.185c-.62-1.11-1.054-3.699-1.302-7.767-.123-3.02-.123-5.733-.123-5.733 0-.184.185-.37.371-.37s.372.186.372.37c0 0-.062 2.713.124 5.733.248 4.931.805 6.78 1.177 7.459.124.184.062.37-.124.493-.062-.062-.124 0-.186 0z" fill="#B1BAC4"/><path d="M197.525 85.434c3.73 0 6.754-1.738 6.754-3.883s-3.024-3.883-6.754-3.883c-3.73 0-6.754 1.738-6.754 3.883s3.024 3.883 6.754 3.883z" fill="#A2AEBA"/><path d="M204.278 79.394c0-.987-.681-1.973-1.982-2.774-2.665-1.541-6.94-1.541-9.604 0-1.301.74-1.983 1.787-1.983 2.774 0 .986.682 1.972 1.983 2.773 2.664 1.541 6.939 1.541 9.604 0 1.301-.74 1.982-1.787 1.982-2.773 0 .061 0 .061 0 0 0 .061 0 .061 0 0 0 .061 0 .061 0 0 0 .061 0 .061 0 0 0 .061 0 0 0 0z" fill="#B02727"/><path d="M197.525 83.277c3.73 0 6.754-1.739 6.754-3.883 0-2.145-3.024-3.884-6.754-3.884-3.73 0-6.754 1.739-6.754 3.884 0 2.144 3.024 3.883 6.754 3.883z" fill="#E65353"/><path d="M161.651 214.51c-1.611 0-3.16-.37-4.337-1.048-1.177-.678-1.859-1.602-1.859-2.65 0-.987.682-1.911 1.859-2.651 1.177-.678 2.664-1.048 4.337-1.048 1.673 0 3.16.37 4.337 1.048 1.177.678 1.859 1.603 1.859 2.651 0 .986-.682 1.911-1.859 2.65-1.177.678-2.726 1.048-4.337 1.048zm0-6.78c-1.487 0-2.912.308-4.027.986-1.054.616-1.611 1.356-1.611 2.157 0 .802.557 1.603 1.611 2.158 1.115.616 2.602.986 4.027.986 1.487 0 2.912-.308 4.027-.986 1.054-.617 1.611-1.356 1.611-2.158 0-.801-.557-1.602-1.611-2.157-1.115-.678-2.602-.986-4.027-.986z" fill="#B1BAC4"/><path d="M161.651 224.25c-.186 0-.372-.185-.372-.37l-.062-14.301c0-.185.186-.37.372-.37s.372.185.372.37l.062 14.301c-.062.185-.186.37-.372.37zM154.34 220.058c-.062 0-.124 0-.186-.062-.186-.123-.248-.308-.124-.493.434-.678.929-2.527 1.177-7.458.124-2.959.124-5.671.124-5.733 0-.185.124-.37.372-.37.186 0 .372.185.372.37 0 0 .062 2.774-.124 5.733-.186 4.068-.62 6.718-1.301 7.766-.062.185-.186.247-.31.247zM168.776 220.058a.34.34 0 01-.309-.185c-.62-1.11-1.054-3.698-1.302-7.767-.124-3.02-.123-5.732-.123-5.732 0-.185.185-.37.371-.37s.372.185.372.37c0 0-.062 2.712.124 5.732.248 4.931.805 6.781 1.177 7.459.124.185.062.37-.124.493-.062-.062-.124 0-.186 0z" fill="#B1BAC4"/><path d="M161.651 210.134c3.73 0 6.753-1.739 6.753-3.884 0-2.144-3.023-3.883-6.753-3.883s-6.754 1.739-6.754 3.883c0 2.145 3.024 3.884 6.754 3.884z" fill="#A2AEBA"/><path d="M168.404 204.093c0-.986-.681-1.973-1.982-2.774-2.665-1.541-6.94-1.541-9.604 0-1.301.74-1.983 1.788-1.983 2.774s.682 1.972 1.983 2.774c2.664 1.541 6.939 1.541 9.604 0 1.301-.74 1.982-1.788 1.982-2.774 0 .061 0 .061 0 0 0 .061 0 .061 0 0 0 .061 0 .061 0 0 0 .061 0 .061 0 0 0 .061 0 0 0 0z" fill="#B02727"/><path d="M161.651 207.976c3.73 0 6.753-1.738 6.753-3.883s-3.023-3.883-6.753-3.883-6.754 1.738-6.754 3.883 3.024 3.883 6.754 3.883z" fill="#E65353"/><path fill-rule="evenodd" clip-rule="evenodd" d="M181.168 187.82l.185 1.294-.247 7.828-9.356-5.362v-9.123l9.418 5.363z" fill="#D1B68A"/><path fill-rule="evenodd" clip-rule="evenodd" d="M181.168 187.82l8.86-5.117-.062 9.123-8.86 5.117.062-9.123z" fill="#C4A676"/><path fill-rule="evenodd" clip-rule="evenodd" d="M171.75 182.457l8.86-5.116 9.418 5.362-8.86 5.117-9.418-5.363z" fill="#C1A963"/><path fill-rule="evenodd" clip-rule="evenodd" d="M181.354 186.957l-.248 1.726-9.79-5.61v-1.602l10.038 5.486z" fill="#DBC49E"/><path fill-rule="evenodd" clip-rule="evenodd" d="M177.017 186.71v1.664l3.222 1.788v-1.664l-3.222-1.788z" fill="#F0F0F0"/><path fill-rule="evenodd" clip-rule="evenodd" d="M179.619 188.436l.372.185v1.233l-.372-.185v-1.233zm-2.355-.185v-1.233l.31.185v1.233l-.31-.185zm.62.37v-1.233l.31.185v1.233l-.31-.185zm.62.37v-1.233l.309.185v1.232l-.309-.184zm.557.308v-1.233l.31.185v1.233l-.31-.185z" fill="#8A888B"/><path fill-rule="evenodd" clip-rule="evenodd" d="M181.106 187.08l9.356-5.363v1.603l-9.356 5.363v-1.603z" fill="#D1B68A"/><path fill-rule="evenodd" clip-rule="evenodd" d="M171.316 181.471l9.294-5.425 9.852 5.671-9.356 5.363-9.79-5.609z" fill="#EDDDC4"/><path fill-rule="evenodd" clip-rule="evenodd" d="M181.414 177.649l.124.925-.124 5.547-6.753-3.822.062-6.533 6.691 3.883z" fill="#D1B68A"/><path fill-rule="evenodd" clip-rule="evenodd" d="M181.416 177.649l6.32-3.699v6.534l-6.32 3.637v-6.472z" fill="#C4A676"/><path fill-rule="evenodd" clip-rule="evenodd" d="M174.722 173.765l6.32-3.636 6.692 3.821-6.32 3.699-6.692-3.884z" fill="#C1A963"/><path fill-rule="evenodd" clip-rule="evenodd" d="M181.54 176.971l-.124 1.294-7.063-4.068v-1.11l7.187 3.884z" fill="#DBC49E"/><path fill-rule="evenodd" clip-rule="evenodd" d="M178.442 176.786v1.232l2.292 1.295v-1.171l-2.292-1.356z" fill="#E7EEF6"/><path fill-rule="evenodd" clip-rule="evenodd" d="M180.363 178.019l.248.123v.863l-.248-.123v-.863zm-1.735-.062v-.863l.248.123v.863l-.248-.123zm.434.247v-.863l.247.123v.863l-.247-.123zm.433.246v-.863l.248.123v.863l-.248-.123zm.434.247v-.863l.248.123v.863l-.248-.123z" fill="#8A888B"/><path fill-rule="evenodd" clip-rule="evenodd" d="M181.416 177.094l6.63-3.822v1.11l-6.63 3.883v-1.171z" fill="#D1B68A"/><path fill-rule="evenodd" clip-rule="evenodd" d="M174.353 173.087l6.691-3.883 7.002 4.068-6.63 3.822-7.063-4.007z" fill="#EDDDC4"/><path fill-rule="evenodd" clip-rule="evenodd" d="M68.959 85.25l.124.924-.186 5.609-6.692-3.883v-6.473l6.754 3.822z" fill="#D1B68A"/><path fill-rule="evenodd" clip-rule="evenodd" d="M68.96 85.25l6.32-3.638v6.473l-6.382 3.698.062-6.534z" fill="#C4A676"/><path fill-rule="evenodd" clip-rule="evenodd" d="M62.205 81.427l6.382-3.698 6.692 3.883-6.32 3.637-6.754-3.822z" fill="#C1A963"/><path fill-rule="evenodd" clip-rule="evenodd" d="M69.084 84.633l-.186 1.233-7.001-4.007v-1.171l7.187 3.945z" fill="#DBC49E"/><path fill-rule="evenodd" clip-rule="evenodd" d="M65.986 84.448v1.171l2.293 1.294v-1.17l-2.293-1.295z" fill="#E7EEF6"/><path fill-rule="evenodd" clip-rule="evenodd" d="M67.845 85.68l.248.124v.863l-.248-.123v-.863zm-1.673-.123v-.862l.248.123v.863l-.248-.124zm.434.247v-.863l.248.123v.863l-.248-.123zm.434.247v-.863l.248.123v.863l-.248-.123zm.433.246v-.863l.248.123v.863l-.248-.123z" fill="#8A888B"/><path fill-rule="evenodd" clip-rule="evenodd" d="M68.898 84.694l6.692-3.821v1.17l-6.692 3.823v-1.172z" fill="#D1B68A"/><path fill-rule="evenodd" clip-rule="evenodd" d="M61.897 80.688l6.692-3.884 7 4.069-6.69 3.822-7.002-4.007z" fill="#EDDDC4"/></g><defs><clipPath id="asclip0"><path fill="#fff" d="M0 0h272v259.446H0z"/></clipPath></defs></svg>