<?xml version="1.0" encoding="utf-8"?><svg width="48" height="48" fill="none" xmlns="http://www.w3.org/2000/svg" viewBox="0 0 48 48"><path d="M47 22.95v-.2c0-.05 0-.05-.05-.1v-.05l-.05-.05v-.05l-.05-.05v-.05l-.05-.05c0-.05-.05-.05-.05-.1v-.05l-9.25-9.05V9.8v-.2c0-.1-.05-.15-.1-.25 0 0 0-.05-.05-.05-.05-.05-.1-.15-.15-.2l-7.75-7.8c-.05-.05-.15-.1-.2-.15l-.05-.05c-.1-.05-.15-.1-.25-.1h-15.7c-1.5 0-2.75 1.2-2.75 2.7V13.15L1.3 22.3l-.05.05-.05.05s0 .05-.05.05V22.6l-.05.05V23H1v21c0 1.65 1.35 3 3 3h40c1.65 0 3-1.35 3-3V22.95c0 .05 0 .05 0 0zm-2.65-.2L37.5 26.5V15.95l6.85 6.8zM29.75 4.4l4.35 4.35h-3.95c-.25 0-.4-.2-.4-.4V4.4zM12.5 3.75c0-.4.3-.75.75-.75h14.5v5.35a2.4 2.4 0 002.4 2.4h5.35V27.6L24 33.85 12.5 27.6V3.75zm-2 22.75l-6.85-3.75 6.85-6.8V26.5zM44 45H4c-.55 0-1-.45-1-1V24.7l20.5 11.2c.3.15.65.15.95 0L45 24.7V44c0 .55-.45 1-1 1z" fill="currentColor"/></svg>