<?xml version="1.0" encoding="utf-8"?><svg width="52" height="48" fill="none" xmlns="http://www.w3.org/2000/svg" viewBox="0 0 52 48"><path d="M50.242 11.084H38.88V3.758A.758.758 0 0038.12 3H1.758A.758.758 0 001 3.758v34.357a6.83 6.83 0 006.818 6.82h36.364A6.825 6.825 0 0051 38.115V11.842a.758.758 0 00-.758-.758zM7.818 43.42a5.308 5.308 0 01-5.303-5.305v-33.6h34.849v33.6a6.812 6.812 0 002.542 5.305H7.818zm41.667-5.305a5.296 5.296 0 01-4.857 5.26c-.15.012-.294.045-.446.045-.137 0-.265-.03-.4-.04a5.264 5.264 0 01-4.903-5.265V12.6h10.606v25.515z" fill="currentColor"/><path d="M30.036 32.808H9.464c-.205 0-.401.101-.546.281-.144.18-.226.425-.226.68 0 .255.082.5.226.68.145.18.341.282.546.282h20.572c.205 0 .401-.102.546-.282.145-.18.226-.425.226-.68 0-.255-.081-.5-.226-.68a.704.704 0 00-.546-.281zM30.036 27.038H9.464c-.205 0-.401.102-.546.282-.144.18-.226.425-.226.68 0 .255.082.5.226.68.145.18.341.282.546.282h20.572c.205 0 .401-.102.546-.282.145-.18.226-.425.226-.68 0-.255-.081-.5-.226-.68a.704.704 0 00-.546-.282zM30.036 21.27H9.464c-.205 0-.401.1-.546.28-.144.181-.226.426-.226.68 0 .256.082.5.226.68.145.181.341.282.546.282h20.572c.205 0 .401-.101.546-.281.145-.18.226-.425.226-.68 0-.255-.081-.5-.226-.68a.704.704 0 00-.546-.282zM30.036 9.73H9.464c-.205 0-.4.084-.546.231a.795.795 0 00-.226.556v4.196c0 .209.082.409.226.557.145.147.341.23.546.23h20.572c.205 0 .401-.083.546-.23a.795.795 0 00.226-.557v-4.195a.795.795 0 00-.226-.557.764.764 0 00-.546-.23zm-.771 4.197h-19.03v-2.623h19.03v2.623z" fill="currentColor"/></svg>