<?xml version="1.0" encoding="utf-8"?><svg width="52" height="48" fill="none" xmlns="http://www.w3.org/2000/svg" viewBox="0 0 52 48"><path d="M37.11 10.671l.19.758h7.864A4.836 4.836 0 0150 16.265v23.161a4.836 4.836 0 01-4.836 4.836H6.836A4.836 4.836 0 012 39.426V16.264a4.836 4.836 0 014.836-4.835H14.7l.19-.758.753-3.01s0 0 0 0 0 0 0 0A4.835 4.835 0 0120.333 4h11.333a4.835 4.835 0 014.691 3.66l.753 3.011z" stroke="currentColor" stroke-width="2"/><path d="M20.983 19.556a9.578 9.578 0 015.319-1.614 9.612 9.612 0 019.578 9.579 9.577 9.577 0 11-14.897-7.965z" stroke="currentColor" stroke-width="2"/></svg>