<?xml version="1.0" encoding="utf-8"?><svg width="52" height="49" fill="none" xmlns="http://www.w3.org/2000/svg" viewBox="0 0 52 49"><path d="M39.9 6.5c1.8 1.7 3.2 3.8 4.2 6.1s1.5 4.8 1.5 7.2c0 2.5-.5 4.9-1.5 7.2s-2.4 4.4-4.2 6.1L26.3 46.6 12.7 33.2c-1.8-1.7-3.2-3.8-4.2-6.1S7 22.3 7 19.9c0-2.5.5-4.9 1.5-7.2s2.4-4.4 4.2-6.1c7.5-7.4 19.7-7.4 27.2-.1zM21.1 25.4c1.4 1.4 3.2 2.1 5.2 2.1s3.8-.8 5.2-2.1c1.4-1.4 2.1-3.2 2.1-5.2s-.8-3.8-2.1-5.2c-1.4-1.4-3.2-2.1-5.2-2.1s-3.8.8-5.2 2.1c-1.4 1.4-2.1 3.2-2.1 5.2s.8 3.8 2.1 5.2z" stroke="currentColor" stroke-width="2"/></svg>